%TF.GenerationSoftware,KiCad,Pcbnew,9.0.0*%
%TF.CreationDate,2026-03-07T19:41:21-05:00*%
%TF.ProjectId,chassis v2 daughterboard,63686173-7369-4732-9076-322064617567,rev?*%
%TF.SameCoordinates,Original*%
%TF.FileFunction,Soldermask,Top*%
%TF.FilePolarity,Negative*%
%FSLAX46Y46*%
G04 Gerber Fmt 4.6, Leading zero omitted, Abs format (unit mm)*
G04 Created by KiCad (PCBNEW 9.0.0) date 2026-03-07 19:41:21*
%MOMM*%
%LPD*%
G01*
G04 APERTURE LIST*
G04 Aperture macros list*
%AMRoundRect*
0 Rectangle with rounded corners*
0 $1 Rounding radius*
0 $2 $3 $4 $5 $6 $7 $8 $9 X,Y pos of 4 corners*
0 Add a 4 corners polygon primitive as box body*
4,1,4,$2,$3,$4,$5,$6,$7,$8,$9,$2,$3,0*
0 Add four circle primitives for the rounded corners*
1,1,$1+$1,$2,$3*
1,1,$1+$1,$4,$5*
1,1,$1+$1,$6,$7*
1,1,$1+$1,$8,$9*
0 Add four rect primitives between the rounded corners*
20,1,$1+$1,$2,$3,$4,$5,0*
20,1,$1+$1,$4,$5,$6,$7,0*
20,1,$1+$1,$6,$7,$8,$9,0*
20,1,$1+$1,$8,$9,$2,$3,0*%
G04 Aperture macros list end*
%ADD10C,4.300000*%
%ADD11RoundRect,0.102000X0.838200X-0.838200X0.838200X0.838200X-0.838200X0.838200X-0.838200X-0.838200X0*%
%ADD12C,1.880400*%
%ADD13RoundRect,0.250000X0.615000X-0.265000X0.615000X0.265000X-0.615000X0.265000X-0.615000X-0.265000X0*%
%ADD14O,1.730000X1.030000*%
%ADD15RoundRect,0.250000X0.702500X-0.800000X0.702500X0.800000X-0.702500X0.800000X-0.702500X-0.800000X0*%
%ADD16RoundRect,0.262467X0.737533X-0.787533X0.737533X0.787533X-0.737533X0.787533X-0.737533X-0.787533X0*%
%ADD17R,1.700000X1.700000*%
%ADD18O,1.700000X1.700000*%
G04 APERTURE END LIST*
D10*
%TO.C,REF\u002A\u002A*%
X212000000Y-106500000D03*
%TD*%
D11*
%TO.C,U2*%
X181760000Y-109500000D03*
D12*
X184300000Y-109500000D03*
X186840000Y-109500000D03*
X189380000Y-109500000D03*
X191920000Y-109500000D03*
X194460000Y-109500000D03*
X197000000Y-109500000D03*
X199540000Y-109500000D03*
X199540000Y-101880000D03*
X197000000Y-101880000D03*
X194460000Y-101880000D03*
X191920000Y-101880000D03*
X189380000Y-101880000D03*
X186840000Y-101880000D03*
X184300000Y-101880000D03*
X181760000Y-101880000D03*
%TD*%
D13*
%TO.C,CN27*%
X208950000Y-84950000D03*
D14*
X208950000Y-83450000D03*
%TD*%
D15*
%TO.C,Q9*%
X150495000Y-96590000D03*
D16*
X150495000Y-94050000D03*
X150495000Y-91510000D03*
%TD*%
D15*
%TO.C,Q6*%
X117495000Y-97390000D03*
D16*
X117495000Y-94850000D03*
X117495000Y-92310000D03*
%TD*%
D15*
%TO.C,Q4*%
X95145000Y-96540000D03*
D16*
X95145000Y-94000000D03*
X95145000Y-91460000D03*
%TD*%
D13*
%TO.C,CN21*%
X175800000Y-85050000D03*
D14*
X175800000Y-83550000D03*
%TD*%
D17*
%TO.C,CN18*%
X149550000Y-86785000D03*
D18*
X149550000Y-84245000D03*
%TD*%
D13*
%TO.C,CN11*%
X121600000Y-85100000D03*
D14*
X121600000Y-83600000D03*
%TD*%
D17*
%TO.C,CN26*%
X193550000Y-86265000D03*
D18*
X193550000Y-83725000D03*
%TD*%
D13*
%TO.C,CN19*%
X165050000Y-84750000D03*
D14*
X165050000Y-83250000D03*
%TD*%
D15*
%TO.C,Q3*%
X83545000Y-96340000D03*
D16*
X83545000Y-93800000D03*
X83545000Y-91260000D03*
%TD*%
D13*
%TO.C,CN5*%
X88400000Y-84700000D03*
D14*
X88400000Y-83200000D03*
%TD*%
D17*
%TO.C,J3*%
X223880000Y-103500000D03*
D18*
X223880000Y-100960000D03*
X226420000Y-103500000D03*
X226420000Y-100960000D03*
X228960000Y-103500000D03*
X228960000Y-100960000D03*
X231500000Y-103500000D03*
X231500000Y-100960000D03*
%TD*%
D13*
%TO.C,CN31*%
X230800000Y-85300000D03*
D14*
X230800000Y-83800000D03*
%TD*%
D17*
%TO.C,CN16*%
X138070000Y-86855000D03*
D18*
X138070000Y-84315000D03*
%TD*%
D17*
%TO.C,CN12*%
X116550000Y-86285000D03*
D18*
X116550000Y-83745000D03*
%TD*%
D15*
%TO.C,Q11*%
X172150000Y-96100000D03*
D16*
X172150000Y-93560000D03*
X172150000Y-91020000D03*
%TD*%
D15*
%TO.C,Q12*%
X183400000Y-95930000D03*
D16*
X183400000Y-93390000D03*
X183400000Y-90850000D03*
%TD*%
D17*
%TO.C,J4*%
X237500000Y-100280000D03*
D18*
X237500000Y-97740000D03*
X237500000Y-95200000D03*
X237500000Y-92660000D03*
X237500000Y-90120000D03*
X237500000Y-87580000D03*
X237500000Y-85040000D03*
X237500000Y-82500000D03*
%TD*%
D13*
%TO.C,CN13*%
X132150000Y-84950000D03*
D14*
X132150000Y-83450000D03*
%TD*%
D17*
%TO.C,CN10*%
X105050000Y-86510000D03*
D18*
X105050000Y-83970000D03*
%TD*%
D17*
%TO.C,CN32*%
X226050000Y-86422500D03*
D18*
X226050000Y-83882500D03*
%TD*%
D15*
%TO.C,Q1*%
X63795000Y-96190000D03*
D16*
X63795000Y-93650000D03*
X63795000Y-91110000D03*
%TD*%
D15*
%TO.C,Q14*%
X205895000Y-95990000D03*
D16*
X205895000Y-93450000D03*
X205895000Y-90910000D03*
%TD*%
D13*
%TO.C,CN17*%
X154500000Y-84700000D03*
D14*
X154500000Y-83200000D03*
%TD*%
D15*
%TO.C,Q15*%
X216300000Y-95880000D03*
D16*
X216300000Y-93340000D03*
X216300000Y-90800000D03*
%TD*%
D13*
%TO.C,CN23*%
X187400000Y-84600000D03*
D14*
X187400000Y-83100000D03*
%TD*%
D13*
%TO.C,CN15*%
X143150000Y-84600000D03*
D14*
X143150000Y-83100000D03*
%TD*%
D17*
%TO.C,CN30*%
X215550000Y-86285000D03*
D18*
X215550000Y-83745000D03*
%TD*%
D17*
%TO.C,CN20*%
X160550000Y-86275000D03*
D18*
X160550000Y-83735000D03*
%TD*%
D15*
%TO.C,Q5*%
X105995000Y-96340000D03*
D16*
X105995000Y-93800000D03*
X105995000Y-91260000D03*
%TD*%
D13*
%TO.C,CN9*%
X109850000Y-84600000D03*
D14*
X109850000Y-83100000D03*
%TD*%
D15*
%TO.C,Q16*%
X227650000Y-96050000D03*
D16*
X227650000Y-93510000D03*
X227650000Y-90970000D03*
%TD*%
D17*
%TO.C,J2*%
X69190000Y-101650000D03*
D18*
X69190000Y-104190000D03*
X66650000Y-101650000D03*
X66650000Y-104190000D03*
X64110000Y-101650000D03*
X64110000Y-104190000D03*
X61570000Y-101650000D03*
X61570000Y-104190000D03*
%TD*%
D17*
%TO.C,CN22*%
X171050000Y-86422500D03*
D18*
X171050000Y-83882500D03*
%TD*%
D17*
%TO.C,CN24*%
X182050000Y-86275000D03*
D18*
X182050000Y-83735000D03*
%TD*%
D15*
%TO.C,Q2*%
X72945000Y-96340000D03*
D16*
X72945000Y-93800000D03*
X72945000Y-91260000D03*
%TD*%
D15*
%TO.C,Q10*%
X161495000Y-95940000D03*
D16*
X161495000Y-93400000D03*
X161495000Y-90860000D03*
%TD*%
D15*
%TO.C,Q8*%
X138995000Y-96590000D03*
D16*
X138995000Y-94050000D03*
X138995000Y-91510000D03*
%TD*%
D17*
%TO.C,CN14*%
X127550000Y-86515000D03*
D18*
X127550000Y-83975000D03*
%TD*%
D10*
%TO.C,REF\u002A\u002A*%
X126800000Y-106400000D03*
%TD*%
D13*
%TO.C,CN7*%
X99300000Y-85500000D03*
D14*
X99300000Y-84000000D03*
%TD*%
D17*
%TO.C,CN28*%
X204050000Y-86275000D03*
D18*
X204050000Y-83735000D03*
%TD*%
D13*
%TO.C,CN29*%
X220400000Y-84850000D03*
D14*
X220400000Y-83350000D03*
%TD*%
D15*
%TO.C,Q7*%
X127595000Y-96540000D03*
D16*
X127595000Y-94000000D03*
X127595000Y-91460000D03*
%TD*%
D17*
%TO.C,CN2*%
X62050000Y-86510000D03*
D18*
X62050000Y-83970000D03*
%TD*%
D17*
%TO.C,J1*%
X56550000Y-100280000D03*
D18*
X56550000Y-97740000D03*
X56550000Y-95200000D03*
X56550000Y-92660000D03*
X56550000Y-90120000D03*
X56550000Y-87580000D03*
X56550000Y-85040000D03*
X56550000Y-82500000D03*
%TD*%
D17*
%TO.C,CN6*%
X83050000Y-86535000D03*
D18*
X83050000Y-83995000D03*
%TD*%
D13*
%TO.C,CN25*%
X198150000Y-84900000D03*
D14*
X198150000Y-83400000D03*
%TD*%
D15*
%TO.C,Q13*%
X195245000Y-95990000D03*
D16*
X195245000Y-93450000D03*
X195245000Y-90910000D03*
%TD*%
D11*
%TO.C,U1*%
X97720000Y-109620000D03*
D12*
X100260000Y-109620000D03*
X102800000Y-109620000D03*
X105340000Y-109620000D03*
X107880000Y-109620000D03*
X110420000Y-109620000D03*
X112960000Y-109620000D03*
X115500000Y-109620000D03*
X115500000Y-102000000D03*
X112960000Y-102000000D03*
X110420000Y-102000000D03*
X107880000Y-102000000D03*
X105340000Y-102000000D03*
X102800000Y-102000000D03*
X100260000Y-102000000D03*
X97720000Y-102000000D03*
%TD*%
D17*
%TO.C,CN4*%
X72050000Y-86685000D03*
D18*
X72050000Y-84145000D03*
%TD*%
D13*
%TO.C,CN3*%
X76600000Y-85000000D03*
D14*
X76600000Y-83500000D03*
%TD*%
D13*
%TO.C,CN1*%
X66450000Y-84950000D03*
D14*
X66450000Y-83450000D03*
%TD*%
D17*
%TO.C,CN8*%
X94345000Y-86785000D03*
D18*
X94345000Y-84245000D03*
%TD*%
M02*
