M48
; DRILL file {KiCad 9.0.0} date 2026-03-07T19:41:27-0500
; FORMAT={-:-/ absolute / metric / decimal}
; #@! TF.CreationDate,2026-03-07T19:41:27-05:00
; #@! TF.GenerationSoftware,Kicad,Pcbnew,9.0.0
; #@! TF.FileFunction,Plated,1,2,PTH
FMAT,2
METRIC
; #@! TA.AperFunction,Plated,PTH,ViaDrill
T1C0.300
; #@! TA.AperFunction,Plated,PTH,ComponentDrill
T2C0.730
; #@! TA.AperFunction,Plated,PTH,ComponentDrill
T3C1.000
; #@! TA.AperFunction,Plated,PTH,ComponentDrill
T4C1.100
; #@! TA.AperFunction,Plated,PTH,ComponentDrill
T5C1.118
%
G90
G05
T1
X86.0Y-107.0
X93.5Y-104.5
X95.0Y-102.5
X110.0Y-99.5
X125.0Y-92.25
X172.5Y-102.5
X180.0Y-100.2
X216.933Y-102.367
T2
X66.45Y-83.45
X66.45Y-84.95
X76.6Y-83.5
X76.6Y-85.0
X88.4Y-83.2
X88.4Y-84.7
X99.3Y-84.0
X99.3Y-85.5
X109.85Y-83.1
X109.85Y-84.6
X121.6Y-83.6
X121.6Y-85.1
X132.15Y-83.45
X132.15Y-84.95
X143.15Y-83.1
X143.15Y-84.6
X154.5Y-83.2
X154.5Y-84.7
X165.05Y-83.25
X165.05Y-84.75
X175.8Y-83.55
X175.8Y-85.05
X187.4Y-83.1
X187.4Y-84.6
X198.15Y-83.4
X198.15Y-84.9
X208.95Y-83.45
X208.95Y-84.95
X220.4Y-83.35
X220.4Y-84.85
X230.8Y-83.8
X230.8Y-85.3
T3
X56.55Y-82.5
X56.55Y-85.04
X56.55Y-87.58
X56.55Y-90.12
X56.55Y-92.66
X56.55Y-95.2
X56.55Y-97.74
X56.55Y-100.28
X61.57Y-101.65
X61.57Y-104.19
X62.05Y-83.97
X62.05Y-86.51
X64.11Y-101.65
X64.11Y-104.19
X66.65Y-101.65
X66.65Y-104.19
X69.19Y-101.65
X69.19Y-104.19
X72.05Y-84.145
X72.05Y-86.685
X83.05Y-83.995
X83.05Y-86.535
X94.345Y-84.245
X94.345Y-86.785
X105.05Y-83.97
X105.05Y-86.51
X116.55Y-83.745
X116.55Y-86.285
X127.55Y-83.975
X127.55Y-86.515
X138.07Y-84.315
X138.07Y-86.855
X149.55Y-84.245
X149.55Y-86.785
X160.55Y-83.735
X160.55Y-86.275
X171.05Y-83.882
X171.05Y-86.422
X182.05Y-83.735
X182.05Y-86.275
X193.55Y-83.725
X193.55Y-86.265
X204.05Y-83.735
X204.05Y-86.275
X215.55Y-83.745
X215.55Y-86.285
X223.88Y-100.96
X223.88Y-103.5
X226.05Y-83.882
X226.05Y-86.422
X226.42Y-100.96
X226.42Y-103.5
X228.96Y-100.96
X228.96Y-103.5
X231.5Y-100.96
X231.5Y-103.5
X237.5Y-82.5
X237.5Y-85.04
X237.5Y-87.58
X237.5Y-90.12
X237.5Y-92.66
X237.5Y-95.2
X237.5Y-97.74
X237.5Y-100.28
T5
X97.72Y-102.0
X97.72Y-109.62
X100.26Y-102.0
X100.26Y-109.62
X102.8Y-102.0
X102.8Y-109.62
X105.34Y-102.0
X105.34Y-109.62
X107.88Y-102.0
X107.88Y-109.62
X110.42Y-102.0
X110.42Y-109.62
X112.96Y-102.0
X112.96Y-109.62
X115.5Y-102.0
X115.5Y-109.62
X181.76Y-101.88
X181.76Y-109.5
X184.3Y-101.88
X184.3Y-109.5
X186.84Y-101.88
X186.84Y-109.5
X189.38Y-101.88
X189.38Y-109.5
X191.92Y-101.88
X191.92Y-109.5
X194.46Y-101.88
X194.46Y-109.5
X197.0Y-101.88
X197.0Y-109.5
X199.54Y-101.88
X199.54Y-109.5
T4
G00X63.795Y-91.46
M15
G01X63.795Y-90.76
M16
G05
G00X63.795Y-94.0
M15
G01X63.795Y-93.3
M16
G05
G00X63.795Y-96.54
M15
G01X63.795Y-95.84
M16
G05
G00X72.945Y-91.61
M15
G01X72.945Y-90.91
M16
G05
G00X72.945Y-94.15
M15
G01X72.945Y-93.45
M16
G05
G00X72.945Y-96.69
M15
G01X72.945Y-95.99
M16
G05
G00X83.545Y-91.61
M15
G01X83.545Y-90.91
M16
G05
G00X83.545Y-94.15
M15
G01X83.545Y-93.45
M16
G05
G00X83.545Y-96.69
M15
G01X83.545Y-95.99
M16
G05
G00X95.145Y-91.81
M15
G01X95.145Y-91.11
M16
G05
G00X95.145Y-94.35
M15
G01X95.145Y-93.65
M16
G05
G00X95.145Y-96.89
M15
G01X95.145Y-96.19
M16
G05
G00X105.995Y-91.61
M15
G01X105.995Y-90.91
M16
G05
G00X105.995Y-94.15
M15
G01X105.995Y-93.45
M16
G05
G00X105.995Y-96.69
M15
G01X105.995Y-95.99
M16
G05
G00X117.495Y-92.66
M15
G01X117.495Y-91.96
M16
G05
G00X117.495Y-95.2
M15
G01X117.495Y-94.5
M16
G05
G00X117.495Y-97.74
M15
G01X117.495Y-97.04
M16
G05
G00X127.595Y-91.81
M15
G01X127.595Y-91.11
M16
G05
G00X127.595Y-94.35
M15
G01X127.595Y-93.65
M16
G05
G00X127.595Y-96.89
M15
G01X127.595Y-96.19
M16
G05
G00X138.995Y-91.86
M15
G01X138.995Y-91.16
M16
G05
G00X138.995Y-94.4
M15
G01X138.995Y-93.7
M16
G05
G00X138.995Y-96.94
M15
G01X138.995Y-96.24
M16
G05
G00X150.495Y-91.86
M15
G01X150.495Y-91.16
M16
G05
G00X150.495Y-94.4
M15
G01X150.495Y-93.7
M16
G05
G00X150.495Y-96.94
M15
G01X150.495Y-96.24
M16
G05
G00X161.495Y-91.21
M15
G01X161.495Y-90.51
M16
G05
G00X161.495Y-93.75
M15
G01X161.495Y-93.05
M16
G05
G00X161.495Y-96.29
M15
G01X161.495Y-95.59
M16
G05
G00X172.15Y-91.37
M15
G01X172.15Y-90.67
M16
G05
G00X172.15Y-93.91
M15
G01X172.15Y-93.21
M16
G05
G00X172.15Y-96.45
M15
G01X172.15Y-95.75
M16
G05
G00X183.4Y-91.2
M15
G01X183.4Y-90.5
M16
G05
G00X183.4Y-93.74
M15
G01X183.4Y-93.04
M16
G05
G00X183.4Y-96.28
M15
G01X183.4Y-95.58
M16
G05
G00X195.245Y-91.26
M15
G01X195.245Y-90.56
M16
G05
G00X195.245Y-93.8
M15
G01X195.245Y-93.1
M16
G05
G00X195.245Y-96.34
M15
G01X195.245Y-95.64
M16
G05
G00X205.895Y-91.26
M15
G01X205.895Y-90.56
M16
G05
G00X205.895Y-93.8
M15
G01X205.895Y-93.1
M16
G05
G00X205.895Y-96.34
M15
G01X205.895Y-95.64
M16
G05
G00X216.3Y-91.15
M15
G01X216.3Y-90.45
M16
G05
G00X216.3Y-93.69
M15
G01X216.3Y-92.99
M16
G05
G00X216.3Y-96.23
M15
G01X216.3Y-95.53
M16
G05
G00X227.65Y-91.32
M15
G01X227.65Y-90.62
M16
G05
G00X227.65Y-93.86
M15
G01X227.65Y-93.16
M16
G05
G00X227.65Y-96.4
M15
G01X227.65Y-95.7
M16
G05
M30
