%TF.GenerationSoftware,KiCad,Pcbnew,9.0.0*%
%TF.CreationDate,2026-03-07T19:41:21-05:00*%
%TF.ProjectId,chassis v2 daughterboard,63686173-7369-4732-9076-322064617567,rev?*%
%TF.SameCoordinates,Original*%
%TF.FileFunction,Paste,Bot*%
%TF.FilePolarity,Positive*%
%FSLAX46Y46*%
G04 Gerber Fmt 4.6, Leading zero omitted, Abs format (unit mm)*
G04 Created by KiCad (PCBNEW 9.0.0) date 2026-03-07 19:41:21*
%MOMM*%
%LPD*%
G01*
G04 APERTURE LIST*
G04 Aperture macros list*
%AMRoundRect*
0 Rectangle with rounded corners*
0 $1 Rounding radius*
0 $2 $3 $4 $5 $6 $7 $8 $9 X,Y pos of 4 corners*
0 Add a 4 corners polygon primitive as box body*
4,1,4,$2,$3,$4,$5,$6,$7,$8,$9,$2,$3,0*
0 Add four circle primitives for the rounded corners*
1,1,$1+$1,$2,$3*
1,1,$1+$1,$4,$5*
1,1,$1+$1,$6,$7*
1,1,$1+$1,$8,$9*
0 Add four rect primitives between the rounded corners*
20,1,$1+$1,$2,$3,$4,$5,0*
20,1,$1+$1,$4,$5,$6,$7,0*
20,1,$1+$1,$6,$7,$8,$9,0*
20,1,$1+$1,$8,$9,$2,$3,0*%
G04 Aperture macros list end*
%ADD10RoundRect,0.249999X-1.075001X0.450001X-1.075001X-0.450001X1.075001X-0.450001X1.075001X0.450001X0*%
%ADD11RoundRect,0.250000X-0.300000X-0.300000X0.300000X-0.300000X0.300000X0.300000X-0.300000X0.300000X0*%
G04 APERTURE END LIST*
D10*
%TO.C,R12*%
X188050000Y-93440000D03*
X188050000Y-98240000D03*
%TD*%
%TO.C,R6*%
X121300000Y-92590000D03*
X121300000Y-97390000D03*
%TD*%
D11*
%TO.C,D7*%
X130600000Y-88300000D03*
X133400000Y-88300000D03*
%TD*%
%TO.C,D15*%
X218850000Y-87940000D03*
X221650000Y-87940000D03*
%TD*%
%TO.C,D5*%
X108605000Y-87750000D03*
X111405000Y-87750000D03*
%TD*%
D10*
%TO.C,R4*%
X99500000Y-91800000D03*
X99500000Y-96600000D03*
%TD*%
D11*
%TO.C,D9*%
X152100000Y-88550000D03*
X154900000Y-88550000D03*
%TD*%
%TO.C,D11*%
X174605000Y-88750000D03*
X177405000Y-88750000D03*
%TD*%
D10*
%TO.C,R9*%
X154500000Y-92800000D03*
X154500000Y-97600000D03*
%TD*%
%TO.C,R13*%
X199500000Y-92890000D03*
X199500000Y-97690000D03*
%TD*%
%TO.C,R8*%
X143535000Y-92800000D03*
X143535000Y-97600000D03*
%TD*%
D11*
%TO.C,D10*%
X163150000Y-88590000D03*
X165950000Y-88590000D03*
%TD*%
D10*
%TO.C,R5*%
X110755000Y-92300000D03*
X110755000Y-97100000D03*
%TD*%
%TO.C,R2*%
X77500000Y-91900000D03*
X77500000Y-96700000D03*
%TD*%
D11*
%TO.C,D14*%
X207750000Y-87840000D03*
X210550000Y-87840000D03*
%TD*%
D10*
%TO.C,R10*%
X165515000Y-93185000D03*
X165515000Y-97985000D03*
%TD*%
%TO.C,R3*%
X88500000Y-92400000D03*
X88500000Y-97200000D03*
%TD*%
D11*
%TO.C,D4*%
X97350000Y-87750000D03*
X100150000Y-87750000D03*
%TD*%
D10*
%TO.C,R11*%
X176755000Y-92940000D03*
X176755000Y-97740000D03*
%TD*%
D11*
%TO.C,D2*%
X75350000Y-88750000D03*
X78150000Y-88750000D03*
%TD*%
D10*
%TO.C,R1*%
X67450000Y-92050000D03*
X67450000Y-96850000D03*
%TD*%
D11*
%TO.C,D12*%
X185850000Y-88445000D03*
X188650000Y-88445000D03*
%TD*%
%TO.C,D3*%
X86350000Y-88350000D03*
X89150000Y-88350000D03*
%TD*%
%TO.C,D6*%
X120500000Y-88550000D03*
X123300000Y-88550000D03*
%TD*%
%TO.C,D8*%
X141250000Y-88200000D03*
X144050000Y-88200000D03*
%TD*%
%TO.C,D13*%
X196555000Y-88250000D03*
X199355000Y-88250000D03*
%TD*%
D10*
%TO.C,R14*%
X209950000Y-92240000D03*
X209950000Y-97040000D03*
%TD*%
%TO.C,R7*%
X132000000Y-93060000D03*
X132000000Y-97860000D03*
%TD*%
D11*
%TO.C,D1*%
X64950000Y-88800000D03*
X67750000Y-88800000D03*
%TD*%
D10*
%TO.C,R16*%
X231855000Y-92147500D03*
X231855000Y-96947500D03*
%TD*%
%TO.C,R15*%
X220500000Y-91990000D03*
X220500000Y-96790000D03*
%TD*%
D11*
%TO.C,D16*%
X229705000Y-88097500D03*
X232505000Y-88097500D03*
%TD*%
M02*
