M48
; DRILL file {KiCad 8.0.4} date 2025-02-09T16:53:56-0500
; FORMAT={-:-/ absolute / metric / decimal}
; #@! TF.CreationDate,2025-02-09T16:53:56-05:00
; #@! TF.GenerationSoftware,Kicad,Pcbnew,8.0.4
; #@! TF.FileFunction,Plated,1,2,PTH
FMAT,2
METRIC
; #@! TA.AperFunction,Plated,PTH,ViaDrill
T1C0.300
; #@! TA.AperFunction,Plated,PTH,ComponentDrill
T2C0.762
; #@! TA.AperFunction,Plated,PTH,ComponentDrill
T3C0.800
; #@! TA.AperFunction,Plated,PTH,ComponentDrill
T4C0.900
; #@! TA.AperFunction,Plated,PTH,ComponentDrill
T5C1.000
; #@! TA.AperFunction,Plated,PTH,ComponentDrill
T6C1.100
; #@! TA.AperFunction,Plated,PTH,ComponentDrill
T7C1.330
; #@! TA.AperFunction,Plated,PTH,ComponentDrill
T8C1.880
; #@! TA.AperFunction,Plated,PTH,ComponentDrill
T9C2.200
%
G90
G05
T1
X115.57Y-95.25
X116.205Y-93.345
X117.475Y-97.155
X118.505Y-108.445
X118.745Y-100.33
X121.285Y-83.82
X124.22Y-98.285
X125.73Y-87.63
X126.056Y-114.164
T2
X79.135Y-90.665
X79.135Y-93.205
X79.135Y-95.745
X103.505Y-92.075
X103.505Y-94.615
X103.505Y-97.155
X103.505Y-99.695
X103.505Y-102.235
X103.505Y-104.775
X103.505Y-107.315
X103.505Y-109.855
X103.505Y-112.395
X103.505Y-114.935
X103.505Y-117.475
X103.505Y-120.015
X133.985Y-92.075
X133.985Y-94.615
X133.985Y-97.155
X133.985Y-99.695
X133.985Y-102.235
X133.985Y-104.775
X133.985Y-107.315
X133.985Y-109.855
X133.985Y-112.395
X133.985Y-114.935
X133.985Y-117.475
X133.985Y-120.015
X133.985Y-122.555
X133.985Y-125.095
X133.985Y-127.635
X133.985Y-130.175
X141.175Y-125.18
X145.175Y-125.18
T3
X88.065Y-94.475
X90.565Y-94.475
X98.82Y-94.25
X98.82Y-99.33
T4
X93.83Y-47.037
X93.83Y-54.657
X93.83Y-58.037
X93.83Y-65.657
X93.83Y-68.657
X93.83Y-76.277
X93.83Y-79.157
X93.83Y-86.777
X98.427Y-44.956
X106.047Y-44.956
X108.927Y-44.956
X116.547Y-44.956
X119.427Y-44.956
X127.047Y-44.956
X129.927Y-44.956
X137.547Y-44.956
X139.445Y-102.46
X142.24Y-46.889
X142.24Y-54.509
X142.24Y-57.579
X142.24Y-65.199
X142.24Y-68.079
X142.24Y-75.699
X142.24Y-78.579
X142.24Y-86.199
X147.065Y-102.46
T5
X83.82Y-51.183
X83.82Y-53.723
X83.82Y-60.157
X83.82Y-62.697
X83.82Y-69.131
X83.82Y-71.671
X83.82Y-78.105
X83.82Y-80.645
X88.9Y-51.183
X88.9Y-53.723
X88.9Y-60.157
X88.9Y-62.697
X88.9Y-69.131
X88.9Y-71.671
X88.9Y-78.105
X88.9Y-80.645
X98.615Y-86.22
X98.615Y-88.76
X103.265Y-86.22
X103.265Y-88.76
X103.972Y-34.925
X103.972Y-40.005
X106.512Y-34.925
X106.512Y-40.005
X108.585Y-92.075
X108.585Y-94.615
X108.585Y-97.155
X108.585Y-99.695
X108.585Y-102.235
X108.585Y-104.775
X108.585Y-107.315
X108.585Y-109.855
X108.585Y-112.395
X108.585Y-114.935
X108.585Y-117.475
X108.585Y-120.015
X112.946Y-34.925
X112.946Y-40.005
X115.486Y-34.925
X115.486Y-40.005
X121.92Y-34.925
X121.92Y-40.005
X124.46Y-34.925
X124.46Y-40.005
X128.905Y-92.075
X128.905Y-94.615
X128.905Y-97.155
X128.905Y-99.695
X128.905Y-102.235
X128.905Y-104.775
X128.905Y-107.315
X128.905Y-109.855
X128.905Y-112.395
X128.905Y-114.935
X128.905Y-117.475
X128.905Y-120.015
X128.905Y-122.555
X128.905Y-125.095
X128.905Y-127.635
X128.905Y-130.175
X130.894Y-34.925
X130.894Y-40.005
X133.434Y-34.925
X133.434Y-40.005
X140.095Y-94.475
X140.095Y-97.015
X145.175Y-94.475
X145.175Y-97.015
X146.621Y-52.598
X146.621Y-55.138
X146.621Y-61.572
X146.621Y-64.112
X146.74Y-70.485
X146.74Y-73.025
X146.74Y-79.459
X146.74Y-81.999
X151.701Y-52.598
X151.701Y-55.138
X151.701Y-61.572
X151.701Y-64.112
X151.82Y-70.485
X151.82Y-73.025
X151.82Y-79.459
X151.82Y-81.999
T6
X99.455Y-67.17
X99.455Y-60.82
X99.455Y-74.155
X99.455Y-80.505
X100.943Y-50.243
X101.995Y-60.82
X101.995Y-67.17
X101.995Y-74.155
X101.995Y-80.505
X102.739Y-52.039
X104.535Y-60.82
X104.535Y-67.17
X104.535Y-53.835
X104.535Y-74.155
X104.535Y-80.505
X112.264Y-50.134
X114.06Y-51.93
X115.856Y-53.726
X123.727Y-55.029
X125.523Y-53.233
X127.319Y-51.437
X131.84Y-63.035
X131.84Y-69.075
X131.84Y-75.425
X131.84Y-81.45
X132.693Y-55.522
X134.38Y-63.035
X134.38Y-69.075
X134.38Y-75.425
X134.38Y-81.45
X134.489Y-53.726
X136.285Y-51.93
X136.92Y-63.035
X136.92Y-69.075
X136.92Y-75.425
X136.92Y-81.45
X140.785Y-109.94
X143.325Y-109.94
X145.865Y-109.94
T7
X81.04Y-155.435
X84.85Y-104.635
X88.66Y-104.635
X88.66Y-155.435
X96.28Y-155.435
T8
X81.04Y-104.635
X96.28Y-104.635
T9
X109.895Y-154.305
X117.395Y-154.305
M30
