%TF.GenerationSoftware,KiCad,Pcbnew,8.0.4*%
%TF.CreationDate,2025-02-09T16:53:56-05:00*%
%TF.ProjectId,Chassis,43686173-7369-4732-9e6b-696361645f70,rev?*%
%TF.SameCoordinates,Original*%
%TF.FileFunction,Copper,L1,Top*%
%TF.FilePolarity,Positive*%
%FSLAX46Y46*%
G04 Gerber Fmt 4.6, Leading zero omitted, Abs format (unit mm)*
G04 Created by KiCad (PCBNEW 8.0.4) date 2025-02-09 16:53:56*
%MOMM*%
%LPD*%
G01*
G04 APERTURE LIST*
G04 Aperture macros list*
%AMRoundRect*
0 Rectangle with rounded corners*
0 $1 Rounding radius*
0 $2 $3 $4 $5 $6 $7 $8 $9 X,Y pos of 4 corners*
0 Add a 4 corners polygon primitive as box body*
4,1,4,$2,$3,$4,$5,$6,$7,$8,$9,$2,$3,0*
0 Add four circle primitives for the rounded corners*
1,1,$1+$1,$2,$3*
1,1,$1+$1,$4,$5*
1,1,$1+$1,$6,$7*
1,1,$1+$1,$8,$9*
0 Add four rect primitives between the rounded corners*
20,1,$1+$1,$2,$3,$4,$5,0*
20,1,$1+$1,$4,$5,$6,$7,0*
20,1,$1+$1,$6,$7,$8,$9,0*
20,1,$1+$1,$8,$9,$2,$3,0*%
%AMHorizOval*
0 Thick line with rounded ends*
0 $1 width*
0 $2 $3 position (X,Y) of the first rounded end (center of the circle)*
0 $4 $5 position (X,Y) of the second rounded end (center of the circle)*
0 Add line between two ends*
20,1,$1,$2,$3,$4,$5,0*
0 Add two circle primitives to create the rounded ends*
1,1,$1,$2,$3*
1,1,$1,$4,$5*%
%AMRotRect*
0 Rectangle, with rotation*
0 The origin of the aperture is its center*
0 $1 length*
0 $2 width*
0 $3 Rotation angle, in degrees counterclockwise*
0 Add horizontal line*
21,1,$1,$2,0,0,$3*%
G04 Aperture macros list end*
%TA.AperFunction,ComponentPad*%
%ADD10C,1.600000*%
%TD*%
%TA.AperFunction,ComponentPad*%
%ADD11R,1.600000X1.600000*%
%TD*%
%TA.AperFunction,ComponentPad*%
%ADD12R,5.000000X5.000000*%
%TD*%
%TA.AperFunction,ComponentPad*%
%ADD13C,5.000000*%
%TD*%
%TA.AperFunction,ComponentPad*%
%ADD14R,1.800000X1.800000*%
%TD*%
%TA.AperFunction,ComponentPad*%
%ADD15O,1.800000X1.800000*%
%TD*%
%TA.AperFunction,ComponentPad*%
%ADD16C,1.900000*%
%TD*%
%TA.AperFunction,ComponentPad*%
%ADD17RoundRect,0.250000X1.050000X0.550000X-1.050000X0.550000X-1.050000X-0.550000X1.050000X-0.550000X0*%
%TD*%
%TA.AperFunction,ComponentPad*%
%ADD18O,2.600000X1.600000*%
%TD*%
%TA.AperFunction,ComponentPad*%
%ADD19O,1.600000X1.600000*%
%TD*%
%TA.AperFunction,ComponentPad*%
%ADD20R,1.995000X1.995000*%
%TD*%
%TA.AperFunction,ComponentPad*%
%ADD21C,1.995000*%
%TD*%
%TA.AperFunction,ComponentPad*%
%ADD22C,2.820000*%
%TD*%
%TA.AperFunction,SMDPad,CuDef*%
%ADD23RoundRect,0.249999X0.450001X1.075001X-0.450001X1.075001X-0.450001X-1.075001X0.450001X-1.075001X0*%
%TD*%
%TA.AperFunction,ComponentPad*%
%ADD24R,1.905000X2.000000*%
%TD*%
%TA.AperFunction,ComponentPad*%
%ADD25O,1.905000X2.000000*%
%TD*%
%TA.AperFunction,ComponentPad*%
%ADD26C,1.524000*%
%TD*%
%TA.AperFunction,ComponentPad*%
%ADD27R,1.700000X1.700000*%
%TD*%
%TA.AperFunction,ComponentPad*%
%ADD28O,1.700000X1.700000*%
%TD*%
%TA.AperFunction,ComponentPad*%
%ADD29R,1.524000X1.524000*%
%TD*%
%TA.AperFunction,ComponentPad*%
%ADD30RotRect,1.905000X2.000000X45.000000*%
%TD*%
%TA.AperFunction,ComponentPad*%
%ADD31HorizOval,1.905000X-0.033588X0.033588X0.033588X-0.033588X0*%
%TD*%
%TA.AperFunction,ComponentPad*%
%ADD32HorizOval,1.905000X0.033588X0.033588X-0.033588X-0.033588X0*%
%TD*%
%TA.AperFunction,ComponentPad*%
%ADD33RotRect,1.905000X2.000000X135.000000*%
%TD*%
%TA.AperFunction,ViaPad*%
%ADD34C,0.600000*%
%TD*%
%TA.AperFunction,Conductor*%
%ADD35C,0.500000*%
%TD*%
%TA.AperFunction,Conductor*%
%ADD36C,2.000000*%
%TD*%
%TA.AperFunction,Conductor*%
%ADD37C,1.000000*%
%TD*%
%ADD38C,0.300000*%
%ADD39C,0.350000*%
G04 APERTURE END LIST*
D10*
%TO.P,C1,1*%
%TO.N,pos*%
X88065000Y-94475000D03*
D11*
%TO.P,C1,2*%
%TO.N,gnd*%
X90565000Y-94475000D03*
%TD*%
D12*
%TO.P,BT1,1,+*%
%TO.N,Net-(BT1-+)*%
X109895000Y-154305000D03*
D13*
%TO.P,BT1,2,-*%
%TO.N,Net-(BT1--)*%
X117395000Y-154305000D03*
%TD*%
D14*
%TO.P,D12,1,K*%
%TO.N,pos*%
X142240000Y-57579000D03*
D15*
%TO.P,D12,2,A*%
%TO.N,Net-(D12-A)*%
X142240000Y-65199000D03*
%TD*%
D16*
%TO.P,J13,1,Pin_1*%
%TO.N,Net-(D12-A)*%
X146621000Y-64112000D03*
X151701000Y-64112000D03*
%TO.P,J13,2,Pin_2*%
%TO.N,pos*%
X146621000Y-61572000D03*
X151701000Y-61572000D03*
%TD*%
D14*
%TO.P,D10,1,K*%
%TO.N,pos*%
X93830000Y-76277000D03*
D15*
%TO.P,D10,2,A*%
%TO.N,Net-(D10-A)*%
X93830000Y-68657000D03*
%TD*%
D17*
%TO.P,A1,1,~{RESET}*%
%TO.N,Net-(A1-~{RESET})*%
X128605000Y-130175000D03*
D18*
%TO.P,A1,2,3V3*%
%TO.N,Net-(A1-3V3)*%
X128605000Y-127635000D03*
%TO.P,A1,3,AREF*%
%TO.N,Net-(A1-AREF)*%
X128605000Y-125095000D03*
%TO.P,A1,4,GND*%
%TO.N,gnd*%
X128605000Y-122555000D03*
%TO.P,A1,5,A0*%
%TO.N,Net-(A1-A0)*%
X128605000Y-120015000D03*
%TO.P,A1,6,A1*%
%TO.N,Net-(A1-A1)*%
X128605000Y-117475000D03*
%TO.P,A1,7,A2*%
%TO.N,Net-(A1-A2)*%
X128605000Y-114935000D03*
%TO.P,A1,8,A3*%
%TO.N,Net-(A1-A3)*%
X128605000Y-112395000D03*
%TO.P,A1,9,A4*%
%TO.N,Net-(A1-A4)*%
X128605000Y-109855000D03*
%TO.P,A1,10,A5*%
%TO.N,Net-(A1-A5)*%
X128605000Y-107315000D03*
%TO.P,A1,11,SCK*%
%TO.N,Net-(A1-SCK)*%
X128605000Y-104775000D03*
%TO.P,A1,12,MOSI*%
%TO.N,Net-(A1-MOSI)*%
X128605000Y-102235000D03*
%TO.P,A1,13,MISO*%
%TO.N,Net-(A1-MISO)*%
X128605000Y-99695000D03*
%TO.P,A1,14,RX*%
%TO.N,Net-(A1-RX)*%
X128605000Y-97155000D03*
%TO.P,A1,15,TX*%
%TO.N,Net-(A1-TX)*%
X128605000Y-94615000D03*
%TO.P,A1,16,SPARE*%
%TO.N,Net-(A1-SPARE)*%
X128605000Y-92075000D03*
%TO.P,A1,17,SDA*%
%TO.N,Net-(A1-SDA)*%
X108885000Y-92075000D03*
%TO.P,A1,18,SCL*%
%TO.N,Net-(A1-SCL)*%
X108885000Y-94615000D03*
%TO.P,A1,19,D0*%
%TO.N,Net-(A1-D0)*%
X108885000Y-97155000D03*
%TO.P,A1,20,D1*%
%TO.N,Net-(A1-D1)*%
X108885000Y-99695000D03*
%TO.P,A1,21,D2*%
%TO.N,Net-(A1-D2)*%
X108885000Y-102235000D03*
%TO.P,A1,22,D3*%
%TO.N,Net-(A1-D3)*%
X108885000Y-104775000D03*
%TO.P,A1,23,D4*%
%TO.N,Net-(A1-D4)*%
X108885000Y-107315000D03*
%TO.P,A1,24,D5*%
%TO.N,Net-(A1-D5)*%
X108885000Y-109855000D03*
%TO.P,A1,25,D6*%
%TO.N,Net-(A1-D6)*%
X108885000Y-112395000D03*
%TO.P,A1,26,USB*%
%TO.N,Net-(A1-USB)*%
X108885000Y-114935000D03*
%TO.P,A1,27,EN*%
%TO.N,Net-(A1-EN)*%
X108885000Y-117475000D03*
%TO.P,A1,28,VBAT*%
%TO.N,Net-(A1-VBAT)*%
X108885000Y-120015000D03*
%TD*%
D10*
%TO.P,R14,1*%
%TO.N,Net-(PS1-TRIM)*%
X98820000Y-99330000D03*
D19*
%TO.P,R14,2*%
%TO.N,gnd*%
X98820000Y-94250000D03*
%TD*%
D14*
%TO.P,D9,1,K*%
%TO.N,pos*%
X93830000Y-65657000D03*
D15*
%TO.P,D9,2,A*%
%TO.N,Net-(D9-A)*%
X93830000Y-58037000D03*
%TD*%
D20*
%TO.P,PS1,1,+VIN*%
%TO.N,Net-(BT1-+)*%
X81040000Y-155435000D03*
D21*
%TO.P,PS1,2,CTRL/UVLO*%
%TO.N,unconnected-(PS1-CTRL{slash}UVLO-Pad2)*%
X88660000Y-155435000D03*
%TO.P,PS1,3,-VIN*%
%TO.N,Net-(BT1--)*%
X96280000Y-155435000D03*
D22*
%TO.P,PS1,4,-VOUT*%
%TO.N,gnd*%
X96280000Y-104635000D03*
D21*
%TO.P,PS1,5,TRIM*%
%TO.N,Net-(PS1-TRIM)*%
X88660000Y-104635000D03*
%TO.P,PS1,6,+SENSE*%
%TO.N,pos*%
X84850000Y-104635000D03*
D22*
%TO.P,PS1,7,+VOUT*%
X81040000Y-104635000D03*
%TD*%
D14*
%TO.P,D4,1,K*%
%TO.N,pos*%
X108927000Y-44956000D03*
D15*
%TO.P,D4,2,A*%
%TO.N,Net-(D4-A)*%
X116547000Y-44956000D03*
%TD*%
D14*
%TO.P,D3,1,K*%
%TO.N,pos*%
X119427000Y-44956000D03*
D15*
%TO.P,D3,2,A*%
%TO.N,Net-(D3-A)*%
X127047000Y-44956000D03*
%TD*%
D16*
%TO.P,J3,1,Pin_1*%
%TO.N,Net-(D2-A)*%
X133434000Y-40005000D03*
X133434000Y-34925000D03*
%TO.P,J3,2,Pin_2*%
%TO.N,pos*%
X130894000Y-40005000D03*
X130894000Y-34925000D03*
%TD*%
D23*
%TO.P,R1,1*%
%TO.N,Net-(Q1-G)*%
X145230000Y-116290000D03*
%TO.P,R1,2*%
%TO.N,Net-(A1-D6)*%
X140430000Y-116290000D03*
%TD*%
D16*
%TO.P,J10,1,Pin_1*%
%TO.N,Net-(D9-A)*%
X88900000Y-60157000D03*
X83820000Y-60157000D03*
%TO.P,J10,2,Pin_2*%
%TO.N,pos*%
X88900000Y-62697000D03*
X83820000Y-62697000D03*
%TD*%
%TO.P,J5,1,Pin_1*%
%TO.N,Net-(D4-A)*%
X115486000Y-40005000D03*
X115486000Y-34925000D03*
%TO.P,J5,2,Pin_2*%
%TO.N,pos*%
X112946000Y-40005000D03*
X112946000Y-34925000D03*
%TD*%
D24*
%TO.P,Q7,1,G*%
%TO.N,Net-(Q7-G)*%
X131840000Y-75425000D03*
D25*
%TO.P,Q7,2,D*%
%TO.N,Net-(D7-A)*%
X134380000Y-75425000D03*
%TO.P,Q7,3,S*%
%TO.N,gnd*%
X136920000Y-75425000D03*
%TD*%
D24*
%TO.P,Q12,1,G*%
%TO.N,Net-(Q12-G)*%
X131840000Y-69075000D03*
D25*
%TO.P,Q12,2,D*%
%TO.N,Net-(D12-A)*%
X134380000Y-69075000D03*
%TO.P,Q12,3,S*%
%TO.N,gnd*%
X136920000Y-69075000D03*
%TD*%
D14*
%TO.P,D5,1,K*%
%TO.N,pos*%
X98427000Y-44956000D03*
D15*
%TO.P,D5,2,A*%
%TO.N,Net-(D5-A)*%
X106047000Y-44956000D03*
%TD*%
D16*
%TO.P,J9,1,Pin_1*%
%TO.N,Net-(D8-A)*%
X88900000Y-51183000D03*
X83820000Y-51183000D03*
%TO.P,J9,2,Pin_2*%
%TO.N,pos*%
X88900000Y-53723000D03*
X83820000Y-53723000D03*
%TD*%
D26*
%TO.P,J17,17,Pin_17*%
%TO.N,Net-(A1-SDA)*%
X103505000Y-92075000D03*
%TO.P,J17,18,Pin_18*%
%TO.N,Net-(A1-SCL)*%
X103505000Y-94615000D03*
%TO.P,J17,19,Pin_19*%
%TO.N,Net-(A1-D0)*%
X103505000Y-97155000D03*
%TO.P,J17,20,Pin_20*%
%TO.N,Net-(A1-D1)*%
X103505000Y-99695000D03*
%TO.P,J17,21,Pin_21*%
%TO.N,Net-(A1-D2)*%
X103505000Y-102235000D03*
%TO.P,J17,22,Pin_22*%
%TO.N,Net-(A1-D3)*%
X103505000Y-104775000D03*
%TO.P,J17,23,Pin_23*%
%TO.N,Net-(A1-D4)*%
X103505000Y-107315000D03*
%TO.P,J17,24,Pin_24*%
%TO.N,Net-(A1-D5)*%
X103505000Y-109855000D03*
%TO.P,J17,25,Pin_25*%
%TO.N,Net-(A1-D6)*%
X103505000Y-112395000D03*
%TO.P,J17,26,Pin_26*%
%TO.N,Net-(A1-USB)*%
X103505000Y-114935000D03*
%TO.P,J17,27,Pin_27*%
%TO.N,Net-(A1-EN)*%
X103505000Y-117475000D03*
%TO.P,J17,28,Pin_28*%
%TO.N,Net-(A1-VBAT)*%
X103505000Y-120015000D03*
%TD*%
D14*
%TO.P,D2,1,K*%
%TO.N,pos*%
X129927000Y-44956000D03*
D15*
%TO.P,D2,2,A*%
%TO.N,Net-(D2-A)*%
X137547000Y-44956000D03*
%TD*%
D27*
%TO.P,J18,1,Pin_1*%
%TO.N,gnd*%
X103265000Y-86220000D03*
D28*
%TO.P,J18,2,Pin_2*%
%TO.N,pos*%
X103265000Y-88760000D03*
%TD*%
D26*
%TO.P,J1,1,Pin_1*%
%TO.N,Net-(A1-USB)*%
X79135000Y-95745000D03*
D29*
%TO.P,J1,2,Pin_2*%
%TO.N,gnd*%
X79135000Y-93205000D03*
D26*
%TO.P,J1,3,Pin_3*%
%TO.N,pos*%
X79135000Y-90665000D03*
%TD*%
D30*
%TO.P,Q2,1,G*%
%TO.N,Net-(Q2-G)*%
X132692898Y-55522102D03*
D31*
%TO.P,Q2,2,D*%
%TO.N,Net-(D2-A)*%
X134488949Y-53726051D03*
%TO.P,Q2,3,S*%
%TO.N,gnd*%
X136285000Y-51930000D03*
%TD*%
D27*
%TO.P,J14,1,Pin_1*%
%TO.N,gnd*%
X98615000Y-86220000D03*
D28*
%TO.P,J14,2,Pin_2*%
%TO.N,pos*%
X98615000Y-88760000D03*
%TD*%
D26*
%TO.P,J16,1,Pin_1*%
%TO.N,Net-(A1-~{RESET})*%
X133985000Y-130175000D03*
%TO.P,J16,2,Pin_2*%
%TO.N,Net-(A1-3V3)*%
X133985000Y-127635000D03*
%TO.P,J16,3,Pin_3*%
%TO.N,Net-(A1-AREF)*%
X133985000Y-125095000D03*
%TO.P,J16,4,Pin_4*%
%TO.N,gnd*%
X133985000Y-122555000D03*
%TO.P,J16,5,Pin_5*%
%TO.N,Net-(A1-A0)*%
X133985000Y-120015000D03*
%TO.P,J16,6,Pin_6*%
%TO.N,Net-(A1-A1)*%
X133985000Y-117475000D03*
%TO.P,J16,7,Pin_7*%
%TO.N,Net-(A1-A2)*%
X133985000Y-114935000D03*
%TO.P,J16,8,Pin_8*%
%TO.N,Net-(A1-A3)*%
X133985000Y-112395000D03*
%TO.P,J16,9,Pin_9*%
%TO.N,Net-(A1-A4)*%
X133985000Y-109855000D03*
%TO.P,J16,10,Pin_10*%
%TO.N,Net-(A1-A5)*%
X133985000Y-107315000D03*
%TO.P,J16,11,Pin_11*%
%TO.N,Net-(A1-SCK)*%
X133985000Y-104775000D03*
%TO.P,J16,12,Pin_12*%
%TO.N,Net-(A1-MOSI)*%
X133985000Y-102235000D03*
%TO.P,J16,13,Pin_13*%
%TO.N,Net-(A1-MISO)*%
X133985000Y-99695000D03*
%TO.P,J16,14,Pin_14*%
%TO.N,Net-(A1-RX)*%
X133985000Y-97155000D03*
%TO.P,J16,15,Pin_15*%
%TO.N,Net-(A1-TX)*%
X133985000Y-94615000D03*
%TO.P,J16,16,Pin_16*%
%TO.N,Net-(A1-SPARE)*%
X133985000Y-92075000D03*
%TD*%
D14*
%TO.P,D7,1,K*%
%TO.N,pos*%
X142240000Y-68079000D03*
D15*
%TO.P,D7,2,A*%
%TO.N,Net-(D7-A)*%
X142240000Y-75699000D03*
%TD*%
D16*
%TO.P,J4,1,Pin_1*%
%TO.N,Net-(D3-A)*%
X124460000Y-40005000D03*
X124460000Y-34925000D03*
%TO.P,J4,2,Pin_2*%
%TO.N,pos*%
X121920000Y-40005000D03*
X121920000Y-34925000D03*
%TD*%
D14*
%TO.P,D11,1,K*%
%TO.N,pos*%
X93830000Y-86777000D03*
D15*
%TO.P,D11,2,A*%
%TO.N,Net-(D11-A)*%
X93830000Y-79157000D03*
%TD*%
D24*
%TO.P,Q11,1,G*%
%TO.N,Net-(Q11-G)*%
X104535000Y-80505000D03*
D25*
%TO.P,Q11,2,D*%
%TO.N,Net-(D11-A)*%
X101995000Y-80505000D03*
%TO.P,Q11,3,S*%
%TO.N,gnd*%
X99455000Y-80505000D03*
%TD*%
D16*
%TO.P,J8,1,Pin_1*%
%TO.N,Net-(D7-A)*%
X146740000Y-73025000D03*
X151820000Y-73025000D03*
%TO.P,J8,2,Pin_2*%
%TO.N,pos*%
X146740000Y-70485000D03*
X151820000Y-70485000D03*
%TD*%
%TO.P,J2,1,Pin_1*%
%TO.N,Net-(D1-A)*%
X140095000Y-97015000D03*
X145175000Y-97015000D03*
%TO.P,J2,2,Pin_2*%
%TO.N,pos*%
X140095000Y-94475000D03*
X145175000Y-94475000D03*
%TD*%
D14*
%TO.P,D1,1,K*%
%TO.N,pos*%
X139445000Y-102460000D03*
D15*
%TO.P,D1,2,A*%
%TO.N,Net-(D1-A)*%
X147065000Y-102460000D03*
%TD*%
D30*
%TO.P,Q3,1,G*%
%TO.N,Net-(Q3-G)*%
X123727165Y-55029267D03*
D31*
%TO.P,Q3,2,D*%
%TO.N,Net-(D3-A)*%
X125523216Y-53233216D03*
%TO.P,Q3,3,S*%
%TO.N,gnd*%
X127319267Y-51437165D03*
%TD*%
D26*
%TO.P,BZ1,1,+*%
%TO.N,Net-(A1-D5)*%
X145175000Y-125180000D03*
D29*
%TO.P,BZ1,2,-*%
%TO.N,gnd*%
X141175000Y-125180000D03*
%TD*%
D24*
%TO.P,Q8,1,G*%
%TO.N,Net-(Q8-G)*%
X104534999Y-60820000D03*
D25*
%TO.P,Q8,2,D*%
%TO.N,Net-(D8-A)*%
X101994999Y-60820000D03*
%TO.P,Q8,3,S*%
%TO.N,gnd*%
X99455000Y-60820000D03*
%TD*%
D16*
%TO.P,J6,1,Pin_1*%
%TO.N,Net-(D5-A)*%
X106512000Y-40005000D03*
X106512000Y-34925000D03*
%TO.P,J6,2,Pin_2*%
%TO.N,pos*%
X103972000Y-40005000D03*
X103972000Y-34925000D03*
%TD*%
D24*
%TO.P,Q9,1,G*%
%TO.N,Net-(Q9-G)*%
X104534999Y-67170000D03*
D25*
%TO.P,Q9,2,D*%
%TO.N,Net-(D9-A)*%
X101994999Y-67170000D03*
%TO.P,Q9,3,S*%
%TO.N,gnd*%
X99454999Y-67170000D03*
%TD*%
D24*
%TO.P,Q6,1,G*%
%TO.N,Net-(Q6-G)*%
X131840000Y-81450000D03*
D25*
%TO.P,Q6,2,D*%
%TO.N,Net-(D6-A)*%
X134380000Y-81450000D03*
%TO.P,Q6,3,S*%
%TO.N,gnd*%
X136920000Y-81450000D03*
%TD*%
D16*
%TO.P,J15,1,Pin_1*%
%TO.N,Net-(D13-A)*%
X146621000Y-55138000D03*
X151701000Y-55138000D03*
%TO.P,J15,2,Pin_2*%
%TO.N,pos*%
X146621000Y-52598000D03*
X151701000Y-52598000D03*
%TD*%
D14*
%TO.P,D6,1,K*%
%TO.N,pos*%
X142240000Y-78579000D03*
D15*
%TO.P,D6,2,A*%
%TO.N,Net-(D6-A)*%
X142240000Y-86199000D03*
%TD*%
D32*
%TO.P,Q5,3,S*%
%TO.N,gnd*%
X100942898Y-50242898D03*
%TO.P,Q5,2,D*%
%TO.N,Net-(D5-A)*%
X102738949Y-52038949D03*
D33*
%TO.P,Q5,1,G*%
%TO.N,Net-(Q5-G)*%
X104535000Y-53835000D03*
%TD*%
D24*
%TO.P,Q1,1,G*%
%TO.N,Net-(Q1-G)*%
X140785000Y-109940000D03*
D25*
%TO.P,Q1,2,D*%
%TO.N,Net-(D1-A)*%
X143325000Y-109940000D03*
%TO.P,Q1,3,S*%
%TO.N,gnd*%
X145865000Y-109940000D03*
%TD*%
D14*
%TO.P,D13,1,K*%
%TO.N,pos*%
X142240000Y-46889000D03*
D15*
%TO.P,D13,2,A*%
%TO.N,Net-(D13-A)*%
X142240000Y-54509000D03*
%TD*%
D24*
%TO.P,Q13,1,G*%
%TO.N,Net-(Q13-G)*%
X131840000Y-63035000D03*
D25*
%TO.P,Q13,2,D*%
%TO.N,Net-(D13-A)*%
X134380000Y-63035000D03*
%TO.P,Q13,3,S*%
%TO.N,gnd*%
X136920000Y-63035000D03*
%TD*%
D24*
%TO.P,Q10,1,G*%
%TO.N,Net-(Q10-G)*%
X104535000Y-74155000D03*
D25*
%TO.P,Q10,2,D*%
%TO.N,Net-(D10-A)*%
X101995000Y-74155000D03*
%TO.P,Q10,3,S*%
%TO.N,gnd*%
X99455000Y-74155000D03*
%TD*%
D16*
%TO.P,J7,1,Pin_1*%
%TO.N,Net-(D6-A)*%
X146740000Y-81999000D03*
X151820000Y-81999000D03*
%TO.P,J7,2,Pin_2*%
%TO.N,pos*%
X146740000Y-79459000D03*
X151820000Y-79459000D03*
%TD*%
D32*
%TO.P,Q4,3,S*%
%TO.N,gnd*%
X112263949Y-50133949D03*
%TO.P,Q4,2,D*%
%TO.N,Net-(D4-A)*%
X114060000Y-51930000D03*
D33*
%TO.P,Q4,1,G*%
%TO.N,Net-(Q4-G)*%
X115856051Y-53726051D03*
%TD*%
D16*
%TO.P,J12,1,Pin_1*%
%TO.N,Net-(D11-A)*%
X88900000Y-78105000D03*
X83820000Y-78105000D03*
%TO.P,J12,2,Pin_2*%
%TO.N,pos*%
X88900000Y-80645000D03*
X83820000Y-80645000D03*
%TD*%
D14*
%TO.P,D8,1,K*%
%TO.N,pos*%
X93830000Y-54657000D03*
D15*
%TO.P,D8,2,A*%
%TO.N,Net-(D8-A)*%
X93830000Y-47037000D03*
%TD*%
D16*
%TO.P,J11,1,Pin_1*%
%TO.N,Net-(D10-A)*%
X88900000Y-69131000D03*
X83820000Y-69131000D03*
%TO.P,J11,2,Pin_2*%
%TO.N,pos*%
X88900000Y-71671000D03*
X83820000Y-71671000D03*
%TD*%
D34*
%TO.N,Net-(A1-A4)*%
X116205000Y-93345000D03*
%TO.N,Net-(A1-D0)*%
X121285000Y-83820000D03*
%TO.N,Net-(A1-A3)*%
X115570000Y-95250000D03*
%TO.N,Net-(A1-D4)*%
X125730000Y-87630000D03*
%TO.N,Net-(A1-D6)*%
X118505000Y-108445000D03*
X124220000Y-98285000D03*
%TO.N,Net-(A1-A1)*%
X118745000Y-100330000D03*
%TO.N,Net-(A1-A2)*%
X117475000Y-97155000D03*
%TO.N,Net-(A1-A0)*%
X126055811Y-114164189D03*
%TD*%
D35*
%TO.N,Net-(A1-D6)*%
X111760000Y-112395000D02*
X108585000Y-112395000D01*
X116460000Y-110490000D02*
X113665000Y-110490000D01*
X118505000Y-108445000D02*
X116460000Y-110490000D01*
D36*
%TO.N,Net-(BT1-+)*%
X83237500Y-153237500D02*
X81040000Y-155435000D01*
X108827500Y-153237500D02*
X83237500Y-153237500D01*
X109895000Y-154305000D02*
X108827500Y-153237500D01*
D35*
%TO.N,Net-(A1-A4)*%
X133985000Y-109855000D02*
X128905000Y-109855000D01*
X126760000Y-107737767D02*
X128877233Y-109855000D01*
X117475000Y-93345000D02*
X126760000Y-102630000D01*
X126760000Y-102630000D02*
X126760000Y-107737767D01*
X116205000Y-93345000D02*
X117475000Y-93345000D01*
%TO.N,Net-(A1-USB)*%
X108585000Y-114935000D02*
X103505000Y-114935000D01*
X79135000Y-95745000D02*
X84315000Y-95745000D01*
X84315000Y-95745000D02*
X103505000Y-114935000D01*
%TO.N,Net-(A1-SPARE)*%
X133985000Y-92075000D02*
X128905000Y-92075000D01*
%TO.N,Net-(A1-D0)*%
X108585000Y-97155000D02*
X103505000Y-97155000D01*
X120931384Y-84836384D02*
X108612767Y-97155000D01*
X121285000Y-83820000D02*
X121285000Y-84482767D01*
%TO.N,Net-(A1-D1)*%
X108585000Y-99695000D02*
X103505000Y-99695000D01*
%TO.N,Net-(A1-A3)*%
X115570000Y-95250000D02*
X117475000Y-95250000D01*
X133985000Y-112395000D02*
X128905000Y-112395000D01*
X126060000Y-109650000D02*
X128805000Y-112395000D01*
X126060000Y-103835000D02*
X126060000Y-109650000D01*
X117475000Y-95250000D02*
X126060000Y-103835000D01*
%TO.N,Net-(A1-A5)*%
X133985000Y-107315000D02*
X128905000Y-107315000D01*
D36*
%TO.N,gnd*%
X99455000Y-74155000D02*
X99455000Y-67170001D01*
X90565000Y-94475000D02*
X90565000Y-98920000D01*
D37*
X96280000Y-86220000D02*
X98615000Y-86220000D01*
D36*
X136920000Y-52565000D02*
X136920000Y-63035000D01*
X99455000Y-60820000D02*
X99455000Y-51730796D01*
X127319267Y-51437165D02*
X135792165Y-51437165D01*
X99454999Y-67170000D02*
X99454999Y-60820001D01*
D35*
X148350000Y-118005000D02*
X148350000Y-114160000D01*
D36*
X101332935Y-49852861D02*
X111982861Y-49852861D01*
X136920000Y-63035000D02*
X136920000Y-69075000D01*
X144216595Y-107740000D02*
X145865000Y-109388405D01*
X136920000Y-70980000D02*
X136920000Y-75425000D01*
X136920000Y-81450000D02*
X136920000Y-83848849D01*
X90565000Y-98920000D02*
X96280000Y-104635000D01*
D35*
X141175000Y-125180000D02*
X148350000Y-118005000D01*
D36*
X112653986Y-49743912D02*
X125626014Y-49743912D01*
X136920000Y-81450000D02*
X136920000Y-75425000D01*
X141365000Y-90164440D02*
X137245000Y-94284440D01*
X90565000Y-94475000D02*
X98595000Y-94475000D01*
D35*
X133985000Y-122555000D02*
X128905000Y-122555000D01*
D36*
X98820000Y-81140000D02*
X99455000Y-80505000D01*
X112263949Y-50133949D02*
X112653986Y-49743912D01*
X96280000Y-84315000D02*
X98820000Y-81775000D01*
X96280000Y-91710000D02*
X98820000Y-94250000D01*
X136285000Y-51930000D02*
X136920000Y-52565000D01*
X99455000Y-80505000D02*
X99455000Y-74155000D01*
X96280000Y-86220000D02*
X96280000Y-91710000D01*
D35*
X145865000Y-111675000D02*
X145865000Y-109940000D01*
D36*
X99455000Y-51730796D02*
X100942898Y-50242898D01*
X136920000Y-83848849D02*
X141365000Y-88293849D01*
X140525000Y-107740000D02*
X144216595Y-107740000D01*
X137245000Y-104460000D02*
X140525000Y-107740000D01*
D35*
X148350000Y-114160000D02*
X145865000Y-111675000D01*
D36*
X125626014Y-49743912D02*
X127319267Y-51437165D01*
X137245000Y-94284440D02*
X137245000Y-104460000D01*
D35*
%TO.N,Net-(A1-D4)*%
X108585000Y-107315000D02*
X103505000Y-107315000D01*
X112395000Y-95250000D02*
X112395000Y-103532767D01*
X125730000Y-87630000D02*
X120015000Y-87630000D01*
X112395000Y-103532767D02*
X108612767Y-107315000D01*
X120015000Y-87630000D02*
X112395000Y-95250000D01*
%TO.N,Net-(A1-D2)*%
X108585000Y-102235000D02*
X103505000Y-102235000D01*
%TO.N,Net-(A1-D3)*%
X108585000Y-104775000D02*
X103505000Y-104775000D01*
%TO.N,Net-(A1-D6)*%
X135197000Y-111057000D02*
X135197000Y-101642000D01*
X140430000Y-116290000D02*
X135197000Y-111057000D01*
X108585000Y-112395000D02*
X103505000Y-112395000D01*
X134500000Y-100945000D02*
X126880000Y-100945000D01*
X126880000Y-100945000D02*
X124220000Y-98285000D01*
%TO.N,Net-(A1-D5)*%
X108585000Y-109855000D02*
X103505000Y-109855000D01*
%TO.N,Net-(A1-A1)*%
X133985000Y-117475000D02*
X128905000Y-117475000D01*
X118745000Y-100330000D02*
X124660000Y-106245000D01*
X124660000Y-111707717D02*
X126855000Y-113902717D01*
X126855000Y-115452767D02*
X128877233Y-117475000D01*
X124660000Y-106245000D02*
X124660000Y-111707717D01*
%TO.N,Net-(A1-A2)*%
X125360000Y-110855000D02*
X126855000Y-112350000D01*
X125360000Y-105040000D02*
X125360000Y-110855000D01*
X117475000Y-97155000D02*
X125360000Y-105040000D01*
X126855000Y-112912767D02*
X128877233Y-114935000D01*
X133985000Y-114935000D02*
X128905000Y-114935000D01*
%TO.N,Net-(A1-A0)*%
X133985000Y-120015000D02*
X128905000Y-120015000D01*
X126055811Y-117193578D02*
X128877233Y-120015000D01*
X126055811Y-114164189D02*
X126055811Y-117193578D01*
%TO.N,Net-(D1-A)*%
X140095000Y-97015000D02*
X145175000Y-97015000D01*
X147065000Y-102460000D02*
X147065000Y-98905000D01*
%TO.N,pos*%
X146740000Y-79459000D02*
X151820000Y-79459000D01*
D36*
X88065000Y-94475000D02*
X84255000Y-90665000D01*
D35*
X139445000Y-102460000D02*
X139460000Y-102445000D01*
D36*
X84255000Y-90665000D02*
X88143000Y-86777000D01*
D35*
X83820000Y-53723000D02*
X88900000Y-53723000D01*
X83820000Y-80645000D02*
X88900000Y-80645000D01*
X140095000Y-94475000D02*
X145175000Y-94475000D01*
X83820000Y-62697000D02*
X88900000Y-62697000D01*
X146740000Y-70485000D02*
X151820000Y-70485000D01*
X83820000Y-71671000D02*
X88900000Y-71671000D01*
X112946000Y-34925000D02*
X112946000Y-40005000D01*
X121920000Y-34925000D02*
X121920000Y-40005000D01*
D36*
X84255000Y-90665000D02*
X79135000Y-90665000D01*
D35*
X88902562Y-72152527D02*
X88944482Y-72738590D01*
X130894000Y-34925000D02*
X130894000Y-40005000D01*
D36*
X88143000Y-86777000D02*
X93830000Y-86777000D01*
D35*
X139460000Y-102445000D02*
X139460000Y-98359899D01*
X146621000Y-52598000D02*
X151701000Y-52598000D01*
X138695000Y-97594899D02*
X138695000Y-95875000D01*
X146621000Y-61572000D02*
X151701000Y-61572000D01*
X88900000Y-71858746D02*
X88902562Y-72152527D01*
X138695000Y-95875000D02*
X140095000Y-94475000D01*
X103972000Y-34925000D02*
X103972000Y-40005000D01*
%TO.N,Net-(D2-A)*%
X137547000Y-44956000D02*
X133434000Y-40843000D01*
X133434000Y-34925000D02*
X133434000Y-40005000D01*
%TO.N,Net-(D3-A)*%
X127047000Y-44956000D02*
X127047000Y-42592000D01*
X127047000Y-42592000D02*
X124460000Y-40005000D01*
X124460000Y-40005000D02*
X124460000Y-40640000D01*
X124460000Y-34925000D02*
X124460000Y-40005000D01*
%TO.N,Net-(D4-A)*%
X116547000Y-44956000D02*
X116547000Y-41066000D01*
X115486000Y-34925000D02*
X115486000Y-40005000D01*
X116547000Y-41066000D02*
X115486000Y-40005000D01*
%TO.N,Net-(D5-A)*%
X106512000Y-34925000D02*
X106512000Y-40005000D01*
X106047000Y-44956000D02*
X106047000Y-40470000D01*
%TO.N,Net-(D6-A)*%
X142240000Y-86199000D02*
X146440000Y-81999000D01*
X146740000Y-81999000D02*
X151820000Y-81999000D01*
%TO.N,Net-(D7-A)*%
X144066000Y-75699000D02*
X146740000Y-73025000D01*
X146740000Y-73025000D02*
X151820000Y-73025000D01*
X142240000Y-75699000D02*
X144066000Y-75699000D01*
%TO.N,Net-(D8-A)*%
X93830000Y-47037000D02*
X89684000Y-51183000D01*
X88900000Y-51183000D02*
X83820000Y-51183000D01*
%TO.N,Net-(D9-A)*%
X93696970Y-58170030D02*
X93830000Y-58037000D01*
X83820000Y-60157000D02*
X88900000Y-60157000D01*
X93830000Y-58037000D02*
X91020000Y-58037000D01*
X91020000Y-58037000D02*
X88900000Y-60157000D01*
%TO.N,Net-(D10-A)*%
X93830000Y-68657000D02*
X89374000Y-68657000D01*
X83820000Y-69131000D02*
X88900000Y-69131000D01*
%TO.N,Net-(D11-A)*%
X83820000Y-78105000D02*
X88900000Y-78105000D01*
X88900000Y-78105000D02*
X92778000Y-78105000D01*
X92778000Y-78105000D02*
X93830000Y-79157000D01*
%TO.N,Net-(D12-A)*%
X145534000Y-65199000D02*
X146621000Y-64112000D01*
X146621000Y-64112000D02*
X151701000Y-64112000D01*
X142240000Y-65199000D02*
X145534000Y-65199000D01*
%TO.N,Net-(D13-A)*%
X142240000Y-54509000D02*
X145992000Y-54509000D01*
X146621000Y-55138000D02*
X151701000Y-55138000D01*
%TO.N,Net-(Q1-G)*%
X145230000Y-114385000D02*
X140785000Y-109940000D01*
X145230000Y-116290000D02*
X145230000Y-114385000D01*
%TO.N,Net-(A1-~{RESET})*%
X133985000Y-130175000D02*
X128905000Y-130175000D01*
%TO.N,Net-(A1-3V3)*%
X133985000Y-127635000D02*
X128905000Y-127635000D01*
%TO.N,Net-(A1-AREF)*%
X133985000Y-125095000D02*
X128905000Y-125095000D01*
%TO.N,Net-(A1-SCL)*%
X108585000Y-94615000D02*
X103505000Y-94615000D01*
%TO.N,Net-(A1-TX)*%
X133985000Y-94615000D02*
X128905000Y-94615000D01*
%TO.N,Net-(A1-RX)*%
X133985000Y-97155000D02*
X128905000Y-97155000D01*
%TO.N,Net-(A1-VBAT)*%
X108585000Y-120015000D02*
X103505000Y-120015000D01*
%TO.N,Net-(A1-MISO)*%
X133985000Y-99695000D02*
X128905000Y-99695000D01*
%TO.N,Net-(A1-MOSI)*%
X133985000Y-102235000D02*
X128905000Y-102235000D01*
%TO.N,Net-(A1-SCK)*%
X133985000Y-104775000D02*
X128905000Y-104775000D01*
%TO.N,Net-(A1-SDA)*%
X108585000Y-92075000D02*
X103505000Y-92075000D01*
%TO.N,Net-(A1-EN)*%
X108585000Y-117475000D02*
X103505000Y-117475000D01*
%TO.N,Net-(D1-A)*%
X147065000Y-98905000D02*
X145175000Y-97015000D01*
%TO.N,Net-(A1-D6)*%
X113665000Y-110490000D02*
X111760000Y-112395000D01*
%TO.N,Net-(D13-A)*%
X145992000Y-54509000D02*
X146621000Y-55138000D01*
%TO.N,Net-(D10-A)*%
X89374000Y-68657000D02*
X88900000Y-69131000D01*
%TO.N,Net-(D8-A)*%
X89684000Y-51183000D02*
X88900000Y-51183000D01*
%TO.N,Net-(D6-A)*%
X146440000Y-81999000D02*
X146740000Y-81999000D01*
%TO.N,Net-(D5-A)*%
X106047000Y-40470000D02*
X106512000Y-40005000D01*
%TO.N,Net-(D2-A)*%
X133434000Y-40843000D02*
X133434000Y-40005000D01*
%TO.N,pos*%
X139460000Y-98359899D02*
X138695000Y-97594899D01*
X88900000Y-71671000D02*
X88900000Y-71858746D01*
%TO.N,Net-(A1-A0)*%
X128877233Y-120015000D02*
X128905000Y-120015000D01*
%TO.N,Net-(A1-A2)*%
X126855000Y-112350000D02*
X126855000Y-112912767D01*
X128877233Y-114935000D02*
X128905000Y-114935000D01*
%TO.N,Net-(A1-A1)*%
X126855000Y-113902717D02*
X126855000Y-115452767D01*
X128877233Y-117475000D02*
X128905000Y-117475000D01*
%TO.N,Net-(A1-D6)*%
X135197000Y-101642000D02*
X134500000Y-100945000D01*
%TO.N,Net-(A1-D4)*%
X108612767Y-107315000D02*
X108585000Y-107315000D01*
D36*
%TO.N,gnd*%
X96280000Y-84315000D02*
X96280000Y-86220000D01*
X145865000Y-109388405D02*
X145865000Y-109940000D01*
X141365000Y-88293849D02*
X141365000Y-90164440D01*
X98820000Y-81775000D02*
X98820000Y-81140000D01*
X99454999Y-60820001D02*
X99455000Y-60820000D01*
X136920000Y-69075000D02*
X136920000Y-70980000D01*
X99455000Y-67170001D02*
X99454999Y-67170000D01*
X111982861Y-49852861D02*
X112263949Y-50133949D01*
X98595000Y-94475000D02*
X98820000Y-94250000D01*
X100942898Y-50242898D02*
X101332935Y-49852861D01*
X135792165Y-51437165D02*
X136285000Y-51930000D01*
D35*
%TO.N,Net-(A1-A3)*%
X128805000Y-112395000D02*
X128905000Y-112395000D01*
%TO.N,Net-(A1-D0)*%
X108612767Y-97155000D02*
X108585000Y-97155000D01*
X121285000Y-84482767D02*
X120931384Y-84836384D01*
%TO.N,Net-(A1-A4)*%
X128877233Y-109855000D02*
X128905000Y-109855000D01*
%TD*%
D38*
X116205000Y-93345000D03*
X121285000Y-83820000D03*
X115570000Y-95250000D03*
X125730000Y-87630000D03*
X118505000Y-108445000D03*
X124220000Y-98285000D03*
X118745000Y-100330000D03*
X117475000Y-97155000D03*
X126055811Y-114164189D03*
D39*
X88065000Y-94475000D03*
X90565000Y-94475000D03*
X109895000Y-154305000D03*
X117395000Y-154305000D03*
X142240000Y-57579000D03*
X142240000Y-65199000D03*
X146621000Y-64112000D03*
X151701000Y-64112000D03*
X146621000Y-61572000D03*
X151701000Y-61572000D03*
X93830000Y-76277000D03*
X93830000Y-68657000D03*
X128905000Y-130175000D03*
X128905000Y-127635000D03*
X128905000Y-125095000D03*
X128905000Y-122555000D03*
X128905000Y-120015000D03*
X128905000Y-117475000D03*
X128905000Y-114935000D03*
X128905000Y-112395000D03*
X128905000Y-109855000D03*
X128905000Y-107315000D03*
X128905000Y-104775000D03*
X128905000Y-102235000D03*
X128905000Y-99695000D03*
X128905000Y-97155000D03*
X128905000Y-94615000D03*
X128905000Y-92075000D03*
X108585000Y-92075000D03*
X108585000Y-94615000D03*
X108585000Y-97155000D03*
X108585000Y-99695000D03*
X108585000Y-102235000D03*
X108585000Y-104775000D03*
X108585000Y-107315000D03*
X108585000Y-109855000D03*
X108585000Y-112395000D03*
X108585000Y-114935000D03*
X108585000Y-117475000D03*
X108585000Y-120015000D03*
X98820000Y-99330000D03*
X98820000Y-94250000D03*
X93830000Y-65657000D03*
X93830000Y-58037000D03*
X81040000Y-155435000D03*
X88660000Y-155435000D03*
X96280000Y-155435000D03*
X96280000Y-104635000D03*
X88660000Y-104635000D03*
X84850000Y-104635000D03*
X81040000Y-104635000D03*
X108927000Y-44956000D03*
X116547000Y-44956000D03*
X119427000Y-44956000D03*
X127047000Y-44956000D03*
X133434000Y-40005000D03*
X133434000Y-34925000D03*
X130894000Y-40005000D03*
X130894000Y-34925000D03*
X88900000Y-60157000D03*
X83820000Y-60157000D03*
X88900000Y-62697000D03*
X83820000Y-62697000D03*
X115486000Y-40005000D03*
X115486000Y-34925000D03*
X112946000Y-40005000D03*
X112946000Y-34925000D03*
X131840000Y-75425000D03*
X134380000Y-75425000D03*
X136920000Y-75425000D03*
X131840000Y-69075000D03*
X134380000Y-69075000D03*
X136920000Y-69075000D03*
X98427000Y-44956000D03*
X106047000Y-44956000D03*
X88900000Y-51183000D03*
X83820000Y-51183000D03*
X88900000Y-53723000D03*
X83820000Y-53723000D03*
X103505000Y-92075000D03*
X103505000Y-94615000D03*
X103505000Y-97155000D03*
X103505000Y-99695000D03*
X103505000Y-102235000D03*
X103505000Y-104775000D03*
X103505000Y-107315000D03*
X103505000Y-109855000D03*
X103505000Y-112395000D03*
X103505000Y-114935000D03*
X103505000Y-117475000D03*
X103505000Y-120015000D03*
X129927000Y-44956000D03*
X137547000Y-44956000D03*
X103265000Y-86220000D03*
X103265000Y-88760000D03*
X79135000Y-95745000D03*
X79135000Y-93205000D03*
X79135000Y-90665000D03*
X132692898Y-55522102D03*
X134488949Y-53726051D03*
X136285000Y-51930000D03*
X98615000Y-86220000D03*
X98615000Y-88760000D03*
X133985000Y-130175000D03*
X133985000Y-127635000D03*
X133985000Y-125095000D03*
X133985000Y-122555000D03*
X133985000Y-120015000D03*
X133985000Y-117475000D03*
X133985000Y-114935000D03*
X133985000Y-112395000D03*
X133985000Y-109855000D03*
X133985000Y-107315000D03*
X133985000Y-104775000D03*
X133985000Y-102235000D03*
X133985000Y-99695000D03*
X133985000Y-97155000D03*
X133985000Y-94615000D03*
X133985000Y-92075000D03*
X142240000Y-68079000D03*
X142240000Y-75699000D03*
X124460000Y-40005000D03*
X124460000Y-34925000D03*
X121920000Y-40005000D03*
X121920000Y-34925000D03*
X93830000Y-86777000D03*
X93830000Y-79157000D03*
X104535000Y-80505000D03*
X101995000Y-80505000D03*
X99455000Y-80505000D03*
X146740000Y-73025000D03*
X151820000Y-73025000D03*
X146740000Y-70485000D03*
X151820000Y-70485000D03*
X140095000Y-97015000D03*
X145175000Y-97015000D03*
X140095000Y-94475000D03*
X145175000Y-94475000D03*
X139445000Y-102460000D03*
X147065000Y-102460000D03*
X123727165Y-55029267D03*
X125523216Y-53233216D03*
X127319267Y-51437165D03*
X145175000Y-125180000D03*
X141175000Y-125180000D03*
X104534999Y-60820000D03*
X101994999Y-60820000D03*
X99455000Y-60820000D03*
X106512000Y-40005000D03*
X106512000Y-34925000D03*
X103972000Y-40005000D03*
X103972000Y-34925000D03*
X104534999Y-67170000D03*
X101994999Y-67170000D03*
X99454999Y-67170000D03*
X131840000Y-81450000D03*
X134380000Y-81450000D03*
X136920000Y-81450000D03*
X146621000Y-55138000D03*
X151701000Y-55138000D03*
X146621000Y-52598000D03*
X151701000Y-52598000D03*
X142240000Y-78579000D03*
X142240000Y-86199000D03*
X100942898Y-50242898D03*
X102738949Y-52038949D03*
X104535000Y-53835000D03*
X140785000Y-109940000D03*
X143325000Y-109940000D03*
X145865000Y-109940000D03*
X142240000Y-46889000D03*
X142240000Y-54509000D03*
X131840000Y-63035000D03*
X134380000Y-63035000D03*
X136920000Y-63035000D03*
X104535000Y-74155000D03*
X101995000Y-74155000D03*
X99455000Y-74155000D03*
X146740000Y-81999000D03*
X151820000Y-81999000D03*
X146740000Y-79459000D03*
X151820000Y-79459000D03*
X112263949Y-50133949D03*
X114060000Y-51930000D03*
X115856051Y-53726051D03*
X88900000Y-78105000D03*
X83820000Y-78105000D03*
X88900000Y-80645000D03*
X83820000Y-80645000D03*
X93830000Y-54657000D03*
X93830000Y-47037000D03*
X88900000Y-69131000D03*
X83820000Y-69131000D03*
X88900000Y-71671000D03*
X83820000Y-71671000D03*
M02*
