M48
; DRILL file {KiCad 9.0.0} date 2026-02-18T18:06:05-0500
; FORMAT={-:-/ absolute / metric / decimal}
; #@! TF.CreationDate,2026-02-18T18:06:05-05:00
; #@! TF.GenerationSoftware,Kicad,Pcbnew,9.0.0
; #@! TF.FileFunction,Plated,1,2,PTH
FMAT,2
METRIC
; #@! TA.AperFunction,Plated,PTH,ViaDrill
T1C0.300
; #@! TA.AperFunction,Plated,PTH,ComponentDrill
T2C0.800
; #@! TA.AperFunction,Plated,PTH,ComponentDrill
T3C1.000
; #@! TA.AperFunction,Plated,PTH,ComponentDrill
T4C1.080
; #@! TA.AperFunction,Plated,PTH,ComponentDrill
T5C1.100
; #@! TA.AperFunction,Plated,PTH,ComponentDrill
T6C1.150
; #@! TA.AperFunction,Plated,PTH,ComponentDrill
T7C1.330
; #@! TA.AperFunction,Plated,PTH,ComponentDrill
T8C1.500
; #@! TA.AperFunction,Plated,PTH,ComponentDrill
T9C1.880
; #@! TA.AperFunction,Plated,PTH,ComponentDrill
T10C2.000
; #@! TA.AperFunction,Plated,PTH,ComponentDrill
T11C2.500
%
G90
G05
T1
X139.192Y-87.376
X139.7Y-89.408
X140.564Y-80.645
X141.326Y-78.664
X141.58Y-83.795
X142.748Y-88.392
X149.923Y-117.869
X169.393Y-116.561
T2
X113.333Y-81.747
X113.333Y-84.247
X126.97Y-107.934
X129.47Y-107.934
X184.15Y-74.93
X188.97Y-79.169
X188.97Y-84.249
X189.23Y-74.93
T3
X116.078Y-117.983
X116.078Y-120.523
X118.618Y-117.983
X118.618Y-120.523
X121.158Y-117.983
X121.158Y-120.523
X123.698Y-117.983
X123.698Y-120.523
X140.97Y-111.759
X140.97Y-132.079
X143.51Y-111.759
X143.51Y-132.079
X146.05Y-111.759
X146.05Y-132.079
X148.59Y-111.759
X148.59Y-132.079
X151.13Y-111.759
X151.13Y-132.079
X153.67Y-111.759
X153.67Y-132.079
X156.21Y-111.759
X156.21Y-132.079
X158.75Y-111.759
X158.75Y-132.079
X161.29Y-111.759
X161.29Y-132.079
X163.83Y-111.759
X163.83Y-132.079
X166.37Y-111.759
X166.37Y-132.079
X168.91Y-111.759
X168.91Y-132.079
X171.45Y-111.759
X173.99Y-111.759
X176.53Y-111.759
X179.07Y-111.759
X188.97Y-88.934
X188.97Y-91.474
X188.97Y-96.394
X188.97Y-98.934
T4
X112.141Y-108.283
X114.681Y-108.283
X117.221Y-108.283
T5
X118.11Y-62.23
X118.11Y-67.31
X118.11Y-72.39
X120.65Y-62.23
X120.65Y-67.31
X120.65Y-72.39
X123.19Y-62.23
X123.19Y-67.31
X123.19Y-72.39
X128.905Y-62.228
X128.905Y-67.308
X128.905Y-72.388
X131.445Y-62.228
X131.445Y-67.308
X131.445Y-72.388
X133.985Y-62.228
X133.985Y-67.308
X133.985Y-72.388
X140.89Y-139.935
X140.97Y-104.14
X140.97Y-106.68
X140.97Y-136.64
X143.43Y-139.935
X143.51Y-104.14
X143.51Y-106.68
X143.51Y-136.64
X145.97Y-139.935
X146.05Y-104.14
X146.05Y-106.68
X146.05Y-136.64
X148.51Y-139.935
X148.59Y-104.14
X148.59Y-106.68
X148.59Y-136.64
X151.05Y-139.935
X151.13Y-104.14
X151.13Y-106.68
X151.13Y-136.64
X153.59Y-139.935
X153.67Y-104.14
X153.67Y-106.68
X153.67Y-136.64
X156.13Y-139.935
X156.21Y-104.14
X156.21Y-106.68
X156.21Y-136.64
X158.67Y-139.935
X158.75Y-104.14
X158.75Y-106.68
X158.75Y-136.64
X161.21Y-139.935
X161.29Y-104.14
X161.29Y-106.68
X161.29Y-136.64
X163.75Y-139.935
X163.83Y-104.14
X163.83Y-106.68
X163.83Y-136.64
X166.29Y-139.935
X166.37Y-104.14
X166.37Y-106.68
X166.37Y-136.64
X168.83Y-139.935
X168.91Y-104.14
X168.91Y-106.68
X168.91Y-136.64
X171.45Y-104.14
X171.45Y-106.68
X173.99Y-104.14
X173.99Y-106.68
X176.53Y-104.14
X176.53Y-106.68
X179.07Y-104.14
X179.07Y-106.68
T6
X84.726Y-112.648
X84.726Y-125.348
X84.726Y-128.648
X84.726Y-141.348
X89.806Y-112.648
X89.806Y-125.348
X89.806Y-128.648
X89.806Y-141.348
X99.726Y-112.648
X99.726Y-125.348
X100.578Y-129.047
X100.578Y-141.747
X104.806Y-112.648
X104.806Y-125.348
X105.658Y-129.047
X105.658Y-141.747
T7
X126.033Y-81.747
X126.033Y-89.367
X126.033Y-96.987
X176.833Y-85.557
X176.833Y-89.367
T8
X149.438Y-66.12
X149.438Y-71.12
X154.438Y-66.12
X154.438Y-71.12
X159.438Y-66.12
X159.438Y-71.12
X164.438Y-66.12
X164.438Y-71.12
X169.438Y-66.12
X169.438Y-71.12
X174.438Y-66.12
X174.438Y-71.12
T9
X176.833Y-81.747
X176.833Y-96.987
T10
X99.363Y-79.842
X99.363Y-85.557
X183.97Y-80.219
X183.97Y-85.934
X183.97Y-92.077
X183.97Y-97.792
T11
X90.473Y-85.557
X90.473Y-91.907
T3
G00X98.213Y-93.277
M15
G01X98.213Y-97.277
M16
G05
G00X105.213Y-93.277
M15
G01X105.213Y-97.277
M16
G05
M30
