%TF.GenerationSoftware,KiCad,Pcbnew,9.0.0*%
%TF.CreationDate,2026-02-18T18:06:03-05:00*%
%TF.ProjectId,chassis v2 primary board,63686173-7369-4732-9076-32207072696d,rev?*%
%TF.SameCoordinates,Original*%
%TF.FileFunction,Soldermask,Top*%
%TF.FilePolarity,Negative*%
%FSLAX46Y46*%
G04 Gerber Fmt 4.6, Leading zero omitted, Abs format (unit mm)*
G04 Created by KiCad (PCBNEW 9.0.0) date 2026-02-18 18:06:03*
%MOMM*%
%LPD*%
G01*
G04 APERTURE LIST*
G04 Aperture macros list*
%AMRoundRect*
0 Rectangle with rounded corners*
0 $1 Rounding radius*
0 $2 $3 $4 $5 $6 $7 $8 $9 X,Y pos of 4 corners*
0 Add a 4 corners polygon primitive as box body*
4,1,4,$2,$3,$4,$5,$6,$7,$8,$9,$2,$3,0*
0 Add four circle primitives for the rounded corners*
1,1,$1+$1,$2,$3*
1,1,$1+$1,$4,$5*
1,1,$1+$1,$6,$7*
1,1,$1+$1,$8,$9*
0 Add four rect primitives between the rounded corners*
20,1,$1+$1,$2,$3,$4,$5,0*
20,1,$1+$1,$4,$5,$6,$7,0*
20,1,$1+$1,$6,$7,$8,$9,0*
20,1,$1+$1,$8,$9,$2,$3,0*%
G04 Aperture macros list end*
%ADD10R,1.700000X1.700000*%
%ADD11O,1.700000X1.700000*%
%ADD12R,1.905000X2.000000*%
%ADD13O,1.905000X2.000000*%
%ADD14RoundRect,0.102000X-0.810000X-0.810000X0.810000X-0.810000X0.810000X0.810000X-0.810000X0.810000X0*%
%ADD15C,1.824000*%
%ADD16C,3.000000*%
%ADD17C,2.000000*%
%ADD18C,1.600000*%
%ADD19O,1.600000X1.600000*%
%ADD20RoundRect,0.102000X-0.997500X-0.997500X0.997500X-0.997500X0.997500X0.997500X-0.997500X0.997500X0*%
%ADD21C,2.199000*%
%ADD22C,3.024000*%
%ADD23C,4.000000*%
%ADD24C,4.300000*%
%ADD25RoundRect,0.300000X-0.700000X-3.200000X0.700000X-3.200000X0.700000X3.200000X-0.700000X3.200000X0*%
%ADD26R,1.600000X1.600000*%
%ADD27C,2.540000*%
%ADD28RoundRect,0.250000X-0.550000X1.050000X-0.550000X-1.050000X0.550000X-1.050000X0.550000X1.050000X0*%
%ADD29O,1.600000X2.600000*%
%ADD30C,5.000000*%
G04 APERTURE END LIST*
D10*
%TO.C,J15*%
X188970000Y-88934305D03*
D11*
X188970000Y-91474305D03*
%TD*%
D12*
%TO.C,Q3*%
X133985000Y-72387695D03*
D13*
X131445000Y-72387695D03*
X128905000Y-72387695D03*
%TD*%
D10*
%TO.C,J21*%
X188970000Y-96394305D03*
D11*
X188970000Y-98934305D03*
%TD*%
D14*
%TO.C,PS2*%
X112141000Y-108283500D03*
D15*
X114681000Y-108283500D03*
X117221000Y-108283500D03*
%TD*%
D16*
%TO.C,J1*%
X149437754Y-66120000D03*
X149437754Y-71120000D03*
X154437754Y-66120000D03*
X154437754Y-71120000D03*
X159437754Y-66120000D03*
X159437754Y-71120000D03*
X164437754Y-66120000D03*
X164437754Y-71120000D03*
X169437754Y-66120000D03*
X169437754Y-71120000D03*
X174437754Y-66120000D03*
X174437754Y-71120000D03*
%TD*%
D17*
%TO.C,J17*%
X140970000Y-136640000D03*
X143510000Y-136640000D03*
X146050000Y-136640000D03*
X148590000Y-136640000D03*
X151130000Y-136640000D03*
X153670000Y-136640000D03*
X156210000Y-136640000D03*
X158750000Y-136640000D03*
X161290000Y-136640000D03*
X163830000Y-136640000D03*
X166370000Y-136640000D03*
X168910000Y-136640000D03*
%TD*%
%TO.C,J20*%
X140890000Y-139935305D03*
X143430000Y-139935305D03*
X145970000Y-139935305D03*
X148510000Y-139935305D03*
X151050000Y-139935305D03*
X153590000Y-139935305D03*
X156130000Y-139935305D03*
X158670000Y-139935305D03*
X161210000Y-139935305D03*
X163750000Y-139935305D03*
X166290000Y-139935305D03*
X168830000Y-139935305D03*
%TD*%
D10*
%TO.C,J8*%
X116078000Y-120523000D03*
D11*
X116078000Y-117983000D03*
X118618000Y-120523000D03*
X118618000Y-117983000D03*
X121158000Y-120523000D03*
X121158000Y-117983000D03*
X123698000Y-120523000D03*
X123698000Y-117983000D03*
%TD*%
D18*
%TO.C,R14*%
X188970000Y-84249305D03*
D19*
X188970000Y-79169305D03*
%TD*%
D20*
%TO.C,PS1*%
X126033300Y-81746905D03*
D21*
X126033300Y-89366905D03*
X126033300Y-96986905D03*
D22*
X176833300Y-96986905D03*
D21*
X176833300Y-89366905D03*
X176833300Y-85556905D03*
D22*
X176833300Y-81746905D03*
%TD*%
D23*
%TO.C,J18*%
X183970000Y-85934305D03*
X183970000Y-80219305D03*
%TD*%
D12*
%TO.C,Q6*%
X123190000Y-72390000D03*
D13*
X120650000Y-72390000D03*
X118110000Y-72390000D03*
%TD*%
D18*
%TO.C,R21*%
X184150000Y-74930000D03*
D19*
X189230000Y-74930000D03*
%TD*%
D24*
%TO.C,H1*%
X127000000Y-133350000D03*
%TD*%
D12*
%TO.C,Q1*%
X133985000Y-62227695D03*
D13*
X131445000Y-62227695D03*
X128905000Y-62227695D03*
%TD*%
D24*
%TO.C,H2*%
X83470000Y-104522305D03*
%TD*%
D12*
%TO.C,Q4*%
X123190000Y-62230000D03*
D13*
X120650000Y-62230000D03*
X118110000Y-62230000D03*
%TD*%
D25*
%TO.C,SW5*%
X98213300Y-95276905D03*
X105213300Y-95276905D03*
%TD*%
D24*
%TO.C,H4*%
X185420000Y-63500000D03*
%TD*%
D23*
%TO.C,J14*%
X183970000Y-97791805D03*
X183970000Y-92076805D03*
%TD*%
D26*
%TO.C,C2*%
X113333300Y-81746905D03*
D18*
X113333300Y-84246905D03*
%TD*%
D23*
%TO.C,J22*%
X99363300Y-79841905D03*
X99363300Y-85556905D03*
%TD*%
D27*
%TO.C,SW3*%
X99726000Y-112648305D03*
X99726000Y-125348305D03*
X104806000Y-112648305D03*
X104806000Y-125348305D03*
%TD*%
D17*
%TO.C,J16*%
X179070000Y-106680000D03*
X176530000Y-106680000D03*
X173990000Y-106680000D03*
X171450000Y-106680000D03*
X168910000Y-106680000D03*
X166370000Y-106680000D03*
X163830000Y-106680000D03*
X161290000Y-106680000D03*
X158750000Y-106680000D03*
X156210000Y-106680000D03*
X153670000Y-106680000D03*
X151130000Y-106680000D03*
X148590000Y-106680000D03*
X146050000Y-106680000D03*
X143510000Y-106680000D03*
X140970000Y-106680000D03*
%TD*%
D27*
%TO.C,SW4*%
X100578000Y-129047305D03*
X100578000Y-141747305D03*
X105658000Y-129047305D03*
X105658000Y-141747305D03*
%TD*%
D28*
%TO.C,A1*%
X179070000Y-112059000D03*
D29*
X176530000Y-112059000D03*
X173990000Y-112059000D03*
X171450000Y-112059000D03*
X168910000Y-112059000D03*
X166370000Y-112059000D03*
X163830000Y-112059000D03*
X161290000Y-112059000D03*
X158750000Y-112059000D03*
X156210000Y-112059000D03*
X153670000Y-112059000D03*
X151130000Y-112059000D03*
X148590000Y-112059000D03*
X146050000Y-112059000D03*
X143510000Y-112059000D03*
X140970000Y-112059000D03*
X140970000Y-131779000D03*
X143510000Y-131779000D03*
X146050000Y-131779000D03*
X148590000Y-131779000D03*
X151130000Y-131779000D03*
X153670000Y-131779000D03*
X156210000Y-131779000D03*
X158750000Y-131779000D03*
X161290000Y-131779000D03*
X163830000Y-131779000D03*
X166370000Y-131779000D03*
X168910000Y-131779000D03*
%TD*%
D30*
%TO.C,BT1*%
X90473300Y-85556905D03*
X90473300Y-91906905D03*
%TD*%
D12*
%TO.C,Q5*%
X123190000Y-67310000D03*
D13*
X120650000Y-67310000D03*
X118110000Y-67310000D03*
%TD*%
D12*
%TO.C,Q2*%
X133985000Y-67307695D03*
D13*
X131445000Y-67307695D03*
X128905000Y-67307695D03*
%TD*%
D17*
%TO.C,J19*%
X179070000Y-104140000D03*
X176530000Y-104140000D03*
X173990000Y-104140000D03*
X171450000Y-104140000D03*
X168910000Y-104140000D03*
X166370000Y-104140000D03*
X163830000Y-104140000D03*
X161290000Y-104140000D03*
X158750000Y-104140000D03*
X156210000Y-104140000D03*
X153670000Y-104140000D03*
X151130000Y-104140000D03*
X148590000Y-104140000D03*
X146050000Y-104140000D03*
X143510000Y-104140000D03*
X140970000Y-104140000D03*
%TD*%
D27*
%TO.C,SW2*%
X84726000Y-128648305D03*
X84726000Y-141348305D03*
X89806000Y-128648305D03*
X89806000Y-141348305D03*
%TD*%
D26*
%TO.C,C1*%
X126970000Y-107934305D03*
D18*
X129470000Y-107934305D03*
%TD*%
D27*
%TO.C,SW1*%
X84726000Y-112648305D03*
X84726000Y-125348305D03*
X89806000Y-112648305D03*
X89806000Y-125348305D03*
%TD*%
M02*
