%TF.GenerationSoftware,KiCad,Pcbnew,8.0.4*%
%TF.CreationDate,2025-02-09T16:53:56-05:00*%
%TF.ProjectId,Chassis,43686173-7369-4732-9e6b-696361645f70,rev?*%
%TF.SameCoordinates,Original*%
%TF.FileFunction,Profile,NP*%
%FSLAX46Y46*%
G04 Gerber Fmt 4.6, Leading zero omitted, Abs format (unit mm)*
G04 Created by KiCad (PCBNEW 8.0.4) date 2025-02-09 16:53:56*
%MOMM*%
%LPD*%
G01*
G04 APERTURE LIST*
%TA.AperFunction,Profile*%
%ADD10C,0.050000*%
%TD*%
%ADD11C,0.350000*%
G04 APERTURE END LIST*
D10*
X158218046Y-156741954D02*
G75*
G02*
X154201954Y-156741954I-2008046J0D01*
G01*
X154201954Y-156741954D02*
G75*
G02*
X158218046Y-156741954I2008046J0D01*
G01*
X75960000Y-160654999D02*
G75*
G02*
X74279942Y-158750000I240000J1904999D01*
G01*
X160430038Y-159385000D02*
G75*
G02*
X158750000Y-161065038I-1680038J0D01*
G01*
X158750000Y-47214962D02*
G75*
G02*
X160430038Y-48895000I0J-1680038D01*
G01*
X145415000Y-36690000D02*
G75*
G02*
X147452809Y-38563653I0J-2045000D01*
G01*
X139065000Y-36690000D02*
G75*
G02*
X137300000Y-34925000I0J1765000D01*
G01*
X135890000Y-26530000D02*
G75*
G02*
X137300000Y-27940000I0J-1410000D01*
G01*
X126365000Y-143510000D02*
X126365000Y-120650000D01*
X111125000Y-143510000D02*
X126365000Y-143510000D01*
X111125000Y-120015000D02*
X111125000Y-143510000D01*
X113030000Y-120015000D02*
X111125000Y-120015000D01*
X113030000Y-113030000D02*
X113030000Y-120015000D01*
X124460000Y-113030000D02*
X113030000Y-113030000D01*
X124460000Y-120650000D02*
X124460000Y-113030000D01*
X126365000Y-120650000D02*
X124460000Y-120650000D01*
X137300000Y-27940000D02*
X137300000Y-34925000D01*
X86755000Y-44945000D02*
G75*
G02*
X84850000Y-46850000I-1905000J0D01*
G01*
X97550000Y-35420000D02*
G75*
G02*
X95645000Y-37325000I-1905000J0D01*
G01*
X145278046Y-40500000D02*
G75*
G02*
X141261954Y-40500000I-2008046J0D01*
G01*
X141261954Y-40500000D02*
G75*
G02*
X145278046Y-40500000I2008046J0D01*
G01*
X97550000Y-35420000D02*
X97550000Y-28435000D01*
X86755000Y-44945000D02*
X86755000Y-39230000D01*
X74055000Y-48755000D02*
G75*
G02*
X75960000Y-46850000I1905000J0D01*
G01*
X84850000Y-46850000D02*
X75960000Y-46850000D01*
X149308181Y-47183615D02*
X158750000Y-47214962D01*
X92573046Y-41135000D02*
G75*
G02*
X88556954Y-41135000I-2008046J0D01*
G01*
X88556954Y-41135000D02*
G75*
G02*
X92573046Y-41135000I2008046J0D01*
G01*
X74055000Y-48755000D02*
X74279942Y-158750000D01*
X160430038Y-48895000D02*
X160430038Y-159385000D01*
X88660000Y-37325000D02*
X95645000Y-37325000D01*
X97550000Y-28435000D02*
G75*
G02*
X99455000Y-26530000I1905000J0D01*
G01*
X135890000Y-26530000D02*
X99455000Y-26530000D01*
X86755000Y-39230000D02*
G75*
G02*
X88660000Y-37325000I1905000J0D01*
G01*
X75960000Y-160655000D02*
X158750000Y-161065038D01*
X147452809Y-38563653D02*
X147452809Y-44913653D01*
X149308181Y-47183615D02*
G75*
G02*
X147452809Y-44913653I289627J2129962D01*
G01*
X139065000Y-36690000D02*
X145415000Y-36690000D01*
D11*
X88065000Y-94475000D03*
X90565000Y-94475000D03*
X109895000Y-154305000D03*
X117395000Y-154305000D03*
X142240000Y-57579000D03*
X142240000Y-65199000D03*
X146621000Y-64112000D03*
X151701000Y-64112000D03*
X146621000Y-61572000D03*
X151701000Y-61572000D03*
X93830000Y-76277000D03*
X93830000Y-68657000D03*
X128905000Y-130175000D03*
X128905000Y-127635000D03*
X128905000Y-125095000D03*
X128905000Y-122555000D03*
X128905000Y-120015000D03*
X128905000Y-117475000D03*
X128905000Y-114935000D03*
X128905000Y-112395000D03*
X128905000Y-109855000D03*
X128905000Y-107315000D03*
X128905000Y-104775000D03*
X128905000Y-102235000D03*
X128905000Y-99695000D03*
X128905000Y-97155000D03*
X128905000Y-94615000D03*
X128905000Y-92075000D03*
X108585000Y-92075000D03*
X108585000Y-94615000D03*
X108585000Y-97155000D03*
X108585000Y-99695000D03*
X108585000Y-102235000D03*
X108585000Y-104775000D03*
X108585000Y-107315000D03*
X108585000Y-109855000D03*
X108585000Y-112395000D03*
X108585000Y-114935000D03*
X108585000Y-117475000D03*
X108585000Y-120015000D03*
X98820000Y-99330000D03*
X98820000Y-94250000D03*
X93830000Y-65657000D03*
X93830000Y-58037000D03*
X81040000Y-155435000D03*
X88660000Y-155435000D03*
X96280000Y-155435000D03*
X96280000Y-104635000D03*
X88660000Y-104635000D03*
X84850000Y-104635000D03*
X81040000Y-104635000D03*
X108927000Y-44956000D03*
X116547000Y-44956000D03*
X119427000Y-44956000D03*
X127047000Y-44956000D03*
X133434000Y-40005000D03*
X133434000Y-34925000D03*
X130894000Y-40005000D03*
X130894000Y-34925000D03*
X88900000Y-60157000D03*
X83820000Y-60157000D03*
X88900000Y-62697000D03*
X83820000Y-62697000D03*
X115486000Y-40005000D03*
X115486000Y-34925000D03*
X112946000Y-40005000D03*
X112946000Y-34925000D03*
X131840000Y-75425000D03*
X134380000Y-75425000D03*
X136920000Y-75425000D03*
X131840000Y-69075000D03*
X134380000Y-69075000D03*
X136920000Y-69075000D03*
X98427000Y-44956000D03*
X106047000Y-44956000D03*
X88900000Y-51183000D03*
X83820000Y-51183000D03*
X88900000Y-53723000D03*
X83820000Y-53723000D03*
X103505000Y-92075000D03*
X103505000Y-94615000D03*
X103505000Y-97155000D03*
X103505000Y-99695000D03*
X103505000Y-102235000D03*
X103505000Y-104775000D03*
X103505000Y-107315000D03*
X103505000Y-109855000D03*
X103505000Y-112395000D03*
X103505000Y-114935000D03*
X103505000Y-117475000D03*
X103505000Y-120015000D03*
X129927000Y-44956000D03*
X137547000Y-44956000D03*
X103265000Y-86220000D03*
X103265000Y-88760000D03*
X79135000Y-95745000D03*
X79135000Y-93205000D03*
X79135000Y-90665000D03*
X132692898Y-55522102D03*
X134488949Y-53726051D03*
X136285000Y-51930000D03*
X98615000Y-86220000D03*
X98615000Y-88760000D03*
X133985000Y-130175000D03*
X133985000Y-127635000D03*
X133985000Y-125095000D03*
X133985000Y-122555000D03*
X133985000Y-120015000D03*
X133985000Y-117475000D03*
X133985000Y-114935000D03*
X133985000Y-112395000D03*
X133985000Y-109855000D03*
X133985000Y-107315000D03*
X133985000Y-104775000D03*
X133985000Y-102235000D03*
X133985000Y-99695000D03*
X133985000Y-97155000D03*
X133985000Y-94615000D03*
X133985000Y-92075000D03*
X142240000Y-68079000D03*
X142240000Y-75699000D03*
X124460000Y-40005000D03*
X124460000Y-34925000D03*
X121920000Y-40005000D03*
X121920000Y-34925000D03*
X93830000Y-86777000D03*
X93830000Y-79157000D03*
X104535000Y-80505000D03*
X101995000Y-80505000D03*
X99455000Y-80505000D03*
X146740000Y-73025000D03*
X151820000Y-73025000D03*
X146740000Y-70485000D03*
X151820000Y-70485000D03*
X140095000Y-97015000D03*
X145175000Y-97015000D03*
X140095000Y-94475000D03*
X145175000Y-94475000D03*
X139445000Y-102460000D03*
X147065000Y-102460000D03*
X123727165Y-55029267D03*
X125523216Y-53233216D03*
X127319267Y-51437165D03*
X145175000Y-125180000D03*
X141175000Y-125180000D03*
X104534999Y-60820000D03*
X101994999Y-60820000D03*
X99455000Y-60820000D03*
X106512000Y-40005000D03*
X106512000Y-34925000D03*
X103972000Y-40005000D03*
X103972000Y-34925000D03*
X104534999Y-67170000D03*
X101994999Y-67170000D03*
X99454999Y-67170000D03*
X131840000Y-81450000D03*
X134380000Y-81450000D03*
X136920000Y-81450000D03*
X146621000Y-55138000D03*
X151701000Y-55138000D03*
X146621000Y-52598000D03*
X151701000Y-52598000D03*
X142240000Y-78579000D03*
X142240000Y-86199000D03*
X100942898Y-50242898D03*
X102738949Y-52038949D03*
X104535000Y-53835000D03*
X140785000Y-109940000D03*
X143325000Y-109940000D03*
X145865000Y-109940000D03*
X142240000Y-46889000D03*
X142240000Y-54509000D03*
X131840000Y-63035000D03*
X134380000Y-63035000D03*
X136920000Y-63035000D03*
X104535000Y-74155000D03*
X101995000Y-74155000D03*
X99455000Y-74155000D03*
X146740000Y-81999000D03*
X151820000Y-81999000D03*
X146740000Y-79459000D03*
X151820000Y-79459000D03*
X112263949Y-50133949D03*
X114060000Y-51930000D03*
X115856051Y-53726051D03*
X88900000Y-78105000D03*
X83820000Y-78105000D03*
X88900000Y-80645000D03*
X83820000Y-80645000D03*
X93830000Y-54657000D03*
X93830000Y-47037000D03*
X88900000Y-69131000D03*
X83820000Y-69131000D03*
X88900000Y-71671000D03*
X83820000Y-71671000D03*
M02*
