M48
METRIC,TZ
T1C0.300
T2C0.762
T3C0.800
T4C0.900
T5C1.000
T6C1.100
T7C1.330
T8C1.880
T9C2.200
%
G90
G05
T1
X115570Y-95250
X116205Y-93345
X117475Y-97155
X118505Y-108445
X118745Y-100330
X121285Y-83820
X124220Y-98285
X125730Y-87630
X126056Y-114164
T2
X79135Y-90665
X79135Y-93205
X79135Y-95745
X103505Y-92075
X103505Y-94615
X103505Y-97155
X103505Y-99695
X103505Y-102235
X103505Y-104775
X103505Y-107315
X103505Y-109855
X103505Y-112395
X103505Y-114935
X103505Y-117475
X103505Y-120015
X133985Y-92075
X133985Y-94615
X133985Y-97155
X133985Y-99695
X133985Y-102235
X133985Y-104775
X133985Y-107315
X133985Y-109855
X133985Y-112395
X133985Y-114935
X133985Y-117475
X133985Y-120015
X133985Y-122555
X133985Y-125095
X133985Y-127635
X133985Y-130175
X141175Y-125180
X145175Y-125180
T3
X88065Y-94475
X90565Y-94475
X98820Y-94250
X98820Y-99330
T4
X93830Y-47037
X93830Y-54657
X93830Y-58037
X93830Y-65657
X93830Y-68657
X93830Y-76277
X93830Y-79157
X93830Y-86777
X98427Y-44956
X106047Y-44956
X108927Y-44956
X116547Y-44956
X119427Y-44956
X127047Y-44956
X129927Y-44956
X137547Y-44956
X139445Y-102460
X142240Y-46889
X142240Y-54509
X142240Y-57579
X142240Y-65199
X142240Y-68079
X142240Y-75699
X142240Y-78579
X142240Y-86199
X147065Y-102460
T5
X83820Y-51183
X83820Y-53723
X83820Y-60157
X83820Y-62697
X83820Y-69131
X83820Y-71671
X83820Y-78105
X83820Y-80645
X88900Y-51183
X88900Y-53723
X88900Y-60157
X88900Y-62697
X88900Y-69131
X88900Y-71671
X88900Y-78105
X88900Y-80645
X98615Y-86220
X98615Y-88760
X103265Y-86220
X103265Y-88760
X103972Y-34925
X103972Y-40005
X106512Y-34925
X106512Y-40005
X108585Y-92075
X108585Y-94615
X108585Y-97155
X108585Y-99695
X108585Y-102235
X108585Y-104775
X108585Y-107315
X108585Y-109855
X108585Y-112395
X108585Y-114935
X108585Y-117475
X108585Y-120015
X112946Y-34925
X112946Y-40005
X115486Y-34925
X115486Y-40005
X121920Y-34925
X121920Y-40005
X124460Y-34925
X124460Y-40005
X128905Y-92075
X128905Y-94615
X128905Y-97155
X128905Y-99695
X128905Y-102235
X128905Y-104775
X128905Y-107315
X128905Y-109855
X128905Y-112395
X128905Y-114935
X128905Y-117475
X128905Y-120015
X128905Y-122555
X128905Y-125095
X128905Y-127635
X128905Y-130175
X130894Y-34925
X130894Y-40005
X133434Y-34925
X133434Y-40005
X140095Y-94475
X140095Y-97015
X145175Y-94475
X145175Y-97015
X146621Y-52598
X146621Y-55138
X146621Y-61572
X146621Y-64112
X146740Y-70485
X146740Y-73025
X146740Y-79459
X146740Y-81999
X151701Y-52598
X151701Y-55138
X151701Y-61572
X151701Y-64112
X151820Y-70485
X151820Y-73025
X151820Y-79459
X151820Y-81999
T6
X99455Y-67170
X99455Y-60820
X99455Y-74155
X99455Y-80505
X100943Y-50243
X101995Y-60820
X101995Y-67170
X101995Y-74155
X101995Y-80505
X102739Y-52039
X104535Y-60820
X104535Y-67170
X104535Y-53835
X104535Y-74155
X104535Y-80505
X112264Y-50134
X114060Y-51930
X115856Y-53726
X123727Y-55029
X125523Y-53233
X127319Y-51437
X131840Y-63035
X131840Y-69075
X131840Y-75425
X131840Y-81450
X132693Y-55522
X134380Y-63035
X134380Y-69075
X134380Y-75425
X134380Y-81450
X134489Y-53726
X136285Y-51930
X136920Y-63035
X136920Y-69075
X136920Y-75425
X136920Y-81450
X140785Y-109940
X143325Y-109940
X145865Y-109940
T7
X81040Y-155435
X84850Y-104635
X88660Y-104635
X88660Y-155435
X96280Y-155435
T8
X81040Y-104635
X96280Y-104635
T9
X109895Y-154305
X117395Y-154305
M30
