%TF.GenerationSoftware,KiCad,Pcbnew,9.0.0*%
%TF.CreationDate,2026-02-18T17:29:44-05:00*%
%TF.ProjectId,chassis v2 primary board,63686173-7369-4732-9076-32207072696d,rev?*%
%TF.SameCoordinates,Original*%
%TF.FileFunction,Profile,NP*%
%FSLAX46Y46*%
G04 Gerber Fmt 4.6, Leading zero omitted, Abs format (unit mm)*
G04 Created by KiCad (PCBNEW 9.0.0) date 2026-02-18 17:29:44*
%MOMM*%
%LPD*%
G01*
G04 APERTURE LIST*
%TA.AperFunction,Profile*%
%ADD10C,0.050000*%
%TD*%
G04 APERTURE END LIST*
D10*
X113030000Y-59690000D02*
G75*
G02*
X115570000Y-57150000I2540000J0D01*
G01*
X173990000Y-143510000D02*
G75*
G02*
X171450000Y-146050000I-2540000J0D01*
G01*
X113030000Y-72390000D02*
X113030000Y-59690000D01*
X191770000Y-100330000D02*
G75*
G02*
X189230000Y-102870000I-2540000J0D01*
G01*
X77470000Y-146050000D02*
X171450000Y-146050000D01*
X176530000Y-115570000D02*
X180340000Y-115570000D01*
X182880000Y-113030000D02*
G75*
G02*
X180340000Y-115570000I-2540000J0D01*
G01*
X77470000Y-146050000D02*
G75*
G02*
X74930000Y-143510000I0J2540000D01*
G01*
X115570000Y-57150000D02*
X189230000Y-57150000D01*
X110490000Y-74930000D02*
X77470000Y-74930000D01*
X74930000Y-77470000D02*
G75*
G02*
X77470000Y-74930000I2540000J0D01*
G01*
X182880000Y-113030000D02*
X182880000Y-105410000D01*
X74930000Y-77470000D02*
X74930000Y-143510000D01*
X189230000Y-102870000D02*
X185420000Y-102870000D01*
X191770000Y-100330000D02*
X191770000Y-59690000D01*
X189230000Y-57150000D02*
G75*
G02*
X191770000Y-59690000I0J-2540000D01*
G01*
X182880000Y-105410000D02*
G75*
G02*
X185420000Y-102870000I2540000J0D01*
G01*
X173990000Y-143510000D02*
X173990000Y-118110000D01*
X173990000Y-118110000D02*
G75*
G02*
X176530000Y-115570000I2540000J0D01*
G01*
X113030000Y-72390000D02*
G75*
G02*
X110490000Y-74930000I-2540000J0D01*
G01*
%TO.C,BT1*%
X84123300Y-83016905D02*
G75*
G02*
X79043300Y-83016905I-2540000J0D01*
G01*
X79043300Y-83016905D02*
G75*
G02*
X84123300Y-83016905I2540000J0D01*
G01*
X84123300Y-94446905D02*
G75*
G02*
X79043300Y-94446905I-2540000J0D01*
G01*
X79043300Y-94446905D02*
G75*
G02*
X84123300Y-94446905I2540000J0D01*
G01*
%TD*%
M02*
