%TF.GenerationSoftware,KiCad,Pcbnew,9.0.0*%
%TF.CreationDate,2026-02-18T17:29:44-05:00*%
%TF.ProjectId,chassis v2 primary board,63686173-7369-4732-9076-32207072696d,rev?*%
%TF.SameCoordinates,Original*%
%TF.FileFunction,Legend,Top*%
%TF.FilePolarity,Positive*%
%FSLAX46Y46*%
G04 Gerber Fmt 4.6, Leading zero omitted, Abs format (unit mm)*
G04 Created by KiCad (PCBNEW 9.0.0) date 2026-02-18 17:29:44*
%MOMM*%
%LPD*%
G01*
G04 APERTURE LIST*
%ADD10C,0.100000*%
%ADD11C,0.150000*%
%ADD12C,0.120000*%
%ADD13C,0.200000*%
%ADD14C,0.127000*%
G04 APERTURE END LIST*
D10*
X188307505Y-82290544D02*
X188307505Y-82023877D01*
X188074172Y-82190544D02*
X188674172Y-82190544D01*
X188674172Y-82190544D02*
X188740839Y-82157211D01*
X188740839Y-82157211D02*
X188774172Y-82090544D01*
X188774172Y-82090544D02*
X188774172Y-82023877D01*
X188774172Y-81790544D02*
X188307505Y-81790544D01*
X188440839Y-81790544D02*
X188374172Y-81757211D01*
X188374172Y-81757211D02*
X188340839Y-81723877D01*
X188340839Y-81723877D02*
X188307505Y-81657211D01*
X188307505Y-81657211D02*
X188307505Y-81590544D01*
X188774172Y-81357211D02*
X188307505Y-81357211D01*
X188074172Y-81357211D02*
X188107505Y-81390544D01*
X188107505Y-81390544D02*
X188140839Y-81357211D01*
X188140839Y-81357211D02*
X188107505Y-81323878D01*
X188107505Y-81323878D02*
X188074172Y-81357211D01*
X188074172Y-81357211D02*
X188140839Y-81357211D01*
X188774172Y-81023878D02*
X188307505Y-81023878D01*
X188374172Y-81023878D02*
X188340839Y-80990545D01*
X188340839Y-80990545D02*
X188307505Y-80923878D01*
X188307505Y-80923878D02*
X188307505Y-80823878D01*
X188307505Y-80823878D02*
X188340839Y-80757211D01*
X188340839Y-80757211D02*
X188407505Y-80723878D01*
X188407505Y-80723878D02*
X188774172Y-80723878D01*
X188407505Y-80723878D02*
X188340839Y-80690545D01*
X188340839Y-80690545D02*
X188307505Y-80623878D01*
X188307505Y-80623878D02*
X188307505Y-80523878D01*
X188307505Y-80523878D02*
X188340839Y-80457211D01*
X188340839Y-80457211D02*
X188407505Y-80423878D01*
X188407505Y-80423878D02*
X188774172Y-80423878D01*
X189201133Y-82190544D02*
X189767800Y-82190544D01*
X189767800Y-82190544D02*
X189834466Y-82157211D01*
X189834466Y-82157211D02*
X189867800Y-82123877D01*
X189867800Y-82123877D02*
X189901133Y-82057211D01*
X189901133Y-82057211D02*
X189901133Y-81923877D01*
X189901133Y-81923877D02*
X189867800Y-81857211D01*
X189867800Y-81857211D02*
X189834466Y-81823877D01*
X189834466Y-81823877D02*
X189767800Y-81790544D01*
X189767800Y-81790544D02*
X189201133Y-81790544D01*
X189901133Y-81457211D02*
X189201133Y-81457211D01*
X189201133Y-81457211D02*
X189201133Y-81190544D01*
X189201133Y-81190544D02*
X189234466Y-81123878D01*
X189234466Y-81123878D02*
X189267800Y-81090544D01*
X189267800Y-81090544D02*
X189334466Y-81057211D01*
X189334466Y-81057211D02*
X189434466Y-81057211D01*
X189434466Y-81057211D02*
X189501133Y-81090544D01*
X189501133Y-81090544D02*
X189534466Y-81123878D01*
X189534466Y-81123878D02*
X189567800Y-81190544D01*
X189567800Y-81190544D02*
X189567800Y-81457211D01*
X90412323Y-105956794D02*
X90374227Y-105994890D01*
X90374227Y-105994890D02*
X90259942Y-106032985D01*
X90259942Y-106032985D02*
X90183751Y-106032985D01*
X90183751Y-106032985D02*
X90069465Y-105994890D01*
X90069465Y-105994890D02*
X89993275Y-105918699D01*
X89993275Y-105918699D02*
X89955180Y-105842509D01*
X89955180Y-105842509D02*
X89917084Y-105690128D01*
X89917084Y-105690128D02*
X89917084Y-105575842D01*
X89917084Y-105575842D02*
X89955180Y-105423461D01*
X89955180Y-105423461D02*
X89993275Y-105347270D01*
X89993275Y-105347270D02*
X90069465Y-105271080D01*
X90069465Y-105271080D02*
X90183751Y-105232985D01*
X90183751Y-105232985D02*
X90259942Y-105232985D01*
X90259942Y-105232985D02*
X90374227Y-105271080D01*
X90374227Y-105271080D02*
X90412323Y-105309175D01*
X90755180Y-106032985D02*
X90755180Y-105232985D01*
X91098037Y-106032985D02*
X91098037Y-105613937D01*
X91098037Y-105613937D02*
X91059942Y-105537747D01*
X91059942Y-105537747D02*
X90983751Y-105499651D01*
X90983751Y-105499651D02*
X90869465Y-105499651D01*
X90869465Y-105499651D02*
X90793275Y-105537747D01*
X90793275Y-105537747D02*
X90755180Y-105575842D01*
X91821847Y-106032985D02*
X91821847Y-105613937D01*
X91821847Y-105613937D02*
X91783752Y-105537747D01*
X91783752Y-105537747D02*
X91707561Y-105499651D01*
X91707561Y-105499651D02*
X91555180Y-105499651D01*
X91555180Y-105499651D02*
X91478990Y-105537747D01*
X91821847Y-105994890D02*
X91745656Y-106032985D01*
X91745656Y-106032985D02*
X91555180Y-106032985D01*
X91555180Y-106032985D02*
X91478990Y-105994890D01*
X91478990Y-105994890D02*
X91440894Y-105918699D01*
X91440894Y-105918699D02*
X91440894Y-105842509D01*
X91440894Y-105842509D02*
X91478990Y-105766318D01*
X91478990Y-105766318D02*
X91555180Y-105728223D01*
X91555180Y-105728223D02*
X91745656Y-105728223D01*
X91745656Y-105728223D02*
X91821847Y-105690128D01*
X92164704Y-105994890D02*
X92240895Y-106032985D01*
X92240895Y-106032985D02*
X92393276Y-106032985D01*
X92393276Y-106032985D02*
X92469466Y-105994890D01*
X92469466Y-105994890D02*
X92507562Y-105918699D01*
X92507562Y-105918699D02*
X92507562Y-105880604D01*
X92507562Y-105880604D02*
X92469466Y-105804413D01*
X92469466Y-105804413D02*
X92393276Y-105766318D01*
X92393276Y-105766318D02*
X92278990Y-105766318D01*
X92278990Y-105766318D02*
X92202800Y-105728223D01*
X92202800Y-105728223D02*
X92164704Y-105652032D01*
X92164704Y-105652032D02*
X92164704Y-105613937D01*
X92164704Y-105613937D02*
X92202800Y-105537747D01*
X92202800Y-105537747D02*
X92278990Y-105499651D01*
X92278990Y-105499651D02*
X92393276Y-105499651D01*
X92393276Y-105499651D02*
X92469466Y-105537747D01*
X92812323Y-105994890D02*
X92888514Y-106032985D01*
X92888514Y-106032985D02*
X93040895Y-106032985D01*
X93040895Y-106032985D02*
X93117085Y-105994890D01*
X93117085Y-105994890D02*
X93155181Y-105918699D01*
X93155181Y-105918699D02*
X93155181Y-105880604D01*
X93155181Y-105880604D02*
X93117085Y-105804413D01*
X93117085Y-105804413D02*
X93040895Y-105766318D01*
X93040895Y-105766318D02*
X92926609Y-105766318D01*
X92926609Y-105766318D02*
X92850419Y-105728223D01*
X92850419Y-105728223D02*
X92812323Y-105652032D01*
X92812323Y-105652032D02*
X92812323Y-105613937D01*
X92812323Y-105613937D02*
X92850419Y-105537747D01*
X92850419Y-105537747D02*
X92926609Y-105499651D01*
X92926609Y-105499651D02*
X93040895Y-105499651D01*
X93040895Y-105499651D02*
X93117085Y-105537747D01*
X93498038Y-106032985D02*
X93498038Y-105499651D01*
X93498038Y-105232985D02*
X93459942Y-105271080D01*
X93459942Y-105271080D02*
X93498038Y-105309175D01*
X93498038Y-105309175D02*
X93536133Y-105271080D01*
X93536133Y-105271080D02*
X93498038Y-105232985D01*
X93498038Y-105232985D02*
X93498038Y-105309175D01*
X93840894Y-105994890D02*
X93917085Y-106032985D01*
X93917085Y-106032985D02*
X94069466Y-106032985D01*
X94069466Y-106032985D02*
X94145656Y-105994890D01*
X94145656Y-105994890D02*
X94183752Y-105918699D01*
X94183752Y-105918699D02*
X94183752Y-105880604D01*
X94183752Y-105880604D02*
X94145656Y-105804413D01*
X94145656Y-105804413D02*
X94069466Y-105766318D01*
X94069466Y-105766318D02*
X93955180Y-105766318D01*
X93955180Y-105766318D02*
X93878990Y-105728223D01*
X93878990Y-105728223D02*
X93840894Y-105652032D01*
X93840894Y-105652032D02*
X93840894Y-105613937D01*
X93840894Y-105613937D02*
X93878990Y-105537747D01*
X93878990Y-105537747D02*
X93955180Y-105499651D01*
X93955180Y-105499651D02*
X94069466Y-105499651D01*
X94069466Y-105499651D02*
X94145656Y-105537747D01*
X95136133Y-106032985D02*
X95136133Y-105232985D01*
X95136133Y-105232985D02*
X95326609Y-105232985D01*
X95326609Y-105232985D02*
X95440895Y-105271080D01*
X95440895Y-105271080D02*
X95517085Y-105347270D01*
X95517085Y-105347270D02*
X95555180Y-105423461D01*
X95555180Y-105423461D02*
X95593276Y-105575842D01*
X95593276Y-105575842D02*
X95593276Y-105690128D01*
X95593276Y-105690128D02*
X95555180Y-105842509D01*
X95555180Y-105842509D02*
X95517085Y-105918699D01*
X95517085Y-105918699D02*
X95440895Y-105994890D01*
X95440895Y-105994890D02*
X95326609Y-106032985D01*
X95326609Y-106032985D02*
X95136133Y-106032985D01*
X95936133Y-106032985D02*
X95936133Y-105499651D01*
X95936133Y-105652032D02*
X95974228Y-105575842D01*
X95974228Y-105575842D02*
X96012323Y-105537747D01*
X96012323Y-105537747D02*
X96088514Y-105499651D01*
X96088514Y-105499651D02*
X96164704Y-105499651D01*
X96431371Y-106032985D02*
X96431371Y-105499651D01*
X96431371Y-105232985D02*
X96393275Y-105271080D01*
X96393275Y-105271080D02*
X96431371Y-105309175D01*
X96431371Y-105309175D02*
X96469466Y-105271080D01*
X96469466Y-105271080D02*
X96431371Y-105232985D01*
X96431371Y-105232985D02*
X96431371Y-105309175D01*
X96736132Y-105499651D02*
X96926608Y-106032985D01*
X96926608Y-106032985D02*
X97117085Y-105499651D01*
X97726609Y-105994890D02*
X97650418Y-106032985D01*
X97650418Y-106032985D02*
X97498037Y-106032985D01*
X97498037Y-106032985D02*
X97421847Y-105994890D01*
X97421847Y-105994890D02*
X97383751Y-105918699D01*
X97383751Y-105918699D02*
X97383751Y-105613937D01*
X97383751Y-105613937D02*
X97421847Y-105537747D01*
X97421847Y-105537747D02*
X97498037Y-105499651D01*
X97498037Y-105499651D02*
X97650418Y-105499651D01*
X97650418Y-105499651D02*
X97726609Y-105537747D01*
X97726609Y-105537747D02*
X97764704Y-105613937D01*
X97764704Y-105613937D02*
X97764704Y-105690128D01*
X97764704Y-105690128D02*
X97383751Y-105766318D01*
X98107561Y-106032985D02*
X98107561Y-105499651D01*
X98107561Y-105652032D02*
X98145656Y-105575842D01*
X98145656Y-105575842D02*
X98183751Y-105537747D01*
X98183751Y-105537747D02*
X98259942Y-105499651D01*
X98259942Y-105499651D02*
X98336132Y-105499651D01*
X99478989Y-105613937D02*
X99593275Y-105652032D01*
X99593275Y-105652032D02*
X99631370Y-105690128D01*
X99631370Y-105690128D02*
X99669466Y-105766318D01*
X99669466Y-105766318D02*
X99669466Y-105880604D01*
X99669466Y-105880604D02*
X99631370Y-105956794D01*
X99631370Y-105956794D02*
X99593275Y-105994890D01*
X99593275Y-105994890D02*
X99517085Y-106032985D01*
X99517085Y-106032985D02*
X99212323Y-106032985D01*
X99212323Y-106032985D02*
X99212323Y-105232985D01*
X99212323Y-105232985D02*
X99478989Y-105232985D01*
X99478989Y-105232985D02*
X99555180Y-105271080D01*
X99555180Y-105271080D02*
X99593275Y-105309175D01*
X99593275Y-105309175D02*
X99631370Y-105385366D01*
X99631370Y-105385366D02*
X99631370Y-105461556D01*
X99631370Y-105461556D02*
X99593275Y-105537747D01*
X99593275Y-105537747D02*
X99555180Y-105575842D01*
X99555180Y-105575842D02*
X99478989Y-105613937D01*
X99478989Y-105613937D02*
X99212323Y-105613937D01*
X100126608Y-106032985D02*
X100050418Y-105994890D01*
X100050418Y-105994890D02*
X100012323Y-105956794D01*
X100012323Y-105956794D02*
X99974227Y-105880604D01*
X99974227Y-105880604D02*
X99974227Y-105652032D01*
X99974227Y-105652032D02*
X100012323Y-105575842D01*
X100012323Y-105575842D02*
X100050418Y-105537747D01*
X100050418Y-105537747D02*
X100126608Y-105499651D01*
X100126608Y-105499651D02*
X100240894Y-105499651D01*
X100240894Y-105499651D02*
X100317085Y-105537747D01*
X100317085Y-105537747D02*
X100355180Y-105575842D01*
X100355180Y-105575842D02*
X100393275Y-105652032D01*
X100393275Y-105652032D02*
X100393275Y-105880604D01*
X100393275Y-105880604D02*
X100355180Y-105956794D01*
X100355180Y-105956794D02*
X100317085Y-105994890D01*
X100317085Y-105994890D02*
X100240894Y-106032985D01*
X100240894Y-106032985D02*
X100126608Y-106032985D01*
X101078990Y-106032985D02*
X101078990Y-105613937D01*
X101078990Y-105613937D02*
X101040895Y-105537747D01*
X101040895Y-105537747D02*
X100964704Y-105499651D01*
X100964704Y-105499651D02*
X100812323Y-105499651D01*
X100812323Y-105499651D02*
X100736133Y-105537747D01*
X101078990Y-105994890D02*
X101002799Y-106032985D01*
X101002799Y-106032985D02*
X100812323Y-106032985D01*
X100812323Y-106032985D02*
X100736133Y-105994890D01*
X100736133Y-105994890D02*
X100698037Y-105918699D01*
X100698037Y-105918699D02*
X100698037Y-105842509D01*
X100698037Y-105842509D02*
X100736133Y-105766318D01*
X100736133Y-105766318D02*
X100812323Y-105728223D01*
X100812323Y-105728223D02*
X101002799Y-105728223D01*
X101002799Y-105728223D02*
X101078990Y-105690128D01*
X101459943Y-106032985D02*
X101459943Y-105499651D01*
X101459943Y-105652032D02*
X101498038Y-105575842D01*
X101498038Y-105575842D02*
X101536133Y-105537747D01*
X101536133Y-105537747D02*
X101612324Y-105499651D01*
X101612324Y-105499651D02*
X101688514Y-105499651D01*
X102298038Y-106032985D02*
X102298038Y-105232985D01*
X102298038Y-105994890D02*
X102221847Y-106032985D01*
X102221847Y-106032985D02*
X102069466Y-106032985D01*
X102069466Y-106032985D02*
X101993276Y-105994890D01*
X101993276Y-105994890D02*
X101955181Y-105956794D01*
X101955181Y-105956794D02*
X101917085Y-105880604D01*
X101917085Y-105880604D02*
X101917085Y-105652032D01*
X101917085Y-105652032D02*
X101955181Y-105575842D01*
X101955181Y-105575842D02*
X101993276Y-105537747D01*
X101993276Y-105537747D02*
X102069466Y-105499651D01*
X102069466Y-105499651D02*
X102221847Y-105499651D01*
X102221847Y-105499651D02*
X102298038Y-105537747D01*
X103174229Y-105232985D02*
X103440896Y-106032985D01*
X103440896Y-106032985D02*
X103707562Y-105232985D01*
X103936133Y-105309175D02*
X103974229Y-105271080D01*
X103974229Y-105271080D02*
X104050419Y-105232985D01*
X104050419Y-105232985D02*
X104240895Y-105232985D01*
X104240895Y-105232985D02*
X104317086Y-105271080D01*
X104317086Y-105271080D02*
X104355181Y-105309175D01*
X104355181Y-105309175D02*
X104393276Y-105385366D01*
X104393276Y-105385366D02*
X104393276Y-105461556D01*
X104393276Y-105461556D02*
X104355181Y-105575842D01*
X104355181Y-105575842D02*
X103898038Y-106032985D01*
X103898038Y-106032985D02*
X104393276Y-106032985D01*
X104736134Y-105956794D02*
X104774229Y-105994890D01*
X104774229Y-105994890D02*
X104736134Y-106032985D01*
X104736134Y-106032985D02*
X104698038Y-105994890D01*
X104698038Y-105994890D02*
X104736134Y-105956794D01*
X104736134Y-105956794D02*
X104736134Y-106032985D01*
X105269467Y-105232985D02*
X105345657Y-105232985D01*
X105345657Y-105232985D02*
X105421848Y-105271080D01*
X105421848Y-105271080D02*
X105459943Y-105309175D01*
X105459943Y-105309175D02*
X105498038Y-105385366D01*
X105498038Y-105385366D02*
X105536133Y-105537747D01*
X105536133Y-105537747D02*
X105536133Y-105728223D01*
X105536133Y-105728223D02*
X105498038Y-105880604D01*
X105498038Y-105880604D02*
X105459943Y-105956794D01*
X105459943Y-105956794D02*
X105421848Y-105994890D01*
X105421848Y-105994890D02*
X105345657Y-106032985D01*
X105345657Y-106032985D02*
X105269467Y-106032985D01*
X105269467Y-106032985D02*
X105193276Y-105994890D01*
X105193276Y-105994890D02*
X105155181Y-105956794D01*
X105155181Y-105956794D02*
X105117086Y-105880604D01*
X105117086Y-105880604D02*
X105078990Y-105728223D01*
X105078990Y-105728223D02*
X105078990Y-105537747D01*
X105078990Y-105537747D02*
X105117086Y-105385366D01*
X105117086Y-105385366D02*
X105155181Y-105309175D01*
X105155181Y-105309175D02*
X105193276Y-105271080D01*
X105193276Y-105271080D02*
X105269467Y-105232985D01*
X105878991Y-105728223D02*
X106488515Y-105728223D01*
X107288514Y-106032985D02*
X106831371Y-106032985D01*
X107059943Y-106032985D02*
X107059943Y-105232985D01*
X107059943Y-105232985D02*
X106983752Y-105347270D01*
X106983752Y-105347270D02*
X106907562Y-105423461D01*
X106907562Y-105423461D02*
X106831371Y-105461556D01*
X89574227Y-107320940D02*
X89574227Y-106520940D01*
X89574227Y-106520940D02*
X89764703Y-106520940D01*
X89764703Y-106520940D02*
X89878989Y-106559035D01*
X89878989Y-106559035D02*
X89955179Y-106635225D01*
X89955179Y-106635225D02*
X89993274Y-106711416D01*
X89993274Y-106711416D02*
X90031370Y-106863797D01*
X90031370Y-106863797D02*
X90031370Y-106978083D01*
X90031370Y-106978083D02*
X89993274Y-107130464D01*
X89993274Y-107130464D02*
X89955179Y-107206654D01*
X89955179Y-107206654D02*
X89878989Y-107282845D01*
X89878989Y-107282845D02*
X89764703Y-107320940D01*
X89764703Y-107320940D02*
X89574227Y-107320940D01*
X90678989Y-107282845D02*
X90602798Y-107320940D01*
X90602798Y-107320940D02*
X90450417Y-107320940D01*
X90450417Y-107320940D02*
X90374227Y-107282845D01*
X90374227Y-107282845D02*
X90336131Y-107206654D01*
X90336131Y-107206654D02*
X90336131Y-106901892D01*
X90336131Y-106901892D02*
X90374227Y-106825702D01*
X90374227Y-106825702D02*
X90450417Y-106787606D01*
X90450417Y-106787606D02*
X90602798Y-106787606D01*
X90602798Y-106787606D02*
X90678989Y-106825702D01*
X90678989Y-106825702D02*
X90717084Y-106901892D01*
X90717084Y-106901892D02*
X90717084Y-106978083D01*
X90717084Y-106978083D02*
X90336131Y-107054273D01*
X91021845Y-107282845D02*
X91098036Y-107320940D01*
X91098036Y-107320940D02*
X91250417Y-107320940D01*
X91250417Y-107320940D02*
X91326607Y-107282845D01*
X91326607Y-107282845D02*
X91364703Y-107206654D01*
X91364703Y-107206654D02*
X91364703Y-107168559D01*
X91364703Y-107168559D02*
X91326607Y-107092368D01*
X91326607Y-107092368D02*
X91250417Y-107054273D01*
X91250417Y-107054273D02*
X91136131Y-107054273D01*
X91136131Y-107054273D02*
X91059941Y-107016178D01*
X91059941Y-107016178D02*
X91021845Y-106939987D01*
X91021845Y-106939987D02*
X91021845Y-106901892D01*
X91021845Y-106901892D02*
X91059941Y-106825702D01*
X91059941Y-106825702D02*
X91136131Y-106787606D01*
X91136131Y-106787606D02*
X91250417Y-106787606D01*
X91250417Y-106787606D02*
X91326607Y-106825702D01*
X91707560Y-107320940D02*
X91707560Y-106787606D01*
X91707560Y-106520940D02*
X91669464Y-106559035D01*
X91669464Y-106559035D02*
X91707560Y-106597130D01*
X91707560Y-106597130D02*
X91745655Y-106559035D01*
X91745655Y-106559035D02*
X91707560Y-106520940D01*
X91707560Y-106520940D02*
X91707560Y-106597130D01*
X92431369Y-106787606D02*
X92431369Y-107435225D01*
X92431369Y-107435225D02*
X92393274Y-107511416D01*
X92393274Y-107511416D02*
X92355178Y-107549511D01*
X92355178Y-107549511D02*
X92278988Y-107587606D01*
X92278988Y-107587606D02*
X92164702Y-107587606D01*
X92164702Y-107587606D02*
X92088512Y-107549511D01*
X92431369Y-107282845D02*
X92355178Y-107320940D01*
X92355178Y-107320940D02*
X92202797Y-107320940D01*
X92202797Y-107320940D02*
X92126607Y-107282845D01*
X92126607Y-107282845D02*
X92088512Y-107244749D01*
X92088512Y-107244749D02*
X92050416Y-107168559D01*
X92050416Y-107168559D02*
X92050416Y-106939987D01*
X92050416Y-106939987D02*
X92088512Y-106863797D01*
X92088512Y-106863797D02*
X92126607Y-106825702D01*
X92126607Y-106825702D02*
X92202797Y-106787606D01*
X92202797Y-106787606D02*
X92355178Y-106787606D01*
X92355178Y-106787606D02*
X92431369Y-106825702D01*
X92812322Y-106787606D02*
X92812322Y-107320940D01*
X92812322Y-106863797D02*
X92850417Y-106825702D01*
X92850417Y-106825702D02*
X92926607Y-106787606D01*
X92926607Y-106787606D02*
X93040893Y-106787606D01*
X93040893Y-106787606D02*
X93117084Y-106825702D01*
X93117084Y-106825702D02*
X93155179Y-106901892D01*
X93155179Y-106901892D02*
X93155179Y-107320940D01*
X93840894Y-107282845D02*
X93764703Y-107320940D01*
X93764703Y-107320940D02*
X93612322Y-107320940D01*
X93612322Y-107320940D02*
X93536132Y-107282845D01*
X93536132Y-107282845D02*
X93498036Y-107206654D01*
X93498036Y-107206654D02*
X93498036Y-106901892D01*
X93498036Y-106901892D02*
X93536132Y-106825702D01*
X93536132Y-106825702D02*
X93612322Y-106787606D01*
X93612322Y-106787606D02*
X93764703Y-106787606D01*
X93764703Y-106787606D02*
X93840894Y-106825702D01*
X93840894Y-106825702D02*
X93878989Y-106901892D01*
X93878989Y-106901892D02*
X93878989Y-106978083D01*
X93878989Y-106978083D02*
X93498036Y-107054273D01*
X94564703Y-107320940D02*
X94564703Y-106520940D01*
X94564703Y-107282845D02*
X94488512Y-107320940D01*
X94488512Y-107320940D02*
X94336131Y-107320940D01*
X94336131Y-107320940D02*
X94259941Y-107282845D01*
X94259941Y-107282845D02*
X94221846Y-107244749D01*
X94221846Y-107244749D02*
X94183750Y-107168559D01*
X94183750Y-107168559D02*
X94183750Y-106939987D01*
X94183750Y-106939987D02*
X94221846Y-106863797D01*
X94221846Y-106863797D02*
X94259941Y-106825702D01*
X94259941Y-106825702D02*
X94336131Y-106787606D01*
X94336131Y-106787606D02*
X94488512Y-106787606D01*
X94488512Y-106787606D02*
X94564703Y-106825702D01*
X95555180Y-107320940D02*
X95555180Y-106520940D01*
X95555180Y-106825702D02*
X95631370Y-106787606D01*
X95631370Y-106787606D02*
X95783751Y-106787606D01*
X95783751Y-106787606D02*
X95859942Y-106825702D01*
X95859942Y-106825702D02*
X95898037Y-106863797D01*
X95898037Y-106863797D02*
X95936132Y-106939987D01*
X95936132Y-106939987D02*
X95936132Y-107168559D01*
X95936132Y-107168559D02*
X95898037Y-107244749D01*
X95898037Y-107244749D02*
X95859942Y-107282845D01*
X95859942Y-107282845D02*
X95783751Y-107320940D01*
X95783751Y-107320940D02*
X95631370Y-107320940D01*
X95631370Y-107320940D02*
X95555180Y-107282845D01*
X96202799Y-106787606D02*
X96393275Y-107320940D01*
X96583752Y-106787606D02*
X96393275Y-107320940D01*
X96393275Y-107320940D02*
X96317085Y-107511416D01*
X96317085Y-107511416D02*
X96278990Y-107549511D01*
X96278990Y-107549511D02*
X96202799Y-107587606D01*
X97650419Y-106520940D02*
X97802800Y-106520940D01*
X97802800Y-106520940D02*
X97878990Y-106559035D01*
X97878990Y-106559035D02*
X97955181Y-106635225D01*
X97955181Y-106635225D02*
X97993276Y-106787606D01*
X97993276Y-106787606D02*
X97993276Y-107054273D01*
X97993276Y-107054273D02*
X97955181Y-107206654D01*
X97955181Y-107206654D02*
X97878990Y-107282845D01*
X97878990Y-107282845D02*
X97802800Y-107320940D01*
X97802800Y-107320940D02*
X97650419Y-107320940D01*
X97650419Y-107320940D02*
X97574228Y-107282845D01*
X97574228Y-107282845D02*
X97498038Y-107206654D01*
X97498038Y-107206654D02*
X97459942Y-107054273D01*
X97459942Y-107054273D02*
X97459942Y-106787606D01*
X97459942Y-106787606D02*
X97498038Y-106635225D01*
X97498038Y-106635225D02*
X97574228Y-106559035D01*
X97574228Y-106559035D02*
X97650419Y-106520940D01*
X98298037Y-107282845D02*
X98374228Y-107320940D01*
X98374228Y-107320940D02*
X98526609Y-107320940D01*
X98526609Y-107320940D02*
X98602799Y-107282845D01*
X98602799Y-107282845D02*
X98640895Y-107206654D01*
X98640895Y-107206654D02*
X98640895Y-107168559D01*
X98640895Y-107168559D02*
X98602799Y-107092368D01*
X98602799Y-107092368D02*
X98526609Y-107054273D01*
X98526609Y-107054273D02*
X98412323Y-107054273D01*
X98412323Y-107054273D02*
X98336133Y-107016178D01*
X98336133Y-107016178D02*
X98298037Y-106939987D01*
X98298037Y-106939987D02*
X98298037Y-106901892D01*
X98298037Y-106901892D02*
X98336133Y-106825702D01*
X98336133Y-106825702D02*
X98412323Y-106787606D01*
X98412323Y-106787606D02*
X98526609Y-106787606D01*
X98526609Y-106787606D02*
X98602799Y-106825702D01*
X99326609Y-107282845D02*
X99250418Y-107320940D01*
X99250418Y-107320940D02*
X99098037Y-107320940D01*
X99098037Y-107320940D02*
X99021847Y-107282845D01*
X99021847Y-107282845D02*
X98983752Y-107244749D01*
X98983752Y-107244749D02*
X98945656Y-107168559D01*
X98945656Y-107168559D02*
X98945656Y-106939987D01*
X98945656Y-106939987D02*
X98983752Y-106863797D01*
X98983752Y-106863797D02*
X99021847Y-106825702D01*
X99021847Y-106825702D02*
X99098037Y-106787606D01*
X99098037Y-106787606D02*
X99250418Y-106787606D01*
X99250418Y-106787606D02*
X99326609Y-106825702D01*
X100012323Y-107320940D02*
X100012323Y-106901892D01*
X100012323Y-106901892D02*
X99974228Y-106825702D01*
X99974228Y-106825702D02*
X99898037Y-106787606D01*
X99898037Y-106787606D02*
X99745656Y-106787606D01*
X99745656Y-106787606D02*
X99669466Y-106825702D01*
X100012323Y-107282845D02*
X99936132Y-107320940D01*
X99936132Y-107320940D02*
X99745656Y-107320940D01*
X99745656Y-107320940D02*
X99669466Y-107282845D01*
X99669466Y-107282845D02*
X99631370Y-107206654D01*
X99631370Y-107206654D02*
X99631370Y-107130464D01*
X99631370Y-107130464D02*
X99669466Y-107054273D01*
X99669466Y-107054273D02*
X99745656Y-107016178D01*
X99745656Y-107016178D02*
X99936132Y-107016178D01*
X99936132Y-107016178D02*
X100012323Y-106978083D01*
X100393276Y-107320940D02*
X100393276Y-106787606D01*
X100393276Y-106939987D02*
X100431371Y-106863797D01*
X100431371Y-106863797D02*
X100469466Y-106825702D01*
X100469466Y-106825702D02*
X100545657Y-106787606D01*
X100545657Y-106787606D02*
X100621847Y-106787606D01*
X101421847Y-106520940D02*
X101612323Y-107320940D01*
X101612323Y-107320940D02*
X101764704Y-106749511D01*
X101764704Y-106749511D02*
X101917085Y-107320940D01*
X101917085Y-107320940D02*
X102107562Y-106520940D01*
X102412324Y-107320940D02*
X102412324Y-106787606D01*
X102412324Y-106520940D02*
X102374228Y-106559035D01*
X102374228Y-106559035D02*
X102412324Y-106597130D01*
X102412324Y-106597130D02*
X102450419Y-106559035D01*
X102450419Y-106559035D02*
X102412324Y-106520940D01*
X102412324Y-106520940D02*
X102412324Y-106597130D01*
X102907561Y-107320940D02*
X102831371Y-107282845D01*
X102831371Y-107282845D02*
X102793276Y-107206654D01*
X102793276Y-107206654D02*
X102793276Y-106520940D01*
X103212324Y-107320940D02*
X103212324Y-106787606D01*
X103212324Y-106863797D02*
X103250419Y-106825702D01*
X103250419Y-106825702D02*
X103326609Y-106787606D01*
X103326609Y-106787606D02*
X103440895Y-106787606D01*
X103440895Y-106787606D02*
X103517086Y-106825702D01*
X103517086Y-106825702D02*
X103555181Y-106901892D01*
X103555181Y-106901892D02*
X103555181Y-107320940D01*
X103555181Y-106901892D02*
X103593276Y-106825702D01*
X103593276Y-106825702D02*
X103669467Y-106787606D01*
X103669467Y-106787606D02*
X103783752Y-106787606D01*
X103783752Y-106787606D02*
X103859943Y-106825702D01*
X103859943Y-106825702D02*
X103898038Y-106901892D01*
X103898038Y-106901892D02*
X103898038Y-107320940D01*
X104583753Y-107282845D02*
X104507562Y-107320940D01*
X104507562Y-107320940D02*
X104355181Y-107320940D01*
X104355181Y-107320940D02*
X104278991Y-107282845D01*
X104278991Y-107282845D02*
X104240895Y-107206654D01*
X104240895Y-107206654D02*
X104240895Y-106901892D01*
X104240895Y-106901892D02*
X104278991Y-106825702D01*
X104278991Y-106825702D02*
X104355181Y-106787606D01*
X104355181Y-106787606D02*
X104507562Y-106787606D01*
X104507562Y-106787606D02*
X104583753Y-106825702D01*
X104583753Y-106825702D02*
X104621848Y-106901892D01*
X104621848Y-106901892D02*
X104621848Y-106978083D01*
X104621848Y-106978083D02*
X104240895Y-107054273D01*
X104964705Y-107320940D02*
X104964705Y-106787606D01*
X104964705Y-106939987D02*
X105002800Y-106863797D01*
X105002800Y-106863797D02*
X105040895Y-106825702D01*
X105040895Y-106825702D02*
X105117086Y-106787606D01*
X105117086Y-106787606D02*
X105193276Y-106787606D01*
X105802800Y-107320940D02*
X105802800Y-106520940D01*
X105802800Y-107282845D02*
X105726609Y-107320940D01*
X105726609Y-107320940D02*
X105574228Y-107320940D01*
X105574228Y-107320940D02*
X105498038Y-107282845D01*
X105498038Y-107282845D02*
X105459943Y-107244749D01*
X105459943Y-107244749D02*
X105421847Y-107168559D01*
X105421847Y-107168559D02*
X105421847Y-106939987D01*
X105421847Y-106939987D02*
X105459943Y-106863797D01*
X105459943Y-106863797D02*
X105498038Y-106825702D01*
X105498038Y-106825702D02*
X105574228Y-106787606D01*
X105574228Y-106787606D02*
X105726609Y-106787606D01*
X105726609Y-106787606D02*
X105802800Y-106825702D01*
X106183753Y-107320940D02*
X106183753Y-106787606D01*
X106183753Y-106520940D02*
X106145657Y-106559035D01*
X106145657Y-106559035D02*
X106183753Y-106597130D01*
X106183753Y-106597130D02*
X106221848Y-106559035D01*
X106221848Y-106559035D02*
X106183753Y-106520940D01*
X106183753Y-106520940D02*
X106183753Y-106597130D01*
X106564705Y-106787606D02*
X106564705Y-107320940D01*
X106564705Y-106863797D02*
X106602800Y-106825702D01*
X106602800Y-106825702D02*
X106678990Y-106787606D01*
X106678990Y-106787606D02*
X106793276Y-106787606D01*
X106793276Y-106787606D02*
X106869467Y-106825702D01*
X106869467Y-106825702D02*
X106907562Y-106901892D01*
X106907562Y-106901892D02*
X106907562Y-107320940D01*
X107631372Y-106787606D02*
X107631372Y-107435225D01*
X107631372Y-107435225D02*
X107593277Y-107511416D01*
X107593277Y-107511416D02*
X107555181Y-107549511D01*
X107555181Y-107549511D02*
X107478991Y-107587606D01*
X107478991Y-107587606D02*
X107364705Y-107587606D01*
X107364705Y-107587606D02*
X107288515Y-107549511D01*
X107631372Y-107282845D02*
X107555181Y-107320940D01*
X107555181Y-107320940D02*
X107402800Y-107320940D01*
X107402800Y-107320940D02*
X107326610Y-107282845D01*
X107326610Y-107282845D02*
X107288515Y-107244749D01*
X107288515Y-107244749D02*
X107250419Y-107168559D01*
X107250419Y-107168559D02*
X107250419Y-106939987D01*
X107250419Y-106939987D02*
X107288515Y-106863797D01*
X107288515Y-106863797D02*
X107326610Y-106825702D01*
X107326610Y-106825702D02*
X107402800Y-106787606D01*
X107402800Y-106787606D02*
X107555181Y-106787606D01*
X107555181Y-106787606D02*
X107631372Y-106825702D01*
X96183751Y-108189847D02*
X95917085Y-108189847D01*
X95917085Y-108608895D02*
X95917085Y-107808895D01*
X95917085Y-107808895D02*
X96298037Y-107808895D01*
X96907561Y-108570800D02*
X96831370Y-108608895D01*
X96831370Y-108608895D02*
X96678989Y-108608895D01*
X96678989Y-108608895D02*
X96602799Y-108570800D01*
X96602799Y-108570800D02*
X96564703Y-108494609D01*
X96564703Y-108494609D02*
X96564703Y-108189847D01*
X96564703Y-108189847D02*
X96602799Y-108113657D01*
X96602799Y-108113657D02*
X96678989Y-108075561D01*
X96678989Y-108075561D02*
X96831370Y-108075561D01*
X96831370Y-108075561D02*
X96907561Y-108113657D01*
X96907561Y-108113657D02*
X96945656Y-108189847D01*
X96945656Y-108189847D02*
X96945656Y-108266038D01*
X96945656Y-108266038D02*
X96564703Y-108342228D01*
X97288513Y-108608895D02*
X97288513Y-107808895D01*
X97288513Y-108113657D02*
X97364703Y-108075561D01*
X97364703Y-108075561D02*
X97517084Y-108075561D01*
X97517084Y-108075561D02*
X97593275Y-108113657D01*
X97593275Y-108113657D02*
X97631370Y-108151752D01*
X97631370Y-108151752D02*
X97669465Y-108227942D01*
X97669465Y-108227942D02*
X97669465Y-108456514D01*
X97669465Y-108456514D02*
X97631370Y-108532704D01*
X97631370Y-108532704D02*
X97593275Y-108570800D01*
X97593275Y-108570800D02*
X97517084Y-108608895D01*
X97517084Y-108608895D02*
X97364703Y-108608895D01*
X97364703Y-108608895D02*
X97288513Y-108570800D01*
X98583751Y-107885085D02*
X98621847Y-107846990D01*
X98621847Y-107846990D02*
X98698037Y-107808895D01*
X98698037Y-107808895D02*
X98888513Y-107808895D01*
X98888513Y-107808895D02*
X98964704Y-107846990D01*
X98964704Y-107846990D02*
X99002799Y-107885085D01*
X99002799Y-107885085D02*
X99040894Y-107961276D01*
X99040894Y-107961276D02*
X99040894Y-108037466D01*
X99040894Y-108037466D02*
X99002799Y-108151752D01*
X99002799Y-108151752D02*
X98545656Y-108608895D01*
X98545656Y-108608895D02*
X99040894Y-108608895D01*
X99536133Y-107808895D02*
X99612323Y-107808895D01*
X99612323Y-107808895D02*
X99688514Y-107846990D01*
X99688514Y-107846990D02*
X99726609Y-107885085D01*
X99726609Y-107885085D02*
X99764704Y-107961276D01*
X99764704Y-107961276D02*
X99802799Y-108113657D01*
X99802799Y-108113657D02*
X99802799Y-108304133D01*
X99802799Y-108304133D02*
X99764704Y-108456514D01*
X99764704Y-108456514D02*
X99726609Y-108532704D01*
X99726609Y-108532704D02*
X99688514Y-108570800D01*
X99688514Y-108570800D02*
X99612323Y-108608895D01*
X99612323Y-108608895D02*
X99536133Y-108608895D01*
X99536133Y-108608895D02*
X99459942Y-108570800D01*
X99459942Y-108570800D02*
X99421847Y-108532704D01*
X99421847Y-108532704D02*
X99383752Y-108456514D01*
X99383752Y-108456514D02*
X99345656Y-108304133D01*
X99345656Y-108304133D02*
X99345656Y-108113657D01*
X99345656Y-108113657D02*
X99383752Y-107961276D01*
X99383752Y-107961276D02*
X99421847Y-107885085D01*
X99421847Y-107885085D02*
X99459942Y-107846990D01*
X99459942Y-107846990D02*
X99536133Y-107808895D01*
X100107561Y-107885085D02*
X100145657Y-107846990D01*
X100145657Y-107846990D02*
X100221847Y-107808895D01*
X100221847Y-107808895D02*
X100412323Y-107808895D01*
X100412323Y-107808895D02*
X100488514Y-107846990D01*
X100488514Y-107846990D02*
X100526609Y-107885085D01*
X100526609Y-107885085D02*
X100564704Y-107961276D01*
X100564704Y-107961276D02*
X100564704Y-108037466D01*
X100564704Y-108037466D02*
X100526609Y-108151752D01*
X100526609Y-108151752D02*
X100069466Y-108608895D01*
X100069466Y-108608895D02*
X100564704Y-108608895D01*
X101250419Y-107808895D02*
X101098038Y-107808895D01*
X101098038Y-107808895D02*
X101021847Y-107846990D01*
X101021847Y-107846990D02*
X100983752Y-107885085D01*
X100983752Y-107885085D02*
X100907562Y-107999371D01*
X100907562Y-107999371D02*
X100869466Y-108151752D01*
X100869466Y-108151752D02*
X100869466Y-108456514D01*
X100869466Y-108456514D02*
X100907562Y-108532704D01*
X100907562Y-108532704D02*
X100945657Y-108570800D01*
X100945657Y-108570800D02*
X101021847Y-108608895D01*
X101021847Y-108608895D02*
X101174228Y-108608895D01*
X101174228Y-108608895D02*
X101250419Y-108570800D01*
X101250419Y-108570800D02*
X101288514Y-108532704D01*
X101288514Y-108532704D02*
X101326609Y-108456514D01*
X101326609Y-108456514D02*
X101326609Y-108266038D01*
X101326609Y-108266038D02*
X101288514Y-108189847D01*
X101288514Y-108189847D02*
X101250419Y-108151752D01*
X101250419Y-108151752D02*
X101174228Y-108113657D01*
X101174228Y-108113657D02*
X101021847Y-108113657D01*
X101021847Y-108113657D02*
X100945657Y-108151752D01*
X100945657Y-108151752D02*
X100907562Y-108189847D01*
X100907562Y-108189847D02*
X100869466Y-108266038D01*
X185552455Y-74261505D02*
X185819122Y-74261505D01*
X185652455Y-74028172D02*
X185652455Y-74628172D01*
X185652455Y-74628172D02*
X185685789Y-74694839D01*
X185685789Y-74694839D02*
X185752455Y-74728172D01*
X185752455Y-74728172D02*
X185819122Y-74728172D01*
X186052455Y-74728172D02*
X186052455Y-74261505D01*
X186052455Y-74394839D02*
X186085789Y-74328172D01*
X186085789Y-74328172D02*
X186119122Y-74294839D01*
X186119122Y-74294839D02*
X186185789Y-74261505D01*
X186185789Y-74261505D02*
X186252455Y-74261505D01*
X186485788Y-74728172D02*
X186485788Y-74261505D01*
X186485788Y-74028172D02*
X186452455Y-74061505D01*
X186452455Y-74061505D02*
X186485788Y-74094839D01*
X186485788Y-74094839D02*
X186519122Y-74061505D01*
X186519122Y-74061505D02*
X186485788Y-74028172D01*
X186485788Y-74028172D02*
X186485788Y-74094839D01*
X186819121Y-74728172D02*
X186819121Y-74261505D01*
X186819121Y-74328172D02*
X186852455Y-74294839D01*
X186852455Y-74294839D02*
X186919121Y-74261505D01*
X186919121Y-74261505D02*
X187019121Y-74261505D01*
X187019121Y-74261505D02*
X187085788Y-74294839D01*
X187085788Y-74294839D02*
X187119121Y-74361505D01*
X187119121Y-74361505D02*
X187119121Y-74728172D01*
X187119121Y-74361505D02*
X187152455Y-74294839D01*
X187152455Y-74294839D02*
X187219121Y-74261505D01*
X187219121Y-74261505D02*
X187319121Y-74261505D01*
X187319121Y-74261505D02*
X187385788Y-74294839D01*
X187385788Y-74294839D02*
X187419121Y-74361505D01*
X187419121Y-74361505D02*
X187419121Y-74728172D01*
X185652455Y-75855133D02*
X185652455Y-75155133D01*
X185652455Y-75155133D02*
X185819122Y-75155133D01*
X185819122Y-75155133D02*
X185919122Y-75188466D01*
X185919122Y-75188466D02*
X185985789Y-75255133D01*
X185985789Y-75255133D02*
X186019122Y-75321800D01*
X186019122Y-75321800D02*
X186052455Y-75455133D01*
X186052455Y-75455133D02*
X186052455Y-75555133D01*
X186052455Y-75555133D02*
X186019122Y-75688466D01*
X186019122Y-75688466D02*
X185985789Y-75755133D01*
X185985789Y-75755133D02*
X185919122Y-75821800D01*
X185919122Y-75821800D02*
X185819122Y-75855133D01*
X185819122Y-75855133D02*
X185652455Y-75855133D01*
X186485789Y-75155133D02*
X186619122Y-75155133D01*
X186619122Y-75155133D02*
X186685789Y-75188466D01*
X186685789Y-75188466D02*
X186752455Y-75255133D01*
X186752455Y-75255133D02*
X186785789Y-75388466D01*
X186785789Y-75388466D02*
X186785789Y-75621800D01*
X186785789Y-75621800D02*
X186752455Y-75755133D01*
X186752455Y-75755133D02*
X186685789Y-75821800D01*
X186685789Y-75821800D02*
X186619122Y-75855133D01*
X186619122Y-75855133D02*
X186485789Y-75855133D01*
X186485789Y-75855133D02*
X186419122Y-75821800D01*
X186419122Y-75821800D02*
X186352455Y-75755133D01*
X186352455Y-75755133D02*
X186319122Y-75621800D01*
X186319122Y-75621800D02*
X186319122Y-75388466D01*
X186319122Y-75388466D02*
X186352455Y-75255133D01*
X186352455Y-75255133D02*
X186419122Y-75188466D01*
X186419122Y-75188466D02*
X186485789Y-75155133D01*
X187019122Y-75155133D02*
X187185788Y-75855133D01*
X187185788Y-75855133D02*
X187319122Y-75355133D01*
X187319122Y-75355133D02*
X187452455Y-75855133D01*
X187452455Y-75855133D02*
X187619122Y-75155133D01*
X187885788Y-75855133D02*
X187885788Y-75155133D01*
X187885788Y-75155133D02*
X188285788Y-75855133D01*
X188285788Y-75855133D02*
X188285788Y-75155133D01*
D11*
X188160476Y-86059124D02*
X188160476Y-86773409D01*
X188160476Y-86773409D02*
X188112857Y-86916266D01*
X188112857Y-86916266D02*
X188017619Y-87011505D01*
X188017619Y-87011505D02*
X187874762Y-87059124D01*
X187874762Y-87059124D02*
X187779524Y-87059124D01*
X189160476Y-87059124D02*
X188589048Y-87059124D01*
X188874762Y-87059124D02*
X188874762Y-86059124D01*
X188874762Y-86059124D02*
X188779524Y-86201981D01*
X188779524Y-86201981D02*
X188684286Y-86297219D01*
X188684286Y-86297219D02*
X188589048Y-86344838D01*
X190065238Y-86059124D02*
X189589048Y-86059124D01*
X189589048Y-86059124D02*
X189541429Y-86535314D01*
X189541429Y-86535314D02*
X189589048Y-86487695D01*
X189589048Y-86487695D02*
X189684286Y-86440076D01*
X189684286Y-86440076D02*
X189922381Y-86440076D01*
X189922381Y-86440076D02*
X190017619Y-86487695D01*
X190017619Y-86487695D02*
X190065238Y-86535314D01*
X190065238Y-86535314D02*
X190112857Y-86630552D01*
X190112857Y-86630552D02*
X190112857Y-86868647D01*
X190112857Y-86868647D02*
X190065238Y-86963885D01*
X190065238Y-86963885D02*
X190017619Y-87011505D01*
X190017619Y-87011505D02*
X189922381Y-87059124D01*
X189922381Y-87059124D02*
X189684286Y-87059124D01*
X189684286Y-87059124D02*
X189589048Y-87011505D01*
X189589048Y-87011505D02*
X189541429Y-86963885D01*
X131387857Y-75214609D02*
X131330714Y-75186037D01*
X131330714Y-75186037D02*
X131273571Y-75128895D01*
X131273571Y-75128895D02*
X131187857Y-75043180D01*
X131187857Y-75043180D02*
X131130714Y-75014609D01*
X131130714Y-75014609D02*
X131073571Y-75014609D01*
X131102142Y-75157466D02*
X131045000Y-75128895D01*
X131045000Y-75128895D02*
X130987857Y-75071752D01*
X130987857Y-75071752D02*
X130959285Y-74957466D01*
X130959285Y-74957466D02*
X130959285Y-74757466D01*
X130959285Y-74757466D02*
X130987857Y-74643180D01*
X130987857Y-74643180D02*
X131045000Y-74586037D01*
X131045000Y-74586037D02*
X131102142Y-74557466D01*
X131102142Y-74557466D02*
X131216428Y-74557466D01*
X131216428Y-74557466D02*
X131273571Y-74586037D01*
X131273571Y-74586037D02*
X131330714Y-74643180D01*
X131330714Y-74643180D02*
X131359285Y-74757466D01*
X131359285Y-74757466D02*
X131359285Y-74957466D01*
X131359285Y-74957466D02*
X131330714Y-75071752D01*
X131330714Y-75071752D02*
X131273571Y-75128895D01*
X131273571Y-75128895D02*
X131216428Y-75157466D01*
X131216428Y-75157466D02*
X131102142Y-75157466D01*
X131559285Y-74557466D02*
X131930713Y-74557466D01*
X131930713Y-74557466D02*
X131730713Y-74786037D01*
X131730713Y-74786037D02*
X131816428Y-74786037D01*
X131816428Y-74786037D02*
X131873571Y-74814609D01*
X131873571Y-74814609D02*
X131902142Y-74843180D01*
X131902142Y-74843180D02*
X131930713Y-74900323D01*
X131930713Y-74900323D02*
X131930713Y-75043180D01*
X131930713Y-75043180D02*
X131902142Y-75100323D01*
X131902142Y-75100323D02*
X131873571Y-75128895D01*
X131873571Y-75128895D02*
X131816428Y-75157466D01*
X131816428Y-75157466D02*
X131644999Y-75157466D01*
X131644999Y-75157466D02*
X131587856Y-75128895D01*
X131587856Y-75128895D02*
X131559285Y-75100323D01*
X188160476Y-93519124D02*
X188160476Y-94233409D01*
X188160476Y-94233409D02*
X188112857Y-94376266D01*
X188112857Y-94376266D02*
X188017619Y-94471505D01*
X188017619Y-94471505D02*
X187874762Y-94519124D01*
X187874762Y-94519124D02*
X187779524Y-94519124D01*
X188589048Y-93614362D02*
X188636667Y-93566743D01*
X188636667Y-93566743D02*
X188731905Y-93519124D01*
X188731905Y-93519124D02*
X188970000Y-93519124D01*
X188970000Y-93519124D02*
X189065238Y-93566743D01*
X189065238Y-93566743D02*
X189112857Y-93614362D01*
X189112857Y-93614362D02*
X189160476Y-93709600D01*
X189160476Y-93709600D02*
X189160476Y-93804838D01*
X189160476Y-93804838D02*
X189112857Y-93947695D01*
X189112857Y-93947695D02*
X188541429Y-94519124D01*
X188541429Y-94519124D02*
X189160476Y-94519124D01*
X190112857Y-94519124D02*
X189541429Y-94519124D01*
X189827143Y-94519124D02*
X189827143Y-93519124D01*
X189827143Y-93519124D02*
X189731905Y-93661981D01*
X189731905Y-93661981D02*
X189636667Y-93757219D01*
X189636667Y-93757219D02*
X189541429Y-93804838D01*
X113466714Y-104442419D02*
X113466714Y-103442419D01*
X113466714Y-103442419D02*
X113847666Y-103442419D01*
X113847666Y-103442419D02*
X113942904Y-103490038D01*
X113942904Y-103490038D02*
X113990523Y-103537657D01*
X113990523Y-103537657D02*
X114038142Y-103632895D01*
X114038142Y-103632895D02*
X114038142Y-103775752D01*
X114038142Y-103775752D02*
X113990523Y-103870990D01*
X113990523Y-103870990D02*
X113942904Y-103918609D01*
X113942904Y-103918609D02*
X113847666Y-103966228D01*
X113847666Y-103966228D02*
X113466714Y-103966228D01*
X114419095Y-104394800D02*
X114561952Y-104442419D01*
X114561952Y-104442419D02*
X114800047Y-104442419D01*
X114800047Y-104442419D02*
X114895285Y-104394800D01*
X114895285Y-104394800D02*
X114942904Y-104347180D01*
X114942904Y-104347180D02*
X114990523Y-104251942D01*
X114990523Y-104251942D02*
X114990523Y-104156704D01*
X114990523Y-104156704D02*
X114942904Y-104061466D01*
X114942904Y-104061466D02*
X114895285Y-104013847D01*
X114895285Y-104013847D02*
X114800047Y-103966228D01*
X114800047Y-103966228D02*
X114609571Y-103918609D01*
X114609571Y-103918609D02*
X114514333Y-103870990D01*
X114514333Y-103870990D02*
X114466714Y-103823371D01*
X114466714Y-103823371D02*
X114419095Y-103728133D01*
X114419095Y-103728133D02*
X114419095Y-103632895D01*
X114419095Y-103632895D02*
X114466714Y-103537657D01*
X114466714Y-103537657D02*
X114514333Y-103490038D01*
X114514333Y-103490038D02*
X114609571Y-103442419D01*
X114609571Y-103442419D02*
X114847666Y-103442419D01*
X114847666Y-103442419D02*
X114990523Y-103490038D01*
X115371476Y-103537657D02*
X115419095Y-103490038D01*
X115419095Y-103490038D02*
X115514333Y-103442419D01*
X115514333Y-103442419D02*
X115752428Y-103442419D01*
X115752428Y-103442419D02*
X115847666Y-103490038D01*
X115847666Y-103490038D02*
X115895285Y-103537657D01*
X115895285Y-103537657D02*
X115942904Y-103632895D01*
X115942904Y-103632895D02*
X115942904Y-103728133D01*
X115942904Y-103728133D02*
X115895285Y-103870990D01*
X115895285Y-103870990D02*
X115323857Y-104442419D01*
X115323857Y-104442419D02*
X115942904Y-104442419D01*
D10*
X113270408Y-110423776D02*
X113460884Y-110423776D01*
X113341836Y-110257109D02*
X113341836Y-110685680D01*
X113341836Y-110685680D02*
X113365646Y-110733300D01*
X113365646Y-110733300D02*
X113413265Y-110757109D01*
X113413265Y-110757109D02*
X113460884Y-110757109D01*
X113627550Y-110757109D02*
X113627550Y-110257109D01*
X113841836Y-110757109D02*
X113841836Y-110495204D01*
X113841836Y-110495204D02*
X113818026Y-110447585D01*
X113818026Y-110447585D02*
X113770407Y-110423776D01*
X113770407Y-110423776D02*
X113698979Y-110423776D01*
X113698979Y-110423776D02*
X113651360Y-110447585D01*
X113651360Y-110447585D02*
X113627550Y-110471395D01*
X114079931Y-110757109D02*
X114079931Y-110423776D01*
X114079931Y-110257109D02*
X114056122Y-110280919D01*
X114056122Y-110280919D02*
X114079931Y-110304728D01*
X114079931Y-110304728D02*
X114103741Y-110280919D01*
X114103741Y-110280919D02*
X114079931Y-110257109D01*
X114079931Y-110257109D02*
X114079931Y-110304728D01*
X114294217Y-110733300D02*
X114341836Y-110757109D01*
X114341836Y-110757109D02*
X114437074Y-110757109D01*
X114437074Y-110757109D02*
X114484693Y-110733300D01*
X114484693Y-110733300D02*
X114508502Y-110685680D01*
X114508502Y-110685680D02*
X114508502Y-110661871D01*
X114508502Y-110661871D02*
X114484693Y-110614252D01*
X114484693Y-110614252D02*
X114437074Y-110590442D01*
X114437074Y-110590442D02*
X114365645Y-110590442D01*
X114365645Y-110590442D02*
X114318026Y-110566633D01*
X114318026Y-110566633D02*
X114294217Y-110519014D01*
X114294217Y-110519014D02*
X114294217Y-110495204D01*
X114294217Y-110495204D02*
X114318026Y-110447585D01*
X114318026Y-110447585D02*
X114365645Y-110423776D01*
X114365645Y-110423776D02*
X114437074Y-110423776D01*
X114437074Y-110423776D02*
X114484693Y-110447585D01*
X115079931Y-110733300D02*
X115127550Y-110757109D01*
X115127550Y-110757109D02*
X115222788Y-110757109D01*
X115222788Y-110757109D02*
X115270407Y-110733300D01*
X115270407Y-110733300D02*
X115294216Y-110685680D01*
X115294216Y-110685680D02*
X115294216Y-110661871D01*
X115294216Y-110661871D02*
X115270407Y-110614252D01*
X115270407Y-110614252D02*
X115222788Y-110590442D01*
X115222788Y-110590442D02*
X115151359Y-110590442D01*
X115151359Y-110590442D02*
X115103740Y-110566633D01*
X115103740Y-110566633D02*
X115079931Y-110519014D01*
X115079931Y-110519014D02*
X115079931Y-110495204D01*
X115079931Y-110495204D02*
X115103740Y-110447585D01*
X115103740Y-110447585D02*
X115151359Y-110423776D01*
X115151359Y-110423776D02*
X115222788Y-110423776D01*
X115222788Y-110423776D02*
X115270407Y-110447585D01*
X115508502Y-110757109D02*
X115508502Y-110423776D01*
X115508502Y-110257109D02*
X115484693Y-110280919D01*
X115484693Y-110280919D02*
X115508502Y-110304728D01*
X115508502Y-110304728D02*
X115532312Y-110280919D01*
X115532312Y-110280919D02*
X115508502Y-110257109D01*
X115508502Y-110257109D02*
X115508502Y-110304728D01*
X115960883Y-110757109D02*
X115960883Y-110257109D01*
X115960883Y-110733300D02*
X115913264Y-110757109D01*
X115913264Y-110757109D02*
X115818026Y-110757109D01*
X115818026Y-110757109D02*
X115770407Y-110733300D01*
X115770407Y-110733300D02*
X115746597Y-110709490D01*
X115746597Y-110709490D02*
X115722788Y-110661871D01*
X115722788Y-110661871D02*
X115722788Y-110519014D01*
X115722788Y-110519014D02*
X115746597Y-110471395D01*
X115746597Y-110471395D02*
X115770407Y-110447585D01*
X115770407Y-110447585D02*
X115818026Y-110423776D01*
X115818026Y-110423776D02*
X115913264Y-110423776D01*
X115913264Y-110423776D02*
X115960883Y-110447585D01*
X116389454Y-110733300D02*
X116341835Y-110757109D01*
X116341835Y-110757109D02*
X116246597Y-110757109D01*
X116246597Y-110757109D02*
X116198978Y-110733300D01*
X116198978Y-110733300D02*
X116175169Y-110685680D01*
X116175169Y-110685680D02*
X116175169Y-110495204D01*
X116175169Y-110495204D02*
X116198978Y-110447585D01*
X116198978Y-110447585D02*
X116246597Y-110423776D01*
X116246597Y-110423776D02*
X116341835Y-110423776D01*
X116341835Y-110423776D02*
X116389454Y-110447585D01*
X116389454Y-110447585D02*
X116413264Y-110495204D01*
X116413264Y-110495204D02*
X116413264Y-110542823D01*
X116413264Y-110542823D02*
X116175169Y-110590442D01*
X110801836Y-109741109D02*
X110801836Y-109407776D01*
X110801836Y-109503014D02*
X110825646Y-109455395D01*
X110825646Y-109455395D02*
X110849455Y-109431585D01*
X110849455Y-109431585D02*
X110897074Y-109407776D01*
X110897074Y-109407776D02*
X110944693Y-109407776D01*
X111182789Y-109741109D02*
X111135170Y-109717300D01*
X111135170Y-109717300D02*
X111111360Y-109693490D01*
X111111360Y-109693490D02*
X111087551Y-109645871D01*
X111087551Y-109645871D02*
X111087551Y-109503014D01*
X111087551Y-109503014D02*
X111111360Y-109455395D01*
X111111360Y-109455395D02*
X111135170Y-109431585D01*
X111135170Y-109431585D02*
X111182789Y-109407776D01*
X111182789Y-109407776D02*
X111254217Y-109407776D01*
X111254217Y-109407776D02*
X111301836Y-109431585D01*
X111301836Y-109431585D02*
X111325646Y-109455395D01*
X111325646Y-109455395D02*
X111349455Y-109503014D01*
X111349455Y-109503014D02*
X111349455Y-109645871D01*
X111349455Y-109645871D02*
X111325646Y-109693490D01*
X111325646Y-109693490D02*
X111301836Y-109717300D01*
X111301836Y-109717300D02*
X111254217Y-109741109D01*
X111254217Y-109741109D02*
X111182789Y-109741109D01*
X111778027Y-109407776D02*
X111778027Y-109741109D01*
X111563741Y-109407776D02*
X111563741Y-109669680D01*
X111563741Y-109669680D02*
X111587551Y-109717300D01*
X111587551Y-109717300D02*
X111635170Y-109741109D01*
X111635170Y-109741109D02*
X111706598Y-109741109D01*
X111706598Y-109741109D02*
X111754217Y-109717300D01*
X111754217Y-109717300D02*
X111778027Y-109693490D01*
X112016122Y-109407776D02*
X112016122Y-109741109D01*
X112016122Y-109455395D02*
X112039932Y-109431585D01*
X112039932Y-109431585D02*
X112087551Y-109407776D01*
X112087551Y-109407776D02*
X112158979Y-109407776D01*
X112158979Y-109407776D02*
X112206598Y-109431585D01*
X112206598Y-109431585D02*
X112230408Y-109479204D01*
X112230408Y-109479204D02*
X112230408Y-109741109D01*
X112682789Y-109741109D02*
X112682789Y-109241109D01*
X112682789Y-109717300D02*
X112635170Y-109741109D01*
X112635170Y-109741109D02*
X112539932Y-109741109D01*
X112539932Y-109741109D02*
X112492313Y-109717300D01*
X112492313Y-109717300D02*
X112468503Y-109693490D01*
X112468503Y-109693490D02*
X112444694Y-109645871D01*
X112444694Y-109645871D02*
X112444694Y-109503014D01*
X112444694Y-109503014D02*
X112468503Y-109455395D01*
X112468503Y-109455395D02*
X112492313Y-109431585D01*
X112492313Y-109431585D02*
X112539932Y-109407776D01*
X112539932Y-109407776D02*
X112635170Y-109407776D01*
X112635170Y-109407776D02*
X112682789Y-109431585D01*
X112920884Y-109741109D02*
X112920884Y-109407776D01*
X112920884Y-109241109D02*
X112897075Y-109264919D01*
X112897075Y-109264919D02*
X112920884Y-109288728D01*
X112920884Y-109288728D02*
X112944694Y-109264919D01*
X112944694Y-109264919D02*
X112920884Y-109241109D01*
X112920884Y-109241109D02*
X112920884Y-109288728D01*
X113135170Y-109717300D02*
X113182789Y-109741109D01*
X113182789Y-109741109D02*
X113278027Y-109741109D01*
X113278027Y-109741109D02*
X113325646Y-109717300D01*
X113325646Y-109717300D02*
X113349455Y-109669680D01*
X113349455Y-109669680D02*
X113349455Y-109645871D01*
X113349455Y-109645871D02*
X113325646Y-109598252D01*
X113325646Y-109598252D02*
X113278027Y-109574442D01*
X113278027Y-109574442D02*
X113206598Y-109574442D01*
X113206598Y-109574442D02*
X113158979Y-109550633D01*
X113158979Y-109550633D02*
X113135170Y-109503014D01*
X113135170Y-109503014D02*
X113135170Y-109479204D01*
X113135170Y-109479204D02*
X113158979Y-109431585D01*
X113158979Y-109431585D02*
X113206598Y-109407776D01*
X113206598Y-109407776D02*
X113278027Y-109407776D01*
X113278027Y-109407776D02*
X113325646Y-109431585D01*
X113563741Y-109741109D02*
X113563741Y-109241109D01*
X113778027Y-109741109D02*
X113778027Y-109479204D01*
X113778027Y-109479204D02*
X113754217Y-109431585D01*
X113754217Y-109431585D02*
X113706598Y-109407776D01*
X113706598Y-109407776D02*
X113635170Y-109407776D01*
X113635170Y-109407776D02*
X113587551Y-109431585D01*
X113587551Y-109431585D02*
X113563741Y-109455395D01*
X114611360Y-109717300D02*
X114563741Y-109741109D01*
X114563741Y-109741109D02*
X114468503Y-109741109D01*
X114468503Y-109741109D02*
X114420884Y-109717300D01*
X114420884Y-109717300D02*
X114397074Y-109693490D01*
X114397074Y-109693490D02*
X114373265Y-109645871D01*
X114373265Y-109645871D02*
X114373265Y-109503014D01*
X114373265Y-109503014D02*
X114397074Y-109455395D01*
X114397074Y-109455395D02*
X114420884Y-109431585D01*
X114420884Y-109431585D02*
X114468503Y-109407776D01*
X114468503Y-109407776D02*
X114563741Y-109407776D01*
X114563741Y-109407776D02*
X114611360Y-109431585D01*
X114897074Y-109741109D02*
X114849455Y-109717300D01*
X114849455Y-109717300D02*
X114825645Y-109693490D01*
X114825645Y-109693490D02*
X114801836Y-109645871D01*
X114801836Y-109645871D02*
X114801836Y-109503014D01*
X114801836Y-109503014D02*
X114825645Y-109455395D01*
X114825645Y-109455395D02*
X114849455Y-109431585D01*
X114849455Y-109431585D02*
X114897074Y-109407776D01*
X114897074Y-109407776D02*
X114968502Y-109407776D01*
X114968502Y-109407776D02*
X115016121Y-109431585D01*
X115016121Y-109431585D02*
X115039931Y-109455395D01*
X115039931Y-109455395D02*
X115063740Y-109503014D01*
X115063740Y-109503014D02*
X115063740Y-109645871D01*
X115063740Y-109645871D02*
X115039931Y-109693490D01*
X115039931Y-109693490D02*
X115016121Y-109717300D01*
X115016121Y-109717300D02*
X114968502Y-109741109D01*
X114968502Y-109741109D02*
X114897074Y-109741109D01*
X115278026Y-109741109D02*
X115278026Y-109407776D01*
X115278026Y-109455395D02*
X115301836Y-109431585D01*
X115301836Y-109431585D02*
X115349455Y-109407776D01*
X115349455Y-109407776D02*
X115420883Y-109407776D01*
X115420883Y-109407776D02*
X115468502Y-109431585D01*
X115468502Y-109431585D02*
X115492312Y-109479204D01*
X115492312Y-109479204D02*
X115492312Y-109741109D01*
X115492312Y-109479204D02*
X115516121Y-109431585D01*
X115516121Y-109431585D02*
X115563740Y-109407776D01*
X115563740Y-109407776D02*
X115635169Y-109407776D01*
X115635169Y-109407776D02*
X115682788Y-109431585D01*
X115682788Y-109431585D02*
X115706598Y-109479204D01*
X115706598Y-109479204D02*
X115706598Y-109741109D01*
X115944693Y-109407776D02*
X115944693Y-109907776D01*
X115944693Y-109431585D02*
X115992312Y-109407776D01*
X115992312Y-109407776D02*
X116087550Y-109407776D01*
X116087550Y-109407776D02*
X116135169Y-109431585D01*
X116135169Y-109431585D02*
X116158979Y-109455395D01*
X116158979Y-109455395D02*
X116182788Y-109503014D01*
X116182788Y-109503014D02*
X116182788Y-109645871D01*
X116182788Y-109645871D02*
X116158979Y-109693490D01*
X116158979Y-109693490D02*
X116135169Y-109717300D01*
X116135169Y-109717300D02*
X116087550Y-109741109D01*
X116087550Y-109741109D02*
X115992312Y-109741109D01*
X115992312Y-109741109D02*
X115944693Y-109717300D01*
X116468503Y-109741109D02*
X116420884Y-109717300D01*
X116420884Y-109717300D02*
X116397074Y-109693490D01*
X116397074Y-109693490D02*
X116373265Y-109645871D01*
X116373265Y-109645871D02*
X116373265Y-109503014D01*
X116373265Y-109503014D02*
X116397074Y-109455395D01*
X116397074Y-109455395D02*
X116420884Y-109431585D01*
X116420884Y-109431585D02*
X116468503Y-109407776D01*
X116468503Y-109407776D02*
X116539931Y-109407776D01*
X116539931Y-109407776D02*
X116587550Y-109431585D01*
X116587550Y-109431585D02*
X116611360Y-109455395D01*
X116611360Y-109455395D02*
X116635169Y-109503014D01*
X116635169Y-109503014D02*
X116635169Y-109645871D01*
X116635169Y-109645871D02*
X116611360Y-109693490D01*
X116611360Y-109693490D02*
X116587550Y-109717300D01*
X116587550Y-109717300D02*
X116539931Y-109741109D01*
X116539931Y-109741109D02*
X116468503Y-109741109D01*
X116849455Y-109407776D02*
X116849455Y-109741109D01*
X116849455Y-109455395D02*
X116873265Y-109431585D01*
X116873265Y-109431585D02*
X116920884Y-109407776D01*
X116920884Y-109407776D02*
X116992312Y-109407776D01*
X116992312Y-109407776D02*
X117039931Y-109431585D01*
X117039931Y-109431585D02*
X117063741Y-109479204D01*
X117063741Y-109479204D02*
X117063741Y-109741109D01*
X117492312Y-109717300D02*
X117444693Y-109741109D01*
X117444693Y-109741109D02*
X117349455Y-109741109D01*
X117349455Y-109741109D02*
X117301836Y-109717300D01*
X117301836Y-109717300D02*
X117278027Y-109669680D01*
X117278027Y-109669680D02*
X117278027Y-109479204D01*
X117278027Y-109479204D02*
X117301836Y-109431585D01*
X117301836Y-109431585D02*
X117349455Y-109407776D01*
X117349455Y-109407776D02*
X117444693Y-109407776D01*
X117444693Y-109407776D02*
X117492312Y-109431585D01*
X117492312Y-109431585D02*
X117516122Y-109479204D01*
X117516122Y-109479204D02*
X117516122Y-109526823D01*
X117516122Y-109526823D02*
X117278027Y-109574442D01*
X117730407Y-109407776D02*
X117730407Y-109741109D01*
X117730407Y-109455395D02*
X117754217Y-109431585D01*
X117754217Y-109431585D02*
X117801836Y-109407776D01*
X117801836Y-109407776D02*
X117873264Y-109407776D01*
X117873264Y-109407776D02*
X117920883Y-109431585D01*
X117920883Y-109431585D02*
X117944693Y-109479204D01*
X117944693Y-109479204D02*
X117944693Y-109741109D01*
X118111360Y-109407776D02*
X118301836Y-109407776D01*
X118182788Y-109241109D02*
X118182788Y-109669680D01*
X118182788Y-109669680D02*
X118206598Y-109717300D01*
X118206598Y-109717300D02*
X118254217Y-109741109D01*
X118254217Y-109741109D02*
X118301836Y-109741109D01*
X162104420Y-73577419D02*
X162104420Y-74291704D01*
X162104420Y-74291704D02*
X162056801Y-74434561D01*
X162056801Y-74434561D02*
X161961563Y-74529800D01*
X161961563Y-74529800D02*
X161818706Y-74577419D01*
X161818706Y-74577419D02*
X161723468Y-74577419D01*
X163104420Y-74577419D02*
X162532992Y-74577419D01*
X162818706Y-74577419D02*
X162818706Y-73577419D01*
X162818706Y-73577419D02*
X162723468Y-73720276D01*
X162723468Y-73720276D02*
X162628230Y-73815514D01*
X162628230Y-73815514D02*
X162532992Y-73863133D01*
D11*
X113202819Y-119586333D02*
X113917104Y-119586333D01*
X113917104Y-119586333D02*
X114059961Y-119633952D01*
X114059961Y-119633952D02*
X114155200Y-119729190D01*
X114155200Y-119729190D02*
X114202819Y-119872047D01*
X114202819Y-119872047D02*
X114202819Y-119967285D01*
X113631390Y-118967285D02*
X113583771Y-119062523D01*
X113583771Y-119062523D02*
X113536152Y-119110142D01*
X113536152Y-119110142D02*
X113440914Y-119157761D01*
X113440914Y-119157761D02*
X113393295Y-119157761D01*
X113393295Y-119157761D02*
X113298057Y-119110142D01*
X113298057Y-119110142D02*
X113250438Y-119062523D01*
X113250438Y-119062523D02*
X113202819Y-118967285D01*
X113202819Y-118967285D02*
X113202819Y-118776809D01*
X113202819Y-118776809D02*
X113250438Y-118681571D01*
X113250438Y-118681571D02*
X113298057Y-118633952D01*
X113298057Y-118633952D02*
X113393295Y-118586333D01*
X113393295Y-118586333D02*
X113440914Y-118586333D01*
X113440914Y-118586333D02*
X113536152Y-118633952D01*
X113536152Y-118633952D02*
X113583771Y-118681571D01*
X113583771Y-118681571D02*
X113631390Y-118776809D01*
X113631390Y-118776809D02*
X113631390Y-118967285D01*
X113631390Y-118967285D02*
X113679009Y-119062523D01*
X113679009Y-119062523D02*
X113726628Y-119110142D01*
X113726628Y-119110142D02*
X113821866Y-119157761D01*
X113821866Y-119157761D02*
X114012342Y-119157761D01*
X114012342Y-119157761D02*
X114107580Y-119110142D01*
X114107580Y-119110142D02*
X114155200Y-119062523D01*
X114155200Y-119062523D02*
X114202819Y-118967285D01*
X114202819Y-118967285D02*
X114202819Y-118776809D01*
X114202819Y-118776809D02*
X114155200Y-118681571D01*
X114155200Y-118681571D02*
X114107580Y-118633952D01*
X114107580Y-118633952D02*
X114012342Y-118586333D01*
X114012342Y-118586333D02*
X113821866Y-118586333D01*
X113821866Y-118586333D02*
X113726628Y-118633952D01*
X113726628Y-118633952D02*
X113679009Y-118681571D01*
X113679009Y-118681571D02*
X113631390Y-118776809D01*
X125194014Y-76946724D02*
X125194014Y-75946724D01*
X125194014Y-75946724D02*
X125574966Y-75946724D01*
X125574966Y-75946724D02*
X125670204Y-75994343D01*
X125670204Y-75994343D02*
X125717823Y-76041962D01*
X125717823Y-76041962D02*
X125765442Y-76137200D01*
X125765442Y-76137200D02*
X125765442Y-76280057D01*
X125765442Y-76280057D02*
X125717823Y-76375295D01*
X125717823Y-76375295D02*
X125670204Y-76422914D01*
X125670204Y-76422914D02*
X125574966Y-76470533D01*
X125574966Y-76470533D02*
X125194014Y-76470533D01*
X126146395Y-76899105D02*
X126289252Y-76946724D01*
X126289252Y-76946724D02*
X126527347Y-76946724D01*
X126527347Y-76946724D02*
X126622585Y-76899105D01*
X126622585Y-76899105D02*
X126670204Y-76851485D01*
X126670204Y-76851485D02*
X126717823Y-76756247D01*
X126717823Y-76756247D02*
X126717823Y-76661009D01*
X126717823Y-76661009D02*
X126670204Y-76565771D01*
X126670204Y-76565771D02*
X126622585Y-76518152D01*
X126622585Y-76518152D02*
X126527347Y-76470533D01*
X126527347Y-76470533D02*
X126336871Y-76422914D01*
X126336871Y-76422914D02*
X126241633Y-76375295D01*
X126241633Y-76375295D02*
X126194014Y-76327676D01*
X126194014Y-76327676D02*
X126146395Y-76232438D01*
X126146395Y-76232438D02*
X126146395Y-76137200D01*
X126146395Y-76137200D02*
X126194014Y-76041962D01*
X126194014Y-76041962D02*
X126241633Y-75994343D01*
X126241633Y-75994343D02*
X126336871Y-75946724D01*
X126336871Y-75946724D02*
X126574966Y-75946724D01*
X126574966Y-75946724D02*
X126717823Y-75994343D01*
X127670204Y-76946724D02*
X127098776Y-76946724D01*
X127384490Y-76946724D02*
X127384490Y-75946724D01*
X127384490Y-75946724D02*
X127289252Y-76089581D01*
X127289252Y-76089581D02*
X127194014Y-76184819D01*
X127194014Y-76184819D02*
X127098776Y-76232438D01*
D10*
X184637419Y-48223828D02*
X185351704Y-48223828D01*
X185351704Y-48223828D02*
X185494561Y-48271447D01*
X185494561Y-48271447D02*
X185589800Y-48366685D01*
X185589800Y-48366685D02*
X185637419Y-48509542D01*
X185637419Y-48509542D02*
X185637419Y-48604780D01*
X185637419Y-47223828D02*
X185637419Y-47795256D01*
X185637419Y-47509542D02*
X184637419Y-47509542D01*
X184637419Y-47509542D02*
X184780276Y-47604780D01*
X184780276Y-47604780D02*
X184875514Y-47700018D01*
X184875514Y-47700018D02*
X184923133Y-47795256D01*
X185065990Y-46652399D02*
X185018371Y-46747637D01*
X185018371Y-46747637D02*
X184970752Y-46795256D01*
X184970752Y-46795256D02*
X184875514Y-46842875D01*
X184875514Y-46842875D02*
X184827895Y-46842875D01*
X184827895Y-46842875D02*
X184732657Y-46795256D01*
X184732657Y-46795256D02*
X184685038Y-46747637D01*
X184685038Y-46747637D02*
X184637419Y-46652399D01*
X184637419Y-46652399D02*
X184637419Y-46461923D01*
X184637419Y-46461923D02*
X184685038Y-46366685D01*
X184685038Y-46366685D02*
X184732657Y-46319066D01*
X184732657Y-46319066D02*
X184827895Y-46271447D01*
X184827895Y-46271447D02*
X184875514Y-46271447D01*
X184875514Y-46271447D02*
X184970752Y-46319066D01*
X184970752Y-46319066D02*
X185018371Y-46366685D01*
X185018371Y-46366685D02*
X185065990Y-46461923D01*
X185065990Y-46461923D02*
X185065990Y-46652399D01*
X185065990Y-46652399D02*
X185113609Y-46747637D01*
X185113609Y-46747637D02*
X185161228Y-46795256D01*
X185161228Y-46795256D02*
X185256466Y-46842875D01*
X185256466Y-46842875D02*
X185446942Y-46842875D01*
X185446942Y-46842875D02*
X185542180Y-46795256D01*
X185542180Y-46795256D02*
X185589800Y-46747637D01*
X185589800Y-46747637D02*
X185637419Y-46652399D01*
X185637419Y-46652399D02*
X185637419Y-46461923D01*
X185637419Y-46461923D02*
X185589800Y-46366685D01*
X185589800Y-46366685D02*
X185542180Y-46319066D01*
X185542180Y-46319066D02*
X185446942Y-46271447D01*
X185446942Y-46271447D02*
X185256466Y-46271447D01*
X185256466Y-46271447D02*
X185161228Y-46319066D01*
X185161228Y-46319066D02*
X185113609Y-46366685D01*
X185113609Y-46366685D02*
X185065990Y-46461923D01*
D11*
X120592857Y-75216914D02*
X120535714Y-75188342D01*
X120535714Y-75188342D02*
X120478571Y-75131200D01*
X120478571Y-75131200D02*
X120392857Y-75045485D01*
X120392857Y-75045485D02*
X120335714Y-75016914D01*
X120335714Y-75016914D02*
X120278571Y-75016914D01*
X120307142Y-75159771D02*
X120250000Y-75131200D01*
X120250000Y-75131200D02*
X120192857Y-75074057D01*
X120192857Y-75074057D02*
X120164285Y-74959771D01*
X120164285Y-74959771D02*
X120164285Y-74759771D01*
X120164285Y-74759771D02*
X120192857Y-74645485D01*
X120192857Y-74645485D02*
X120250000Y-74588342D01*
X120250000Y-74588342D02*
X120307142Y-74559771D01*
X120307142Y-74559771D02*
X120421428Y-74559771D01*
X120421428Y-74559771D02*
X120478571Y-74588342D01*
X120478571Y-74588342D02*
X120535714Y-74645485D01*
X120535714Y-74645485D02*
X120564285Y-74759771D01*
X120564285Y-74759771D02*
X120564285Y-74959771D01*
X120564285Y-74959771D02*
X120535714Y-75074057D01*
X120535714Y-75074057D02*
X120478571Y-75131200D01*
X120478571Y-75131200D02*
X120421428Y-75159771D01*
X120421428Y-75159771D02*
X120307142Y-75159771D01*
X121078571Y-74559771D02*
X120964285Y-74559771D01*
X120964285Y-74559771D02*
X120907142Y-74588342D01*
X120907142Y-74588342D02*
X120878571Y-74616914D01*
X120878571Y-74616914D02*
X120821428Y-74702628D01*
X120821428Y-74702628D02*
X120792856Y-74816914D01*
X120792856Y-74816914D02*
X120792856Y-75045485D01*
X120792856Y-75045485D02*
X120821428Y-75102628D01*
X120821428Y-75102628D02*
X120849999Y-75131200D01*
X120849999Y-75131200D02*
X120907142Y-75159771D01*
X120907142Y-75159771D02*
X121021428Y-75159771D01*
X121021428Y-75159771D02*
X121078571Y-75131200D01*
X121078571Y-75131200D02*
X121107142Y-75102628D01*
X121107142Y-75102628D02*
X121135713Y-75045485D01*
X121135713Y-75045485D02*
X121135713Y-74902628D01*
X121135713Y-74902628D02*
X121107142Y-74845485D01*
X121107142Y-74845485D02*
X121078571Y-74816914D01*
X121078571Y-74816914D02*
X121021428Y-74788342D01*
X121021428Y-74788342D02*
X120907142Y-74788342D01*
X120907142Y-74788342D02*
X120849999Y-74816914D01*
X120849999Y-74816914D02*
X120821428Y-74845485D01*
X120821428Y-74845485D02*
X120792856Y-74902628D01*
X131387857Y-65054609D02*
X131330714Y-65026037D01*
X131330714Y-65026037D02*
X131273571Y-64968895D01*
X131273571Y-64968895D02*
X131187857Y-64883180D01*
X131187857Y-64883180D02*
X131130714Y-64854609D01*
X131130714Y-64854609D02*
X131073571Y-64854609D01*
X131102142Y-64997466D02*
X131045000Y-64968895D01*
X131045000Y-64968895D02*
X130987857Y-64911752D01*
X130987857Y-64911752D02*
X130959285Y-64797466D01*
X130959285Y-64797466D02*
X130959285Y-64597466D01*
X130959285Y-64597466D02*
X130987857Y-64483180D01*
X130987857Y-64483180D02*
X131045000Y-64426037D01*
X131045000Y-64426037D02*
X131102142Y-64397466D01*
X131102142Y-64397466D02*
X131216428Y-64397466D01*
X131216428Y-64397466D02*
X131273571Y-64426037D01*
X131273571Y-64426037D02*
X131330714Y-64483180D01*
X131330714Y-64483180D02*
X131359285Y-64597466D01*
X131359285Y-64597466D02*
X131359285Y-64797466D01*
X131359285Y-64797466D02*
X131330714Y-64911752D01*
X131330714Y-64911752D02*
X131273571Y-64968895D01*
X131273571Y-64968895D02*
X131216428Y-64997466D01*
X131216428Y-64997466D02*
X131102142Y-64997466D01*
X131930713Y-64997466D02*
X131587856Y-64997466D01*
X131759285Y-64997466D02*
X131759285Y-64397466D01*
X131759285Y-64397466D02*
X131702142Y-64483180D01*
X131702142Y-64483180D02*
X131644999Y-64540323D01*
X131644999Y-64540323D02*
X131587856Y-64568895D01*
X120592857Y-65056914D02*
X120535714Y-65028342D01*
X120535714Y-65028342D02*
X120478571Y-64971200D01*
X120478571Y-64971200D02*
X120392857Y-64885485D01*
X120392857Y-64885485D02*
X120335714Y-64856914D01*
X120335714Y-64856914D02*
X120278571Y-64856914D01*
X120307142Y-64999771D02*
X120250000Y-64971200D01*
X120250000Y-64971200D02*
X120192857Y-64914057D01*
X120192857Y-64914057D02*
X120164285Y-64799771D01*
X120164285Y-64799771D02*
X120164285Y-64599771D01*
X120164285Y-64599771D02*
X120192857Y-64485485D01*
X120192857Y-64485485D02*
X120250000Y-64428342D01*
X120250000Y-64428342D02*
X120307142Y-64399771D01*
X120307142Y-64399771D02*
X120421428Y-64399771D01*
X120421428Y-64399771D02*
X120478571Y-64428342D01*
X120478571Y-64428342D02*
X120535714Y-64485485D01*
X120535714Y-64485485D02*
X120564285Y-64599771D01*
X120564285Y-64599771D02*
X120564285Y-64799771D01*
X120564285Y-64799771D02*
X120535714Y-64914057D01*
X120535714Y-64914057D02*
X120478571Y-64971200D01*
X120478571Y-64971200D02*
X120421428Y-64999771D01*
X120421428Y-64999771D02*
X120307142Y-64999771D01*
X121078571Y-64599771D02*
X121078571Y-64999771D01*
X120935713Y-64371200D02*
X120792856Y-64799771D01*
X120792856Y-64799771D02*
X121164285Y-64799771D01*
D10*
X100393667Y-95532800D02*
X100536524Y-95580419D01*
X100536524Y-95580419D02*
X100774619Y-95580419D01*
X100774619Y-95580419D02*
X100869857Y-95532800D01*
X100869857Y-95532800D02*
X100917476Y-95485180D01*
X100917476Y-95485180D02*
X100965095Y-95389942D01*
X100965095Y-95389942D02*
X100965095Y-95294704D01*
X100965095Y-95294704D02*
X100917476Y-95199466D01*
X100917476Y-95199466D02*
X100869857Y-95151847D01*
X100869857Y-95151847D02*
X100774619Y-95104228D01*
X100774619Y-95104228D02*
X100584143Y-95056609D01*
X100584143Y-95056609D02*
X100488905Y-95008990D01*
X100488905Y-95008990D02*
X100441286Y-94961371D01*
X100441286Y-94961371D02*
X100393667Y-94866133D01*
X100393667Y-94866133D02*
X100393667Y-94770895D01*
X100393667Y-94770895D02*
X100441286Y-94675657D01*
X100441286Y-94675657D02*
X100488905Y-94628038D01*
X100488905Y-94628038D02*
X100584143Y-94580419D01*
X100584143Y-94580419D02*
X100822238Y-94580419D01*
X100822238Y-94580419D02*
X100965095Y-94628038D01*
X101298429Y-94580419D02*
X101536524Y-95580419D01*
X101536524Y-95580419D02*
X101727000Y-94866133D01*
X101727000Y-94866133D02*
X101917476Y-95580419D01*
X101917476Y-95580419D02*
X102155572Y-94580419D01*
X103012714Y-94580419D02*
X102536524Y-94580419D01*
X102536524Y-94580419D02*
X102488905Y-95056609D01*
X102488905Y-95056609D02*
X102536524Y-95008990D01*
X102536524Y-95008990D02*
X102631762Y-94961371D01*
X102631762Y-94961371D02*
X102869857Y-94961371D01*
X102869857Y-94961371D02*
X102965095Y-95008990D01*
X102965095Y-95008990D02*
X103012714Y-95056609D01*
X103012714Y-95056609D02*
X103060333Y-95151847D01*
X103060333Y-95151847D02*
X103060333Y-95389942D01*
X103060333Y-95389942D02*
X103012714Y-95485180D01*
X103012714Y-95485180D02*
X102965095Y-95532800D01*
X102965095Y-95532800D02*
X102869857Y-95580419D01*
X102869857Y-95580419D02*
X102631762Y-95580419D01*
X102631762Y-95580419D02*
X102536524Y-95532800D01*
X102536524Y-95532800D02*
X102488905Y-95485180D01*
X155063819Y-85550728D02*
X155778104Y-85550728D01*
X155778104Y-85550728D02*
X155920961Y-85598347D01*
X155920961Y-85598347D02*
X156016200Y-85693585D01*
X156016200Y-85693585D02*
X156063819Y-85836442D01*
X156063819Y-85836442D02*
X156063819Y-85931680D01*
X156063819Y-84550728D02*
X156063819Y-85122156D01*
X156063819Y-84836442D02*
X155063819Y-84836442D01*
X155063819Y-84836442D02*
X155206676Y-84931680D01*
X155206676Y-84931680D02*
X155301914Y-85026918D01*
X155301914Y-85026918D02*
X155349533Y-85122156D01*
X155397152Y-83693585D02*
X156063819Y-83693585D01*
X155016200Y-83931680D02*
X155730485Y-84169775D01*
X155730485Y-84169775D02*
X155730485Y-83550728D01*
D11*
X119942880Y-83163571D02*
X119990500Y-83211190D01*
X119990500Y-83211190D02*
X120038119Y-83354047D01*
X120038119Y-83354047D02*
X120038119Y-83449285D01*
X120038119Y-83449285D02*
X119990500Y-83592142D01*
X119990500Y-83592142D02*
X119895261Y-83687380D01*
X119895261Y-83687380D02*
X119800023Y-83734999D01*
X119800023Y-83734999D02*
X119609547Y-83782618D01*
X119609547Y-83782618D02*
X119466690Y-83782618D01*
X119466690Y-83782618D02*
X119276214Y-83734999D01*
X119276214Y-83734999D02*
X119180976Y-83687380D01*
X119180976Y-83687380D02*
X119085738Y-83592142D01*
X119085738Y-83592142D02*
X119038119Y-83449285D01*
X119038119Y-83449285D02*
X119038119Y-83354047D01*
X119038119Y-83354047D02*
X119085738Y-83211190D01*
X119085738Y-83211190D02*
X119133357Y-83163571D01*
X119133357Y-82782618D02*
X119085738Y-82734999D01*
X119085738Y-82734999D02*
X119038119Y-82639761D01*
X119038119Y-82639761D02*
X119038119Y-82401666D01*
X119038119Y-82401666D02*
X119085738Y-82306428D01*
X119085738Y-82306428D02*
X119133357Y-82258809D01*
X119133357Y-82258809D02*
X119228595Y-82211190D01*
X119228595Y-82211190D02*
X119323833Y-82211190D01*
X119323833Y-82211190D02*
X119466690Y-82258809D01*
X119466690Y-82258809D02*
X120038119Y-82830237D01*
X120038119Y-82830237D02*
X120038119Y-82211190D01*
D10*
X98553776Y-82156824D02*
X98553776Y-82871109D01*
X98553776Y-82871109D02*
X98506157Y-83013966D01*
X98506157Y-83013966D02*
X98410919Y-83109205D01*
X98410919Y-83109205D02*
X98268062Y-83156824D01*
X98268062Y-83156824D02*
X98172824Y-83156824D01*
X98982348Y-82252062D02*
X99029967Y-82204443D01*
X99029967Y-82204443D02*
X99125205Y-82156824D01*
X99125205Y-82156824D02*
X99363300Y-82156824D01*
X99363300Y-82156824D02*
X99458538Y-82204443D01*
X99458538Y-82204443D02*
X99506157Y-82252062D01*
X99506157Y-82252062D02*
X99553776Y-82347300D01*
X99553776Y-82347300D02*
X99553776Y-82442538D01*
X99553776Y-82442538D02*
X99506157Y-82585395D01*
X99506157Y-82585395D02*
X98934729Y-83156824D01*
X98934729Y-83156824D02*
X99553776Y-83156824D01*
X99934729Y-82252062D02*
X99982348Y-82204443D01*
X99982348Y-82204443D02*
X100077586Y-82156824D01*
X100077586Y-82156824D02*
X100315681Y-82156824D01*
X100315681Y-82156824D02*
X100410919Y-82204443D01*
X100410919Y-82204443D02*
X100458538Y-82252062D01*
X100458538Y-82252062D02*
X100506157Y-82347300D01*
X100506157Y-82347300D02*
X100506157Y-82442538D01*
X100506157Y-82442538D02*
X100458538Y-82585395D01*
X100458538Y-82585395D02*
X99887110Y-83156824D01*
X99887110Y-83156824D02*
X100506157Y-83156824D01*
X101784667Y-119282105D02*
X101927524Y-119329724D01*
X101927524Y-119329724D02*
X102165619Y-119329724D01*
X102165619Y-119329724D02*
X102260857Y-119282105D01*
X102260857Y-119282105D02*
X102308476Y-119234485D01*
X102308476Y-119234485D02*
X102356095Y-119139247D01*
X102356095Y-119139247D02*
X102356095Y-119044009D01*
X102356095Y-119044009D02*
X102308476Y-118948771D01*
X102308476Y-118948771D02*
X102260857Y-118901152D01*
X102260857Y-118901152D02*
X102165619Y-118853533D01*
X102165619Y-118853533D02*
X101975143Y-118805914D01*
X101975143Y-118805914D02*
X101879905Y-118758295D01*
X101879905Y-118758295D02*
X101832286Y-118710676D01*
X101832286Y-118710676D02*
X101784667Y-118615438D01*
X101784667Y-118615438D02*
X101784667Y-118520200D01*
X101784667Y-118520200D02*
X101832286Y-118424962D01*
X101832286Y-118424962D02*
X101879905Y-118377343D01*
X101879905Y-118377343D02*
X101975143Y-118329724D01*
X101975143Y-118329724D02*
X102213238Y-118329724D01*
X102213238Y-118329724D02*
X102356095Y-118377343D01*
X102689429Y-118329724D02*
X102927524Y-119329724D01*
X102927524Y-119329724D02*
X103118000Y-118615438D01*
X103118000Y-118615438D02*
X103308476Y-119329724D01*
X103308476Y-119329724D02*
X103546572Y-118329724D01*
X103832286Y-118329724D02*
X104451333Y-118329724D01*
X104451333Y-118329724D02*
X104118000Y-118710676D01*
X104118000Y-118710676D02*
X104260857Y-118710676D01*
X104260857Y-118710676D02*
X104356095Y-118758295D01*
X104356095Y-118758295D02*
X104403714Y-118805914D01*
X104403714Y-118805914D02*
X104451333Y-118901152D01*
X104451333Y-118901152D02*
X104451333Y-119139247D01*
X104451333Y-119139247D02*
X104403714Y-119234485D01*
X104403714Y-119234485D02*
X104356095Y-119282105D01*
X104356095Y-119282105D02*
X104260857Y-119329724D01*
X104260857Y-119329724D02*
X103975143Y-119329724D01*
X103975143Y-119329724D02*
X103879905Y-119282105D01*
X103879905Y-119282105D02*
X103832286Y-119234485D01*
X101784667Y-135282105D02*
X101927524Y-135329724D01*
X101927524Y-135329724D02*
X102165619Y-135329724D01*
X102165619Y-135329724D02*
X102260857Y-135282105D01*
X102260857Y-135282105D02*
X102308476Y-135234485D01*
X102308476Y-135234485D02*
X102356095Y-135139247D01*
X102356095Y-135139247D02*
X102356095Y-135044009D01*
X102356095Y-135044009D02*
X102308476Y-134948771D01*
X102308476Y-134948771D02*
X102260857Y-134901152D01*
X102260857Y-134901152D02*
X102165619Y-134853533D01*
X102165619Y-134853533D02*
X101975143Y-134805914D01*
X101975143Y-134805914D02*
X101879905Y-134758295D01*
X101879905Y-134758295D02*
X101832286Y-134710676D01*
X101832286Y-134710676D02*
X101784667Y-134615438D01*
X101784667Y-134615438D02*
X101784667Y-134520200D01*
X101784667Y-134520200D02*
X101832286Y-134424962D01*
X101832286Y-134424962D02*
X101879905Y-134377343D01*
X101879905Y-134377343D02*
X101975143Y-134329724D01*
X101975143Y-134329724D02*
X102213238Y-134329724D01*
X102213238Y-134329724D02*
X102356095Y-134377343D01*
X102689429Y-134329724D02*
X102927524Y-135329724D01*
X102927524Y-135329724D02*
X103118000Y-134615438D01*
X103118000Y-134615438D02*
X103308476Y-135329724D01*
X103308476Y-135329724D02*
X103546572Y-134329724D01*
X104356095Y-134663057D02*
X104356095Y-135329724D01*
X104118000Y-134282105D02*
X103879905Y-134996390D01*
X103879905Y-134996390D02*
X104498952Y-134996390D01*
D11*
X186859104Y-122633285D02*
X186859104Y-122157095D01*
X187144819Y-122728523D02*
X186144819Y-122395190D01*
X186144819Y-122395190D02*
X187144819Y-122061857D01*
X187144819Y-121204714D02*
X187144819Y-121776142D01*
X187144819Y-121490428D02*
X186144819Y-121490428D01*
X186144819Y-121490428D02*
X186287676Y-121585666D01*
X186287676Y-121585666D02*
X186382914Y-121680904D01*
X186382914Y-121680904D02*
X186430533Y-121776142D01*
D10*
X85559690Y-87946190D02*
X85512071Y-88089047D01*
X85512071Y-88089047D02*
X85464452Y-88136666D01*
X85464452Y-88136666D02*
X85369214Y-88184285D01*
X85369214Y-88184285D02*
X85226357Y-88184285D01*
X85226357Y-88184285D02*
X85131119Y-88136666D01*
X85131119Y-88136666D02*
X85083500Y-88089047D01*
X85083500Y-88089047D02*
X85035880Y-87993809D01*
X85035880Y-87993809D02*
X85035880Y-87612857D01*
X85035880Y-87612857D02*
X86035880Y-87612857D01*
X86035880Y-87612857D02*
X86035880Y-87946190D01*
X86035880Y-87946190D02*
X85988261Y-88041428D01*
X85988261Y-88041428D02*
X85940642Y-88089047D01*
X85940642Y-88089047D02*
X85845404Y-88136666D01*
X85845404Y-88136666D02*
X85750166Y-88136666D01*
X85750166Y-88136666D02*
X85654928Y-88089047D01*
X85654928Y-88089047D02*
X85607309Y-88041428D01*
X85607309Y-88041428D02*
X85559690Y-87946190D01*
X85559690Y-87946190D02*
X85559690Y-87612857D01*
X86035880Y-88470000D02*
X86035880Y-89041428D01*
X85035880Y-88755714D02*
X86035880Y-88755714D01*
X85035880Y-89898571D02*
X85035880Y-89327143D01*
X85035880Y-89612857D02*
X86035880Y-89612857D01*
X86035880Y-89612857D02*
X85893023Y-89517619D01*
X85893023Y-89517619D02*
X85797785Y-89422381D01*
X85797785Y-89422381D02*
X85750166Y-89327143D01*
D11*
X120592857Y-70136914D02*
X120535714Y-70108342D01*
X120535714Y-70108342D02*
X120478571Y-70051200D01*
X120478571Y-70051200D02*
X120392857Y-69965485D01*
X120392857Y-69965485D02*
X120335714Y-69936914D01*
X120335714Y-69936914D02*
X120278571Y-69936914D01*
X120307142Y-70079771D02*
X120250000Y-70051200D01*
X120250000Y-70051200D02*
X120192857Y-69994057D01*
X120192857Y-69994057D02*
X120164285Y-69879771D01*
X120164285Y-69879771D02*
X120164285Y-69679771D01*
X120164285Y-69679771D02*
X120192857Y-69565485D01*
X120192857Y-69565485D02*
X120250000Y-69508342D01*
X120250000Y-69508342D02*
X120307142Y-69479771D01*
X120307142Y-69479771D02*
X120421428Y-69479771D01*
X120421428Y-69479771D02*
X120478571Y-69508342D01*
X120478571Y-69508342D02*
X120535714Y-69565485D01*
X120535714Y-69565485D02*
X120564285Y-69679771D01*
X120564285Y-69679771D02*
X120564285Y-69879771D01*
X120564285Y-69879771D02*
X120535714Y-69994057D01*
X120535714Y-69994057D02*
X120478571Y-70051200D01*
X120478571Y-70051200D02*
X120421428Y-70079771D01*
X120421428Y-70079771D02*
X120307142Y-70079771D01*
X121107142Y-69479771D02*
X120821428Y-69479771D01*
X120821428Y-69479771D02*
X120792856Y-69765485D01*
X120792856Y-69765485D02*
X120821428Y-69736914D01*
X120821428Y-69736914D02*
X120878571Y-69708342D01*
X120878571Y-69708342D02*
X121021428Y-69708342D01*
X121021428Y-69708342D02*
X121078571Y-69736914D01*
X121078571Y-69736914D02*
X121107142Y-69765485D01*
X121107142Y-69765485D02*
X121135713Y-69822628D01*
X121135713Y-69822628D02*
X121135713Y-69965485D01*
X121135713Y-69965485D02*
X121107142Y-70022628D01*
X121107142Y-70022628D02*
X121078571Y-70051200D01*
X121078571Y-70051200D02*
X121021428Y-70079771D01*
X121021428Y-70079771D02*
X120878571Y-70079771D01*
X120878571Y-70079771D02*
X120821428Y-70051200D01*
X120821428Y-70051200D02*
X120792856Y-70022628D01*
X131387857Y-70134609D02*
X131330714Y-70106037D01*
X131330714Y-70106037D02*
X131273571Y-70048895D01*
X131273571Y-70048895D02*
X131187857Y-69963180D01*
X131187857Y-69963180D02*
X131130714Y-69934609D01*
X131130714Y-69934609D02*
X131073571Y-69934609D01*
X131102142Y-70077466D02*
X131045000Y-70048895D01*
X131045000Y-70048895D02*
X130987857Y-69991752D01*
X130987857Y-69991752D02*
X130959285Y-69877466D01*
X130959285Y-69877466D02*
X130959285Y-69677466D01*
X130959285Y-69677466D02*
X130987857Y-69563180D01*
X130987857Y-69563180D02*
X131045000Y-69506037D01*
X131045000Y-69506037D02*
X131102142Y-69477466D01*
X131102142Y-69477466D02*
X131216428Y-69477466D01*
X131216428Y-69477466D02*
X131273571Y-69506037D01*
X131273571Y-69506037D02*
X131330714Y-69563180D01*
X131330714Y-69563180D02*
X131359285Y-69677466D01*
X131359285Y-69677466D02*
X131359285Y-69877466D01*
X131359285Y-69877466D02*
X131330714Y-69991752D01*
X131330714Y-69991752D02*
X131273571Y-70048895D01*
X131273571Y-70048895D02*
X131216428Y-70077466D01*
X131216428Y-70077466D02*
X131102142Y-70077466D01*
X131587856Y-69534609D02*
X131616428Y-69506037D01*
X131616428Y-69506037D02*
X131673571Y-69477466D01*
X131673571Y-69477466D02*
X131816428Y-69477466D01*
X131816428Y-69477466D02*
X131873571Y-69506037D01*
X131873571Y-69506037D02*
X131902142Y-69534609D01*
X131902142Y-69534609D02*
X131930713Y-69591752D01*
X131930713Y-69591752D02*
X131930713Y-69648895D01*
X131930713Y-69648895D02*
X131902142Y-69734609D01*
X131902142Y-69734609D02*
X131559285Y-70077466D01*
X131559285Y-70077466D02*
X131930713Y-70077466D01*
D10*
X86784667Y-135282105D02*
X86927524Y-135329724D01*
X86927524Y-135329724D02*
X87165619Y-135329724D01*
X87165619Y-135329724D02*
X87260857Y-135282105D01*
X87260857Y-135282105D02*
X87308476Y-135234485D01*
X87308476Y-135234485D02*
X87356095Y-135139247D01*
X87356095Y-135139247D02*
X87356095Y-135044009D01*
X87356095Y-135044009D02*
X87308476Y-134948771D01*
X87308476Y-134948771D02*
X87260857Y-134901152D01*
X87260857Y-134901152D02*
X87165619Y-134853533D01*
X87165619Y-134853533D02*
X86975143Y-134805914D01*
X86975143Y-134805914D02*
X86879905Y-134758295D01*
X86879905Y-134758295D02*
X86832286Y-134710676D01*
X86832286Y-134710676D02*
X86784667Y-134615438D01*
X86784667Y-134615438D02*
X86784667Y-134520200D01*
X86784667Y-134520200D02*
X86832286Y-134424962D01*
X86832286Y-134424962D02*
X86879905Y-134377343D01*
X86879905Y-134377343D02*
X86975143Y-134329724D01*
X86975143Y-134329724D02*
X87213238Y-134329724D01*
X87213238Y-134329724D02*
X87356095Y-134377343D01*
X87689429Y-134329724D02*
X87927524Y-135329724D01*
X87927524Y-135329724D02*
X88118000Y-134615438D01*
X88118000Y-134615438D02*
X88308476Y-135329724D01*
X88308476Y-135329724D02*
X88546572Y-134329724D01*
X88879905Y-134424962D02*
X88927524Y-134377343D01*
X88927524Y-134377343D02*
X89022762Y-134329724D01*
X89022762Y-134329724D02*
X89260857Y-134329724D01*
X89260857Y-134329724D02*
X89356095Y-134377343D01*
X89356095Y-134377343D02*
X89403714Y-134424962D01*
X89403714Y-134424962D02*
X89451333Y-134520200D01*
X89451333Y-134520200D02*
X89451333Y-134615438D01*
X89451333Y-134615438D02*
X89403714Y-134758295D01*
X89403714Y-134758295D02*
X88832286Y-135329724D01*
X88832286Y-135329724D02*
X89451333Y-135329724D01*
D11*
X128053333Y-102043885D02*
X128005714Y-102091505D01*
X128005714Y-102091505D02*
X127862857Y-102139124D01*
X127862857Y-102139124D02*
X127767619Y-102139124D01*
X127767619Y-102139124D02*
X127624762Y-102091505D01*
X127624762Y-102091505D02*
X127529524Y-101996266D01*
X127529524Y-101996266D02*
X127481905Y-101901028D01*
X127481905Y-101901028D02*
X127434286Y-101710552D01*
X127434286Y-101710552D02*
X127434286Y-101567695D01*
X127434286Y-101567695D02*
X127481905Y-101377219D01*
X127481905Y-101377219D02*
X127529524Y-101281981D01*
X127529524Y-101281981D02*
X127624762Y-101186743D01*
X127624762Y-101186743D02*
X127767619Y-101139124D01*
X127767619Y-101139124D02*
X127862857Y-101139124D01*
X127862857Y-101139124D02*
X128005714Y-101186743D01*
X128005714Y-101186743D02*
X128053333Y-101234362D01*
X129005714Y-102139124D02*
X128434286Y-102139124D01*
X128720000Y-102139124D02*
X128720000Y-101139124D01*
X128720000Y-101139124D02*
X128624762Y-101281981D01*
X128624762Y-101281981D02*
X128529524Y-101377219D01*
X128529524Y-101377219D02*
X128434286Y-101424838D01*
D10*
X86784667Y-119282105D02*
X86927524Y-119329724D01*
X86927524Y-119329724D02*
X87165619Y-119329724D01*
X87165619Y-119329724D02*
X87260857Y-119282105D01*
X87260857Y-119282105D02*
X87308476Y-119234485D01*
X87308476Y-119234485D02*
X87356095Y-119139247D01*
X87356095Y-119139247D02*
X87356095Y-119044009D01*
X87356095Y-119044009D02*
X87308476Y-118948771D01*
X87308476Y-118948771D02*
X87260857Y-118901152D01*
X87260857Y-118901152D02*
X87165619Y-118853533D01*
X87165619Y-118853533D02*
X86975143Y-118805914D01*
X86975143Y-118805914D02*
X86879905Y-118758295D01*
X86879905Y-118758295D02*
X86832286Y-118710676D01*
X86832286Y-118710676D02*
X86784667Y-118615438D01*
X86784667Y-118615438D02*
X86784667Y-118520200D01*
X86784667Y-118520200D02*
X86832286Y-118424962D01*
X86832286Y-118424962D02*
X86879905Y-118377343D01*
X86879905Y-118377343D02*
X86975143Y-118329724D01*
X86975143Y-118329724D02*
X87213238Y-118329724D01*
X87213238Y-118329724D02*
X87356095Y-118377343D01*
X87689429Y-118329724D02*
X87927524Y-119329724D01*
X87927524Y-119329724D02*
X88118000Y-118615438D01*
X88118000Y-118615438D02*
X88308476Y-119329724D01*
X88308476Y-119329724D02*
X88546572Y-118329724D01*
X89451333Y-119329724D02*
X88879905Y-119329724D01*
X89165619Y-119329724D02*
X89165619Y-118329724D01*
X89165619Y-118329724D02*
X89070381Y-118472581D01*
X89070381Y-118472581D02*
X88975143Y-118567819D01*
X88975143Y-118567819D02*
X88879905Y-118615438D01*
D12*
%TO.C,J15*%
X187640000Y-87604305D02*
X188970000Y-87604305D01*
X187640000Y-88934305D02*
X187640000Y-87604305D01*
X187640000Y-90204305D02*
X187640000Y-92804305D01*
X187640000Y-90204305D02*
X190300000Y-90204305D01*
X187640000Y-92804305D02*
X190300000Y-92804305D01*
X190300000Y-90204305D02*
X190300000Y-92804305D01*
%TO.C,Q3*%
X126325000Y-75657695D02*
X126325000Y-71016695D01*
X129594000Y-75657695D02*
X129594000Y-74147695D01*
X133295000Y-75657695D02*
X133295000Y-74147695D01*
X136565000Y-71016695D02*
X126325000Y-71016695D01*
X136565000Y-74147695D02*
X126325000Y-74147695D01*
X136565000Y-75657695D02*
X126325000Y-75657695D01*
X136565000Y-75657695D02*
X136565000Y-71016695D01*
%TO.C,J21*%
X187640000Y-95064305D02*
X188970000Y-95064305D01*
X187640000Y-96394305D02*
X187640000Y-95064305D01*
X187640000Y-97664305D02*
X187640000Y-100264305D01*
X187640000Y-97664305D02*
X190300000Y-97664305D01*
X187640000Y-100264305D02*
X190300000Y-100264305D01*
X190300000Y-97664305D02*
X190300000Y-100264305D01*
D13*
%TO.C,PS2*%
X112241000Y-112533500D02*
G75*
G02*
X112041000Y-112533500I-100000J0D01*
G01*
X112041000Y-112533500D02*
G75*
G02*
X112241000Y-112533500I100000J0D01*
G01*
D14*
X119881000Y-111583500D02*
X119881000Y-102983500D01*
X119881000Y-102983500D02*
X109481000Y-102983500D01*
X109481000Y-111583500D02*
X119881000Y-111583500D01*
X109481000Y-102983500D02*
X109481000Y-111583500D01*
%TO.C,J1*%
D10*
X144437754Y-61120000D02*
X179437754Y-61120000D01*
X179437754Y-76120000D01*
X144437754Y-76120000D01*
X144437754Y-61120000D01*
X145730647Y-63827107D02*
G75*
G02*
X147437754Y-63120000I707107J707107D01*
G01*
%TO.C,J17*%
X141986000Y-136640000D02*
X142494000Y-136640000D01*
X144526000Y-136640000D02*
X145034000Y-136640000D01*
X147066000Y-136640000D02*
X147574000Y-136640000D01*
X149606000Y-136640000D02*
X150114000Y-136640000D01*
X152146000Y-136640000D02*
X152654000Y-136640000D01*
X154686000Y-136640000D02*
X155194000Y-136640000D01*
X157226000Y-136640000D02*
X157734000Y-136640000D01*
X159766000Y-136640000D02*
X160274000Y-136640000D01*
X162306000Y-136640000D02*
X162814000Y-136640000D01*
X164846000Y-136640000D02*
X165354000Y-136640000D01*
X167386000Y-136640000D02*
X167894000Y-136640000D01*
%TO.C,J20*%
X141906000Y-139935305D02*
X142414000Y-139935305D01*
X144446000Y-139935305D02*
X144954000Y-139935305D01*
X146986000Y-139935305D02*
X147494000Y-139935305D01*
X149526000Y-139935305D02*
X150034000Y-139935305D01*
X152066000Y-139935305D02*
X152574000Y-139935305D01*
X154606000Y-139935305D02*
X155114000Y-139935305D01*
X157146000Y-139935305D02*
X157654000Y-139935305D01*
X159686000Y-139935305D02*
X160194000Y-139935305D01*
X162226000Y-139935305D02*
X162734000Y-139935305D01*
X164766000Y-139935305D02*
X165274000Y-139935305D01*
X167306000Y-139935305D02*
X167814000Y-139935305D01*
D12*
%TO.C,J8*%
X114748000Y-116653000D02*
X125028000Y-116653000D01*
X114748000Y-119253000D02*
X114748000Y-116653000D01*
X114748000Y-121853000D02*
X114748000Y-120523000D01*
X116078000Y-121853000D02*
X114748000Y-121853000D01*
X117348000Y-119253000D02*
X114748000Y-119253000D01*
X117348000Y-121853000D02*
X117348000Y-119253000D01*
X117348000Y-121853000D02*
X125028000Y-121853000D01*
X125028000Y-121853000D02*
X125028000Y-116653000D01*
%TO.C,R14*%
X188970000Y-82879305D02*
X188970000Y-80269305D01*
X190340000Y-84249305D02*
G75*
G02*
X187600000Y-84249305I-1370000J0D01*
G01*
X187600000Y-84249305D02*
G75*
G02*
X190340000Y-84249305I1370000J0D01*
G01*
D14*
%TO.C,PS1*%
X123233300Y-77916905D02*
X123233300Y-100816905D01*
X123233300Y-100816905D02*
X179633300Y-100816905D01*
X179633300Y-77916905D02*
X123233300Y-77916905D01*
X179633300Y-100816905D02*
X179633300Y-77916905D01*
D13*
X122433300Y-81746905D02*
G75*
G02*
X122233300Y-81746905I-100000J0D01*
G01*
X122233300Y-81746905D02*
G75*
G02*
X122433300Y-81746905I100000J0D01*
G01*
D10*
%TO.C,J18*%
X181430000Y-85934305D02*
X181430000Y-80219305D01*
X186510000Y-80219305D02*
X186510000Y-85934305D01*
X181430000Y-80219305D02*
G75*
G02*
X186510000Y-80219305I2540000J0D01*
G01*
X186510000Y-85934305D02*
G75*
G02*
X181430000Y-85934305I-2540000J0D01*
G01*
D12*
%TO.C,Q6*%
X115530000Y-75660000D02*
X115530000Y-71019000D01*
X118799000Y-75660000D02*
X118799000Y-74150000D01*
X122500000Y-75660000D02*
X122500000Y-74150000D01*
X125770000Y-71019000D02*
X115530000Y-71019000D01*
X125770000Y-74150000D02*
X115530000Y-74150000D01*
X125770000Y-75660000D02*
X115530000Y-75660000D01*
X125770000Y-75660000D02*
X125770000Y-71019000D01*
%TO.C,R21*%
X185520000Y-74930000D02*
X188130000Y-74930000D01*
X185520000Y-74930000D02*
G75*
G02*
X182780000Y-74930000I-1370000J0D01*
G01*
X182780000Y-74930000D02*
G75*
G02*
X185520000Y-74930000I1370000J0D01*
G01*
%TO.C,Q1*%
X126325000Y-65497695D02*
X126325000Y-60856695D01*
X129594000Y-65497695D02*
X129594000Y-63987695D01*
X133295000Y-65497695D02*
X133295000Y-63987695D01*
X136565000Y-60856695D02*
X126325000Y-60856695D01*
X136565000Y-63987695D02*
X126325000Y-63987695D01*
X136565000Y-65497695D02*
X126325000Y-65497695D01*
X136565000Y-65497695D02*
X136565000Y-60856695D01*
%TO.C,Q4*%
X115530000Y-65500000D02*
X115530000Y-60859000D01*
X118799000Y-65500000D02*
X118799000Y-63990000D01*
X122500000Y-65500000D02*
X122500000Y-63990000D01*
X125770000Y-60859000D02*
X115530000Y-60859000D01*
X125770000Y-63990000D02*
X115530000Y-63990000D01*
X125770000Y-65500000D02*
X115530000Y-65500000D01*
X125770000Y-65500000D02*
X125770000Y-60859000D01*
%TO.C,SW5*%
D10*
X96213300Y-89276905D02*
X115213300Y-89276905D01*
X115213300Y-101276905D01*
X96213300Y-101276905D01*
X96213300Y-89276905D01*
%TO.C,J14*%
X181430000Y-97791805D02*
X181430000Y-92076805D01*
X186510000Y-92076805D02*
X186510000Y-97791805D01*
X181430000Y-92076805D02*
G75*
G02*
X186510000Y-92076805I2540000J0D01*
G01*
X186510000Y-97791805D02*
G75*
G02*
X181430000Y-97791805I-2540000J0D01*
G01*
D12*
%TO.C,C2*%
X112293300Y-83236905D02*
X108258300Y-83236905D01*
X112293300Y-83276905D02*
X108260300Y-83276905D01*
X112293300Y-83316905D02*
X108263300Y-83316905D01*
X112293300Y-83356905D02*
X108265300Y-83356905D01*
X112293300Y-83396905D02*
X108268300Y-83396905D01*
X112293300Y-83436905D02*
X108271300Y-83436905D01*
X112293300Y-83476905D02*
X108275300Y-83476905D01*
X112293300Y-83516905D02*
X108279300Y-83516905D01*
X112293300Y-83556905D02*
X108283300Y-83556905D01*
X112293300Y-83596905D02*
X108288300Y-83596905D01*
X112293300Y-83636905D02*
X108293300Y-83636905D01*
X112293300Y-83676905D02*
X108298300Y-83676905D01*
X112293300Y-83717905D02*
X108303300Y-83717905D01*
X112293300Y-83757905D02*
X108309300Y-83757905D01*
X112293300Y-83797905D02*
X108315300Y-83797905D01*
X112293300Y-83837905D02*
X108322300Y-83837905D01*
X112293300Y-83877905D02*
X108329300Y-83877905D01*
X112293300Y-83917905D02*
X108336300Y-83917905D01*
X112293300Y-83957905D02*
X108343300Y-83957905D01*
X112293300Y-83997905D02*
X108351300Y-83997905D01*
X112293300Y-84037905D02*
X108359300Y-84037905D01*
X112293300Y-84077905D02*
X108368300Y-84077905D01*
X112293300Y-84117905D02*
X108377300Y-84117905D01*
X112293300Y-84157905D02*
X108386300Y-84157905D01*
X112293300Y-84197905D02*
X108395300Y-84197905D01*
X112293300Y-84237905D02*
X108405300Y-84237905D01*
X112293300Y-84277905D02*
X108415300Y-84277905D01*
X112293300Y-84317905D02*
X108426300Y-84317905D01*
X112293300Y-84357905D02*
X108436300Y-84357905D01*
X112293300Y-84397905D02*
X108448300Y-84397905D01*
X112293300Y-84437905D02*
X108459300Y-84437905D01*
X112293300Y-84477905D02*
X108471300Y-84477905D01*
X112293300Y-84517905D02*
X108483300Y-84517905D01*
X112293300Y-84557905D02*
X108496300Y-84557905D01*
X112293300Y-84597905D02*
X108509300Y-84597905D01*
X112293300Y-84637905D02*
X108522300Y-84637905D01*
X112293300Y-84677905D02*
X108536300Y-84677905D01*
X112293300Y-84717905D02*
X108550300Y-84717905D01*
X112293300Y-84757905D02*
X108565300Y-84757905D01*
X112293300Y-84797905D02*
X108579300Y-84797905D01*
X112293300Y-84837905D02*
X108595300Y-84837905D01*
X112293300Y-84877905D02*
X108610300Y-84877905D01*
X112293300Y-84917905D02*
X108626300Y-84917905D01*
X112293300Y-84957905D02*
X108643300Y-84957905D01*
X112293300Y-84997905D02*
X108659300Y-84997905D01*
X112293300Y-85037905D02*
X108676300Y-85037905D01*
X112293300Y-85077905D02*
X108694300Y-85077905D01*
X112293300Y-85117905D02*
X108712300Y-85117905D01*
X112293300Y-85157905D02*
X108730300Y-85157905D01*
X112293300Y-85197905D02*
X108749300Y-85197905D01*
X112293300Y-85237905D02*
X108769300Y-85237905D01*
X112293300Y-85277905D02*
X108788300Y-85277905D01*
X113932300Y-88077905D02*
X112734300Y-88077905D01*
X114195300Y-88037905D02*
X112471300Y-88037905D01*
X114395300Y-87997905D02*
X112271300Y-87997905D01*
X114563300Y-87957905D02*
X112103300Y-87957905D01*
X114711300Y-87917905D02*
X111955300Y-87917905D01*
X114843300Y-87877905D02*
X111823300Y-87877905D01*
X114963300Y-87837905D02*
X111703300Y-87837905D01*
X115075300Y-87797905D02*
X111591300Y-87797905D01*
X115179300Y-87757905D02*
X111487300Y-87757905D01*
X115277300Y-87717905D02*
X111389300Y-87717905D01*
X115370300Y-87677905D02*
X111296300Y-87677905D01*
X115458300Y-87637905D02*
X111208300Y-87637905D01*
X115542300Y-87597905D02*
X111124300Y-87597905D01*
X115622300Y-87557905D02*
X111044300Y-87557905D01*
X115698300Y-87517905D02*
X110968300Y-87517905D01*
X115772300Y-87477905D02*
X110894300Y-87477905D01*
X115843300Y-87437905D02*
X110823300Y-87437905D01*
X115912300Y-87397905D02*
X110754300Y-87397905D01*
X115978300Y-87357905D02*
X110688300Y-87357905D01*
X116042300Y-87317905D02*
X110624300Y-87317905D01*
X116103300Y-87277905D02*
X110563300Y-87277905D01*
X116163300Y-87237905D02*
X110503300Y-87237905D01*
X116208300Y-77517259D02*
X116208300Y-78517259D01*
X116222300Y-87197905D02*
X110444300Y-87197905D01*
X116278300Y-87157905D02*
X110388300Y-87157905D01*
X116333300Y-87117905D02*
X110333300Y-87117905D01*
X116387300Y-87077905D02*
X110279300Y-87077905D01*
X116439300Y-87037905D02*
X110227300Y-87037905D01*
X116489300Y-86997905D02*
X110177300Y-86997905D01*
X116539300Y-86957905D02*
X110127300Y-86957905D01*
X116587300Y-86917905D02*
X110079300Y-86917905D01*
X116634300Y-86877905D02*
X110032300Y-86877905D01*
X116680300Y-86837905D02*
X109986300Y-86837905D01*
X116708300Y-78017259D02*
X115708300Y-78017259D01*
X116725300Y-86797905D02*
X109941300Y-86797905D01*
X116769300Y-86757905D02*
X109897300Y-86757905D01*
X116811300Y-86717905D02*
X109855300Y-86717905D01*
X116853300Y-86677905D02*
X109813300Y-86677905D01*
X116894300Y-86637905D02*
X109772300Y-86637905D01*
X116934300Y-86597905D02*
X109732300Y-86597905D01*
X116973300Y-86557905D02*
X109693300Y-86557905D01*
X117012300Y-86517905D02*
X109654300Y-86517905D01*
X117049300Y-86477905D02*
X109617300Y-86477905D01*
X117086300Y-86437905D02*
X109580300Y-86437905D01*
X117122300Y-86397905D02*
X109544300Y-86397905D01*
X117157300Y-86357905D02*
X109509300Y-86357905D01*
X117191300Y-86317905D02*
X109475300Y-86317905D01*
X117225300Y-86277905D02*
X109441300Y-86277905D01*
X117258300Y-86237905D02*
X109408300Y-86237905D01*
X117290300Y-86197905D02*
X109376300Y-86197905D01*
X117322300Y-86157905D02*
X109344300Y-86157905D01*
X117353300Y-86117905D02*
X109313300Y-86117905D01*
X117383300Y-86077905D02*
X109283300Y-86077905D01*
X117413300Y-86037905D02*
X109253300Y-86037905D01*
X117443300Y-85997905D02*
X109223300Y-85997905D01*
X117471300Y-85957905D02*
X109195300Y-85957905D01*
X117499300Y-85917905D02*
X109167300Y-85917905D01*
X117527300Y-85877905D02*
X109139300Y-85877905D01*
X117554300Y-85837905D02*
X109112300Y-85837905D01*
X117580300Y-85797905D02*
X109086300Y-85797905D01*
X117606300Y-85757905D02*
X109060300Y-85757905D01*
X117631300Y-85717905D02*
X109035300Y-85717905D01*
X117656300Y-85677905D02*
X109010300Y-85677905D01*
X117680300Y-85637905D02*
X108986300Y-85637905D01*
X117704300Y-85597905D02*
X108962300Y-85597905D01*
X117728300Y-85557905D02*
X108938300Y-85557905D01*
X117750300Y-85517905D02*
X108916300Y-85517905D01*
X117773300Y-85477905D02*
X108893300Y-85477905D01*
X117795300Y-85437905D02*
X108871300Y-85437905D01*
X117816300Y-85397905D02*
X108850300Y-85397905D01*
X117837300Y-85357905D02*
X108829300Y-85357905D01*
X117858300Y-85317905D02*
X108808300Y-85317905D01*
X117878300Y-85277905D02*
X114373300Y-85277905D01*
X117897300Y-85237905D02*
X114373300Y-85237905D01*
X117917300Y-85197905D02*
X114373300Y-85197905D01*
X117936300Y-85157905D02*
X114373300Y-85157905D01*
X117954300Y-85117905D02*
X114373300Y-85117905D01*
X117972300Y-85077905D02*
X114373300Y-85077905D01*
X117990300Y-85037905D02*
X114373300Y-85037905D01*
X118007300Y-84997905D02*
X114373300Y-84997905D01*
X118023300Y-84957905D02*
X114373300Y-84957905D01*
X118040300Y-84917905D02*
X114373300Y-84917905D01*
X118056300Y-84877905D02*
X114373300Y-84877905D01*
X118071300Y-84837905D02*
X114373300Y-84837905D01*
X118087300Y-84797905D02*
X114373300Y-84797905D01*
X118101300Y-84757905D02*
X114373300Y-84757905D01*
X118116300Y-84717905D02*
X114373300Y-84717905D01*
X118130300Y-84677905D02*
X114373300Y-84677905D01*
X118144300Y-84637905D02*
X114373300Y-84637905D01*
X118157300Y-84597905D02*
X114373300Y-84597905D01*
X118170300Y-84557905D02*
X114373300Y-84557905D01*
X118183300Y-84517905D02*
X114373300Y-84517905D01*
X118195300Y-84477905D02*
X114373300Y-84477905D01*
X118207300Y-84437905D02*
X114373300Y-84437905D01*
X118218300Y-84397905D02*
X114373300Y-84397905D01*
X118230300Y-84357905D02*
X114373300Y-84357905D01*
X118240300Y-84317905D02*
X114373300Y-84317905D01*
X118251300Y-84277905D02*
X114373300Y-84277905D01*
X118261300Y-84237905D02*
X114373300Y-84237905D01*
X118271300Y-84197905D02*
X114373300Y-84197905D01*
X118280300Y-84157905D02*
X114373300Y-84157905D01*
X118289300Y-84117905D02*
X114373300Y-84117905D01*
X118298300Y-84077905D02*
X114373300Y-84077905D01*
X118307300Y-84037905D02*
X114373300Y-84037905D01*
X118315300Y-83997905D02*
X114373300Y-83997905D01*
X118323300Y-83957905D02*
X114373300Y-83957905D01*
X118330300Y-83917905D02*
X114373300Y-83917905D01*
X118337300Y-83877905D02*
X114373300Y-83877905D01*
X118344300Y-83837905D02*
X114373300Y-83837905D01*
X118351300Y-83797905D02*
X114373300Y-83797905D01*
X118357300Y-83757905D02*
X114373300Y-83757905D01*
X118363300Y-83717905D02*
X114373300Y-83717905D01*
X118368300Y-83676905D02*
X114373300Y-83676905D01*
X118373300Y-83636905D02*
X114373300Y-83636905D01*
X118378300Y-83596905D02*
X114373300Y-83596905D01*
X118383300Y-83556905D02*
X114373300Y-83556905D01*
X118387300Y-83516905D02*
X114373300Y-83516905D01*
X118391300Y-83476905D02*
X114373300Y-83476905D01*
X118395300Y-83436905D02*
X114373300Y-83436905D01*
X118398300Y-83396905D02*
X114373300Y-83396905D01*
X118401300Y-83356905D02*
X114373300Y-83356905D01*
X118403300Y-83316905D02*
X114373300Y-83316905D01*
X118406300Y-83276905D02*
X114373300Y-83276905D01*
X118408300Y-83236905D02*
X114373300Y-83236905D01*
X118410300Y-83196905D02*
X108256300Y-83196905D01*
X118411300Y-83156905D02*
X108255300Y-83156905D01*
X118412300Y-83116905D02*
X108254300Y-83116905D01*
X118413300Y-82996905D02*
X108253300Y-82996905D01*
X118413300Y-83036905D02*
X108253300Y-83036905D01*
X118413300Y-83076905D02*
X108253300Y-83076905D01*
X118453300Y-82996905D02*
G75*
G02*
X108213300Y-82996905I-5120000J0D01*
G01*
X108213300Y-82996905D02*
G75*
G02*
X118453300Y-82996905I5120000J0D01*
G01*
D10*
%TO.C,J22*%
X96823300Y-85556905D02*
X96823300Y-79841905D01*
X101903300Y-79841905D02*
X101903300Y-85556905D01*
X96823300Y-79841905D02*
G75*
G02*
X101903300Y-79841905I2540000J0D01*
G01*
X101903300Y-85556905D02*
G75*
G02*
X96823300Y-85556905I-2540000J0D01*
G01*
%TO.C,SW3*%
X95916000Y-112648305D02*
X108616000Y-112648305D01*
X108616000Y-125348305D01*
X95916000Y-125348305D01*
X95916000Y-112648305D01*
%TO.C,J16*%
X141986000Y-106680000D02*
X142494000Y-106680000D01*
X144526000Y-106680000D02*
X145034000Y-106680000D01*
X147066000Y-106680000D02*
X147574000Y-106680000D01*
X149606000Y-106680000D02*
X150114000Y-106680000D01*
X152146000Y-106680000D02*
X152654000Y-106680000D01*
X154686000Y-106680000D02*
X155194000Y-106680000D01*
X157226000Y-106680000D02*
X157734000Y-106680000D01*
X159766000Y-106680000D02*
X160274000Y-106680000D01*
X162306000Y-106680000D02*
X162814000Y-106680000D01*
X164846000Y-106680000D02*
X165354000Y-106680000D01*
X167386000Y-106680000D02*
X167894000Y-106680000D01*
X169926000Y-106680000D02*
X170434000Y-106680000D01*
X172466000Y-106680000D02*
X172974000Y-106680000D01*
X175006000Y-106680000D02*
X175514000Y-106680000D01*
X177546000Y-106680000D02*
X178054000Y-106680000D01*
%TO.C,SW4*%
X96768000Y-129047305D02*
X109468000Y-129047305D01*
X109468000Y-141747305D01*
X96768000Y-141747305D01*
X96768000Y-129047305D01*
D12*
%TO.C,A1*%
X134510000Y-130809000D02*
X134510000Y-113029000D01*
X178070000Y-110059000D02*
X180070000Y-110059000D01*
X182880000Y-110379000D02*
X137160000Y-110379000D01*
X182880000Y-133459000D02*
X137160000Y-133459000D01*
X185530000Y-130809000D02*
X185530000Y-113029000D01*
X134510000Y-113029000D02*
G75*
G02*
X137160000Y-110379000I2650000J0D01*
G01*
X137160000Y-133459000D02*
G75*
G02*
X134510000Y-130809000I0J2650000D01*
G01*
X182880000Y-110379000D02*
G75*
G02*
X185530000Y-113029000I0J-2650000D01*
G01*
X185530000Y-130809000D02*
G75*
G02*
X182880000Y-133459000I-2650000J0D01*
G01*
D10*
%TO.C,BT1*%
X90473300Y-82381905D02*
X84758300Y-82381905D01*
X90473300Y-95081905D02*
X84758300Y-95081905D01*
X93648300Y-85556905D02*
X93648300Y-91906905D01*
X82853300Y-87461905D02*
X80313300Y-87461905D01*
X80313300Y-90636905D01*
X82853300Y-90636905D01*
X82853300Y-87461905D01*
X78345423Y-83016905D02*
G75*
G02*
X84758299Y-82381905I3237877J-1D01*
G01*
X84758300Y-95081905D02*
G75*
G02*
X78370426Y-94848514I-3175000J635000D01*
G01*
X90473300Y-82381905D02*
G75*
G02*
X93648300Y-85556905I0J-3175000D01*
G01*
X93648300Y-91906905D02*
G75*
G02*
X90473300Y-95081905I-3175000J0D01*
G01*
D12*
%TO.C,Q5*%
X115530000Y-70580000D02*
X115530000Y-65939000D01*
X118799000Y-70580000D02*
X118799000Y-69070000D01*
X122500000Y-70580000D02*
X122500000Y-69070000D01*
X125770000Y-65939000D02*
X115530000Y-65939000D01*
X125770000Y-69070000D02*
X115530000Y-69070000D01*
X125770000Y-70580000D02*
X115530000Y-70580000D01*
X125770000Y-70580000D02*
X125770000Y-65939000D01*
%TO.C,Q2*%
X126325000Y-70577695D02*
X126325000Y-65936695D01*
X129594000Y-70577695D02*
X129594000Y-69067695D01*
X133295000Y-70577695D02*
X133295000Y-69067695D01*
X136565000Y-65936695D02*
X126325000Y-65936695D01*
X136565000Y-69067695D02*
X126325000Y-69067695D01*
X136565000Y-70577695D02*
X126325000Y-70577695D01*
X136565000Y-70577695D02*
X136565000Y-65936695D01*
D10*
%TO.C,J19*%
X141986000Y-104140000D02*
X142494000Y-104140000D01*
X144526000Y-104140000D02*
X145034000Y-104140000D01*
X147066000Y-104140000D02*
X147574000Y-104140000D01*
X149606000Y-104140000D02*
X150114000Y-104140000D01*
X152146000Y-104140000D02*
X152654000Y-104140000D01*
X154686000Y-104140000D02*
X155194000Y-104140000D01*
X157226000Y-104140000D02*
X157734000Y-104140000D01*
X159766000Y-104140000D02*
X160274000Y-104140000D01*
X162306000Y-104140000D02*
X162814000Y-104140000D01*
X164846000Y-104140000D02*
X165354000Y-104140000D01*
X167386000Y-104140000D02*
X167894000Y-104140000D01*
X169926000Y-104140000D02*
X170434000Y-104140000D01*
X172466000Y-104140000D02*
X172974000Y-104140000D01*
X175006000Y-104140000D02*
X175514000Y-104140000D01*
X177546000Y-104140000D02*
X178054000Y-104140000D01*
%TO.C,SW2*%
X80916000Y-128648305D02*
X93616000Y-128648305D01*
X93616000Y-141348305D01*
X80916000Y-141348305D01*
X80916000Y-128648305D01*
D12*
%TO.C,C1*%
X122740354Y-105059305D02*
X123740354Y-105059305D01*
X123240354Y-104559305D02*
X123240354Y-105559305D01*
X128220000Y-102854305D02*
X128220000Y-113014305D01*
X128260000Y-102854305D02*
X128260000Y-113014305D01*
X128300000Y-102854305D02*
X128300000Y-113014305D01*
X128340000Y-102855305D02*
X128340000Y-113013305D01*
X128380000Y-102856305D02*
X128380000Y-113012305D01*
X128420000Y-102857305D02*
X128420000Y-113011305D01*
X128460000Y-102859305D02*
X128460000Y-106894305D01*
X128460000Y-108974305D02*
X128460000Y-113009305D01*
X128500000Y-102861305D02*
X128500000Y-106894305D01*
X128500000Y-108974305D02*
X128500000Y-113007305D01*
X128540000Y-102864305D02*
X128540000Y-106894305D01*
X128540000Y-108974305D02*
X128540000Y-113004305D01*
X128580000Y-102866305D02*
X128580000Y-106894305D01*
X128580000Y-108974305D02*
X128580000Y-113002305D01*
X128620000Y-102869305D02*
X128620000Y-106894305D01*
X128620000Y-108974305D02*
X128620000Y-112999305D01*
X128660000Y-102872305D02*
X128660000Y-106894305D01*
X128660000Y-108974305D02*
X128660000Y-112996305D01*
X128700000Y-102876305D02*
X128700000Y-106894305D01*
X128700000Y-108974305D02*
X128700000Y-112992305D01*
X128740000Y-102880305D02*
X128740000Y-106894305D01*
X128740000Y-108974305D02*
X128740000Y-112988305D01*
X128780000Y-102884305D02*
X128780000Y-106894305D01*
X128780000Y-108974305D02*
X128780000Y-112984305D01*
X128820000Y-102889305D02*
X128820000Y-106894305D01*
X128820000Y-108974305D02*
X128820000Y-112979305D01*
X128860000Y-102894305D02*
X128860000Y-106894305D01*
X128860000Y-108974305D02*
X128860000Y-112974305D01*
X128900000Y-102899305D02*
X128900000Y-106894305D01*
X128900000Y-108974305D02*
X128900000Y-112969305D01*
X128941000Y-102904305D02*
X128941000Y-106894305D01*
X128941000Y-108974305D02*
X128941000Y-112964305D01*
X128981000Y-102910305D02*
X128981000Y-106894305D01*
X128981000Y-108974305D02*
X128981000Y-112958305D01*
X129021000Y-102916305D02*
X129021000Y-106894305D01*
X129021000Y-108974305D02*
X129021000Y-112952305D01*
X129061000Y-102923305D02*
X129061000Y-106894305D01*
X129061000Y-108974305D02*
X129061000Y-112945305D01*
X129101000Y-102930305D02*
X129101000Y-106894305D01*
X129101000Y-108974305D02*
X129101000Y-112938305D01*
X129141000Y-102937305D02*
X129141000Y-106894305D01*
X129141000Y-108974305D02*
X129141000Y-112931305D01*
X129181000Y-102944305D02*
X129181000Y-106894305D01*
X129181000Y-108974305D02*
X129181000Y-112924305D01*
X129221000Y-102952305D02*
X129221000Y-106894305D01*
X129221000Y-108974305D02*
X129221000Y-112916305D01*
X129261000Y-102960305D02*
X129261000Y-106894305D01*
X129261000Y-108974305D02*
X129261000Y-112908305D01*
X129301000Y-102969305D02*
X129301000Y-106894305D01*
X129301000Y-108974305D02*
X129301000Y-112899305D01*
X129341000Y-102978305D02*
X129341000Y-106894305D01*
X129341000Y-108974305D02*
X129341000Y-112890305D01*
X129381000Y-102987305D02*
X129381000Y-106894305D01*
X129381000Y-108974305D02*
X129381000Y-112881305D01*
X129421000Y-102996305D02*
X129421000Y-106894305D01*
X129421000Y-108974305D02*
X129421000Y-112872305D01*
X129461000Y-103006305D02*
X129461000Y-106894305D01*
X129461000Y-108974305D02*
X129461000Y-112862305D01*
X129501000Y-103016305D02*
X129501000Y-106894305D01*
X129501000Y-108974305D02*
X129501000Y-112852305D01*
X129541000Y-103027305D02*
X129541000Y-106894305D01*
X129541000Y-108974305D02*
X129541000Y-112841305D01*
X129581000Y-103037305D02*
X129581000Y-106894305D01*
X129581000Y-108974305D02*
X129581000Y-112831305D01*
X129621000Y-103049305D02*
X129621000Y-106894305D01*
X129621000Y-108974305D02*
X129621000Y-112819305D01*
X129661000Y-103060305D02*
X129661000Y-106894305D01*
X129661000Y-108974305D02*
X129661000Y-112808305D01*
X129701000Y-103072305D02*
X129701000Y-106894305D01*
X129701000Y-108974305D02*
X129701000Y-112796305D01*
X129741000Y-103084305D02*
X129741000Y-106894305D01*
X129741000Y-108974305D02*
X129741000Y-112784305D01*
X129781000Y-103097305D02*
X129781000Y-106894305D01*
X129781000Y-108974305D02*
X129781000Y-112771305D01*
X129821000Y-103110305D02*
X129821000Y-106894305D01*
X129821000Y-108974305D02*
X129821000Y-112758305D01*
X129861000Y-103123305D02*
X129861000Y-106894305D01*
X129861000Y-108974305D02*
X129861000Y-112745305D01*
X129901000Y-103137305D02*
X129901000Y-106894305D01*
X129901000Y-108974305D02*
X129901000Y-112731305D01*
X129941000Y-103151305D02*
X129941000Y-106894305D01*
X129941000Y-108974305D02*
X129941000Y-112717305D01*
X129981000Y-103166305D02*
X129981000Y-106894305D01*
X129981000Y-108974305D02*
X129981000Y-112702305D01*
X130021000Y-103180305D02*
X130021000Y-106894305D01*
X130021000Y-108974305D02*
X130021000Y-112688305D01*
X130061000Y-103196305D02*
X130061000Y-106894305D01*
X130061000Y-108974305D02*
X130061000Y-112672305D01*
X130101000Y-103211305D02*
X130101000Y-106894305D01*
X130101000Y-108974305D02*
X130101000Y-112657305D01*
X130141000Y-103227305D02*
X130141000Y-106894305D01*
X130141000Y-108974305D02*
X130141000Y-112641305D01*
X130181000Y-103244305D02*
X130181000Y-106894305D01*
X130181000Y-108974305D02*
X130181000Y-112624305D01*
X130221000Y-103260305D02*
X130221000Y-106894305D01*
X130221000Y-108974305D02*
X130221000Y-112608305D01*
X130261000Y-103277305D02*
X130261000Y-106894305D01*
X130261000Y-108974305D02*
X130261000Y-112591305D01*
X130301000Y-103295305D02*
X130301000Y-106894305D01*
X130301000Y-108974305D02*
X130301000Y-112573305D01*
X130341000Y-103313305D02*
X130341000Y-106894305D01*
X130341000Y-108974305D02*
X130341000Y-112555305D01*
X130381000Y-103331305D02*
X130381000Y-106894305D01*
X130381000Y-108974305D02*
X130381000Y-112537305D01*
X130421000Y-103350305D02*
X130421000Y-106894305D01*
X130421000Y-108974305D02*
X130421000Y-112518305D01*
X130461000Y-103370305D02*
X130461000Y-106894305D01*
X130461000Y-108974305D02*
X130461000Y-112498305D01*
X130501000Y-103389305D02*
X130501000Y-106894305D01*
X130501000Y-108974305D02*
X130501000Y-112479305D01*
X130541000Y-103409305D02*
X130541000Y-112459305D01*
X130581000Y-103430305D02*
X130581000Y-112438305D01*
X130621000Y-103451305D02*
X130621000Y-112417305D01*
X130661000Y-103472305D02*
X130661000Y-112396305D01*
X130701000Y-103494305D02*
X130701000Y-112374305D01*
X130741000Y-103517305D02*
X130741000Y-112351305D01*
X130781000Y-103539305D02*
X130781000Y-112329305D01*
X130821000Y-103563305D02*
X130821000Y-112305305D01*
X130861000Y-103587305D02*
X130861000Y-112281305D01*
X130901000Y-103611305D02*
X130901000Y-112257305D01*
X130941000Y-103636305D02*
X130941000Y-112232305D01*
X130981000Y-103661305D02*
X130981000Y-112207305D01*
X131021000Y-103687305D02*
X131021000Y-112181305D01*
X131061000Y-103713305D02*
X131061000Y-112155305D01*
X131101000Y-103740305D02*
X131101000Y-112128305D01*
X131141000Y-103768305D02*
X131141000Y-112100305D01*
X131181000Y-103796305D02*
X131181000Y-112072305D01*
X131221000Y-103824305D02*
X131221000Y-112044305D01*
X131261000Y-103854305D02*
X131261000Y-112014305D01*
X131301000Y-103884305D02*
X131301000Y-111984305D01*
X131341000Y-103914305D02*
X131341000Y-111954305D01*
X131381000Y-103945305D02*
X131381000Y-111923305D01*
X131421000Y-103977305D02*
X131421000Y-111891305D01*
X131461000Y-104009305D02*
X131461000Y-111859305D01*
X131501000Y-104042305D02*
X131501000Y-111826305D01*
X131541000Y-104076305D02*
X131541000Y-111792305D01*
X131581000Y-104110305D02*
X131581000Y-111758305D01*
X131621000Y-104145305D02*
X131621000Y-111723305D01*
X131661000Y-104181305D02*
X131661000Y-111687305D01*
X131701000Y-104218305D02*
X131701000Y-111650305D01*
X131741000Y-104255305D02*
X131741000Y-111613305D01*
X131781000Y-104294305D02*
X131781000Y-111574305D01*
X131821000Y-104333305D02*
X131821000Y-111535305D01*
X131861000Y-104373305D02*
X131861000Y-111495305D01*
X131901000Y-104414305D02*
X131901000Y-111454305D01*
X131941000Y-104456305D02*
X131941000Y-111412305D01*
X131981000Y-104498305D02*
X131981000Y-111370305D01*
X132021000Y-104542305D02*
X132021000Y-111326305D01*
X132061000Y-104587305D02*
X132061000Y-111281305D01*
X132101000Y-104633305D02*
X132101000Y-111235305D01*
X132141000Y-104680305D02*
X132141000Y-111188305D01*
X132181000Y-104728305D02*
X132181000Y-111140305D01*
X132221000Y-104778305D02*
X132221000Y-111090305D01*
X132261000Y-104828305D02*
X132261000Y-111040305D01*
X132301000Y-104880305D02*
X132301000Y-110988305D01*
X132341000Y-104934305D02*
X132341000Y-110934305D01*
X132381000Y-104989305D02*
X132381000Y-110879305D01*
X132421000Y-105045305D02*
X132421000Y-110823305D01*
X132461000Y-105104305D02*
X132461000Y-110764305D01*
X132501000Y-105164305D02*
X132501000Y-110704305D01*
X132541000Y-105225305D02*
X132541000Y-110643305D01*
X132581000Y-105289305D02*
X132581000Y-110579305D01*
X132621000Y-105355305D02*
X132621000Y-110513305D01*
X132661000Y-105424305D02*
X132661000Y-110444305D01*
X132701000Y-105495305D02*
X132701000Y-110373305D01*
X132741000Y-105569305D02*
X132741000Y-110299305D01*
X132781000Y-105645305D02*
X132781000Y-110223305D01*
X132821000Y-105725305D02*
X132821000Y-110143305D01*
X132861000Y-105809305D02*
X132861000Y-110059305D01*
X132901000Y-105897305D02*
X132901000Y-109971305D01*
X132941000Y-105990305D02*
X132941000Y-109878305D01*
X132981000Y-106088305D02*
X132981000Y-109780305D01*
X133021000Y-106192305D02*
X133021000Y-109676305D01*
X133061000Y-106304305D02*
X133061000Y-109564305D01*
X133101000Y-106424305D02*
X133101000Y-109444305D01*
X133141000Y-106556305D02*
X133141000Y-109312305D01*
X133181000Y-106704305D02*
X133181000Y-109164305D01*
X133221000Y-106872305D02*
X133221000Y-108996305D01*
X133261000Y-107072305D02*
X133261000Y-108796305D01*
X133301000Y-107335305D02*
X133301000Y-108533305D01*
X133340000Y-107934305D02*
G75*
G02*
X123100000Y-107934305I-5120000J0D01*
G01*
X123100000Y-107934305D02*
G75*
G02*
X133340000Y-107934305I5120000J0D01*
G01*
%TO.C,SW1*%
D10*
X80916000Y-112648305D02*
X93616000Y-112648305D01*
X93616000Y-125348305D01*
X80916000Y-125348305D01*
X80916000Y-112648305D01*
%TD*%
M02*
