%TF.GenerationSoftware,KiCad,Pcbnew,8.0.4*%
%TF.CreationDate,2025-02-09T16:53:56-05:00*%
%TF.ProjectId,Chassis,43686173-7369-4732-9e6b-696361645f70,rev?*%
%TF.SameCoordinates,Original*%
%TF.FileFunction,Soldermask,Top*%
%TF.FilePolarity,Negative*%
%FSLAX46Y46*%
G04 Gerber Fmt 4.6, Leading zero omitted, Abs format (unit mm)*
G04 Created by KiCad (PCBNEW 8.0.4) date 2025-02-09 16:53:56*
%MOMM*%
%LPD*%
G01*
G04 APERTURE LIST*
G04 Aperture macros list*
%AMRoundRect*
0 Rectangle with rounded corners*
0 $1 Rounding radius*
0 $2 $3 $4 $5 $6 $7 $8 $9 X,Y pos of 4 corners*
0 Add a 4 corners polygon primitive as box body*
4,1,4,$2,$3,$4,$5,$6,$7,$8,$9,$2,$3,0*
0 Add four circle primitives for the rounded corners*
1,1,$1+$1,$2,$3*
1,1,$1+$1,$4,$5*
1,1,$1+$1,$6,$7*
1,1,$1+$1,$8,$9*
0 Add four rect primitives between the rounded corners*
20,1,$1+$1,$2,$3,$4,$5,0*
20,1,$1+$1,$4,$5,$6,$7,0*
20,1,$1+$1,$6,$7,$8,$9,0*
20,1,$1+$1,$8,$9,$2,$3,0*%
%AMHorizOval*
0 Thick line with rounded ends*
0 $1 width*
0 $2 $3 position (X,Y) of the first rounded end (center of the circle)*
0 $4 $5 position (X,Y) of the second rounded end (center of the circle)*
0 Add line between two ends*
20,1,$1,$2,$3,$4,$5,0*
0 Add two circle primitives to create the rounded ends*
1,1,$1,$2,$3*
1,1,$1,$4,$5*%
%AMRotRect*
0 Rectangle, with rotation*
0 The origin of the aperture is its center*
0 $1 length*
0 $2 width*
0 $3 Rotation angle, in degrees counterclockwise*
0 Add horizontal line*
21,1,$1,$2,0,0,$3*%
G04 Aperture macros list end*
%ADD10C,1.600000*%
%ADD11R,1.600000X1.600000*%
%ADD12R,5.000000X5.000000*%
%ADD13C,5.000000*%
%ADD14R,1.800000X1.800000*%
%ADD15O,1.800000X1.800000*%
%ADD16C,1.900000*%
%ADD17RoundRect,0.250000X1.050000X0.550000X-1.050000X0.550000X-1.050000X-0.550000X1.050000X-0.550000X0*%
%ADD18O,2.600000X1.600000*%
%ADD19O,1.600000X1.600000*%
%ADD20RoundRect,0.102000X0.997500X-0.997500X0.997500X0.997500X-0.997500X0.997500X-0.997500X-0.997500X0*%
%ADD21C,2.199000*%
%ADD22C,3.024000*%
%ADD23RoundRect,0.249999X0.450001X1.075001X-0.450001X1.075001X-0.450001X-1.075001X0.450001X-1.075001X0*%
%ADD24R,1.905000X2.000000*%
%ADD25O,1.905000X2.000000*%
%ADD26C,1.524000*%
%ADD27R,1.700000X1.700000*%
%ADD28O,1.700000X1.700000*%
%ADD29R,1.524000X1.524000*%
%ADD30RotRect,1.905000X2.000000X45.000000*%
%ADD31HorizOval,1.905000X-0.033588X0.033588X0.033588X-0.033588X0*%
%ADD32HorizOval,1.905000X0.033588X0.033588X-0.033588X-0.033588X0*%
%ADD33RotRect,1.905000X2.000000X135.000000*%
G04 APERTURE END LIST*
D10*
%TO.C,C1*%
X88065000Y-94475000D03*
D11*
X90565000Y-94475000D03*
%TD*%
D12*
%TO.C,BT1*%
X109895000Y-154305000D03*
D13*
X117395000Y-154305000D03*
%TD*%
D14*
%TO.C,D12*%
X142240000Y-57579000D03*
D15*
X142240000Y-65199000D03*
%TD*%
D16*
%TO.C,J13*%
X146621000Y-64112000D03*
X151701000Y-64112000D03*
X146621000Y-61572000D03*
X151701000Y-61572000D03*
%TD*%
D14*
%TO.C,D10*%
X93830000Y-76277000D03*
D15*
X93830000Y-68657000D03*
%TD*%
D17*
%TO.C,A1*%
X128605000Y-130175000D03*
D18*
X128605000Y-127635000D03*
X128605000Y-125095000D03*
X128605000Y-122555000D03*
X128605000Y-120015000D03*
X128605000Y-117475000D03*
X128605000Y-114935000D03*
X128605000Y-112395000D03*
X128605000Y-109855000D03*
X128605000Y-107315000D03*
X128605000Y-104775000D03*
X128605000Y-102235000D03*
X128605000Y-99695000D03*
X128605000Y-97155000D03*
X128605000Y-94615000D03*
X128605000Y-92075000D03*
X108885000Y-92075000D03*
X108885000Y-94615000D03*
X108885000Y-97155000D03*
X108885000Y-99695000D03*
X108885000Y-102235000D03*
X108885000Y-104775000D03*
X108885000Y-107315000D03*
X108885000Y-109855000D03*
X108885000Y-112395000D03*
X108885000Y-114935000D03*
X108885000Y-117475000D03*
X108885000Y-120015000D03*
%TD*%
D10*
%TO.C,R14*%
X98820000Y-99330000D03*
D19*
X98820000Y-94250000D03*
%TD*%
D14*
%TO.C,D9*%
X93830000Y-65657000D03*
D15*
X93830000Y-58037000D03*
%TD*%
D20*
%TO.C,PS1*%
X81040000Y-155435000D03*
D21*
X88660000Y-155435000D03*
X96280000Y-155435000D03*
D22*
X96280000Y-104635000D03*
D21*
X88660000Y-104635000D03*
X84850000Y-104635000D03*
D22*
X81040000Y-104635000D03*
%TD*%
D14*
%TO.C,D4*%
X108927000Y-44956000D03*
D15*
X116547000Y-44956000D03*
%TD*%
D14*
%TO.C,D3*%
X119427000Y-44956000D03*
D15*
X127047000Y-44956000D03*
%TD*%
D16*
%TO.C,J3*%
X133434000Y-40005000D03*
X133434000Y-34925000D03*
X130894000Y-40005000D03*
X130894000Y-34925000D03*
%TD*%
D23*
%TO.C,R1*%
X145230000Y-116290000D03*
X140430000Y-116290000D03*
%TD*%
D16*
%TO.C,J10*%
X88900000Y-60157000D03*
X83820000Y-60157000D03*
X88900000Y-62697000D03*
X83820000Y-62697000D03*
%TD*%
%TO.C,J5*%
X115486000Y-40005000D03*
X115486000Y-34925000D03*
X112946000Y-40005000D03*
X112946000Y-34925000D03*
%TD*%
D24*
%TO.C,Q7*%
X131840000Y-75425000D03*
D25*
X134380000Y-75425000D03*
X136920000Y-75425000D03*
%TD*%
D24*
%TO.C,Q12*%
X131840000Y-69075000D03*
D25*
X134380000Y-69075000D03*
X136920000Y-69075000D03*
%TD*%
D14*
%TO.C,D5*%
X98427000Y-44956000D03*
D15*
X106047000Y-44956000D03*
%TD*%
D16*
%TO.C,J9*%
X88900000Y-51183000D03*
X83820000Y-51183000D03*
X88900000Y-53723000D03*
X83820000Y-53723000D03*
%TD*%
D26*
%TO.C,J17*%
X103505000Y-92075000D03*
X103505000Y-94615000D03*
X103505000Y-97155000D03*
X103505000Y-99695000D03*
X103505000Y-102235000D03*
X103505000Y-104775000D03*
X103505000Y-107315000D03*
X103505000Y-109855000D03*
X103505000Y-112395000D03*
X103505000Y-114935000D03*
X103505000Y-117475000D03*
X103505000Y-120015000D03*
%TD*%
D14*
%TO.C,D2*%
X129927000Y-44956000D03*
D15*
X137547000Y-44956000D03*
%TD*%
D27*
%TO.C,J18*%
X103265000Y-86220000D03*
D28*
X103265000Y-88760000D03*
%TD*%
D26*
%TO.C,J1*%
X79135000Y-95745000D03*
D29*
X79135000Y-93205000D03*
D26*
X79135000Y-90665000D03*
%TD*%
D30*
%TO.C,Q2*%
X132692898Y-55522102D03*
D31*
X134488949Y-53726051D03*
X136285000Y-51930000D03*
%TD*%
D27*
%TO.C,J14*%
X98615000Y-86220000D03*
D28*
X98615000Y-88760000D03*
%TD*%
D26*
%TO.C,J16*%
X133985000Y-130175000D03*
X133985000Y-127635000D03*
X133985000Y-125095000D03*
X133985000Y-122555000D03*
X133985000Y-120015000D03*
X133985000Y-117475000D03*
X133985000Y-114935000D03*
X133985000Y-112395000D03*
X133985000Y-109855000D03*
X133985000Y-107315000D03*
X133985000Y-104775000D03*
X133985000Y-102235000D03*
X133985000Y-99695000D03*
X133985000Y-97155000D03*
X133985000Y-94615000D03*
X133985000Y-92075000D03*
%TD*%
D14*
%TO.C,D7*%
X142240000Y-68079000D03*
D15*
X142240000Y-75699000D03*
%TD*%
D16*
%TO.C,J4*%
X124460000Y-40005000D03*
X124460000Y-34925000D03*
X121920000Y-40005000D03*
X121920000Y-34925000D03*
%TD*%
D14*
%TO.C,D11*%
X93830000Y-86777000D03*
D15*
X93830000Y-79157000D03*
%TD*%
D24*
%TO.C,Q11*%
X104535000Y-80505000D03*
D25*
X101995000Y-80505000D03*
X99455000Y-80505000D03*
%TD*%
D16*
%TO.C,J8*%
X146740000Y-73025000D03*
X151820000Y-73025000D03*
X146740000Y-70485000D03*
X151820000Y-70485000D03*
%TD*%
%TO.C,J2*%
X140095000Y-97015000D03*
X145175000Y-97015000D03*
X140095000Y-94475000D03*
X145175000Y-94475000D03*
%TD*%
D14*
%TO.C,D1*%
X139445000Y-102460000D03*
D15*
X147065000Y-102460000D03*
%TD*%
D30*
%TO.C,Q3*%
X123727165Y-55029267D03*
D31*
X125523216Y-53233216D03*
X127319267Y-51437165D03*
%TD*%
D26*
%TO.C,BZ1*%
X145175000Y-125180000D03*
D29*
X141175000Y-125180000D03*
%TD*%
D24*
%TO.C,Q8*%
X104534999Y-60820000D03*
D25*
X101994999Y-60820000D03*
X99455000Y-60820000D03*
%TD*%
D16*
%TO.C,J6*%
X106512000Y-40005000D03*
X106512000Y-34925000D03*
X103972000Y-40005000D03*
X103972000Y-34925000D03*
%TD*%
D24*
%TO.C,Q9*%
X104534999Y-67170000D03*
D25*
X101994999Y-67170000D03*
X99454999Y-67170000D03*
%TD*%
D24*
%TO.C,Q6*%
X131840000Y-81450000D03*
D25*
X134380000Y-81450000D03*
X136920000Y-81450000D03*
%TD*%
D16*
%TO.C,J15*%
X146621000Y-55138000D03*
X151701000Y-55138000D03*
X146621000Y-52598000D03*
X151701000Y-52598000D03*
%TD*%
D14*
%TO.C,D6*%
X142240000Y-78579000D03*
D15*
X142240000Y-86199000D03*
%TD*%
D32*
%TO.C,Q5*%
X100942898Y-50242898D03*
X102738949Y-52038949D03*
D33*
X104535000Y-53835000D03*
%TD*%
D24*
%TO.C,Q1*%
X140785000Y-109940000D03*
D25*
X143325000Y-109940000D03*
X145865000Y-109940000D03*
%TD*%
D14*
%TO.C,D13*%
X142240000Y-46889000D03*
D15*
X142240000Y-54509000D03*
%TD*%
D24*
%TO.C,Q13*%
X131840000Y-63035000D03*
D25*
X134380000Y-63035000D03*
X136920000Y-63035000D03*
%TD*%
D24*
%TO.C,Q10*%
X104535000Y-74155000D03*
D25*
X101995000Y-74155000D03*
X99455000Y-74155000D03*
%TD*%
D16*
%TO.C,J7*%
X146740000Y-81999000D03*
X151820000Y-81999000D03*
X146740000Y-79459000D03*
X151820000Y-79459000D03*
%TD*%
D32*
%TO.C,Q4*%
X112263949Y-50133949D03*
X114060000Y-51930000D03*
D33*
X115856051Y-53726051D03*
%TD*%
D16*
%TO.C,J12*%
X88900000Y-78105000D03*
X83820000Y-78105000D03*
X88900000Y-80645000D03*
X83820000Y-80645000D03*
%TD*%
D14*
%TO.C,D8*%
X93830000Y-54657000D03*
D15*
X93830000Y-47037000D03*
%TD*%
D16*
%TO.C,J11*%
X88900000Y-69131000D03*
X83820000Y-69131000D03*
X88900000Y-71671000D03*
X83820000Y-71671000D03*
%TD*%
M02*
