%TF.GenerationSoftware,KiCad,Pcbnew,8.0.4*%
%TF.CreationDate,2025-02-09T16:53:56-05:00*%
%TF.ProjectId,Chassis,43686173-7369-4732-9e6b-696361645f70,rev?*%
%TF.SameCoordinates,Original*%
%TF.FileFunction,Legend,Top*%
%TF.FilePolarity,Positive*%
%FSLAX46Y46*%
G04 Gerber Fmt 4.6, Leading zero omitted, Abs format (unit mm)*
G04 Created by KiCad (PCBNEW 8.0.4) date 2025-02-09 16:53:56*
%MOMM*%
%LPD*%
G01*
G04 APERTURE LIST*
%ADD10C,0.100000*%
%ADD11C,0.250000*%
%ADD12C,0.150000*%
%ADD13C,0.120000*%
%ADD14C,0.127000*%
%ADD15C,0.200000*%
%ADD16C,0.350000*%
G04 APERTURE END LIST*
D10*
X134225312Y-147052292D02*
X134177693Y-147099912D01*
X134177693Y-147099912D02*
X134034836Y-147147531D01*
X134034836Y-147147531D02*
X133939598Y-147147531D01*
X133939598Y-147147531D02*
X133796741Y-147099912D01*
X133796741Y-147099912D02*
X133701503Y-147004673D01*
X133701503Y-147004673D02*
X133653884Y-146909435D01*
X133653884Y-146909435D02*
X133606265Y-146718959D01*
X133606265Y-146718959D02*
X133606265Y-146576102D01*
X133606265Y-146576102D02*
X133653884Y-146385626D01*
X133653884Y-146385626D02*
X133701503Y-146290388D01*
X133701503Y-146290388D02*
X133796741Y-146195150D01*
X133796741Y-146195150D02*
X133939598Y-146147531D01*
X133939598Y-146147531D02*
X134034836Y-146147531D01*
X134034836Y-146147531D02*
X134177693Y-146195150D01*
X134177693Y-146195150D02*
X134225312Y-146242769D01*
X134653884Y-147147531D02*
X134653884Y-146147531D01*
X135082455Y-147147531D02*
X135082455Y-146623721D01*
X135082455Y-146623721D02*
X135034836Y-146528483D01*
X135034836Y-146528483D02*
X134939598Y-146480864D01*
X134939598Y-146480864D02*
X134796741Y-146480864D01*
X134796741Y-146480864D02*
X134701503Y-146528483D01*
X134701503Y-146528483D02*
X134653884Y-146576102D01*
X135987217Y-147147531D02*
X135987217Y-146623721D01*
X135987217Y-146623721D02*
X135939598Y-146528483D01*
X135939598Y-146528483D02*
X135844360Y-146480864D01*
X135844360Y-146480864D02*
X135653884Y-146480864D01*
X135653884Y-146480864D02*
X135558646Y-146528483D01*
X135987217Y-147099912D02*
X135891979Y-147147531D01*
X135891979Y-147147531D02*
X135653884Y-147147531D01*
X135653884Y-147147531D02*
X135558646Y-147099912D01*
X135558646Y-147099912D02*
X135511027Y-147004673D01*
X135511027Y-147004673D02*
X135511027Y-146909435D01*
X135511027Y-146909435D02*
X135558646Y-146814197D01*
X135558646Y-146814197D02*
X135653884Y-146766578D01*
X135653884Y-146766578D02*
X135891979Y-146766578D01*
X135891979Y-146766578D02*
X135987217Y-146718959D01*
X136415789Y-147099912D02*
X136511027Y-147147531D01*
X136511027Y-147147531D02*
X136701503Y-147147531D01*
X136701503Y-147147531D02*
X136796741Y-147099912D01*
X136796741Y-147099912D02*
X136844360Y-147004673D01*
X136844360Y-147004673D02*
X136844360Y-146957054D01*
X136844360Y-146957054D02*
X136796741Y-146861816D01*
X136796741Y-146861816D02*
X136701503Y-146814197D01*
X136701503Y-146814197D02*
X136558646Y-146814197D01*
X136558646Y-146814197D02*
X136463408Y-146766578D01*
X136463408Y-146766578D02*
X136415789Y-146671340D01*
X136415789Y-146671340D02*
X136415789Y-146623721D01*
X136415789Y-146623721D02*
X136463408Y-146528483D01*
X136463408Y-146528483D02*
X136558646Y-146480864D01*
X136558646Y-146480864D02*
X136701503Y-146480864D01*
X136701503Y-146480864D02*
X136796741Y-146528483D01*
X137225313Y-147099912D02*
X137320551Y-147147531D01*
X137320551Y-147147531D02*
X137511027Y-147147531D01*
X137511027Y-147147531D02*
X137606265Y-147099912D01*
X137606265Y-147099912D02*
X137653884Y-147004673D01*
X137653884Y-147004673D02*
X137653884Y-146957054D01*
X137653884Y-146957054D02*
X137606265Y-146861816D01*
X137606265Y-146861816D02*
X137511027Y-146814197D01*
X137511027Y-146814197D02*
X137368170Y-146814197D01*
X137368170Y-146814197D02*
X137272932Y-146766578D01*
X137272932Y-146766578D02*
X137225313Y-146671340D01*
X137225313Y-146671340D02*
X137225313Y-146623721D01*
X137225313Y-146623721D02*
X137272932Y-146528483D01*
X137272932Y-146528483D02*
X137368170Y-146480864D01*
X137368170Y-146480864D02*
X137511027Y-146480864D01*
X137511027Y-146480864D02*
X137606265Y-146528483D01*
X138082456Y-147147531D02*
X138082456Y-146480864D01*
X138082456Y-146147531D02*
X138034837Y-146195150D01*
X138034837Y-146195150D02*
X138082456Y-146242769D01*
X138082456Y-146242769D02*
X138130075Y-146195150D01*
X138130075Y-146195150D02*
X138082456Y-146147531D01*
X138082456Y-146147531D02*
X138082456Y-146242769D01*
X138511027Y-147099912D02*
X138606265Y-147147531D01*
X138606265Y-147147531D02*
X138796741Y-147147531D01*
X138796741Y-147147531D02*
X138891979Y-147099912D01*
X138891979Y-147099912D02*
X138939598Y-147004673D01*
X138939598Y-147004673D02*
X138939598Y-146957054D01*
X138939598Y-146957054D02*
X138891979Y-146861816D01*
X138891979Y-146861816D02*
X138796741Y-146814197D01*
X138796741Y-146814197D02*
X138653884Y-146814197D01*
X138653884Y-146814197D02*
X138558646Y-146766578D01*
X138558646Y-146766578D02*
X138511027Y-146671340D01*
X138511027Y-146671340D02*
X138511027Y-146623721D01*
X138511027Y-146623721D02*
X138558646Y-146528483D01*
X138558646Y-146528483D02*
X138653884Y-146480864D01*
X138653884Y-146480864D02*
X138796741Y-146480864D01*
X138796741Y-146480864D02*
X138891979Y-146528483D01*
X140130075Y-147147531D02*
X140130075Y-146147531D01*
X140130075Y-146147531D02*
X140368170Y-146147531D01*
X140368170Y-146147531D02*
X140511027Y-146195150D01*
X140511027Y-146195150D02*
X140606265Y-146290388D01*
X140606265Y-146290388D02*
X140653884Y-146385626D01*
X140653884Y-146385626D02*
X140701503Y-146576102D01*
X140701503Y-146576102D02*
X140701503Y-146718959D01*
X140701503Y-146718959D02*
X140653884Y-146909435D01*
X140653884Y-146909435D02*
X140606265Y-147004673D01*
X140606265Y-147004673D02*
X140511027Y-147099912D01*
X140511027Y-147099912D02*
X140368170Y-147147531D01*
X140368170Y-147147531D02*
X140130075Y-147147531D01*
X141511027Y-147099912D02*
X141415789Y-147147531D01*
X141415789Y-147147531D02*
X141225313Y-147147531D01*
X141225313Y-147147531D02*
X141130075Y-147099912D01*
X141130075Y-147099912D02*
X141082456Y-147004673D01*
X141082456Y-147004673D02*
X141082456Y-146623721D01*
X141082456Y-146623721D02*
X141130075Y-146528483D01*
X141130075Y-146528483D02*
X141225313Y-146480864D01*
X141225313Y-146480864D02*
X141415789Y-146480864D01*
X141415789Y-146480864D02*
X141511027Y-146528483D01*
X141511027Y-146528483D02*
X141558646Y-146623721D01*
X141558646Y-146623721D02*
X141558646Y-146718959D01*
X141558646Y-146718959D02*
X141082456Y-146814197D01*
X141987218Y-147147531D02*
X141987218Y-146480864D01*
X141987218Y-146671340D02*
X142034837Y-146576102D01*
X142034837Y-146576102D02*
X142082456Y-146528483D01*
X142082456Y-146528483D02*
X142177694Y-146480864D01*
X142177694Y-146480864D02*
X142272932Y-146480864D01*
X142606266Y-147147531D02*
X142606266Y-146480864D01*
X142606266Y-146147531D02*
X142558647Y-146195150D01*
X142558647Y-146195150D02*
X142606266Y-146242769D01*
X142606266Y-146242769D02*
X142653885Y-146195150D01*
X142653885Y-146195150D02*
X142606266Y-146147531D01*
X142606266Y-146147531D02*
X142606266Y-146242769D01*
X142987218Y-146480864D02*
X143225313Y-147147531D01*
X143225313Y-147147531D02*
X143463408Y-146480864D01*
X144225313Y-147099912D02*
X144130075Y-147147531D01*
X144130075Y-147147531D02*
X143939599Y-147147531D01*
X143939599Y-147147531D02*
X143844361Y-147099912D01*
X143844361Y-147099912D02*
X143796742Y-147004673D01*
X143796742Y-147004673D02*
X143796742Y-146623721D01*
X143796742Y-146623721D02*
X143844361Y-146528483D01*
X143844361Y-146528483D02*
X143939599Y-146480864D01*
X143939599Y-146480864D02*
X144130075Y-146480864D01*
X144130075Y-146480864D02*
X144225313Y-146528483D01*
X144225313Y-146528483D02*
X144272932Y-146623721D01*
X144272932Y-146623721D02*
X144272932Y-146718959D01*
X144272932Y-146718959D02*
X143796742Y-146814197D01*
X144701504Y-147147531D02*
X144701504Y-146480864D01*
X144701504Y-146671340D02*
X144749123Y-146576102D01*
X144749123Y-146576102D02*
X144796742Y-146528483D01*
X144796742Y-146528483D02*
X144891980Y-146480864D01*
X144891980Y-146480864D02*
X144987218Y-146480864D01*
X145939600Y-146147531D02*
X146272933Y-147147531D01*
X146272933Y-147147531D02*
X146606266Y-146147531D01*
X147463409Y-147147531D02*
X146891981Y-147147531D01*
X147177695Y-147147531D02*
X147177695Y-146147531D01*
X147177695Y-146147531D02*
X147082457Y-146290388D01*
X147082457Y-146290388D02*
X146987219Y-146385626D01*
X146987219Y-146385626D02*
X146891981Y-146433245D01*
X147891981Y-147052292D02*
X147939600Y-147099912D01*
X147939600Y-147099912D02*
X147891981Y-147147531D01*
X147891981Y-147147531D02*
X147844362Y-147099912D01*
X147844362Y-147099912D02*
X147891981Y-147052292D01*
X147891981Y-147052292D02*
X147891981Y-147147531D01*
X148891980Y-147147531D02*
X148320552Y-147147531D01*
X148606266Y-147147531D02*
X148606266Y-146147531D01*
X148606266Y-146147531D02*
X148511028Y-146290388D01*
X148511028Y-146290388D02*
X148415790Y-146385626D01*
X148415790Y-146385626D02*
X148320552Y-146433245D01*
X133653884Y-148757475D02*
X133653884Y-147757475D01*
X133653884Y-147757475D02*
X133891979Y-147757475D01*
X133891979Y-147757475D02*
X134034836Y-147805094D01*
X134034836Y-147805094D02*
X134130074Y-147900332D01*
X134130074Y-147900332D02*
X134177693Y-147995570D01*
X134177693Y-147995570D02*
X134225312Y-148186046D01*
X134225312Y-148186046D02*
X134225312Y-148328903D01*
X134225312Y-148328903D02*
X134177693Y-148519379D01*
X134177693Y-148519379D02*
X134130074Y-148614617D01*
X134130074Y-148614617D02*
X134034836Y-148709856D01*
X134034836Y-148709856D02*
X133891979Y-148757475D01*
X133891979Y-148757475D02*
X133653884Y-148757475D01*
X135034836Y-148709856D02*
X134939598Y-148757475D01*
X134939598Y-148757475D02*
X134749122Y-148757475D01*
X134749122Y-148757475D02*
X134653884Y-148709856D01*
X134653884Y-148709856D02*
X134606265Y-148614617D01*
X134606265Y-148614617D02*
X134606265Y-148233665D01*
X134606265Y-148233665D02*
X134653884Y-148138427D01*
X134653884Y-148138427D02*
X134749122Y-148090808D01*
X134749122Y-148090808D02*
X134939598Y-148090808D01*
X134939598Y-148090808D02*
X135034836Y-148138427D01*
X135034836Y-148138427D02*
X135082455Y-148233665D01*
X135082455Y-148233665D02*
X135082455Y-148328903D01*
X135082455Y-148328903D02*
X134606265Y-148424141D01*
X135463408Y-148709856D02*
X135558646Y-148757475D01*
X135558646Y-148757475D02*
X135749122Y-148757475D01*
X135749122Y-148757475D02*
X135844360Y-148709856D01*
X135844360Y-148709856D02*
X135891979Y-148614617D01*
X135891979Y-148614617D02*
X135891979Y-148566998D01*
X135891979Y-148566998D02*
X135844360Y-148471760D01*
X135844360Y-148471760D02*
X135749122Y-148424141D01*
X135749122Y-148424141D02*
X135606265Y-148424141D01*
X135606265Y-148424141D02*
X135511027Y-148376522D01*
X135511027Y-148376522D02*
X135463408Y-148281284D01*
X135463408Y-148281284D02*
X135463408Y-148233665D01*
X135463408Y-148233665D02*
X135511027Y-148138427D01*
X135511027Y-148138427D02*
X135606265Y-148090808D01*
X135606265Y-148090808D02*
X135749122Y-148090808D01*
X135749122Y-148090808D02*
X135844360Y-148138427D01*
X136320551Y-148757475D02*
X136320551Y-148090808D01*
X136320551Y-147757475D02*
X136272932Y-147805094D01*
X136272932Y-147805094D02*
X136320551Y-147852713D01*
X136320551Y-147852713D02*
X136368170Y-147805094D01*
X136368170Y-147805094D02*
X136320551Y-147757475D01*
X136320551Y-147757475D02*
X136320551Y-147852713D01*
X137225312Y-148090808D02*
X137225312Y-148900332D01*
X137225312Y-148900332D02*
X137177693Y-148995570D01*
X137177693Y-148995570D02*
X137130074Y-149043189D01*
X137130074Y-149043189D02*
X137034836Y-149090808D01*
X137034836Y-149090808D02*
X136891979Y-149090808D01*
X136891979Y-149090808D02*
X136796741Y-149043189D01*
X137225312Y-148709856D02*
X137130074Y-148757475D01*
X137130074Y-148757475D02*
X136939598Y-148757475D01*
X136939598Y-148757475D02*
X136844360Y-148709856D01*
X136844360Y-148709856D02*
X136796741Y-148662236D01*
X136796741Y-148662236D02*
X136749122Y-148566998D01*
X136749122Y-148566998D02*
X136749122Y-148281284D01*
X136749122Y-148281284D02*
X136796741Y-148186046D01*
X136796741Y-148186046D02*
X136844360Y-148138427D01*
X136844360Y-148138427D02*
X136939598Y-148090808D01*
X136939598Y-148090808D02*
X137130074Y-148090808D01*
X137130074Y-148090808D02*
X137225312Y-148138427D01*
X137701503Y-148090808D02*
X137701503Y-148757475D01*
X137701503Y-148186046D02*
X137749122Y-148138427D01*
X137749122Y-148138427D02*
X137844360Y-148090808D01*
X137844360Y-148090808D02*
X137987217Y-148090808D01*
X137987217Y-148090808D02*
X138082455Y-148138427D01*
X138082455Y-148138427D02*
X138130074Y-148233665D01*
X138130074Y-148233665D02*
X138130074Y-148757475D01*
X138987217Y-148709856D02*
X138891979Y-148757475D01*
X138891979Y-148757475D02*
X138701503Y-148757475D01*
X138701503Y-148757475D02*
X138606265Y-148709856D01*
X138606265Y-148709856D02*
X138558646Y-148614617D01*
X138558646Y-148614617D02*
X138558646Y-148233665D01*
X138558646Y-148233665D02*
X138606265Y-148138427D01*
X138606265Y-148138427D02*
X138701503Y-148090808D01*
X138701503Y-148090808D02*
X138891979Y-148090808D01*
X138891979Y-148090808D02*
X138987217Y-148138427D01*
X138987217Y-148138427D02*
X139034836Y-148233665D01*
X139034836Y-148233665D02*
X139034836Y-148328903D01*
X139034836Y-148328903D02*
X138558646Y-148424141D01*
X139891979Y-148757475D02*
X139891979Y-147757475D01*
X139891979Y-148709856D02*
X139796741Y-148757475D01*
X139796741Y-148757475D02*
X139606265Y-148757475D01*
X139606265Y-148757475D02*
X139511027Y-148709856D01*
X139511027Y-148709856D02*
X139463408Y-148662236D01*
X139463408Y-148662236D02*
X139415789Y-148566998D01*
X139415789Y-148566998D02*
X139415789Y-148281284D01*
X139415789Y-148281284D02*
X139463408Y-148186046D01*
X139463408Y-148186046D02*
X139511027Y-148138427D01*
X139511027Y-148138427D02*
X139606265Y-148090808D01*
X139606265Y-148090808D02*
X139796741Y-148090808D01*
X139796741Y-148090808D02*
X139891979Y-148138427D01*
X141130075Y-148757475D02*
X141130075Y-147757475D01*
X141130075Y-148138427D02*
X141225313Y-148090808D01*
X141225313Y-148090808D02*
X141415789Y-148090808D01*
X141415789Y-148090808D02*
X141511027Y-148138427D01*
X141511027Y-148138427D02*
X141558646Y-148186046D01*
X141558646Y-148186046D02*
X141606265Y-148281284D01*
X141606265Y-148281284D02*
X141606265Y-148566998D01*
X141606265Y-148566998D02*
X141558646Y-148662236D01*
X141558646Y-148662236D02*
X141511027Y-148709856D01*
X141511027Y-148709856D02*
X141415789Y-148757475D01*
X141415789Y-148757475D02*
X141225313Y-148757475D01*
X141225313Y-148757475D02*
X141130075Y-148709856D01*
X141939599Y-148090808D02*
X142177694Y-148757475D01*
X142415789Y-148090808D02*
X142177694Y-148757475D01*
X142177694Y-148757475D02*
X142082456Y-148995570D01*
X142082456Y-148995570D02*
X142034837Y-149043189D01*
X142034837Y-149043189D02*
X141939599Y-149090808D01*
X143749123Y-147757475D02*
X143939599Y-147757475D01*
X143939599Y-147757475D02*
X144034837Y-147805094D01*
X144034837Y-147805094D02*
X144130075Y-147900332D01*
X144130075Y-147900332D02*
X144177694Y-148090808D01*
X144177694Y-148090808D02*
X144177694Y-148424141D01*
X144177694Y-148424141D02*
X144130075Y-148614617D01*
X144130075Y-148614617D02*
X144034837Y-148709856D01*
X144034837Y-148709856D02*
X143939599Y-148757475D01*
X143939599Y-148757475D02*
X143749123Y-148757475D01*
X143749123Y-148757475D02*
X143653885Y-148709856D01*
X143653885Y-148709856D02*
X143558647Y-148614617D01*
X143558647Y-148614617D02*
X143511028Y-148424141D01*
X143511028Y-148424141D02*
X143511028Y-148090808D01*
X143511028Y-148090808D02*
X143558647Y-147900332D01*
X143558647Y-147900332D02*
X143653885Y-147805094D01*
X143653885Y-147805094D02*
X143749123Y-147757475D01*
X144558647Y-148709856D02*
X144653885Y-148757475D01*
X144653885Y-148757475D02*
X144844361Y-148757475D01*
X144844361Y-148757475D02*
X144939599Y-148709856D01*
X144939599Y-148709856D02*
X144987218Y-148614617D01*
X144987218Y-148614617D02*
X144987218Y-148566998D01*
X144987218Y-148566998D02*
X144939599Y-148471760D01*
X144939599Y-148471760D02*
X144844361Y-148424141D01*
X144844361Y-148424141D02*
X144701504Y-148424141D01*
X144701504Y-148424141D02*
X144606266Y-148376522D01*
X144606266Y-148376522D02*
X144558647Y-148281284D01*
X144558647Y-148281284D02*
X144558647Y-148233665D01*
X144558647Y-148233665D02*
X144606266Y-148138427D01*
X144606266Y-148138427D02*
X144701504Y-148090808D01*
X144701504Y-148090808D02*
X144844361Y-148090808D01*
X144844361Y-148090808D02*
X144939599Y-148138427D01*
X145844361Y-148709856D02*
X145749123Y-148757475D01*
X145749123Y-148757475D02*
X145558647Y-148757475D01*
X145558647Y-148757475D02*
X145463409Y-148709856D01*
X145463409Y-148709856D02*
X145415790Y-148662236D01*
X145415790Y-148662236D02*
X145368171Y-148566998D01*
X145368171Y-148566998D02*
X145368171Y-148281284D01*
X145368171Y-148281284D02*
X145415790Y-148186046D01*
X145415790Y-148186046D02*
X145463409Y-148138427D01*
X145463409Y-148138427D02*
X145558647Y-148090808D01*
X145558647Y-148090808D02*
X145749123Y-148090808D01*
X145749123Y-148090808D02*
X145844361Y-148138427D01*
X146701504Y-148757475D02*
X146701504Y-148233665D01*
X146701504Y-148233665D02*
X146653885Y-148138427D01*
X146653885Y-148138427D02*
X146558647Y-148090808D01*
X146558647Y-148090808D02*
X146368171Y-148090808D01*
X146368171Y-148090808D02*
X146272933Y-148138427D01*
X146701504Y-148709856D02*
X146606266Y-148757475D01*
X146606266Y-148757475D02*
X146368171Y-148757475D01*
X146368171Y-148757475D02*
X146272933Y-148709856D01*
X146272933Y-148709856D02*
X146225314Y-148614617D01*
X146225314Y-148614617D02*
X146225314Y-148519379D01*
X146225314Y-148519379D02*
X146272933Y-148424141D01*
X146272933Y-148424141D02*
X146368171Y-148376522D01*
X146368171Y-148376522D02*
X146606266Y-148376522D01*
X146606266Y-148376522D02*
X146701504Y-148328903D01*
X147177695Y-148757475D02*
X147177695Y-148090808D01*
X147177695Y-148281284D02*
X147225314Y-148186046D01*
X147225314Y-148186046D02*
X147272933Y-148138427D01*
X147272933Y-148138427D02*
X147368171Y-148090808D01*
X147368171Y-148090808D02*
X147463409Y-148090808D01*
X148463410Y-147757475D02*
X148701505Y-148757475D01*
X148701505Y-148757475D02*
X148891981Y-148043189D01*
X148891981Y-148043189D02*
X149082457Y-148757475D01*
X149082457Y-148757475D02*
X149320553Y-147757475D01*
X149701505Y-148757475D02*
X149701505Y-148090808D01*
X149701505Y-147757475D02*
X149653886Y-147805094D01*
X149653886Y-147805094D02*
X149701505Y-147852713D01*
X149701505Y-147852713D02*
X149749124Y-147805094D01*
X149749124Y-147805094D02*
X149701505Y-147757475D01*
X149701505Y-147757475D02*
X149701505Y-147852713D01*
X150320552Y-148757475D02*
X150225314Y-148709856D01*
X150225314Y-148709856D02*
X150177695Y-148614617D01*
X150177695Y-148614617D02*
X150177695Y-147757475D01*
X150701505Y-148757475D02*
X150701505Y-148090808D01*
X150701505Y-148186046D02*
X150749124Y-148138427D01*
X150749124Y-148138427D02*
X150844362Y-148090808D01*
X150844362Y-148090808D02*
X150987219Y-148090808D01*
X150987219Y-148090808D02*
X151082457Y-148138427D01*
X151082457Y-148138427D02*
X151130076Y-148233665D01*
X151130076Y-148233665D02*
X151130076Y-148757475D01*
X151130076Y-148233665D02*
X151177695Y-148138427D01*
X151177695Y-148138427D02*
X151272933Y-148090808D01*
X151272933Y-148090808D02*
X151415790Y-148090808D01*
X151415790Y-148090808D02*
X151511029Y-148138427D01*
X151511029Y-148138427D02*
X151558648Y-148233665D01*
X151558648Y-148233665D02*
X151558648Y-148757475D01*
X152415790Y-148709856D02*
X152320552Y-148757475D01*
X152320552Y-148757475D02*
X152130076Y-148757475D01*
X152130076Y-148757475D02*
X152034838Y-148709856D01*
X152034838Y-148709856D02*
X151987219Y-148614617D01*
X151987219Y-148614617D02*
X151987219Y-148233665D01*
X151987219Y-148233665D02*
X152034838Y-148138427D01*
X152034838Y-148138427D02*
X152130076Y-148090808D01*
X152130076Y-148090808D02*
X152320552Y-148090808D01*
X152320552Y-148090808D02*
X152415790Y-148138427D01*
X152415790Y-148138427D02*
X152463409Y-148233665D01*
X152463409Y-148233665D02*
X152463409Y-148328903D01*
X152463409Y-148328903D02*
X151987219Y-148424141D01*
X152891981Y-148757475D02*
X152891981Y-148090808D01*
X152891981Y-148281284D02*
X152939600Y-148186046D01*
X152939600Y-148186046D02*
X152987219Y-148138427D01*
X152987219Y-148138427D02*
X153082457Y-148090808D01*
X153082457Y-148090808D02*
X153177695Y-148090808D01*
X153939600Y-148757475D02*
X153939600Y-147757475D01*
X153939600Y-148709856D02*
X153844362Y-148757475D01*
X153844362Y-148757475D02*
X153653886Y-148757475D01*
X153653886Y-148757475D02*
X153558648Y-148709856D01*
X153558648Y-148709856D02*
X153511029Y-148662236D01*
X153511029Y-148662236D02*
X153463410Y-148566998D01*
X153463410Y-148566998D02*
X153463410Y-148281284D01*
X153463410Y-148281284D02*
X153511029Y-148186046D01*
X153511029Y-148186046D02*
X153558648Y-148138427D01*
X153558648Y-148138427D02*
X153653886Y-148090808D01*
X153653886Y-148090808D02*
X153844362Y-148090808D01*
X153844362Y-148090808D02*
X153939600Y-148138427D01*
X154415791Y-148757475D02*
X154415791Y-148090808D01*
X154415791Y-147757475D02*
X154368172Y-147805094D01*
X154368172Y-147805094D02*
X154415791Y-147852713D01*
X154415791Y-147852713D02*
X154463410Y-147805094D01*
X154463410Y-147805094D02*
X154415791Y-147757475D01*
X154415791Y-147757475D02*
X154415791Y-147852713D01*
X154891981Y-148090808D02*
X154891981Y-148757475D01*
X154891981Y-148186046D02*
X154939600Y-148138427D01*
X154939600Y-148138427D02*
X155034838Y-148090808D01*
X155034838Y-148090808D02*
X155177695Y-148090808D01*
X155177695Y-148090808D02*
X155272933Y-148138427D01*
X155272933Y-148138427D02*
X155320552Y-148233665D01*
X155320552Y-148233665D02*
X155320552Y-148757475D01*
X156225314Y-148090808D02*
X156225314Y-148900332D01*
X156225314Y-148900332D02*
X156177695Y-148995570D01*
X156177695Y-148995570D02*
X156130076Y-149043189D01*
X156130076Y-149043189D02*
X156034838Y-149090808D01*
X156034838Y-149090808D02*
X155891981Y-149090808D01*
X155891981Y-149090808D02*
X155796743Y-149043189D01*
X156225314Y-148709856D02*
X156130076Y-148757475D01*
X156130076Y-148757475D02*
X155939600Y-148757475D01*
X155939600Y-148757475D02*
X155844362Y-148709856D01*
X155844362Y-148709856D02*
X155796743Y-148662236D01*
X155796743Y-148662236D02*
X155749124Y-148566998D01*
X155749124Y-148566998D02*
X155749124Y-148281284D01*
X155749124Y-148281284D02*
X155796743Y-148186046D01*
X155796743Y-148186046D02*
X155844362Y-148138427D01*
X155844362Y-148138427D02*
X155939600Y-148090808D01*
X155939600Y-148090808D02*
X156130076Y-148090808D01*
X156130076Y-148090808D02*
X156225314Y-148138427D01*
X133987217Y-149843609D02*
X133653884Y-149843609D01*
X133653884Y-150367419D02*
X133653884Y-149367419D01*
X133653884Y-149367419D02*
X134130074Y-149367419D01*
X134891979Y-150319800D02*
X134796741Y-150367419D01*
X134796741Y-150367419D02*
X134606265Y-150367419D01*
X134606265Y-150367419D02*
X134511027Y-150319800D01*
X134511027Y-150319800D02*
X134463408Y-150224561D01*
X134463408Y-150224561D02*
X134463408Y-149843609D01*
X134463408Y-149843609D02*
X134511027Y-149748371D01*
X134511027Y-149748371D02*
X134606265Y-149700752D01*
X134606265Y-149700752D02*
X134796741Y-149700752D01*
X134796741Y-149700752D02*
X134891979Y-149748371D01*
X134891979Y-149748371D02*
X134939598Y-149843609D01*
X134939598Y-149843609D02*
X134939598Y-149938847D01*
X134939598Y-149938847D02*
X134463408Y-150034085D01*
X135368170Y-150367419D02*
X135368170Y-149367419D01*
X135368170Y-149748371D02*
X135463408Y-149700752D01*
X135463408Y-149700752D02*
X135653884Y-149700752D01*
X135653884Y-149700752D02*
X135749122Y-149748371D01*
X135749122Y-149748371D02*
X135796741Y-149795990D01*
X135796741Y-149795990D02*
X135844360Y-149891228D01*
X135844360Y-149891228D02*
X135844360Y-150176942D01*
X135844360Y-150176942D02*
X135796741Y-150272180D01*
X135796741Y-150272180D02*
X135749122Y-150319800D01*
X135749122Y-150319800D02*
X135653884Y-150367419D01*
X135653884Y-150367419D02*
X135463408Y-150367419D01*
X135463408Y-150367419D02*
X135368170Y-150319800D01*
X136272932Y-150367419D02*
X136272932Y-149700752D01*
X136272932Y-149891228D02*
X136320551Y-149795990D01*
X136320551Y-149795990D02*
X136368170Y-149748371D01*
X136368170Y-149748371D02*
X136463408Y-149700752D01*
X136463408Y-149700752D02*
X136558646Y-149700752D01*
X137320551Y-149700752D02*
X137320551Y-150367419D01*
X136891980Y-149700752D02*
X136891980Y-150224561D01*
X136891980Y-150224561D02*
X136939599Y-150319800D01*
X136939599Y-150319800D02*
X137034837Y-150367419D01*
X137034837Y-150367419D02*
X137177694Y-150367419D01*
X137177694Y-150367419D02*
X137272932Y-150319800D01*
X137272932Y-150319800D02*
X137320551Y-150272180D01*
X138225313Y-150367419D02*
X138225313Y-149843609D01*
X138225313Y-149843609D02*
X138177694Y-149748371D01*
X138177694Y-149748371D02*
X138082456Y-149700752D01*
X138082456Y-149700752D02*
X137891980Y-149700752D01*
X137891980Y-149700752D02*
X137796742Y-149748371D01*
X138225313Y-150319800D02*
X138130075Y-150367419D01*
X138130075Y-150367419D02*
X137891980Y-150367419D01*
X137891980Y-150367419D02*
X137796742Y-150319800D01*
X137796742Y-150319800D02*
X137749123Y-150224561D01*
X137749123Y-150224561D02*
X137749123Y-150129323D01*
X137749123Y-150129323D02*
X137796742Y-150034085D01*
X137796742Y-150034085D02*
X137891980Y-149986466D01*
X137891980Y-149986466D02*
X138130075Y-149986466D01*
X138130075Y-149986466D02*
X138225313Y-149938847D01*
X138701504Y-150367419D02*
X138701504Y-149700752D01*
X138701504Y-149891228D02*
X138749123Y-149795990D01*
X138749123Y-149795990D02*
X138796742Y-149748371D01*
X138796742Y-149748371D02*
X138891980Y-149700752D01*
X138891980Y-149700752D02*
X138987218Y-149700752D01*
X139225314Y-149700752D02*
X139463409Y-150367419D01*
X139701504Y-149700752D02*
X139463409Y-150367419D01*
X139463409Y-150367419D02*
X139368171Y-150605514D01*
X139368171Y-150605514D02*
X139320552Y-150653133D01*
X139320552Y-150653133D02*
X139225314Y-150700752D01*
X140891981Y-150367419D02*
X141082457Y-150367419D01*
X141082457Y-150367419D02*
X141177695Y-150319800D01*
X141177695Y-150319800D02*
X141225314Y-150272180D01*
X141225314Y-150272180D02*
X141320552Y-150129323D01*
X141320552Y-150129323D02*
X141368171Y-149938847D01*
X141368171Y-149938847D02*
X141368171Y-149557895D01*
X141368171Y-149557895D02*
X141320552Y-149462657D01*
X141320552Y-149462657D02*
X141272933Y-149415038D01*
X141272933Y-149415038D02*
X141177695Y-149367419D01*
X141177695Y-149367419D02*
X140987219Y-149367419D01*
X140987219Y-149367419D02*
X140891981Y-149415038D01*
X140891981Y-149415038D02*
X140844362Y-149462657D01*
X140844362Y-149462657D02*
X140796743Y-149557895D01*
X140796743Y-149557895D02*
X140796743Y-149795990D01*
X140796743Y-149795990D02*
X140844362Y-149891228D01*
X140844362Y-149891228D02*
X140891981Y-149938847D01*
X140891981Y-149938847D02*
X140987219Y-149986466D01*
X140987219Y-149986466D02*
X141177695Y-149986466D01*
X141177695Y-149986466D02*
X141272933Y-149938847D01*
X141272933Y-149938847D02*
X141320552Y-149891228D01*
X141320552Y-149891228D02*
X141368171Y-149795990D01*
X141844362Y-150319800D02*
X141844362Y-150367419D01*
X141844362Y-150367419D02*
X141796743Y-150462657D01*
X141796743Y-150462657D02*
X141749124Y-150510276D01*
X142987219Y-149462657D02*
X143034838Y-149415038D01*
X143034838Y-149415038D02*
X143130076Y-149367419D01*
X143130076Y-149367419D02*
X143368171Y-149367419D01*
X143368171Y-149367419D02*
X143463409Y-149415038D01*
X143463409Y-149415038D02*
X143511028Y-149462657D01*
X143511028Y-149462657D02*
X143558647Y-149557895D01*
X143558647Y-149557895D02*
X143558647Y-149653133D01*
X143558647Y-149653133D02*
X143511028Y-149795990D01*
X143511028Y-149795990D02*
X142939600Y-150367419D01*
X142939600Y-150367419D02*
X143558647Y-150367419D01*
X144177695Y-149367419D02*
X144272933Y-149367419D01*
X144272933Y-149367419D02*
X144368171Y-149415038D01*
X144368171Y-149415038D02*
X144415790Y-149462657D01*
X144415790Y-149462657D02*
X144463409Y-149557895D01*
X144463409Y-149557895D02*
X144511028Y-149748371D01*
X144511028Y-149748371D02*
X144511028Y-149986466D01*
X144511028Y-149986466D02*
X144463409Y-150176942D01*
X144463409Y-150176942D02*
X144415790Y-150272180D01*
X144415790Y-150272180D02*
X144368171Y-150319800D01*
X144368171Y-150319800D02*
X144272933Y-150367419D01*
X144272933Y-150367419D02*
X144177695Y-150367419D01*
X144177695Y-150367419D02*
X144082457Y-150319800D01*
X144082457Y-150319800D02*
X144034838Y-150272180D01*
X144034838Y-150272180D02*
X143987219Y-150176942D01*
X143987219Y-150176942D02*
X143939600Y-149986466D01*
X143939600Y-149986466D02*
X143939600Y-149748371D01*
X143939600Y-149748371D02*
X143987219Y-149557895D01*
X143987219Y-149557895D02*
X144034838Y-149462657D01*
X144034838Y-149462657D02*
X144082457Y-149415038D01*
X144082457Y-149415038D02*
X144177695Y-149367419D01*
X144891981Y-149462657D02*
X144939600Y-149415038D01*
X144939600Y-149415038D02*
X145034838Y-149367419D01*
X145034838Y-149367419D02*
X145272933Y-149367419D01*
X145272933Y-149367419D02*
X145368171Y-149415038D01*
X145368171Y-149415038D02*
X145415790Y-149462657D01*
X145415790Y-149462657D02*
X145463409Y-149557895D01*
X145463409Y-149557895D02*
X145463409Y-149653133D01*
X145463409Y-149653133D02*
X145415790Y-149795990D01*
X145415790Y-149795990D02*
X144844362Y-150367419D01*
X144844362Y-150367419D02*
X145463409Y-150367419D01*
X146368171Y-149367419D02*
X145891981Y-149367419D01*
X145891981Y-149367419D02*
X145844362Y-149843609D01*
X145844362Y-149843609D02*
X145891981Y-149795990D01*
X145891981Y-149795990D02*
X145987219Y-149748371D01*
X145987219Y-149748371D02*
X146225314Y-149748371D01*
X146225314Y-149748371D02*
X146320552Y-149795990D01*
X146320552Y-149795990D02*
X146368171Y-149843609D01*
X146368171Y-149843609D02*
X146415790Y-149938847D01*
X146415790Y-149938847D02*
X146415790Y-150176942D01*
X146415790Y-150176942D02*
X146368171Y-150272180D01*
X146368171Y-150272180D02*
X146320552Y-150319800D01*
X146320552Y-150319800D02*
X146225314Y-150367419D01*
X146225314Y-150367419D02*
X145987219Y-150367419D01*
X145987219Y-150367419D02*
X145891981Y-150319800D01*
X145891981Y-150319800D02*
X145844362Y-150272180D01*
X100586265Y-148709856D02*
X100729122Y-148757475D01*
X100729122Y-148757475D02*
X100967217Y-148757475D01*
X100967217Y-148757475D02*
X101062455Y-148709856D01*
X101062455Y-148709856D02*
X101110074Y-148662236D01*
X101110074Y-148662236D02*
X101157693Y-148566998D01*
X101157693Y-148566998D02*
X101157693Y-148471760D01*
X101157693Y-148471760D02*
X101110074Y-148376522D01*
X101110074Y-148376522D02*
X101062455Y-148328903D01*
X101062455Y-148328903D02*
X100967217Y-148281284D01*
X100967217Y-148281284D02*
X100776741Y-148233665D01*
X100776741Y-148233665D02*
X100681503Y-148186046D01*
X100681503Y-148186046D02*
X100633884Y-148138427D01*
X100633884Y-148138427D02*
X100586265Y-148043189D01*
X100586265Y-148043189D02*
X100586265Y-147947951D01*
X100586265Y-147947951D02*
X100633884Y-147852713D01*
X100633884Y-147852713D02*
X100681503Y-147805094D01*
X100681503Y-147805094D02*
X100776741Y-147757475D01*
X100776741Y-147757475D02*
X101014836Y-147757475D01*
X101014836Y-147757475D02*
X101157693Y-147805094D01*
X102252931Y-148852713D02*
X102157693Y-148805094D01*
X102157693Y-148805094D02*
X102062455Y-148709856D01*
X102062455Y-148709856D02*
X101919598Y-148566998D01*
X101919598Y-148566998D02*
X101824360Y-148519379D01*
X101824360Y-148519379D02*
X101729122Y-148519379D01*
X101776741Y-148757475D02*
X101681503Y-148709856D01*
X101681503Y-148709856D02*
X101586265Y-148614617D01*
X101586265Y-148614617D02*
X101538646Y-148424141D01*
X101538646Y-148424141D02*
X101538646Y-148090808D01*
X101538646Y-148090808D02*
X101586265Y-147900332D01*
X101586265Y-147900332D02*
X101681503Y-147805094D01*
X101681503Y-147805094D02*
X101776741Y-147757475D01*
X101776741Y-147757475D02*
X101967217Y-147757475D01*
X101967217Y-147757475D02*
X102062455Y-147805094D01*
X102062455Y-147805094D02*
X102157693Y-147900332D01*
X102157693Y-147900332D02*
X102205312Y-148090808D01*
X102205312Y-148090808D02*
X102205312Y-148424141D01*
X102205312Y-148424141D02*
X102157693Y-148614617D01*
X102157693Y-148614617D02*
X102062455Y-148709856D01*
X102062455Y-148709856D02*
X101967217Y-148757475D01*
X101967217Y-148757475D02*
X101776741Y-148757475D01*
X102633884Y-147757475D02*
X102633884Y-148566998D01*
X102633884Y-148566998D02*
X102681503Y-148662236D01*
X102681503Y-148662236D02*
X102729122Y-148709856D01*
X102729122Y-148709856D02*
X102824360Y-148757475D01*
X102824360Y-148757475D02*
X103014836Y-148757475D01*
X103014836Y-148757475D02*
X103110074Y-148709856D01*
X103110074Y-148709856D02*
X103157693Y-148662236D01*
X103157693Y-148662236D02*
X103205312Y-148566998D01*
X103205312Y-148566998D02*
X103205312Y-147757475D01*
X103633884Y-148471760D02*
X104110074Y-148471760D01*
X103538646Y-148757475D02*
X103871979Y-147757475D01*
X103871979Y-147757475D02*
X104205312Y-148757475D01*
X105110074Y-148757475D02*
X104776741Y-148281284D01*
X104538646Y-148757475D02*
X104538646Y-147757475D01*
X104538646Y-147757475D02*
X104919598Y-147757475D01*
X104919598Y-147757475D02*
X105014836Y-147805094D01*
X105014836Y-147805094D02*
X105062455Y-147852713D01*
X105062455Y-147852713D02*
X105110074Y-147947951D01*
X105110074Y-147947951D02*
X105110074Y-148090808D01*
X105110074Y-148090808D02*
X105062455Y-148186046D01*
X105062455Y-148186046D02*
X105014836Y-148233665D01*
X105014836Y-148233665D02*
X104919598Y-148281284D01*
X104919598Y-148281284D02*
X104538646Y-148281284D01*
X105538646Y-148233665D02*
X105871979Y-148233665D01*
X106014836Y-148757475D02*
X105538646Y-148757475D01*
X105538646Y-148757475D02*
X105538646Y-147757475D01*
X105538646Y-147757475D02*
X106014836Y-147757475D01*
X107205313Y-148757475D02*
X107205313Y-147757475D01*
X107205313Y-147757475D02*
X107443408Y-147757475D01*
X107443408Y-147757475D02*
X107586265Y-147805094D01*
X107586265Y-147805094D02*
X107681503Y-147900332D01*
X107681503Y-147900332D02*
X107729122Y-147995570D01*
X107729122Y-147995570D02*
X107776741Y-148186046D01*
X107776741Y-148186046D02*
X107776741Y-148328903D01*
X107776741Y-148328903D02*
X107729122Y-148519379D01*
X107729122Y-148519379D02*
X107681503Y-148614617D01*
X107681503Y-148614617D02*
X107586265Y-148709856D01*
X107586265Y-148709856D02*
X107443408Y-148757475D01*
X107443408Y-148757475D02*
X107205313Y-148757475D01*
X108395789Y-147757475D02*
X108586265Y-147757475D01*
X108586265Y-147757475D02*
X108681503Y-147805094D01*
X108681503Y-147805094D02*
X108776741Y-147900332D01*
X108776741Y-147900332D02*
X108824360Y-148090808D01*
X108824360Y-148090808D02*
X108824360Y-148424141D01*
X108824360Y-148424141D02*
X108776741Y-148614617D01*
X108776741Y-148614617D02*
X108681503Y-148709856D01*
X108681503Y-148709856D02*
X108586265Y-148757475D01*
X108586265Y-148757475D02*
X108395789Y-148757475D01*
X108395789Y-148757475D02*
X108300551Y-148709856D01*
X108300551Y-148709856D02*
X108205313Y-148614617D01*
X108205313Y-148614617D02*
X108157694Y-148424141D01*
X108157694Y-148424141D02*
X108157694Y-148090808D01*
X108157694Y-148090808D02*
X108205313Y-147900332D01*
X108205313Y-147900332D02*
X108300551Y-147805094D01*
X108300551Y-147805094D02*
X108395789Y-147757475D01*
X109252932Y-148233665D02*
X109586265Y-148233665D01*
X109729122Y-148757475D02*
X109252932Y-148757475D01*
X109252932Y-148757475D02*
X109252932Y-147757475D01*
X109252932Y-147757475D02*
X109729122Y-147757475D01*
X110110075Y-148709856D02*
X110252932Y-148757475D01*
X110252932Y-148757475D02*
X110491027Y-148757475D01*
X110491027Y-148757475D02*
X110586265Y-148709856D01*
X110586265Y-148709856D02*
X110633884Y-148662236D01*
X110633884Y-148662236D02*
X110681503Y-148566998D01*
X110681503Y-148566998D02*
X110681503Y-148471760D01*
X110681503Y-148471760D02*
X110633884Y-148376522D01*
X110633884Y-148376522D02*
X110586265Y-148328903D01*
X110586265Y-148328903D02*
X110491027Y-148281284D01*
X110491027Y-148281284D02*
X110300551Y-148233665D01*
X110300551Y-148233665D02*
X110205313Y-148186046D01*
X110205313Y-148186046D02*
X110157694Y-148138427D01*
X110157694Y-148138427D02*
X110110075Y-148043189D01*
X110110075Y-148043189D02*
X110110075Y-147947951D01*
X110110075Y-147947951D02*
X110157694Y-147852713D01*
X110157694Y-147852713D02*
X110205313Y-147805094D01*
X110205313Y-147805094D02*
X110300551Y-147757475D01*
X110300551Y-147757475D02*
X110538646Y-147757475D01*
X110538646Y-147757475D02*
X110681503Y-147805094D01*
X111871980Y-148757475D02*
X111871980Y-147757475D01*
X111871980Y-147757475D02*
X112443408Y-148757475D01*
X112443408Y-148757475D02*
X112443408Y-147757475D01*
X113110075Y-147757475D02*
X113300551Y-147757475D01*
X113300551Y-147757475D02*
X113395789Y-147805094D01*
X113395789Y-147805094D02*
X113491027Y-147900332D01*
X113491027Y-147900332D02*
X113538646Y-148090808D01*
X113538646Y-148090808D02*
X113538646Y-148424141D01*
X113538646Y-148424141D02*
X113491027Y-148614617D01*
X113491027Y-148614617D02*
X113395789Y-148709856D01*
X113395789Y-148709856D02*
X113300551Y-148757475D01*
X113300551Y-148757475D02*
X113110075Y-148757475D01*
X113110075Y-148757475D02*
X113014837Y-148709856D01*
X113014837Y-148709856D02*
X112919599Y-148614617D01*
X112919599Y-148614617D02*
X112871980Y-148424141D01*
X112871980Y-148424141D02*
X112871980Y-148090808D01*
X112871980Y-148090808D02*
X112919599Y-147900332D01*
X112919599Y-147900332D02*
X113014837Y-147805094D01*
X113014837Y-147805094D02*
X113110075Y-147757475D01*
X113824361Y-147757475D02*
X114395789Y-147757475D01*
X114110075Y-148757475D02*
X114110075Y-147757475D01*
X100633884Y-150367419D02*
X100633884Y-149367419D01*
X100633884Y-149367419D02*
X100967217Y-150081704D01*
X100967217Y-150081704D02*
X101300550Y-149367419D01*
X101300550Y-149367419D02*
X101300550Y-150367419D01*
X101776741Y-149843609D02*
X102110074Y-149843609D01*
X102252931Y-150367419D02*
X101776741Y-150367419D01*
X101776741Y-150367419D02*
X101776741Y-149367419D01*
X101776741Y-149367419D02*
X102252931Y-149367419D01*
X102633884Y-150081704D02*
X103110074Y-150081704D01*
X102538646Y-150367419D02*
X102871979Y-149367419D01*
X102871979Y-149367419D02*
X103205312Y-150367419D01*
X103538646Y-150367419D02*
X103538646Y-149367419D01*
X103538646Y-149367419D02*
X104110074Y-150367419D01*
X104110074Y-150367419D02*
X104110074Y-149367419D01*
X105348170Y-150367419D02*
X105348170Y-149367419D01*
X105348170Y-149367419D02*
X105919598Y-150367419D01*
X105919598Y-150367419D02*
X105919598Y-149367419D01*
X106395789Y-149843609D02*
X106729122Y-149843609D01*
X106871979Y-150367419D02*
X106395789Y-150367419D01*
X106395789Y-150367419D02*
X106395789Y-149367419D01*
X106395789Y-149367419D02*
X106871979Y-149367419D01*
X107824360Y-149415038D02*
X107729122Y-149367419D01*
X107729122Y-149367419D02*
X107586265Y-149367419D01*
X107586265Y-149367419D02*
X107443408Y-149415038D01*
X107443408Y-149415038D02*
X107348170Y-149510276D01*
X107348170Y-149510276D02*
X107300551Y-149605514D01*
X107300551Y-149605514D02*
X107252932Y-149795990D01*
X107252932Y-149795990D02*
X107252932Y-149938847D01*
X107252932Y-149938847D02*
X107300551Y-150129323D01*
X107300551Y-150129323D02*
X107348170Y-150224561D01*
X107348170Y-150224561D02*
X107443408Y-150319800D01*
X107443408Y-150319800D02*
X107586265Y-150367419D01*
X107586265Y-150367419D02*
X107681503Y-150367419D01*
X107681503Y-150367419D02*
X107824360Y-150319800D01*
X107824360Y-150319800D02*
X107871979Y-150272180D01*
X107871979Y-150272180D02*
X107871979Y-149938847D01*
X107871979Y-149938847D02*
X107681503Y-149938847D01*
X108252932Y-150081704D02*
X108729122Y-150081704D01*
X108157694Y-150367419D02*
X108491027Y-149367419D01*
X108491027Y-149367419D02*
X108824360Y-150367419D01*
X109014837Y-149367419D02*
X109586265Y-149367419D01*
X109300551Y-150367419D02*
X109300551Y-149367419D01*
X109919599Y-150367419D02*
X109919599Y-149367419D01*
X110252932Y-149367419D02*
X110586265Y-150367419D01*
X110586265Y-150367419D02*
X110919598Y-149367419D01*
X111252932Y-149843609D02*
X111586265Y-149843609D01*
X111729122Y-150367419D02*
X111252932Y-150367419D01*
X111252932Y-150367419D02*
X111252932Y-149367419D01*
X111252932Y-149367419D02*
X111729122Y-149367419D01*
D11*
X133177669Y-27805380D02*
X133034812Y-27805380D01*
X133034812Y-27805380D02*
X132891955Y-27757761D01*
X132891955Y-27757761D02*
X132820527Y-27710142D01*
X132820527Y-27710142D02*
X132749098Y-27614904D01*
X132749098Y-27614904D02*
X132677669Y-27424428D01*
X132677669Y-27424428D02*
X132677669Y-27186333D01*
X132677669Y-27186333D02*
X132749098Y-26995857D01*
X132749098Y-26995857D02*
X132820527Y-26900619D01*
X132820527Y-26900619D02*
X132891955Y-26853000D01*
X132891955Y-26853000D02*
X133034812Y-26805380D01*
X133034812Y-26805380D02*
X133177669Y-26805380D01*
X133177669Y-26805380D02*
X133320527Y-26853000D01*
X133320527Y-26853000D02*
X133391955Y-26900619D01*
X133391955Y-26900619D02*
X133463384Y-26995857D01*
X133463384Y-26995857D02*
X133534812Y-27186333D01*
X133534812Y-27186333D02*
X133534812Y-27424428D01*
X133534812Y-27424428D02*
X133463384Y-27614904D01*
X133463384Y-27614904D02*
X133391955Y-27710142D01*
X133391955Y-27710142D02*
X133320527Y-27757761D01*
X133320527Y-27757761D02*
X133177669Y-27805380D01*
X131820527Y-27376809D02*
X131963384Y-27424428D01*
X131963384Y-27424428D02*
X132034813Y-27472047D01*
X132034813Y-27472047D02*
X132106241Y-27567285D01*
X132106241Y-27567285D02*
X132106241Y-27614904D01*
X132106241Y-27614904D02*
X132034813Y-27710142D01*
X132034813Y-27710142D02*
X131963384Y-27757761D01*
X131963384Y-27757761D02*
X131820527Y-27805380D01*
X131820527Y-27805380D02*
X131534813Y-27805380D01*
X131534813Y-27805380D02*
X131391956Y-27757761D01*
X131391956Y-27757761D02*
X131320527Y-27710142D01*
X131320527Y-27710142D02*
X131249098Y-27614904D01*
X131249098Y-27614904D02*
X131249098Y-27567285D01*
X131249098Y-27567285D02*
X131320527Y-27472047D01*
X131320527Y-27472047D02*
X131391956Y-27424428D01*
X131391956Y-27424428D02*
X131534813Y-27376809D01*
X131534813Y-27376809D02*
X131820527Y-27376809D01*
X131820527Y-27376809D02*
X131963384Y-27329190D01*
X131963384Y-27329190D02*
X132034813Y-27281571D01*
X132034813Y-27281571D02*
X132106241Y-27186333D01*
X132106241Y-27186333D02*
X132106241Y-26995857D01*
X132106241Y-26995857D02*
X132034813Y-26900619D01*
X132034813Y-26900619D02*
X131963384Y-26853000D01*
X131963384Y-26853000D02*
X131820527Y-26805380D01*
X131820527Y-26805380D02*
X131534813Y-26805380D01*
X131534813Y-26805380D02*
X131391956Y-26853000D01*
X131391956Y-26853000D02*
X131320527Y-26900619D01*
X131320527Y-26900619D02*
X131249098Y-26995857D01*
X131249098Y-26995857D02*
X131249098Y-27186333D01*
X131249098Y-27186333D02*
X131320527Y-27281571D01*
X131320527Y-27281571D02*
X131391956Y-27329190D01*
X131391956Y-27329190D02*
X131534813Y-27376809D01*
X123463385Y-27805380D02*
X123320528Y-27805380D01*
X123320528Y-27805380D02*
X123177671Y-27757761D01*
X123177671Y-27757761D02*
X123106243Y-27710142D01*
X123106243Y-27710142D02*
X123034814Y-27614904D01*
X123034814Y-27614904D02*
X122963385Y-27424428D01*
X122963385Y-27424428D02*
X122963385Y-27186333D01*
X122963385Y-27186333D02*
X123034814Y-26995857D01*
X123034814Y-26995857D02*
X123106243Y-26900619D01*
X123106243Y-26900619D02*
X123177671Y-26853000D01*
X123177671Y-26853000D02*
X123320528Y-26805380D01*
X123320528Y-26805380D02*
X123463385Y-26805380D01*
X123463385Y-26805380D02*
X123606243Y-26853000D01*
X123606243Y-26853000D02*
X123677671Y-26900619D01*
X123677671Y-26900619D02*
X123749100Y-26995857D01*
X123749100Y-26995857D02*
X123820528Y-27186333D01*
X123820528Y-27186333D02*
X123820528Y-27424428D01*
X123820528Y-27424428D02*
X123749100Y-27614904D01*
X123749100Y-27614904D02*
X123677671Y-27710142D01*
X123677671Y-27710142D02*
X123606243Y-27757761D01*
X123606243Y-27757761D02*
X123463385Y-27805380D01*
X122463386Y-27805380D02*
X121463386Y-27805380D01*
X121463386Y-27805380D02*
X122106243Y-26805380D01*
X113749101Y-27805380D02*
X113606244Y-27805380D01*
X113606244Y-27805380D02*
X113463387Y-27757761D01*
X113463387Y-27757761D02*
X113391959Y-27710142D01*
X113391959Y-27710142D02*
X113320530Y-27614904D01*
X113320530Y-27614904D02*
X113249101Y-27424428D01*
X113249101Y-27424428D02*
X113249101Y-27186333D01*
X113249101Y-27186333D02*
X113320530Y-26995857D01*
X113320530Y-26995857D02*
X113391959Y-26900619D01*
X113391959Y-26900619D02*
X113463387Y-26853000D01*
X113463387Y-26853000D02*
X113606244Y-26805380D01*
X113606244Y-26805380D02*
X113749101Y-26805380D01*
X113749101Y-26805380D02*
X113891959Y-26853000D01*
X113891959Y-26853000D02*
X113963387Y-26900619D01*
X113963387Y-26900619D02*
X114034816Y-26995857D01*
X114034816Y-26995857D02*
X114106244Y-27186333D01*
X114106244Y-27186333D02*
X114106244Y-27424428D01*
X114106244Y-27424428D02*
X114034816Y-27614904D01*
X114034816Y-27614904D02*
X113963387Y-27710142D01*
X113963387Y-27710142D02*
X113891959Y-27757761D01*
X113891959Y-27757761D02*
X113749101Y-27805380D01*
X111963388Y-27805380D02*
X112249102Y-27805380D01*
X112249102Y-27805380D02*
X112391959Y-27757761D01*
X112391959Y-27757761D02*
X112463388Y-27710142D01*
X112463388Y-27710142D02*
X112606245Y-27567285D01*
X112606245Y-27567285D02*
X112677673Y-27376809D01*
X112677673Y-27376809D02*
X112677673Y-26995857D01*
X112677673Y-26995857D02*
X112606245Y-26900619D01*
X112606245Y-26900619D02*
X112534816Y-26853000D01*
X112534816Y-26853000D02*
X112391959Y-26805380D01*
X112391959Y-26805380D02*
X112106245Y-26805380D01*
X112106245Y-26805380D02*
X111963388Y-26853000D01*
X111963388Y-26853000D02*
X111891959Y-26900619D01*
X111891959Y-26900619D02*
X111820530Y-26995857D01*
X111820530Y-26995857D02*
X111820530Y-27233952D01*
X111820530Y-27233952D02*
X111891959Y-27329190D01*
X111891959Y-27329190D02*
X111963388Y-27376809D01*
X111963388Y-27376809D02*
X112106245Y-27424428D01*
X112106245Y-27424428D02*
X112391959Y-27424428D01*
X112391959Y-27424428D02*
X112534816Y-27376809D01*
X112534816Y-27376809D02*
X112606245Y-27329190D01*
X112606245Y-27329190D02*
X112677673Y-27233952D01*
X104034817Y-27805380D02*
X103891960Y-27805380D01*
X103891960Y-27805380D02*
X103749103Y-27757761D01*
X103749103Y-27757761D02*
X103677675Y-27710142D01*
X103677675Y-27710142D02*
X103606246Y-27614904D01*
X103606246Y-27614904D02*
X103534817Y-27424428D01*
X103534817Y-27424428D02*
X103534817Y-27186333D01*
X103534817Y-27186333D02*
X103606246Y-26995857D01*
X103606246Y-26995857D02*
X103677675Y-26900619D01*
X103677675Y-26900619D02*
X103749103Y-26853000D01*
X103749103Y-26853000D02*
X103891960Y-26805380D01*
X103891960Y-26805380D02*
X104034817Y-26805380D01*
X104034817Y-26805380D02*
X104177675Y-26853000D01*
X104177675Y-26853000D02*
X104249103Y-26900619D01*
X104249103Y-26900619D02*
X104320532Y-26995857D01*
X104320532Y-26995857D02*
X104391960Y-27186333D01*
X104391960Y-27186333D02*
X104391960Y-27424428D01*
X104391960Y-27424428D02*
X104320532Y-27614904D01*
X104320532Y-27614904D02*
X104249103Y-27710142D01*
X104249103Y-27710142D02*
X104177675Y-27757761D01*
X104177675Y-27757761D02*
X104034817Y-27805380D01*
X102177675Y-27805380D02*
X102891961Y-27805380D01*
X102891961Y-27805380D02*
X102963389Y-27329190D01*
X102963389Y-27329190D02*
X102891961Y-27376809D01*
X102891961Y-27376809D02*
X102749104Y-27424428D01*
X102749104Y-27424428D02*
X102391961Y-27424428D01*
X102391961Y-27424428D02*
X102249104Y-27376809D01*
X102249104Y-27376809D02*
X102177675Y-27329190D01*
X102177675Y-27329190D02*
X102106246Y-27233952D01*
X102106246Y-27233952D02*
X102106246Y-26995857D01*
X102106246Y-26995857D02*
X102177675Y-26900619D01*
X102177675Y-26900619D02*
X102249104Y-26853000D01*
X102249104Y-26853000D02*
X102391961Y-26805380D01*
X102391961Y-26805380D02*
X102749104Y-26805380D01*
X102749104Y-26805380D02*
X102891961Y-26853000D01*
X102891961Y-26853000D02*
X102963389Y-26900619D01*
X159884619Y-81877669D02*
X159884619Y-82734812D01*
X159884619Y-82306241D02*
X158884619Y-82306241D01*
X158884619Y-82306241D02*
X159027476Y-82449098D01*
X159027476Y-82449098D02*
X159122714Y-82591955D01*
X159122714Y-82591955D02*
X159170333Y-82734812D01*
X158979857Y-81306241D02*
X158932238Y-81234813D01*
X158932238Y-81234813D02*
X158884619Y-81091956D01*
X158884619Y-81091956D02*
X158884619Y-80734813D01*
X158884619Y-80734813D02*
X158932238Y-80591956D01*
X158932238Y-80591956D02*
X158979857Y-80520527D01*
X158979857Y-80520527D02*
X159075095Y-80449098D01*
X159075095Y-80449098D02*
X159170333Y-80449098D01*
X159170333Y-80449098D02*
X159313190Y-80520527D01*
X159313190Y-80520527D02*
X159884619Y-81377670D01*
X159884619Y-81377670D02*
X159884619Y-80449098D01*
X159884619Y-72163385D02*
X159884619Y-73020528D01*
X159884619Y-72591957D02*
X158884619Y-72591957D01*
X158884619Y-72591957D02*
X159027476Y-72734814D01*
X159027476Y-72734814D02*
X159122714Y-72877671D01*
X159122714Y-72877671D02*
X159170333Y-73020528D01*
X159884619Y-70734814D02*
X159884619Y-71591957D01*
X159884619Y-71163386D02*
X158884619Y-71163386D01*
X158884619Y-71163386D02*
X159027476Y-71306243D01*
X159027476Y-71306243D02*
X159122714Y-71449100D01*
X159122714Y-71449100D02*
X159170333Y-71591957D01*
X159884619Y-62449101D02*
X159884619Y-63306244D01*
X159884619Y-62877673D02*
X158884619Y-62877673D01*
X158884619Y-62877673D02*
X159027476Y-63020530D01*
X159027476Y-63020530D02*
X159122714Y-63163387D01*
X159122714Y-63163387D02*
X159170333Y-63306244D01*
X158884619Y-61520530D02*
X158884619Y-61377673D01*
X158884619Y-61377673D02*
X158932238Y-61234816D01*
X158932238Y-61234816D02*
X158979857Y-61163388D01*
X158979857Y-61163388D02*
X159075095Y-61091959D01*
X159075095Y-61091959D02*
X159265571Y-61020530D01*
X159265571Y-61020530D02*
X159503666Y-61020530D01*
X159503666Y-61020530D02*
X159694142Y-61091959D01*
X159694142Y-61091959D02*
X159789380Y-61163388D01*
X159789380Y-61163388D02*
X159837000Y-61234816D01*
X159837000Y-61234816D02*
X159884619Y-61377673D01*
X159884619Y-61377673D02*
X159884619Y-61520530D01*
X159884619Y-61520530D02*
X159837000Y-61663388D01*
X159837000Y-61663388D02*
X159789380Y-61734816D01*
X159789380Y-61734816D02*
X159694142Y-61806245D01*
X159694142Y-61806245D02*
X159503666Y-61877673D01*
X159503666Y-61877673D02*
X159265571Y-61877673D01*
X159265571Y-61877673D02*
X159075095Y-61806245D01*
X159075095Y-61806245D02*
X158979857Y-61734816D01*
X158979857Y-61734816D02*
X158932238Y-61663388D01*
X158932238Y-61663388D02*
X158884619Y-61520530D01*
X158884619Y-53234817D02*
X158884619Y-53091960D01*
X158884619Y-53091960D02*
X158932238Y-52949103D01*
X158932238Y-52949103D02*
X158979857Y-52877675D01*
X158979857Y-52877675D02*
X159075095Y-52806246D01*
X159075095Y-52806246D02*
X159265571Y-52734817D01*
X159265571Y-52734817D02*
X159503666Y-52734817D01*
X159503666Y-52734817D02*
X159694142Y-52806246D01*
X159694142Y-52806246D02*
X159789380Y-52877675D01*
X159789380Y-52877675D02*
X159837000Y-52949103D01*
X159837000Y-52949103D02*
X159884619Y-53091960D01*
X159884619Y-53091960D02*
X159884619Y-53234817D01*
X159884619Y-53234817D02*
X159837000Y-53377675D01*
X159837000Y-53377675D02*
X159789380Y-53449103D01*
X159789380Y-53449103D02*
X159694142Y-53520532D01*
X159694142Y-53520532D02*
X159503666Y-53591960D01*
X159503666Y-53591960D02*
X159265571Y-53591960D01*
X159265571Y-53591960D02*
X159075095Y-53520532D01*
X159075095Y-53520532D02*
X158979857Y-53449103D01*
X158979857Y-53449103D02*
X158932238Y-53377675D01*
X158932238Y-53377675D02*
X158884619Y-53234817D01*
X159884619Y-52020532D02*
X159884619Y-51734818D01*
X159884619Y-51734818D02*
X159837000Y-51591961D01*
X159837000Y-51591961D02*
X159789380Y-51520532D01*
X159789380Y-51520532D02*
X159646523Y-51377675D01*
X159646523Y-51377675D02*
X159456047Y-51306246D01*
X159456047Y-51306246D02*
X159075095Y-51306246D01*
X159075095Y-51306246D02*
X158979857Y-51377675D01*
X158979857Y-51377675D02*
X158932238Y-51449104D01*
X158932238Y-51449104D02*
X158884619Y-51591961D01*
X158884619Y-51591961D02*
X158884619Y-51877675D01*
X158884619Y-51877675D02*
X158932238Y-52020532D01*
X158932238Y-52020532D02*
X158979857Y-52091961D01*
X158979857Y-52091961D02*
X159075095Y-52163389D01*
X159075095Y-52163389D02*
X159313190Y-52163389D01*
X159313190Y-52163389D02*
X159408428Y-52091961D01*
X159408428Y-52091961D02*
X159456047Y-52020532D01*
X159456047Y-52020532D02*
X159503666Y-51877675D01*
X159503666Y-51877675D02*
X159503666Y-51591961D01*
X159503666Y-51591961D02*
X159456047Y-51449104D01*
X159456047Y-51449104D02*
X159408428Y-51377675D01*
X159408428Y-51377675D02*
X159313190Y-51306246D01*
X76065380Y-52242330D02*
X76065380Y-52385187D01*
X76065380Y-52385187D02*
X76017761Y-52528044D01*
X76017761Y-52528044D02*
X75970142Y-52599473D01*
X75970142Y-52599473D02*
X75874904Y-52670901D01*
X75874904Y-52670901D02*
X75684428Y-52742330D01*
X75684428Y-52742330D02*
X75446333Y-52742330D01*
X75446333Y-52742330D02*
X75255857Y-52670901D01*
X75255857Y-52670901D02*
X75160619Y-52599473D01*
X75160619Y-52599473D02*
X75113000Y-52528044D01*
X75113000Y-52528044D02*
X75065380Y-52385187D01*
X75065380Y-52385187D02*
X75065380Y-52242330D01*
X75065380Y-52242330D02*
X75113000Y-52099473D01*
X75113000Y-52099473D02*
X75160619Y-52028044D01*
X75160619Y-52028044D02*
X75255857Y-51956615D01*
X75255857Y-51956615D02*
X75446333Y-51885187D01*
X75446333Y-51885187D02*
X75684428Y-51885187D01*
X75684428Y-51885187D02*
X75874904Y-51956615D01*
X75874904Y-51956615D02*
X75970142Y-52028044D01*
X75970142Y-52028044D02*
X76017761Y-52099473D01*
X76017761Y-52099473D02*
X76065380Y-52242330D01*
X75732047Y-54028044D02*
X75065380Y-54028044D01*
X76113000Y-53670901D02*
X75398714Y-53313758D01*
X75398714Y-53313758D02*
X75398714Y-54242329D01*
X76065380Y-61956614D02*
X76065380Y-62099471D01*
X76065380Y-62099471D02*
X76017761Y-62242328D01*
X76017761Y-62242328D02*
X75970142Y-62313757D01*
X75970142Y-62313757D02*
X75874904Y-62385185D01*
X75874904Y-62385185D02*
X75684428Y-62456614D01*
X75684428Y-62456614D02*
X75446333Y-62456614D01*
X75446333Y-62456614D02*
X75255857Y-62385185D01*
X75255857Y-62385185D02*
X75160619Y-62313757D01*
X75160619Y-62313757D02*
X75113000Y-62242328D01*
X75113000Y-62242328D02*
X75065380Y-62099471D01*
X75065380Y-62099471D02*
X75065380Y-61956614D01*
X75065380Y-61956614D02*
X75113000Y-61813757D01*
X75113000Y-61813757D02*
X75160619Y-61742328D01*
X75160619Y-61742328D02*
X75255857Y-61670899D01*
X75255857Y-61670899D02*
X75446333Y-61599471D01*
X75446333Y-61599471D02*
X75684428Y-61599471D01*
X75684428Y-61599471D02*
X75874904Y-61670899D01*
X75874904Y-61670899D02*
X75970142Y-61742328D01*
X75970142Y-61742328D02*
X76017761Y-61813757D01*
X76017761Y-61813757D02*
X76065380Y-61956614D01*
X76065380Y-62956613D02*
X76065380Y-63885185D01*
X76065380Y-63885185D02*
X75684428Y-63385185D01*
X75684428Y-63385185D02*
X75684428Y-63599470D01*
X75684428Y-63599470D02*
X75636809Y-63742328D01*
X75636809Y-63742328D02*
X75589190Y-63813756D01*
X75589190Y-63813756D02*
X75493952Y-63885185D01*
X75493952Y-63885185D02*
X75255857Y-63885185D01*
X75255857Y-63885185D02*
X75160619Y-63813756D01*
X75160619Y-63813756D02*
X75113000Y-63742328D01*
X75113000Y-63742328D02*
X75065380Y-63599470D01*
X75065380Y-63599470D02*
X75065380Y-63170899D01*
X75065380Y-63170899D02*
X75113000Y-63028042D01*
X75113000Y-63028042D02*
X75160619Y-62956613D01*
X76065380Y-71670898D02*
X76065380Y-71813755D01*
X76065380Y-71813755D02*
X76017761Y-71956612D01*
X76017761Y-71956612D02*
X75970142Y-72028041D01*
X75970142Y-72028041D02*
X75874904Y-72099469D01*
X75874904Y-72099469D02*
X75684428Y-72170898D01*
X75684428Y-72170898D02*
X75446333Y-72170898D01*
X75446333Y-72170898D02*
X75255857Y-72099469D01*
X75255857Y-72099469D02*
X75160619Y-72028041D01*
X75160619Y-72028041D02*
X75113000Y-71956612D01*
X75113000Y-71956612D02*
X75065380Y-71813755D01*
X75065380Y-71813755D02*
X75065380Y-71670898D01*
X75065380Y-71670898D02*
X75113000Y-71528041D01*
X75113000Y-71528041D02*
X75160619Y-71456612D01*
X75160619Y-71456612D02*
X75255857Y-71385183D01*
X75255857Y-71385183D02*
X75446333Y-71313755D01*
X75446333Y-71313755D02*
X75684428Y-71313755D01*
X75684428Y-71313755D02*
X75874904Y-71385183D01*
X75874904Y-71385183D02*
X75970142Y-71456612D01*
X75970142Y-71456612D02*
X76017761Y-71528041D01*
X76017761Y-71528041D02*
X76065380Y-71670898D01*
X75970142Y-72742326D02*
X76017761Y-72813754D01*
X76017761Y-72813754D02*
X76065380Y-72956612D01*
X76065380Y-72956612D02*
X76065380Y-73313754D01*
X76065380Y-73313754D02*
X76017761Y-73456612D01*
X76017761Y-73456612D02*
X75970142Y-73528040D01*
X75970142Y-73528040D02*
X75874904Y-73599469D01*
X75874904Y-73599469D02*
X75779666Y-73599469D01*
X75779666Y-73599469D02*
X75636809Y-73528040D01*
X75636809Y-73528040D02*
X75065380Y-72670897D01*
X75065380Y-72670897D02*
X75065380Y-73599469D01*
X76065380Y-81385182D02*
X76065380Y-81528039D01*
X76065380Y-81528039D02*
X76017761Y-81670896D01*
X76017761Y-81670896D02*
X75970142Y-81742325D01*
X75970142Y-81742325D02*
X75874904Y-81813753D01*
X75874904Y-81813753D02*
X75684428Y-81885182D01*
X75684428Y-81885182D02*
X75446333Y-81885182D01*
X75446333Y-81885182D02*
X75255857Y-81813753D01*
X75255857Y-81813753D02*
X75160619Y-81742325D01*
X75160619Y-81742325D02*
X75113000Y-81670896D01*
X75113000Y-81670896D02*
X75065380Y-81528039D01*
X75065380Y-81528039D02*
X75065380Y-81385182D01*
X75065380Y-81385182D02*
X75113000Y-81242325D01*
X75113000Y-81242325D02*
X75160619Y-81170896D01*
X75160619Y-81170896D02*
X75255857Y-81099467D01*
X75255857Y-81099467D02*
X75446333Y-81028039D01*
X75446333Y-81028039D02*
X75684428Y-81028039D01*
X75684428Y-81028039D02*
X75874904Y-81099467D01*
X75874904Y-81099467D02*
X75970142Y-81170896D01*
X75970142Y-81170896D02*
X76017761Y-81242325D01*
X76017761Y-81242325D02*
X76065380Y-81385182D01*
X75065380Y-83313753D02*
X75065380Y-82456610D01*
X75065380Y-82885181D02*
X76065380Y-82885181D01*
X76065380Y-82885181D02*
X75922523Y-82742324D01*
X75922523Y-82742324D02*
X75827285Y-82599467D01*
X75827285Y-82599467D02*
X75779666Y-82456610D01*
D12*
X85558333Y-94974580D02*
X85510714Y-95022200D01*
X85510714Y-95022200D02*
X85367857Y-95069819D01*
X85367857Y-95069819D02*
X85272619Y-95069819D01*
X85272619Y-95069819D02*
X85129762Y-95022200D01*
X85129762Y-95022200D02*
X85034524Y-94926961D01*
X85034524Y-94926961D02*
X84986905Y-94831723D01*
X84986905Y-94831723D02*
X84939286Y-94641247D01*
X84939286Y-94641247D02*
X84939286Y-94498390D01*
X84939286Y-94498390D02*
X84986905Y-94307914D01*
X84986905Y-94307914D02*
X85034524Y-94212676D01*
X85034524Y-94212676D02*
X85129762Y-94117438D01*
X85129762Y-94117438D02*
X85272619Y-94069819D01*
X85272619Y-94069819D02*
X85367857Y-94069819D01*
X85367857Y-94069819D02*
X85510714Y-94117438D01*
X85510714Y-94117438D02*
X85558333Y-94165057D01*
X86510714Y-95069819D02*
X85939286Y-95069819D01*
X86225000Y-95069819D02*
X86225000Y-94069819D01*
X86225000Y-94069819D02*
X86129762Y-94212676D01*
X86129762Y-94212676D02*
X86034524Y-94307914D01*
X86034524Y-94307914D02*
X85939286Y-94355533D01*
D10*
X115609285Y-150238609D02*
X115752142Y-150286228D01*
X115752142Y-150286228D02*
X115799761Y-150333847D01*
X115799761Y-150333847D02*
X115847380Y-150429085D01*
X115847380Y-150429085D02*
X115847380Y-150571942D01*
X115847380Y-150571942D02*
X115799761Y-150667180D01*
X115799761Y-150667180D02*
X115752142Y-150714800D01*
X115752142Y-150714800D02*
X115656904Y-150762419D01*
X115656904Y-150762419D02*
X115275952Y-150762419D01*
X115275952Y-150762419D02*
X115275952Y-149762419D01*
X115275952Y-149762419D02*
X115609285Y-149762419D01*
X115609285Y-149762419D02*
X115704523Y-149810038D01*
X115704523Y-149810038D02*
X115752142Y-149857657D01*
X115752142Y-149857657D02*
X115799761Y-149952895D01*
X115799761Y-149952895D02*
X115799761Y-150048133D01*
X115799761Y-150048133D02*
X115752142Y-150143371D01*
X115752142Y-150143371D02*
X115704523Y-150190990D01*
X115704523Y-150190990D02*
X115609285Y-150238609D01*
X115609285Y-150238609D02*
X115275952Y-150238609D01*
X116133095Y-149762419D02*
X116704523Y-149762419D01*
X116418809Y-150762419D02*
X116418809Y-149762419D01*
X117561666Y-150762419D02*
X116990238Y-150762419D01*
X117275952Y-150762419D02*
X117275952Y-149762419D01*
X117275952Y-149762419D02*
X117180714Y-149905276D01*
X117180714Y-149905276D02*
X117085476Y-150000514D01*
X117085476Y-150000514D02*
X116990238Y-150048133D01*
D12*
X123110714Y-135424104D02*
X123586904Y-135424104D01*
X123015476Y-135709819D02*
X123348809Y-134709819D01*
X123348809Y-134709819D02*
X123682142Y-135709819D01*
X124539285Y-135709819D02*
X123967857Y-135709819D01*
X124253571Y-135709819D02*
X124253571Y-134709819D01*
X124253571Y-134709819D02*
X124158333Y-134852676D01*
X124158333Y-134852676D02*
X124063095Y-134947914D01*
X124063095Y-134947914D02*
X123967857Y-134995533D01*
X76239819Y-156274285D02*
X75239819Y-156274285D01*
X75239819Y-156274285D02*
X75239819Y-155893333D01*
X75239819Y-155893333D02*
X75287438Y-155798095D01*
X75287438Y-155798095D02*
X75335057Y-155750476D01*
X75335057Y-155750476D02*
X75430295Y-155702857D01*
X75430295Y-155702857D02*
X75573152Y-155702857D01*
X75573152Y-155702857D02*
X75668390Y-155750476D01*
X75668390Y-155750476D02*
X75716009Y-155798095D01*
X75716009Y-155798095D02*
X75763628Y-155893333D01*
X75763628Y-155893333D02*
X75763628Y-156274285D01*
X76192200Y-155321904D02*
X76239819Y-155179047D01*
X76239819Y-155179047D02*
X76239819Y-154940952D01*
X76239819Y-154940952D02*
X76192200Y-154845714D01*
X76192200Y-154845714D02*
X76144580Y-154798095D01*
X76144580Y-154798095D02*
X76049342Y-154750476D01*
X76049342Y-154750476D02*
X75954104Y-154750476D01*
X75954104Y-154750476D02*
X75858866Y-154798095D01*
X75858866Y-154798095D02*
X75811247Y-154845714D01*
X75811247Y-154845714D02*
X75763628Y-154940952D01*
X75763628Y-154940952D02*
X75716009Y-155131428D01*
X75716009Y-155131428D02*
X75668390Y-155226666D01*
X75668390Y-155226666D02*
X75620771Y-155274285D01*
X75620771Y-155274285D02*
X75525533Y-155321904D01*
X75525533Y-155321904D02*
X75430295Y-155321904D01*
X75430295Y-155321904D02*
X75335057Y-155274285D01*
X75335057Y-155274285D02*
X75287438Y-155226666D01*
X75287438Y-155226666D02*
X75239819Y-155131428D01*
X75239819Y-155131428D02*
X75239819Y-154893333D01*
X75239819Y-154893333D02*
X75287438Y-154750476D01*
X76239819Y-153798095D02*
X76239819Y-154369523D01*
X76239819Y-154083809D02*
X75239819Y-154083809D01*
X75239819Y-154083809D02*
X75382676Y-154179047D01*
X75382676Y-154179047D02*
X75477914Y-154274285D01*
X75477914Y-154274285D02*
X75525533Y-154369523D01*
D10*
X128147666Y-36541419D02*
X128147666Y-37255704D01*
X128147666Y-37255704D02*
X128100047Y-37398561D01*
X128100047Y-37398561D02*
X128004809Y-37493800D01*
X128004809Y-37493800D02*
X127861952Y-37541419D01*
X127861952Y-37541419D02*
X127766714Y-37541419D01*
X128528619Y-36541419D02*
X129147666Y-36541419D01*
X129147666Y-36541419D02*
X128814333Y-36922371D01*
X128814333Y-36922371D02*
X128957190Y-36922371D01*
X128957190Y-36922371D02*
X129052428Y-36969990D01*
X129052428Y-36969990D02*
X129100047Y-37017609D01*
X129100047Y-37017609D02*
X129147666Y-37112847D01*
X129147666Y-37112847D02*
X129147666Y-37350942D01*
X129147666Y-37350942D02*
X129100047Y-37446180D01*
X129100047Y-37446180D02*
X129052428Y-37493800D01*
X129052428Y-37493800D02*
X128957190Y-37541419D01*
X128957190Y-37541419D02*
X128671476Y-37541419D01*
X128671476Y-37541419D02*
X128576238Y-37493800D01*
X128576238Y-37493800D02*
X128528619Y-37446180D01*
X110199666Y-36541419D02*
X110199666Y-37255704D01*
X110199666Y-37255704D02*
X110152047Y-37398561D01*
X110152047Y-37398561D02*
X110056809Y-37493800D01*
X110056809Y-37493800D02*
X109913952Y-37541419D01*
X109913952Y-37541419D02*
X109818714Y-37541419D01*
X111152047Y-36541419D02*
X110675857Y-36541419D01*
X110675857Y-36541419D02*
X110628238Y-37017609D01*
X110628238Y-37017609D02*
X110675857Y-36969990D01*
X110675857Y-36969990D02*
X110771095Y-36922371D01*
X110771095Y-36922371D02*
X111009190Y-36922371D01*
X111009190Y-36922371D02*
X111104428Y-36969990D01*
X111104428Y-36969990D02*
X111152047Y-37017609D01*
X111152047Y-37017609D02*
X111199666Y-37112847D01*
X111199666Y-37112847D02*
X111199666Y-37350942D01*
X111199666Y-37350942D02*
X111152047Y-37446180D01*
X111152047Y-37446180D02*
X111104428Y-37493800D01*
X111104428Y-37493800D02*
X111009190Y-37541419D01*
X111009190Y-37541419D02*
X110771095Y-37541419D01*
X110771095Y-37541419D02*
X110675857Y-37493800D01*
X110675857Y-37493800D02*
X110628238Y-37446180D01*
D12*
X134284761Y-73575057D02*
X134189523Y-73527438D01*
X134189523Y-73527438D02*
X134094285Y-73432200D01*
X134094285Y-73432200D02*
X133951428Y-73289342D01*
X133951428Y-73289342D02*
X133856190Y-73241723D01*
X133856190Y-73241723D02*
X133760952Y-73241723D01*
X133808571Y-73479819D02*
X133713333Y-73432200D01*
X133713333Y-73432200D02*
X133618095Y-73336961D01*
X133618095Y-73336961D02*
X133570476Y-73146485D01*
X133570476Y-73146485D02*
X133570476Y-72813152D01*
X133570476Y-72813152D02*
X133618095Y-72622676D01*
X133618095Y-72622676D02*
X133713333Y-72527438D01*
X133713333Y-72527438D02*
X133808571Y-72479819D01*
X133808571Y-72479819D02*
X133999047Y-72479819D01*
X133999047Y-72479819D02*
X134094285Y-72527438D01*
X134094285Y-72527438D02*
X134189523Y-72622676D01*
X134189523Y-72622676D02*
X134237142Y-72813152D01*
X134237142Y-72813152D02*
X134237142Y-73146485D01*
X134237142Y-73146485D02*
X134189523Y-73336961D01*
X134189523Y-73336961D02*
X134094285Y-73432200D01*
X134094285Y-73432200D02*
X133999047Y-73479819D01*
X133999047Y-73479819D02*
X133808571Y-73479819D01*
X134570476Y-72479819D02*
X135237142Y-72479819D01*
X135237142Y-72479819D02*
X134808571Y-73479819D01*
X134048571Y-67225057D02*
X133953333Y-67177438D01*
X133953333Y-67177438D02*
X133858095Y-67082200D01*
X133858095Y-67082200D02*
X133715238Y-66939342D01*
X133715238Y-66939342D02*
X133620000Y-66891723D01*
X133620000Y-66891723D02*
X133524762Y-66891723D01*
X133572381Y-67129819D02*
X133477143Y-67082200D01*
X133477143Y-67082200D02*
X133381905Y-66986961D01*
X133381905Y-66986961D02*
X133334286Y-66796485D01*
X133334286Y-66796485D02*
X133334286Y-66463152D01*
X133334286Y-66463152D02*
X133381905Y-66272676D01*
X133381905Y-66272676D02*
X133477143Y-66177438D01*
X133477143Y-66177438D02*
X133572381Y-66129819D01*
X133572381Y-66129819D02*
X133762857Y-66129819D01*
X133762857Y-66129819D02*
X133858095Y-66177438D01*
X133858095Y-66177438D02*
X133953333Y-66272676D01*
X133953333Y-66272676D02*
X134000952Y-66463152D01*
X134000952Y-66463152D02*
X134000952Y-66796485D01*
X134000952Y-66796485D02*
X133953333Y-66986961D01*
X133953333Y-66986961D02*
X133858095Y-67082200D01*
X133858095Y-67082200D02*
X133762857Y-67129819D01*
X133762857Y-67129819D02*
X133572381Y-67129819D01*
X134953333Y-67129819D02*
X134381905Y-67129819D01*
X134667619Y-67129819D02*
X134667619Y-66129819D01*
X134667619Y-66129819D02*
X134572381Y-66272676D01*
X134572381Y-66272676D02*
X134477143Y-66367914D01*
X134477143Y-66367914D02*
X134381905Y-66415533D01*
X135334286Y-66225057D02*
X135381905Y-66177438D01*
X135381905Y-66177438D02*
X135477143Y-66129819D01*
X135477143Y-66129819D02*
X135715238Y-66129819D01*
X135715238Y-66129819D02*
X135810476Y-66177438D01*
X135810476Y-66177438D02*
X135858095Y-66225057D01*
X135858095Y-66225057D02*
X135905714Y-66320295D01*
X135905714Y-66320295D02*
X135905714Y-66415533D01*
X135905714Y-66415533D02*
X135858095Y-66558390D01*
X135858095Y-66558390D02*
X135286667Y-67129819D01*
X135286667Y-67129819D02*
X135905714Y-67129819D01*
D10*
X85436419Y-56469333D02*
X86150704Y-56469333D01*
X86150704Y-56469333D02*
X86293561Y-56516952D01*
X86293561Y-56516952D02*
X86388800Y-56612190D01*
X86388800Y-56612190D02*
X86436419Y-56755047D01*
X86436419Y-56755047D02*
X86436419Y-56850285D01*
X86436419Y-55945523D02*
X86436419Y-55755047D01*
X86436419Y-55755047D02*
X86388800Y-55659809D01*
X86388800Y-55659809D02*
X86341180Y-55612190D01*
X86341180Y-55612190D02*
X86198323Y-55516952D01*
X86198323Y-55516952D02*
X86007847Y-55469333D01*
X86007847Y-55469333D02*
X85626895Y-55469333D01*
X85626895Y-55469333D02*
X85531657Y-55516952D01*
X85531657Y-55516952D02*
X85484038Y-55564571D01*
X85484038Y-55564571D02*
X85436419Y-55659809D01*
X85436419Y-55659809D02*
X85436419Y-55850285D01*
X85436419Y-55850285D02*
X85484038Y-55945523D01*
X85484038Y-55945523D02*
X85531657Y-55993142D01*
X85531657Y-55993142D02*
X85626895Y-56040761D01*
X85626895Y-56040761D02*
X85864990Y-56040761D01*
X85864990Y-56040761D02*
X85960228Y-55993142D01*
X85960228Y-55993142D02*
X86007847Y-55945523D01*
X86007847Y-55945523D02*
X86055466Y-55850285D01*
X86055466Y-55850285D02*
X86055466Y-55659809D01*
X86055466Y-55659809D02*
X86007847Y-55564571D01*
X86007847Y-55564571D02*
X85960228Y-55516952D01*
X85960228Y-55516952D02*
X85864990Y-55469333D01*
X102007580Y-103965476D02*
X101293295Y-103965476D01*
X101293295Y-103965476D02*
X101150438Y-103917857D01*
X101150438Y-103917857D02*
X101055200Y-103822619D01*
X101055200Y-103822619D02*
X101007580Y-103679762D01*
X101007580Y-103679762D02*
X101007580Y-103584524D01*
X101007580Y-104965476D02*
X101007580Y-104394048D01*
X101007580Y-104679762D02*
X102007580Y-104679762D01*
X102007580Y-104679762D02*
X101864723Y-104584524D01*
X101864723Y-104584524D02*
X101769485Y-104489286D01*
X101769485Y-104489286D02*
X101721866Y-104394048D01*
X102007580Y-105298810D02*
X102007580Y-105965476D01*
X102007580Y-105965476D02*
X101007580Y-105536905D01*
D12*
X133036605Y-52526292D02*
X132935590Y-52559964D01*
X132935590Y-52559964D02*
X132800903Y-52559964D01*
X132800903Y-52559964D02*
X132598872Y-52559964D01*
X132598872Y-52559964D02*
X132497857Y-52593636D01*
X132497857Y-52593636D02*
X132430514Y-52660979D01*
X132632544Y-52795666D02*
X132531529Y-52829338D01*
X132531529Y-52829338D02*
X132396842Y-52829338D01*
X132396842Y-52829338D02*
X132228483Y-52728323D01*
X132228483Y-52728323D02*
X131992781Y-52492620D01*
X131992781Y-52492620D02*
X131891766Y-52324262D01*
X131891766Y-52324262D02*
X131891766Y-52189575D01*
X131891766Y-52189575D02*
X131925437Y-52088559D01*
X131925437Y-52088559D02*
X132060124Y-51953872D01*
X132060124Y-51953872D02*
X132161140Y-51920201D01*
X132161140Y-51920201D02*
X132295827Y-51920201D01*
X132295827Y-51920201D02*
X132464185Y-52021216D01*
X132464185Y-52021216D02*
X132699888Y-52256918D01*
X132699888Y-52256918D02*
X132800903Y-52425277D01*
X132800903Y-52425277D02*
X132800903Y-52559964D01*
X132800903Y-52559964D02*
X132767231Y-52660979D01*
X132767231Y-52660979D02*
X132632544Y-52795666D01*
X132565201Y-51583483D02*
X132565201Y-51516140D01*
X132565201Y-51516140D02*
X132598872Y-51415124D01*
X132598872Y-51415124D02*
X132767231Y-51246766D01*
X132767231Y-51246766D02*
X132868246Y-51213094D01*
X132868246Y-51213094D02*
X132935590Y-51213094D01*
X132935590Y-51213094D02*
X133036605Y-51246766D01*
X133036605Y-51246766D02*
X133103949Y-51314109D01*
X133103949Y-51314109D02*
X133171292Y-51448796D01*
X133171292Y-51448796D02*
X133171292Y-52256918D01*
X133171292Y-52256918D02*
X133609025Y-51819185D01*
D10*
X135482419Y-118284523D02*
X136196704Y-118284523D01*
X136196704Y-118284523D02*
X136339561Y-118332142D01*
X136339561Y-118332142D02*
X136434800Y-118427380D01*
X136434800Y-118427380D02*
X136482419Y-118570237D01*
X136482419Y-118570237D02*
X136482419Y-118665475D01*
X136482419Y-117284523D02*
X136482419Y-117855951D01*
X136482419Y-117570237D02*
X135482419Y-117570237D01*
X135482419Y-117570237D02*
X135625276Y-117665475D01*
X135625276Y-117665475D02*
X135720514Y-117760713D01*
X135720514Y-117760713D02*
X135768133Y-117855951D01*
X135482419Y-116427380D02*
X135482419Y-116617856D01*
X135482419Y-116617856D02*
X135530038Y-116713094D01*
X135530038Y-116713094D02*
X135577657Y-116760713D01*
X135577657Y-116760713D02*
X135720514Y-116855951D01*
X135720514Y-116855951D02*
X135910990Y-116903570D01*
X135910990Y-116903570D02*
X136291942Y-116903570D01*
X136291942Y-116903570D02*
X136387180Y-116855951D01*
X136387180Y-116855951D02*
X136434800Y-116808332D01*
X136434800Y-116808332D02*
X136482419Y-116713094D01*
X136482419Y-116713094D02*
X136482419Y-116522618D01*
X136482419Y-116522618D02*
X136434800Y-116427380D01*
X136434800Y-116427380D02*
X136387180Y-116379761D01*
X136387180Y-116379761D02*
X136291942Y-116332142D01*
X136291942Y-116332142D02*
X136053847Y-116332142D01*
X136053847Y-116332142D02*
X135958609Y-116379761D01*
X135958609Y-116379761D02*
X135910990Y-116427380D01*
X135910990Y-116427380D02*
X135863371Y-116522618D01*
X135863371Y-116522618D02*
X135863371Y-116713094D01*
X135863371Y-116713094D02*
X135910990Y-116808332D01*
X135910990Y-116808332D02*
X135958609Y-116855951D01*
X135958609Y-116855951D02*
X136053847Y-116903570D01*
X119173666Y-36541419D02*
X119173666Y-37255704D01*
X119173666Y-37255704D02*
X119126047Y-37398561D01*
X119126047Y-37398561D02*
X119030809Y-37493800D01*
X119030809Y-37493800D02*
X118887952Y-37541419D01*
X118887952Y-37541419D02*
X118792714Y-37541419D01*
X120078428Y-36874752D02*
X120078428Y-37541419D01*
X119840333Y-36493800D02*
X119602238Y-37208085D01*
X119602238Y-37208085D02*
X120221285Y-37208085D01*
D12*
X101423571Y-83735057D02*
X101328333Y-83687438D01*
X101328333Y-83687438D02*
X101233095Y-83592200D01*
X101233095Y-83592200D02*
X101090238Y-83449342D01*
X101090238Y-83449342D02*
X100995000Y-83401723D01*
X100995000Y-83401723D02*
X100899762Y-83401723D01*
X100947381Y-83639819D02*
X100852143Y-83592200D01*
X100852143Y-83592200D02*
X100756905Y-83496961D01*
X100756905Y-83496961D02*
X100709286Y-83306485D01*
X100709286Y-83306485D02*
X100709286Y-82973152D01*
X100709286Y-82973152D02*
X100756905Y-82782676D01*
X100756905Y-82782676D02*
X100852143Y-82687438D01*
X100852143Y-82687438D02*
X100947381Y-82639819D01*
X100947381Y-82639819D02*
X101137857Y-82639819D01*
X101137857Y-82639819D02*
X101233095Y-82687438D01*
X101233095Y-82687438D02*
X101328333Y-82782676D01*
X101328333Y-82782676D02*
X101375952Y-82973152D01*
X101375952Y-82973152D02*
X101375952Y-83306485D01*
X101375952Y-83306485D02*
X101328333Y-83496961D01*
X101328333Y-83496961D02*
X101233095Y-83592200D01*
X101233095Y-83592200D02*
X101137857Y-83639819D01*
X101137857Y-83639819D02*
X100947381Y-83639819D01*
X102328333Y-83639819D02*
X101756905Y-83639819D01*
X102042619Y-83639819D02*
X102042619Y-82639819D01*
X102042619Y-82639819D02*
X101947381Y-82782676D01*
X101947381Y-82782676D02*
X101852143Y-82877914D01*
X101852143Y-82877914D02*
X101756905Y-82925533D01*
X103280714Y-83639819D02*
X102709286Y-83639819D01*
X102995000Y-83639819D02*
X102995000Y-82639819D01*
X102995000Y-82639819D02*
X102899762Y-82782676D01*
X102899762Y-82782676D02*
X102804524Y-82877914D01*
X102804524Y-82877914D02*
X102709286Y-82925533D01*
D10*
X150203580Y-67738666D02*
X149489295Y-67738666D01*
X149489295Y-67738666D02*
X149346438Y-67691047D01*
X149346438Y-67691047D02*
X149251200Y-67595809D01*
X149251200Y-67595809D02*
X149203580Y-67452952D01*
X149203580Y-67452952D02*
X149203580Y-67357714D01*
X149775009Y-68357714D02*
X149822628Y-68262476D01*
X149822628Y-68262476D02*
X149870247Y-68214857D01*
X149870247Y-68214857D02*
X149965485Y-68167238D01*
X149965485Y-68167238D02*
X150013104Y-68167238D01*
X150013104Y-68167238D02*
X150108342Y-68214857D01*
X150108342Y-68214857D02*
X150155961Y-68262476D01*
X150155961Y-68262476D02*
X150203580Y-68357714D01*
X150203580Y-68357714D02*
X150203580Y-68548190D01*
X150203580Y-68548190D02*
X150155961Y-68643428D01*
X150155961Y-68643428D02*
X150108342Y-68691047D01*
X150108342Y-68691047D02*
X150013104Y-68738666D01*
X150013104Y-68738666D02*
X149965485Y-68738666D01*
X149965485Y-68738666D02*
X149870247Y-68691047D01*
X149870247Y-68691047D02*
X149822628Y-68643428D01*
X149822628Y-68643428D02*
X149775009Y-68548190D01*
X149775009Y-68548190D02*
X149775009Y-68357714D01*
X149775009Y-68357714D02*
X149727390Y-68262476D01*
X149727390Y-68262476D02*
X149679771Y-68214857D01*
X149679771Y-68214857D02*
X149584533Y-68167238D01*
X149584533Y-68167238D02*
X149394057Y-68167238D01*
X149394057Y-68167238D02*
X149298819Y-68214857D01*
X149298819Y-68214857D02*
X149251200Y-68262476D01*
X149251200Y-68262476D02*
X149203580Y-68357714D01*
X149203580Y-68357714D02*
X149203580Y-68548190D01*
X149203580Y-68548190D02*
X149251200Y-68643428D01*
X149251200Y-68643428D02*
X149298819Y-68691047D01*
X149298819Y-68691047D02*
X149394057Y-68738666D01*
X149394057Y-68738666D02*
X149584533Y-68738666D01*
X149584533Y-68738666D02*
X149679771Y-68691047D01*
X149679771Y-68691047D02*
X149727390Y-68643428D01*
X149727390Y-68643428D02*
X149775009Y-68548190D01*
D12*
X136461905Y-101049819D02*
X136461905Y-100049819D01*
X136461905Y-100049819D02*
X136700000Y-100049819D01*
X136700000Y-100049819D02*
X136842857Y-100097438D01*
X136842857Y-100097438D02*
X136938095Y-100192676D01*
X136938095Y-100192676D02*
X136985714Y-100287914D01*
X136985714Y-100287914D02*
X137033333Y-100478390D01*
X137033333Y-100478390D02*
X137033333Y-100621247D01*
X137033333Y-100621247D02*
X136985714Y-100811723D01*
X136985714Y-100811723D02*
X136938095Y-100906961D01*
X136938095Y-100906961D02*
X136842857Y-101002200D01*
X136842857Y-101002200D02*
X136700000Y-101049819D01*
X136700000Y-101049819D02*
X136461905Y-101049819D01*
X137985714Y-101049819D02*
X137414286Y-101049819D01*
X137700000Y-101049819D02*
X137700000Y-100049819D01*
X137700000Y-100049819D02*
X137604762Y-100192676D01*
X137604762Y-100192676D02*
X137509524Y-100287914D01*
X137509524Y-100287914D02*
X137414286Y-100335533D01*
X139183095Y-101014819D02*
X139183095Y-100014819D01*
X139754523Y-101014819D02*
X139325952Y-100443390D01*
X139754523Y-100014819D02*
X139183095Y-100586247D01*
X124146605Y-51891292D02*
X124045590Y-51924964D01*
X124045590Y-51924964D02*
X123910903Y-51924964D01*
X123910903Y-51924964D02*
X123708872Y-51924964D01*
X123708872Y-51924964D02*
X123607857Y-51958636D01*
X123607857Y-51958636D02*
X123540514Y-52025979D01*
X123742544Y-52160666D02*
X123641529Y-52194338D01*
X123641529Y-52194338D02*
X123506842Y-52194338D01*
X123506842Y-52194338D02*
X123338483Y-52093323D01*
X123338483Y-52093323D02*
X123102781Y-51857620D01*
X123102781Y-51857620D02*
X123001766Y-51689262D01*
X123001766Y-51689262D02*
X123001766Y-51554575D01*
X123001766Y-51554575D02*
X123035437Y-51453559D01*
X123035437Y-51453559D02*
X123170124Y-51318872D01*
X123170124Y-51318872D02*
X123271140Y-51285201D01*
X123271140Y-51285201D02*
X123405827Y-51285201D01*
X123405827Y-51285201D02*
X123574185Y-51386216D01*
X123574185Y-51386216D02*
X123809888Y-51621918D01*
X123809888Y-51621918D02*
X123910903Y-51790277D01*
X123910903Y-51790277D02*
X123910903Y-51924964D01*
X123910903Y-51924964D02*
X123877231Y-52025979D01*
X123877231Y-52025979D02*
X123742544Y-52160666D01*
X123574185Y-50914811D02*
X124011918Y-50477079D01*
X124011918Y-50477079D02*
X124045590Y-50982155D01*
X124045590Y-50982155D02*
X124146605Y-50881140D01*
X124146605Y-50881140D02*
X124247620Y-50847468D01*
X124247620Y-50847468D02*
X124314964Y-50847468D01*
X124314964Y-50847468D02*
X124415979Y-50881140D01*
X124415979Y-50881140D02*
X124584338Y-51049498D01*
X124584338Y-51049498D02*
X124618010Y-51150514D01*
X124618010Y-51150514D02*
X124618010Y-51217857D01*
X124618010Y-51217857D02*
X124584338Y-51318872D01*
X124584338Y-51318872D02*
X124382307Y-51520903D01*
X124382307Y-51520903D02*
X124281292Y-51554575D01*
X124281292Y-51554575D02*
X124213949Y-51554575D01*
X144055952Y-122200990D02*
X143913095Y-122153371D01*
X143913095Y-122153371D02*
X143865476Y-122105752D01*
X143865476Y-122105752D02*
X143817857Y-122010514D01*
X143817857Y-122010514D02*
X143817857Y-121867657D01*
X143817857Y-121867657D02*
X143865476Y-121772419D01*
X143865476Y-121772419D02*
X143913095Y-121724800D01*
X143913095Y-121724800D02*
X144008333Y-121677180D01*
X144008333Y-121677180D02*
X144389285Y-121677180D01*
X144389285Y-121677180D02*
X144389285Y-122677180D01*
X144389285Y-122677180D02*
X144055952Y-122677180D01*
X144055952Y-122677180D02*
X143960714Y-122629561D01*
X143960714Y-122629561D02*
X143913095Y-122581942D01*
X143913095Y-122581942D02*
X143865476Y-122486704D01*
X143865476Y-122486704D02*
X143865476Y-122391466D01*
X143865476Y-122391466D02*
X143913095Y-122296228D01*
X143913095Y-122296228D02*
X143960714Y-122248609D01*
X143960714Y-122248609D02*
X144055952Y-122200990D01*
X144055952Y-122200990D02*
X144389285Y-122200990D01*
X143484523Y-122677180D02*
X142817857Y-122677180D01*
X142817857Y-122677180D02*
X143484523Y-121677180D01*
X143484523Y-121677180D02*
X142817857Y-121677180D01*
X141913095Y-121677180D02*
X142484523Y-121677180D01*
X142198809Y-121677180D02*
X142198809Y-122677180D01*
X142198809Y-122677180D02*
X142294047Y-122534323D01*
X142294047Y-122534323D02*
X142389285Y-122439085D01*
X142389285Y-122439085D02*
X142484523Y-122391466D01*
X101899760Y-64050057D02*
X101804522Y-64002438D01*
X101804522Y-64002438D02*
X101709284Y-63907200D01*
X101709284Y-63907200D02*
X101566427Y-63764342D01*
X101566427Y-63764342D02*
X101471189Y-63716723D01*
X101471189Y-63716723D02*
X101375951Y-63716723D01*
X101423570Y-63954819D02*
X101328332Y-63907200D01*
X101328332Y-63907200D02*
X101233094Y-63811961D01*
X101233094Y-63811961D02*
X101185475Y-63621485D01*
X101185475Y-63621485D02*
X101185475Y-63288152D01*
X101185475Y-63288152D02*
X101233094Y-63097676D01*
X101233094Y-63097676D02*
X101328332Y-63002438D01*
X101328332Y-63002438D02*
X101423570Y-62954819D01*
X101423570Y-62954819D02*
X101614046Y-62954819D01*
X101614046Y-62954819D02*
X101709284Y-63002438D01*
X101709284Y-63002438D02*
X101804522Y-63097676D01*
X101804522Y-63097676D02*
X101852141Y-63288152D01*
X101852141Y-63288152D02*
X101852141Y-63621485D01*
X101852141Y-63621485D02*
X101804522Y-63811961D01*
X101804522Y-63811961D02*
X101709284Y-63907200D01*
X101709284Y-63907200D02*
X101614046Y-63954819D01*
X101614046Y-63954819D02*
X101423570Y-63954819D01*
X102423570Y-63383390D02*
X102328332Y-63335771D01*
X102328332Y-63335771D02*
X102280713Y-63288152D01*
X102280713Y-63288152D02*
X102233094Y-63192914D01*
X102233094Y-63192914D02*
X102233094Y-63145295D01*
X102233094Y-63145295D02*
X102280713Y-63050057D01*
X102280713Y-63050057D02*
X102328332Y-63002438D01*
X102328332Y-63002438D02*
X102423570Y-62954819D01*
X102423570Y-62954819D02*
X102614046Y-62954819D01*
X102614046Y-62954819D02*
X102709284Y-63002438D01*
X102709284Y-63002438D02*
X102756903Y-63050057D01*
X102756903Y-63050057D02*
X102804522Y-63145295D01*
X102804522Y-63145295D02*
X102804522Y-63192914D01*
X102804522Y-63192914D02*
X102756903Y-63288152D01*
X102756903Y-63288152D02*
X102709284Y-63335771D01*
X102709284Y-63335771D02*
X102614046Y-63383390D01*
X102614046Y-63383390D02*
X102423570Y-63383390D01*
X102423570Y-63383390D02*
X102328332Y-63431009D01*
X102328332Y-63431009D02*
X102280713Y-63478628D01*
X102280713Y-63478628D02*
X102233094Y-63573866D01*
X102233094Y-63573866D02*
X102233094Y-63764342D01*
X102233094Y-63764342D02*
X102280713Y-63859580D01*
X102280713Y-63859580D02*
X102328332Y-63907200D01*
X102328332Y-63907200D02*
X102423570Y-63954819D01*
X102423570Y-63954819D02*
X102614046Y-63954819D01*
X102614046Y-63954819D02*
X102709284Y-63907200D01*
X102709284Y-63907200D02*
X102756903Y-63859580D01*
X102756903Y-63859580D02*
X102804522Y-63764342D01*
X102804522Y-63764342D02*
X102804522Y-63573866D01*
X102804522Y-63573866D02*
X102756903Y-63478628D01*
X102756903Y-63478628D02*
X102709284Y-63431009D01*
X102709284Y-63431009D02*
X102614046Y-63383390D01*
D10*
X101225666Y-36541419D02*
X101225666Y-37255704D01*
X101225666Y-37255704D02*
X101178047Y-37398561D01*
X101178047Y-37398561D02*
X101082809Y-37493800D01*
X101082809Y-37493800D02*
X100939952Y-37541419D01*
X100939952Y-37541419D02*
X100844714Y-37541419D01*
X102130428Y-36541419D02*
X101939952Y-36541419D01*
X101939952Y-36541419D02*
X101844714Y-36589038D01*
X101844714Y-36589038D02*
X101797095Y-36636657D01*
X101797095Y-36636657D02*
X101701857Y-36779514D01*
X101701857Y-36779514D02*
X101654238Y-36969990D01*
X101654238Y-36969990D02*
X101654238Y-37350942D01*
X101654238Y-37350942D02*
X101701857Y-37446180D01*
X101701857Y-37446180D02*
X101749476Y-37493800D01*
X101749476Y-37493800D02*
X101844714Y-37541419D01*
X101844714Y-37541419D02*
X102035190Y-37541419D01*
X102035190Y-37541419D02*
X102130428Y-37493800D01*
X102130428Y-37493800D02*
X102178047Y-37446180D01*
X102178047Y-37446180D02*
X102225666Y-37350942D01*
X102225666Y-37350942D02*
X102225666Y-37112847D01*
X102225666Y-37112847D02*
X102178047Y-37017609D01*
X102178047Y-37017609D02*
X102130428Y-36969990D01*
X102130428Y-36969990D02*
X102035190Y-36922371D01*
X102035190Y-36922371D02*
X101844714Y-36922371D01*
X101844714Y-36922371D02*
X101749476Y-36969990D01*
X101749476Y-36969990D02*
X101701857Y-37017609D01*
X101701857Y-37017609D02*
X101654238Y-37112847D01*
D12*
X101899760Y-70400057D02*
X101804522Y-70352438D01*
X101804522Y-70352438D02*
X101709284Y-70257200D01*
X101709284Y-70257200D02*
X101566427Y-70114342D01*
X101566427Y-70114342D02*
X101471189Y-70066723D01*
X101471189Y-70066723D02*
X101375951Y-70066723D01*
X101423570Y-70304819D02*
X101328332Y-70257200D01*
X101328332Y-70257200D02*
X101233094Y-70161961D01*
X101233094Y-70161961D02*
X101185475Y-69971485D01*
X101185475Y-69971485D02*
X101185475Y-69638152D01*
X101185475Y-69638152D02*
X101233094Y-69447676D01*
X101233094Y-69447676D02*
X101328332Y-69352438D01*
X101328332Y-69352438D02*
X101423570Y-69304819D01*
X101423570Y-69304819D02*
X101614046Y-69304819D01*
X101614046Y-69304819D02*
X101709284Y-69352438D01*
X101709284Y-69352438D02*
X101804522Y-69447676D01*
X101804522Y-69447676D02*
X101852141Y-69638152D01*
X101852141Y-69638152D02*
X101852141Y-69971485D01*
X101852141Y-69971485D02*
X101804522Y-70161961D01*
X101804522Y-70161961D02*
X101709284Y-70257200D01*
X101709284Y-70257200D02*
X101614046Y-70304819D01*
X101614046Y-70304819D02*
X101423570Y-70304819D01*
X102328332Y-70304819D02*
X102518808Y-70304819D01*
X102518808Y-70304819D02*
X102614046Y-70257200D01*
X102614046Y-70257200D02*
X102661665Y-70209580D01*
X102661665Y-70209580D02*
X102756903Y-70066723D01*
X102756903Y-70066723D02*
X102804522Y-69876247D01*
X102804522Y-69876247D02*
X102804522Y-69495295D01*
X102804522Y-69495295D02*
X102756903Y-69400057D01*
X102756903Y-69400057D02*
X102709284Y-69352438D01*
X102709284Y-69352438D02*
X102614046Y-69304819D01*
X102614046Y-69304819D02*
X102423570Y-69304819D01*
X102423570Y-69304819D02*
X102328332Y-69352438D01*
X102328332Y-69352438D02*
X102280713Y-69400057D01*
X102280713Y-69400057D02*
X102233094Y-69495295D01*
X102233094Y-69495295D02*
X102233094Y-69733390D01*
X102233094Y-69733390D02*
X102280713Y-69828628D01*
X102280713Y-69828628D02*
X102328332Y-69876247D01*
X102328332Y-69876247D02*
X102423570Y-69923866D01*
X102423570Y-69923866D02*
X102614046Y-69923866D01*
X102614046Y-69923866D02*
X102709284Y-69876247D01*
X102709284Y-69876247D02*
X102756903Y-69828628D01*
X102756903Y-69828628D02*
X102804522Y-69733390D01*
X134524761Y-79290057D02*
X134429523Y-79242438D01*
X134429523Y-79242438D02*
X134334285Y-79147200D01*
X134334285Y-79147200D02*
X134191428Y-79004342D01*
X134191428Y-79004342D02*
X134096190Y-78956723D01*
X134096190Y-78956723D02*
X134000952Y-78956723D01*
X134048571Y-79194819D02*
X133953333Y-79147200D01*
X133953333Y-79147200D02*
X133858095Y-79051961D01*
X133858095Y-79051961D02*
X133810476Y-78861485D01*
X133810476Y-78861485D02*
X133810476Y-78528152D01*
X133810476Y-78528152D02*
X133858095Y-78337676D01*
X133858095Y-78337676D02*
X133953333Y-78242438D01*
X133953333Y-78242438D02*
X134048571Y-78194819D01*
X134048571Y-78194819D02*
X134239047Y-78194819D01*
X134239047Y-78194819D02*
X134334285Y-78242438D01*
X134334285Y-78242438D02*
X134429523Y-78337676D01*
X134429523Y-78337676D02*
X134477142Y-78528152D01*
X134477142Y-78528152D02*
X134477142Y-78861485D01*
X134477142Y-78861485D02*
X134429523Y-79051961D01*
X134429523Y-79051961D02*
X134334285Y-79147200D01*
X134334285Y-79147200D02*
X134239047Y-79194819D01*
X134239047Y-79194819D02*
X134048571Y-79194819D01*
X135334285Y-78194819D02*
X135143809Y-78194819D01*
X135143809Y-78194819D02*
X135048571Y-78242438D01*
X135048571Y-78242438D02*
X135000952Y-78290057D01*
X135000952Y-78290057D02*
X134905714Y-78432914D01*
X134905714Y-78432914D02*
X134858095Y-78623390D01*
X134858095Y-78623390D02*
X134858095Y-79004342D01*
X134858095Y-79004342D02*
X134905714Y-79099580D01*
X134905714Y-79099580D02*
X134953333Y-79147200D01*
X134953333Y-79147200D02*
X135048571Y-79194819D01*
X135048571Y-79194819D02*
X135239047Y-79194819D01*
X135239047Y-79194819D02*
X135334285Y-79147200D01*
X135334285Y-79147200D02*
X135381904Y-79099580D01*
X135381904Y-79099580D02*
X135429523Y-79004342D01*
X135429523Y-79004342D02*
X135429523Y-78766247D01*
X135429523Y-78766247D02*
X135381904Y-78671009D01*
X135381904Y-78671009D02*
X135334285Y-78623390D01*
X135334285Y-78623390D02*
X135239047Y-78575771D01*
X135239047Y-78575771D02*
X135048571Y-78575771D01*
X135048571Y-78575771D02*
X134953333Y-78623390D01*
X134953333Y-78623390D02*
X134905714Y-78671009D01*
X134905714Y-78671009D02*
X134858095Y-78766247D01*
X100508707Y-54296605D02*
X100475035Y-54195590D01*
X100475035Y-54195590D02*
X100475035Y-54060903D01*
X100475035Y-54060903D02*
X100475035Y-53858872D01*
X100475035Y-53858872D02*
X100441363Y-53757857D01*
X100441363Y-53757857D02*
X100374020Y-53690514D01*
X100239333Y-53892544D02*
X100205661Y-53791529D01*
X100205661Y-53791529D02*
X100205661Y-53656842D01*
X100205661Y-53656842D02*
X100306676Y-53488483D01*
X100306676Y-53488483D02*
X100542379Y-53252781D01*
X100542379Y-53252781D02*
X100710737Y-53151766D01*
X100710737Y-53151766D02*
X100845424Y-53151766D01*
X100845424Y-53151766D02*
X100946440Y-53185437D01*
X100946440Y-53185437D02*
X101081127Y-53320124D01*
X101081127Y-53320124D02*
X101114798Y-53421140D01*
X101114798Y-53421140D02*
X101114798Y-53555827D01*
X101114798Y-53555827D02*
X101013783Y-53724185D01*
X101013783Y-53724185D02*
X100778081Y-53959888D01*
X100778081Y-53959888D02*
X100609722Y-54060903D01*
X100609722Y-54060903D02*
X100475035Y-54060903D01*
X100475035Y-54060903D02*
X100374020Y-54027231D01*
X100374020Y-54027231D02*
X100239333Y-53892544D01*
X101889249Y-54128246D02*
X101552531Y-53791529D01*
X101552531Y-53791529D02*
X101182142Y-54094575D01*
X101182142Y-54094575D02*
X101249485Y-54094575D01*
X101249485Y-54094575D02*
X101350501Y-54128246D01*
X101350501Y-54128246D02*
X101518859Y-54296605D01*
X101518859Y-54296605D02*
X101552531Y-54397620D01*
X101552531Y-54397620D02*
X101552531Y-54464964D01*
X101552531Y-54464964D02*
X101518859Y-54565979D01*
X101518859Y-54565979D02*
X101350501Y-54734338D01*
X101350501Y-54734338D02*
X101249485Y-54768010D01*
X101249485Y-54768010D02*
X101182142Y-54768010D01*
X101182142Y-54768010D02*
X101081127Y-54734338D01*
X101081127Y-54734338D02*
X100912768Y-54565979D01*
X100912768Y-54565979D02*
X100879096Y-54464964D01*
X100879096Y-54464964D02*
X100879096Y-54397620D01*
X133808571Y-60875057D02*
X133713333Y-60827438D01*
X133713333Y-60827438D02*
X133618095Y-60732200D01*
X133618095Y-60732200D02*
X133475238Y-60589342D01*
X133475238Y-60589342D02*
X133380000Y-60541723D01*
X133380000Y-60541723D02*
X133284762Y-60541723D01*
X133332381Y-60779819D02*
X133237143Y-60732200D01*
X133237143Y-60732200D02*
X133141905Y-60636961D01*
X133141905Y-60636961D02*
X133094286Y-60446485D01*
X133094286Y-60446485D02*
X133094286Y-60113152D01*
X133094286Y-60113152D02*
X133141905Y-59922676D01*
X133141905Y-59922676D02*
X133237143Y-59827438D01*
X133237143Y-59827438D02*
X133332381Y-59779819D01*
X133332381Y-59779819D02*
X133522857Y-59779819D01*
X133522857Y-59779819D02*
X133618095Y-59827438D01*
X133618095Y-59827438D02*
X133713333Y-59922676D01*
X133713333Y-59922676D02*
X133760952Y-60113152D01*
X133760952Y-60113152D02*
X133760952Y-60446485D01*
X133760952Y-60446485D02*
X133713333Y-60636961D01*
X133713333Y-60636961D02*
X133618095Y-60732200D01*
X133618095Y-60732200D02*
X133522857Y-60779819D01*
X133522857Y-60779819D02*
X133332381Y-60779819D01*
X134713333Y-60779819D02*
X134141905Y-60779819D01*
X134427619Y-60779819D02*
X134427619Y-59779819D01*
X134427619Y-59779819D02*
X134332381Y-59922676D01*
X134332381Y-59922676D02*
X134237143Y-60017914D01*
X134237143Y-60017914D02*
X134141905Y-60065533D01*
X135046667Y-59779819D02*
X135665714Y-59779819D01*
X135665714Y-59779819D02*
X135332381Y-60160771D01*
X135332381Y-60160771D02*
X135475238Y-60160771D01*
X135475238Y-60160771D02*
X135570476Y-60208390D01*
X135570476Y-60208390D02*
X135618095Y-60256009D01*
X135618095Y-60256009D02*
X135665714Y-60351247D01*
X135665714Y-60351247D02*
X135665714Y-60589342D01*
X135665714Y-60589342D02*
X135618095Y-60684580D01*
X135618095Y-60684580D02*
X135570476Y-60732200D01*
X135570476Y-60732200D02*
X135475238Y-60779819D01*
X135475238Y-60779819D02*
X135189524Y-60779819D01*
X135189524Y-60779819D02*
X135094286Y-60732200D01*
X135094286Y-60732200D02*
X135046667Y-60684580D01*
X101423571Y-77385057D02*
X101328333Y-77337438D01*
X101328333Y-77337438D02*
X101233095Y-77242200D01*
X101233095Y-77242200D02*
X101090238Y-77099342D01*
X101090238Y-77099342D02*
X100995000Y-77051723D01*
X100995000Y-77051723D02*
X100899762Y-77051723D01*
X100947381Y-77289819D02*
X100852143Y-77242200D01*
X100852143Y-77242200D02*
X100756905Y-77146961D01*
X100756905Y-77146961D02*
X100709286Y-76956485D01*
X100709286Y-76956485D02*
X100709286Y-76623152D01*
X100709286Y-76623152D02*
X100756905Y-76432676D01*
X100756905Y-76432676D02*
X100852143Y-76337438D01*
X100852143Y-76337438D02*
X100947381Y-76289819D01*
X100947381Y-76289819D02*
X101137857Y-76289819D01*
X101137857Y-76289819D02*
X101233095Y-76337438D01*
X101233095Y-76337438D02*
X101328333Y-76432676D01*
X101328333Y-76432676D02*
X101375952Y-76623152D01*
X101375952Y-76623152D02*
X101375952Y-76956485D01*
X101375952Y-76956485D02*
X101328333Y-77146961D01*
X101328333Y-77146961D02*
X101233095Y-77242200D01*
X101233095Y-77242200D02*
X101137857Y-77289819D01*
X101137857Y-77289819D02*
X100947381Y-77289819D01*
X102328333Y-77289819D02*
X101756905Y-77289819D01*
X102042619Y-77289819D02*
X102042619Y-76289819D01*
X102042619Y-76289819D02*
X101947381Y-76432676D01*
X101947381Y-76432676D02*
X101852143Y-76527914D01*
X101852143Y-76527914D02*
X101756905Y-76575533D01*
X102947381Y-76289819D02*
X103042619Y-76289819D01*
X103042619Y-76289819D02*
X103137857Y-76337438D01*
X103137857Y-76337438D02*
X103185476Y-76385057D01*
X103185476Y-76385057D02*
X103233095Y-76480295D01*
X103233095Y-76480295D02*
X103280714Y-76670771D01*
X103280714Y-76670771D02*
X103280714Y-76908866D01*
X103280714Y-76908866D02*
X103233095Y-77099342D01*
X103233095Y-77099342D02*
X103185476Y-77194580D01*
X103185476Y-77194580D02*
X103137857Y-77242200D01*
X103137857Y-77242200D02*
X103042619Y-77289819D01*
X103042619Y-77289819D02*
X102947381Y-77289819D01*
X102947381Y-77289819D02*
X102852143Y-77242200D01*
X102852143Y-77242200D02*
X102804524Y-77194580D01*
X102804524Y-77194580D02*
X102756905Y-77099342D01*
X102756905Y-77099342D02*
X102709286Y-76908866D01*
X102709286Y-76908866D02*
X102709286Y-76670771D01*
X102709286Y-76670771D02*
X102756905Y-76480295D01*
X102756905Y-76480295D02*
X102804524Y-76385057D01*
X102804524Y-76385057D02*
X102852143Y-76337438D01*
X102852143Y-76337438D02*
X102947381Y-76289819D01*
D10*
X150203580Y-76712666D02*
X149489295Y-76712666D01*
X149489295Y-76712666D02*
X149346438Y-76665047D01*
X149346438Y-76665047D02*
X149251200Y-76569809D01*
X149251200Y-76569809D02*
X149203580Y-76426952D01*
X149203580Y-76426952D02*
X149203580Y-76331714D01*
X150203580Y-77093619D02*
X150203580Y-77760285D01*
X150203580Y-77760285D02*
X149203580Y-77331714D01*
D12*
X111938707Y-54296605D02*
X111905035Y-54195590D01*
X111905035Y-54195590D02*
X111905035Y-54060903D01*
X111905035Y-54060903D02*
X111905035Y-53858872D01*
X111905035Y-53858872D02*
X111871363Y-53757857D01*
X111871363Y-53757857D02*
X111804020Y-53690514D01*
X111669333Y-53892544D02*
X111635661Y-53791529D01*
X111635661Y-53791529D02*
X111635661Y-53656842D01*
X111635661Y-53656842D02*
X111736676Y-53488483D01*
X111736676Y-53488483D02*
X111972379Y-53252781D01*
X111972379Y-53252781D02*
X112140737Y-53151766D01*
X112140737Y-53151766D02*
X112275424Y-53151766D01*
X112275424Y-53151766D02*
X112376440Y-53185437D01*
X112376440Y-53185437D02*
X112511127Y-53320124D01*
X112511127Y-53320124D02*
X112544798Y-53421140D01*
X112544798Y-53421140D02*
X112544798Y-53555827D01*
X112544798Y-53555827D02*
X112443783Y-53724185D01*
X112443783Y-53724185D02*
X112208081Y-53959888D01*
X112208081Y-53959888D02*
X112039722Y-54060903D01*
X112039722Y-54060903D02*
X111905035Y-54060903D01*
X111905035Y-54060903D02*
X111804020Y-54027231D01*
X111804020Y-54027231D02*
X111669333Y-53892544D01*
X113049875Y-54330277D02*
X112578470Y-54801681D01*
X113150890Y-53892544D02*
X112477455Y-54229262D01*
X112477455Y-54229262D02*
X112915188Y-54666994D01*
D13*
%TO.C,C1*%
X83835354Y-91600000D02*
X84835354Y-91600000D01*
X84335354Y-91100000D02*
X84335354Y-92100000D01*
X89315000Y-89395000D02*
X89315000Y-99555000D01*
X89355000Y-89395000D02*
X89355000Y-99555000D01*
X89395000Y-89395000D02*
X89395000Y-99555000D01*
X89435000Y-89396000D02*
X89435000Y-99554000D01*
X89475000Y-89397000D02*
X89475000Y-99553000D01*
X89515000Y-89398000D02*
X89515000Y-99552000D01*
X89555000Y-89400000D02*
X89555000Y-93435000D01*
X89555000Y-95515000D02*
X89555000Y-99550000D01*
X89595000Y-89402000D02*
X89595000Y-93435000D01*
X89595000Y-95515000D02*
X89595000Y-99548000D01*
X89635000Y-89405000D02*
X89635000Y-93435000D01*
X89635000Y-95515000D02*
X89635000Y-99545000D01*
X89675000Y-89407000D02*
X89675000Y-93435000D01*
X89675000Y-95515000D02*
X89675000Y-99543000D01*
X89715000Y-89410000D02*
X89715000Y-93435000D01*
X89715000Y-95515000D02*
X89715000Y-99540000D01*
X89755000Y-89413000D02*
X89755000Y-93435000D01*
X89755000Y-95515000D02*
X89755000Y-99537000D01*
X89795000Y-89417000D02*
X89795000Y-93435000D01*
X89795000Y-95515000D02*
X89795000Y-99533000D01*
X89835000Y-89421000D02*
X89835000Y-93435000D01*
X89835000Y-95515000D02*
X89835000Y-99529000D01*
X89875000Y-89425000D02*
X89875000Y-93435000D01*
X89875000Y-95515000D02*
X89875000Y-99525000D01*
X89915000Y-89430000D02*
X89915000Y-93435000D01*
X89915000Y-95515000D02*
X89915000Y-99520000D01*
X89955000Y-89435000D02*
X89955000Y-93435000D01*
X89955000Y-95515000D02*
X89955000Y-99515000D01*
X89995000Y-89440000D02*
X89995000Y-93435000D01*
X89995000Y-95515000D02*
X89995000Y-99510000D01*
X90036000Y-89445000D02*
X90036000Y-93435000D01*
X90036000Y-95515000D02*
X90036000Y-99505000D01*
X90076000Y-89451000D02*
X90076000Y-93435000D01*
X90076000Y-95515000D02*
X90076000Y-99499000D01*
X90116000Y-89457000D02*
X90116000Y-93435000D01*
X90116000Y-95515000D02*
X90116000Y-99493000D01*
X90156000Y-89464000D02*
X90156000Y-93435000D01*
X90156000Y-95515000D02*
X90156000Y-99486000D01*
X90196000Y-89471000D02*
X90196000Y-93435000D01*
X90196000Y-95515000D02*
X90196000Y-99479000D01*
X90236000Y-89478000D02*
X90236000Y-93435000D01*
X90236000Y-95515000D02*
X90236000Y-99472000D01*
X90276000Y-89485000D02*
X90276000Y-93435000D01*
X90276000Y-95515000D02*
X90276000Y-99465000D01*
X90316000Y-89493000D02*
X90316000Y-93435000D01*
X90316000Y-95515000D02*
X90316000Y-99457000D01*
X90356000Y-89501000D02*
X90356000Y-93435000D01*
X90356000Y-95515000D02*
X90356000Y-99449000D01*
X90396000Y-89510000D02*
X90396000Y-93435000D01*
X90396000Y-95515000D02*
X90396000Y-99440000D01*
X90436000Y-89519000D02*
X90436000Y-93435000D01*
X90436000Y-95515000D02*
X90436000Y-99431000D01*
X90476000Y-89528000D02*
X90476000Y-93435000D01*
X90476000Y-95515000D02*
X90476000Y-99422000D01*
X90516000Y-89537000D02*
X90516000Y-93435000D01*
X90516000Y-95515000D02*
X90516000Y-99413000D01*
X90556000Y-89547000D02*
X90556000Y-93435000D01*
X90556000Y-95515000D02*
X90556000Y-99403000D01*
X90596000Y-89557000D02*
X90596000Y-93435000D01*
X90596000Y-95515000D02*
X90596000Y-99393000D01*
X90636000Y-89568000D02*
X90636000Y-93435000D01*
X90636000Y-95515000D02*
X90636000Y-99382000D01*
X90676000Y-89578000D02*
X90676000Y-93435000D01*
X90676000Y-95515000D02*
X90676000Y-99372000D01*
X90716000Y-89590000D02*
X90716000Y-93435000D01*
X90716000Y-95515000D02*
X90716000Y-99360000D01*
X90756000Y-89601000D02*
X90756000Y-93435000D01*
X90756000Y-95515000D02*
X90756000Y-99349000D01*
X90796000Y-89613000D02*
X90796000Y-93435000D01*
X90796000Y-95515000D02*
X90796000Y-99337000D01*
X90836000Y-89625000D02*
X90836000Y-93435000D01*
X90836000Y-95515000D02*
X90836000Y-99325000D01*
X90876000Y-89638000D02*
X90876000Y-93435000D01*
X90876000Y-95515000D02*
X90876000Y-99312000D01*
X90916000Y-89651000D02*
X90916000Y-93435000D01*
X90916000Y-95515000D02*
X90916000Y-99299000D01*
X90956000Y-89664000D02*
X90956000Y-93435000D01*
X90956000Y-95515000D02*
X90956000Y-99286000D01*
X90996000Y-89678000D02*
X90996000Y-93435000D01*
X90996000Y-95515000D02*
X90996000Y-99272000D01*
X91036000Y-89692000D02*
X91036000Y-93435000D01*
X91036000Y-95515000D02*
X91036000Y-99258000D01*
X91076000Y-89707000D02*
X91076000Y-93435000D01*
X91076000Y-95515000D02*
X91076000Y-99243000D01*
X91116000Y-89721000D02*
X91116000Y-93435000D01*
X91116000Y-95515000D02*
X91116000Y-99229000D01*
X91156000Y-89737000D02*
X91156000Y-93435000D01*
X91156000Y-95515000D02*
X91156000Y-99213000D01*
X91196000Y-89752000D02*
X91196000Y-93435000D01*
X91196000Y-95515000D02*
X91196000Y-99198000D01*
X91236000Y-89768000D02*
X91236000Y-93435000D01*
X91236000Y-95515000D02*
X91236000Y-99182000D01*
X91276000Y-89785000D02*
X91276000Y-93435000D01*
X91276000Y-95515000D02*
X91276000Y-99165000D01*
X91316000Y-89801000D02*
X91316000Y-93435000D01*
X91316000Y-95515000D02*
X91316000Y-99149000D01*
X91356000Y-89818000D02*
X91356000Y-93435000D01*
X91356000Y-95515000D02*
X91356000Y-99132000D01*
X91396000Y-89836000D02*
X91396000Y-93435000D01*
X91396000Y-95515000D02*
X91396000Y-99114000D01*
X91436000Y-89854000D02*
X91436000Y-93435000D01*
X91436000Y-95515000D02*
X91436000Y-99096000D01*
X91476000Y-89872000D02*
X91476000Y-93435000D01*
X91476000Y-95515000D02*
X91476000Y-99078000D01*
X91516000Y-89891000D02*
X91516000Y-93435000D01*
X91516000Y-95515000D02*
X91516000Y-99059000D01*
X91556000Y-89911000D02*
X91556000Y-93435000D01*
X91556000Y-95515000D02*
X91556000Y-99039000D01*
X91596000Y-89930000D02*
X91596000Y-93435000D01*
X91596000Y-95515000D02*
X91596000Y-99020000D01*
X91636000Y-89950000D02*
X91636000Y-99000000D01*
X91676000Y-89971000D02*
X91676000Y-98979000D01*
X91716000Y-89992000D02*
X91716000Y-98958000D01*
X91756000Y-90013000D02*
X91756000Y-98937000D01*
X91796000Y-90035000D02*
X91796000Y-98915000D01*
X91836000Y-90058000D02*
X91836000Y-98892000D01*
X91876000Y-90080000D02*
X91876000Y-98870000D01*
X91916000Y-90104000D02*
X91916000Y-98846000D01*
X91956000Y-90128000D02*
X91956000Y-98822000D01*
X91996000Y-90152000D02*
X91996000Y-98798000D01*
X92036000Y-90177000D02*
X92036000Y-98773000D01*
X92076000Y-90202000D02*
X92076000Y-98748000D01*
X92116000Y-90228000D02*
X92116000Y-98722000D01*
X92156000Y-90254000D02*
X92156000Y-98696000D01*
X92196000Y-90281000D02*
X92196000Y-98669000D01*
X92236000Y-90309000D02*
X92236000Y-98641000D01*
X92276000Y-90337000D02*
X92276000Y-98613000D01*
X92316000Y-90365000D02*
X92316000Y-98585000D01*
X92356000Y-90395000D02*
X92356000Y-98555000D01*
X92396000Y-90425000D02*
X92396000Y-98525000D01*
X92436000Y-90455000D02*
X92436000Y-98495000D01*
X92476000Y-90486000D02*
X92476000Y-98464000D01*
X92516000Y-90518000D02*
X92516000Y-98432000D01*
X92556000Y-90550000D02*
X92556000Y-98400000D01*
X92596000Y-90583000D02*
X92596000Y-98367000D01*
X92636000Y-90617000D02*
X92636000Y-98333000D01*
X92676000Y-90651000D02*
X92676000Y-98299000D01*
X92716000Y-90686000D02*
X92716000Y-98264000D01*
X92756000Y-90722000D02*
X92756000Y-98228000D01*
X92796000Y-90759000D02*
X92796000Y-98191000D01*
X92836000Y-90796000D02*
X92836000Y-98154000D01*
X92876000Y-90835000D02*
X92876000Y-98115000D01*
X92916000Y-90874000D02*
X92916000Y-98076000D01*
X92956000Y-90914000D02*
X92956000Y-98036000D01*
X92996000Y-90955000D02*
X92996000Y-97995000D01*
X93036000Y-90997000D02*
X93036000Y-97953000D01*
X93076000Y-91039000D02*
X93076000Y-97911000D01*
X93116000Y-91083000D02*
X93116000Y-97867000D01*
X93156000Y-91128000D02*
X93156000Y-97822000D01*
X93196000Y-91174000D02*
X93196000Y-97776000D01*
X93236000Y-91221000D02*
X93236000Y-97729000D01*
X93276000Y-91269000D02*
X93276000Y-97681000D01*
X93316000Y-91319000D02*
X93316000Y-97631000D01*
X93356000Y-91369000D02*
X93356000Y-97581000D01*
X93396000Y-91421000D02*
X93396000Y-97529000D01*
X93436000Y-91475000D02*
X93436000Y-97475000D01*
X93476000Y-91530000D02*
X93476000Y-97420000D01*
X93516000Y-91586000D02*
X93516000Y-97364000D01*
X93556000Y-91645000D02*
X93556000Y-97305000D01*
X93596000Y-91705000D02*
X93596000Y-97245000D01*
X93636000Y-91766000D02*
X93636000Y-97184000D01*
X93676000Y-91830000D02*
X93676000Y-97120000D01*
X93716000Y-91896000D02*
X93716000Y-97054000D01*
X93756000Y-91965000D02*
X93756000Y-96985000D01*
X93796000Y-92036000D02*
X93796000Y-96914000D01*
X93836000Y-92110000D02*
X93836000Y-96840000D01*
X93876000Y-92186000D02*
X93876000Y-96764000D01*
X93916000Y-92266000D02*
X93916000Y-96684000D01*
X93956000Y-92350000D02*
X93956000Y-96600000D01*
X93996000Y-92438000D02*
X93996000Y-96512000D01*
X94036000Y-92531000D02*
X94036000Y-96419000D01*
X94076000Y-92629000D02*
X94076000Y-96321000D01*
X94116000Y-92733000D02*
X94116000Y-96217000D01*
X94156000Y-92845000D02*
X94156000Y-96105000D01*
X94196000Y-92965000D02*
X94196000Y-95985000D01*
X94236000Y-93097000D02*
X94236000Y-95853000D01*
X94276000Y-93245000D02*
X94276000Y-95705000D01*
X94316000Y-93413000D02*
X94316000Y-95537000D01*
X94356000Y-93613000D02*
X94356000Y-95337000D01*
X94396000Y-93876000D02*
X94396000Y-95074000D01*
X94435000Y-94475000D02*
G75*
G02*
X84195000Y-94475000I-5120000J0D01*
G01*
X84195000Y-94475000D02*
G75*
G02*
X94435000Y-94475000I5120000J0D01*
G01*
%TO.C,BT1*%
D10*
X106895000Y-151305000D02*
X120395000Y-151305000D01*
X120395000Y-157305000D01*
X106895000Y-157305000D01*
X106895000Y-151305000D01*
D13*
%TO.C,D12*%
X140770000Y-58669000D02*
X140770000Y-64109000D01*
X140770000Y-64109000D02*
X141100000Y-64109000D01*
X141100000Y-58669000D02*
X140770000Y-58669000D01*
X143380000Y-58669000D02*
X143710000Y-58669000D01*
X143710000Y-58669000D02*
X143710000Y-64109000D01*
X143710000Y-59449000D02*
X140770000Y-59449000D01*
X143710000Y-59569000D02*
X140770000Y-59569000D01*
X143710000Y-59689000D02*
X140770000Y-59689000D01*
X143710000Y-64109000D02*
X143380000Y-64109000D01*
D10*
%TO.C,J13*%
X144589000Y-60302000D02*
X158305000Y-60302000D01*
X144589000Y-62842000D02*
X158305000Y-62842000D01*
X154495000Y-61826000D02*
X157543000Y-61826000D01*
X154495000Y-64366000D02*
X157543000Y-64366000D01*
X157035000Y-61318000D02*
X157543000Y-61826000D01*
X157035000Y-63858000D02*
X157543000Y-64366000D01*
X157543000Y-61826000D02*
X157035000Y-61318000D01*
X157543000Y-61826000D02*
X157035000Y-62334000D01*
X157543000Y-64366000D02*
X157035000Y-63858000D01*
X157543000Y-64366000D02*
X157035000Y-64874000D01*
X144589000Y-65636000D02*
X158305000Y-65636000D01*
X158305000Y-57762000D01*
X144589000Y-57762000D01*
X144589000Y-65636000D01*
D13*
%TO.C,D10*%
X92360000Y-69747000D02*
X92690000Y-69747000D01*
X92360000Y-74167000D02*
X95300000Y-74167000D01*
X92360000Y-74287000D02*
X95300000Y-74287000D01*
X92360000Y-74407000D02*
X95300000Y-74407000D01*
X92360000Y-75187000D02*
X92360000Y-69747000D01*
X92690000Y-75187000D02*
X92360000Y-75187000D01*
X94970000Y-75187000D02*
X95300000Y-75187000D01*
X95300000Y-69747000D02*
X94970000Y-69747000D01*
X95300000Y-75187000D02*
X95300000Y-69747000D01*
%TO.C,A1*%
X107205000Y-133985000D02*
X107205000Y-88265000D01*
X109855000Y-85615000D02*
X127635000Y-85615000D01*
X109855000Y-136635000D02*
X127635000Y-136635000D01*
X130285000Y-133985000D02*
X130285000Y-88265000D01*
X130605000Y-129175000D02*
X130605000Y-131175000D01*
X107205000Y-88265000D02*
G75*
G02*
X109855000Y-85615000I2650000J0D01*
G01*
X109855000Y-136635000D02*
G75*
G02*
X107205000Y-133985000I0J2650000D01*
G01*
X127635000Y-85615000D02*
G75*
G02*
X130285000Y-88265000I0J-2650000D01*
G01*
X130285000Y-133985000D02*
G75*
G02*
X127635000Y-136635000I-2650000J0D01*
G01*
%TO.C,R14*%
X98820000Y-97960000D02*
X98820000Y-95350000D01*
X100190000Y-99330000D02*
G75*
G02*
X97450000Y-99330000I-1370000J0D01*
G01*
X97450000Y-99330000D02*
G75*
G02*
X100190000Y-99330000I1370000J0D01*
G01*
%TO.C,D9*%
X92360000Y-59127000D02*
X92690000Y-59127000D01*
X92360000Y-63547000D02*
X95300000Y-63547000D01*
X92360000Y-63667000D02*
X95300000Y-63667000D01*
X92360000Y-63787000D02*
X95300000Y-63787000D01*
X92360000Y-64567000D02*
X92360000Y-59127000D01*
X92690000Y-64567000D02*
X92360000Y-64567000D01*
X94970000Y-64567000D02*
X95300000Y-64567000D01*
X95300000Y-59127000D02*
X94970000Y-59127000D01*
X95300000Y-64567000D02*
X95300000Y-59127000D01*
D14*
%TO.C,PS1*%
X77210000Y-101835000D02*
X77210000Y-158235000D01*
X77210000Y-158235000D02*
X100110000Y-158235000D01*
X100110000Y-101835000D02*
X77210000Y-101835000D01*
X100110000Y-158235000D02*
X100110000Y-101835000D01*
D15*
X81140000Y-159135000D02*
G75*
G02*
X80940000Y-159135000I-100000J0D01*
G01*
X80940000Y-159135000D02*
G75*
G02*
X81140000Y-159135000I100000J0D01*
G01*
D13*
%TO.C,D4*%
X110017000Y-43486000D02*
X115457000Y-43486000D01*
X110017000Y-43816000D02*
X110017000Y-43486000D01*
X110017000Y-46096000D02*
X110017000Y-46426000D01*
X110017000Y-46426000D02*
X115457000Y-46426000D01*
X110797000Y-43486000D02*
X110797000Y-46426000D01*
X110917000Y-43486000D02*
X110917000Y-46426000D01*
X111037000Y-43486000D02*
X111037000Y-46426000D01*
X115457000Y-43486000D02*
X115457000Y-43816000D01*
X115457000Y-46426000D02*
X115457000Y-46096000D01*
%TO.C,D3*%
X120517000Y-43486000D02*
X125957000Y-43486000D01*
X120517000Y-43816000D02*
X120517000Y-43486000D01*
X120517000Y-46096000D02*
X120517000Y-46426000D01*
X120517000Y-46426000D02*
X125957000Y-46426000D01*
X121297000Y-43486000D02*
X121297000Y-46426000D01*
X121417000Y-43486000D02*
X121417000Y-46426000D01*
X121537000Y-43486000D02*
X121537000Y-46426000D01*
X125957000Y-43486000D02*
X125957000Y-43816000D01*
X125957000Y-46426000D02*
X125957000Y-46096000D01*
D10*
%TO.C,J3*%
X129624000Y-42037000D02*
X129624000Y-28321000D01*
X130640000Y-29591000D02*
X131148000Y-29083000D01*
X131148000Y-29083000D02*
X130640000Y-29591000D01*
X131148000Y-29083000D02*
X131656000Y-29591000D01*
X131148000Y-32131000D02*
X131148000Y-29083000D01*
X132164000Y-42037000D02*
X132164000Y-28321000D01*
X133180000Y-29591000D02*
X133688000Y-29083000D01*
X133688000Y-29083000D02*
X133180000Y-29591000D01*
X133688000Y-29083000D02*
X134196000Y-29591000D01*
X133688000Y-32131000D02*
X133688000Y-29083000D01*
X134958000Y-42037000D02*
X127084000Y-42037000D01*
X127084000Y-28321000D01*
X134958000Y-28321000D01*
X134958000Y-42037000D01*
D13*
%TO.C,R1*%
X144357064Y-114930000D02*
X141302936Y-114930000D01*
X144357064Y-117650000D02*
X141302936Y-117650000D01*
D10*
%TO.C,J10*%
X77978000Y-59903000D02*
X78486000Y-59395000D01*
X77978000Y-59903000D02*
X78486000Y-60411000D01*
X77978000Y-62443000D02*
X78486000Y-61935000D01*
X77978000Y-62443000D02*
X78486000Y-62951000D01*
X78486000Y-60411000D02*
X77978000Y-59903000D01*
X78486000Y-62951000D02*
X77978000Y-62443000D01*
X81026000Y-59903000D02*
X77978000Y-59903000D01*
X81026000Y-62443000D02*
X77978000Y-62443000D01*
X90932000Y-61427000D02*
X77216000Y-61427000D01*
X90932000Y-63967000D02*
X77216000Y-63967000D01*
X90932000Y-58633000D02*
X77216000Y-58633000D01*
X77216000Y-66507000D01*
X90932000Y-66507000D01*
X90932000Y-58633000D01*
%TO.C,J5*%
X111676000Y-42037000D02*
X111676000Y-28321000D01*
X112692000Y-29591000D02*
X113200000Y-29083000D01*
X113200000Y-29083000D02*
X112692000Y-29591000D01*
X113200000Y-29083000D02*
X113708000Y-29591000D01*
X113200000Y-32131000D02*
X113200000Y-29083000D01*
X114216000Y-42037000D02*
X114216000Y-28321000D01*
X115232000Y-29591000D02*
X115740000Y-29083000D01*
X115740000Y-29083000D02*
X115232000Y-29591000D01*
X115740000Y-29083000D02*
X116248000Y-29591000D01*
X115740000Y-32131000D02*
X115740000Y-29083000D01*
X117010000Y-42037000D02*
X109136000Y-42037000D01*
X109136000Y-28321000D01*
X117010000Y-28321000D01*
X117010000Y-42037000D01*
D13*
%TO.C,Q7*%
X129260000Y-72155000D02*
X129260000Y-76796000D01*
X129260000Y-72155000D02*
X139500000Y-72155000D01*
X129260000Y-73665000D02*
X139500000Y-73665000D01*
X129260000Y-76796000D02*
X139500000Y-76796000D01*
X132530000Y-72155000D02*
X132530000Y-73665000D01*
X136231000Y-72155000D02*
X136231000Y-73665000D01*
X139500000Y-72155000D02*
X139500000Y-76796000D01*
%TO.C,Q12*%
X129260000Y-65805000D02*
X129260000Y-70446000D01*
X129260000Y-65805000D02*
X139500000Y-65805000D01*
X129260000Y-67315000D02*
X139500000Y-67315000D01*
X129260000Y-70446000D02*
X139500000Y-70446000D01*
X132530000Y-65805000D02*
X132530000Y-67315000D01*
X136231000Y-65805000D02*
X136231000Y-67315000D01*
X139500000Y-65805000D02*
X139500000Y-70446000D01*
%TO.C,D5*%
X99517000Y-43486000D02*
X104957000Y-43486000D01*
X99517000Y-43816000D02*
X99517000Y-43486000D01*
X99517000Y-46096000D02*
X99517000Y-46426000D01*
X99517000Y-46426000D02*
X104957000Y-46426000D01*
X100297000Y-43486000D02*
X100297000Y-46426000D01*
X100417000Y-43486000D02*
X100417000Y-46426000D01*
X100537000Y-43486000D02*
X100537000Y-46426000D01*
X104957000Y-43486000D02*
X104957000Y-43816000D01*
X104957000Y-46426000D02*
X104957000Y-46096000D01*
D10*
%TO.C,J9*%
X77978000Y-50929000D02*
X78486000Y-50421000D01*
X77978000Y-50929000D02*
X78486000Y-51437000D01*
X77978000Y-53469000D02*
X78486000Y-52961000D01*
X77978000Y-53469000D02*
X78486000Y-53977000D01*
X78486000Y-51437000D02*
X77978000Y-50929000D01*
X78486000Y-53977000D02*
X77978000Y-53469000D01*
X81026000Y-50929000D02*
X77978000Y-50929000D01*
X81026000Y-53469000D02*
X77978000Y-53469000D01*
X90932000Y-52453000D02*
X77216000Y-52453000D01*
X90932000Y-54993000D02*
X77216000Y-54993000D01*
X90932000Y-49659000D02*
X77216000Y-49659000D01*
X77216000Y-57533000D01*
X90932000Y-57533000D01*
X90932000Y-49659000D01*
D13*
%TO.C,D2*%
X131017000Y-43486000D02*
X136457000Y-43486000D01*
X131017000Y-43816000D02*
X131017000Y-43486000D01*
X131017000Y-46096000D02*
X131017000Y-46426000D01*
X131017000Y-46426000D02*
X136457000Y-46426000D01*
X131797000Y-43486000D02*
X131797000Y-46426000D01*
X131917000Y-43486000D02*
X131917000Y-46426000D01*
X132037000Y-43486000D02*
X132037000Y-46426000D01*
X136457000Y-43486000D02*
X136457000Y-43816000D01*
X136457000Y-46426000D02*
X136457000Y-46096000D01*
%TO.C,J18*%
X101935000Y-84890000D02*
X103265000Y-84890000D01*
X101935000Y-86220000D02*
X101935000Y-84890000D01*
X101935000Y-87490000D02*
X101935000Y-90090000D01*
X101935000Y-87490000D02*
X104595000Y-87490000D01*
X101935000Y-90090000D02*
X104595000Y-90090000D01*
X104595000Y-87490000D02*
X104595000Y-90090000D01*
%TO.C,J1*%
D10*
X76595000Y-98285000D02*
X81675000Y-98285000D01*
X81675000Y-88125000D01*
X76595000Y-88125000D01*
X76595000Y-98285000D01*
D13*
%TO.C,Q2*%
X128556323Y-55034198D02*
X131838006Y-58315881D01*
X128556323Y-55034198D02*
X135797097Y-47793425D01*
X129624055Y-56101930D02*
X136864828Y-48861156D01*
X130868563Y-52721959D02*
X131936294Y-53789690D01*
X131838006Y-58315881D02*
X139078779Y-51075107D01*
X133485565Y-50104957D02*
X134553296Y-51172688D01*
X135797097Y-47793425D02*
X139078779Y-51075107D01*
%TO.C,J14*%
X97285000Y-84890000D02*
X98615000Y-84890000D01*
X97285000Y-86220000D02*
X97285000Y-84890000D01*
X97285000Y-87490000D02*
X97285000Y-90090000D01*
X97285000Y-87490000D02*
X99945000Y-87490000D01*
X97285000Y-90090000D02*
X99945000Y-90090000D01*
X99945000Y-87490000D02*
X99945000Y-90090000D01*
%TO.C,D7*%
X140770000Y-69169000D02*
X140770000Y-74609000D01*
X140770000Y-74609000D02*
X141100000Y-74609000D01*
X141100000Y-69169000D02*
X140770000Y-69169000D01*
X143380000Y-69169000D02*
X143710000Y-69169000D01*
X143710000Y-69169000D02*
X143710000Y-74609000D01*
X143710000Y-69949000D02*
X140770000Y-69949000D01*
X143710000Y-70069000D02*
X140770000Y-70069000D01*
X143710000Y-70189000D02*
X140770000Y-70189000D01*
X143710000Y-74609000D02*
X143380000Y-74609000D01*
D10*
%TO.C,J4*%
X120650000Y-42037000D02*
X120650000Y-28321000D01*
X121666000Y-29591000D02*
X122174000Y-29083000D01*
X122174000Y-29083000D02*
X121666000Y-29591000D01*
X122174000Y-29083000D02*
X122682000Y-29591000D01*
X122174000Y-32131000D02*
X122174000Y-29083000D01*
X123190000Y-42037000D02*
X123190000Y-28321000D01*
X124206000Y-29591000D02*
X124714000Y-29083000D01*
X124714000Y-29083000D02*
X124206000Y-29591000D01*
X124714000Y-29083000D02*
X125222000Y-29591000D01*
X124714000Y-32131000D02*
X124714000Y-29083000D01*
X125984000Y-42037000D02*
X118110000Y-42037000D01*
X118110000Y-28321000D01*
X125984000Y-28321000D01*
X125984000Y-42037000D01*
D13*
%TO.C,D11*%
X92360000Y-80247000D02*
X92690000Y-80247000D01*
X92360000Y-84667000D02*
X95300000Y-84667000D01*
X92360000Y-84787000D02*
X95300000Y-84787000D01*
X92360000Y-84907000D02*
X95300000Y-84907000D01*
X92360000Y-85687000D02*
X92360000Y-80247000D01*
X92690000Y-85687000D02*
X92360000Y-85687000D01*
X94970000Y-85687000D02*
X95300000Y-85687000D01*
X95300000Y-80247000D02*
X94970000Y-80247000D01*
X95300000Y-85687000D02*
X95300000Y-80247000D01*
%TO.C,Q11*%
X96875000Y-83775000D02*
X96875000Y-79134000D01*
X100144000Y-83775000D02*
X100144000Y-82265000D01*
X103845000Y-83775000D02*
X103845000Y-82265000D01*
X107115000Y-79134000D02*
X96875000Y-79134000D01*
X107115000Y-82265000D02*
X96875000Y-82265000D01*
X107115000Y-83775000D02*
X96875000Y-83775000D01*
X107115000Y-83775000D02*
X107115000Y-79134000D01*
D10*
%TO.C,J8*%
X144708000Y-69215000D02*
X158424000Y-69215000D01*
X144708000Y-71755000D02*
X158424000Y-71755000D01*
X154614000Y-70739000D02*
X157662000Y-70739000D01*
X154614000Y-73279000D02*
X157662000Y-73279000D01*
X157154000Y-70231000D02*
X157662000Y-70739000D01*
X157154000Y-72771000D02*
X157662000Y-73279000D01*
X157662000Y-70739000D02*
X157154000Y-70231000D01*
X157662000Y-70739000D02*
X157154000Y-71247000D01*
X157662000Y-73279000D02*
X157154000Y-72771000D01*
X157662000Y-73279000D02*
X157154000Y-73787000D01*
X144708000Y-74549000D02*
X158424000Y-74549000D01*
X158424000Y-66675000D01*
X144708000Y-66675000D01*
X144708000Y-74549000D01*
%TO.C,J2*%
X138063000Y-93205000D02*
X151779000Y-93205000D01*
X138063000Y-95745000D02*
X151779000Y-95745000D01*
X147969000Y-94729000D02*
X151017000Y-94729000D01*
X147969000Y-97269000D02*
X151017000Y-97269000D01*
X150509000Y-94221000D02*
X151017000Y-94729000D01*
X150509000Y-96761000D02*
X151017000Y-97269000D01*
X151017000Y-94729000D02*
X150509000Y-94221000D01*
X151017000Y-94729000D02*
X150509000Y-95237000D01*
X151017000Y-97269000D02*
X150509000Y-96761000D01*
X151017000Y-97269000D02*
X150509000Y-97777000D01*
X138063000Y-98539000D02*
X151779000Y-98539000D01*
X151779000Y-90665000D01*
X138063000Y-90665000D01*
X138063000Y-98539000D01*
D13*
%TO.C,D1*%
X140535000Y-100990000D02*
X145975000Y-100990000D01*
X140535000Y-101320000D02*
X140535000Y-100990000D01*
X140535000Y-103600000D02*
X140535000Y-103930000D01*
X140535000Y-103930000D02*
X145975000Y-103930000D01*
X141315000Y-100990000D02*
X141315000Y-103930000D01*
X141435000Y-100990000D02*
X141435000Y-103930000D01*
X141555000Y-100990000D02*
X141555000Y-103930000D01*
X145975000Y-100990000D02*
X145975000Y-101320000D01*
X145975000Y-103930000D02*
X145975000Y-103600000D01*
%TO.C,Q3*%
X119590590Y-54541363D02*
X122872273Y-57823046D01*
X119590590Y-54541363D02*
X126831364Y-47300590D01*
X120658322Y-55609095D02*
X127899095Y-48368321D01*
X121902830Y-52229124D02*
X122970561Y-53296855D01*
X122872273Y-57823046D02*
X130113046Y-50582272D01*
X124519832Y-49612122D02*
X125587563Y-50679853D01*
X126831364Y-47300590D02*
X130113046Y-50582272D01*
%TO.C,BZ1*%
X147175000Y-128180000D02*
X150175000Y-128180000D01*
X150175000Y-122180000D02*
X147175000Y-122180000D01*
X150175000Y-128180000D02*
X150175000Y-122180000D01*
X147675000Y-125180000D02*
G75*
G02*
X138675000Y-125180000I-4500000J0D01*
G01*
X138675000Y-125180000D02*
G75*
G02*
X147675000Y-125180000I4500000J0D01*
G01*
X148175000Y-125180000D02*
G75*
G02*
X138175000Y-125180000I-5000000J0D01*
G01*
X138175000Y-125180000D02*
G75*
G02*
X148175000Y-125180000I5000000J0D01*
G01*
%TO.C,Q8*%
X96874999Y-64090000D02*
X96874999Y-59449001D01*
X100143999Y-64090000D02*
X100143999Y-62580000D01*
X103844999Y-64090000D02*
X103844999Y-62580000D01*
X107114999Y-59449000D02*
X96874999Y-59449001D01*
X107114999Y-62579999D02*
X96874999Y-62580000D01*
X107114999Y-64090000D02*
X96874999Y-64090000D01*
X107114999Y-64090000D02*
X107114999Y-59449000D01*
D10*
%TO.C,J6*%
X102702000Y-42037000D02*
X102702000Y-28321000D01*
X103718000Y-29591000D02*
X104226000Y-29083000D01*
X104226000Y-29083000D02*
X103718000Y-29591000D01*
X104226000Y-29083000D02*
X104734000Y-29591000D01*
X104226000Y-32131000D02*
X104226000Y-29083000D01*
X105242000Y-42037000D02*
X105242000Y-28321000D01*
X106258000Y-29591000D02*
X106766000Y-29083000D01*
X106766000Y-29083000D02*
X106258000Y-29591000D01*
X106766000Y-29083000D02*
X107274000Y-29591000D01*
X106766000Y-32131000D02*
X106766000Y-29083000D01*
X108036000Y-42037000D02*
X100162000Y-42037000D01*
X100162000Y-28321000D01*
X108036000Y-28321000D01*
X108036000Y-42037000D01*
D13*
%TO.C,Q9*%
X96874999Y-70440000D02*
X96874999Y-65799000D01*
X100143999Y-70440000D02*
X100143999Y-68930000D01*
X103844999Y-70440000D02*
X103844999Y-68930000D01*
X107114999Y-65799000D02*
X96874999Y-65799000D01*
X107114999Y-68930000D02*
X96874999Y-68930000D01*
X107114999Y-70440000D02*
X96874999Y-70440000D01*
X107114999Y-70440000D02*
X107114999Y-65799000D01*
%TO.C,Q6*%
X129260000Y-78180000D02*
X129260000Y-82821000D01*
X129260000Y-78180000D02*
X139500000Y-78180000D01*
X129260000Y-79690000D02*
X139500000Y-79690000D01*
X129260000Y-82821000D02*
X139500000Y-82821000D01*
X132530000Y-78180000D02*
X132530000Y-79690000D01*
X136231000Y-78180000D02*
X136231000Y-79690000D01*
X139500000Y-78180000D02*
X139500000Y-82821000D01*
D10*
%TO.C,J15*%
X144589000Y-51328000D02*
X158305000Y-51328000D01*
X144589000Y-53868000D02*
X158305000Y-53868000D01*
X154495000Y-52852000D02*
X157543000Y-52852000D01*
X154495000Y-55392000D02*
X157543000Y-55392000D01*
X157035000Y-52344000D02*
X157543000Y-52852000D01*
X157035000Y-54884000D02*
X157543000Y-55392000D01*
X157543000Y-52852000D02*
X157035000Y-52344000D01*
X157543000Y-52852000D02*
X157035000Y-53360000D01*
X157543000Y-55392000D02*
X157035000Y-54884000D01*
X157543000Y-55392000D02*
X157035000Y-55900000D01*
X144589000Y-56662000D02*
X158305000Y-56662000D01*
X158305000Y-48788000D01*
X144589000Y-48788000D01*
X144589000Y-56662000D01*
D13*
%TO.C,D6*%
X140770000Y-79669000D02*
X140770000Y-85109000D01*
X140770000Y-85109000D02*
X141100000Y-85109000D01*
X141100000Y-79669000D02*
X140770000Y-79669000D01*
X143380000Y-79669000D02*
X143710000Y-79669000D01*
X143710000Y-79669000D02*
X143710000Y-85109000D01*
X143710000Y-80449000D02*
X140770000Y-80449000D01*
X143710000Y-80569000D02*
X140770000Y-80569000D01*
X143710000Y-80689000D02*
X140770000Y-80689000D01*
X143710000Y-85109000D02*
X143380000Y-85109000D01*
%TO.C,Q5*%
X107328779Y-54689892D02*
X100088005Y-47449119D01*
X105114828Y-56903843D02*
X97874054Y-49663070D01*
X104047096Y-57971575D02*
X107328779Y-54689892D01*
X104047096Y-57971575D02*
X96806323Y-50730801D01*
X101734857Y-55659335D02*
X102802588Y-54591604D01*
X99117855Y-53042333D02*
X100185586Y-51974602D01*
X96806323Y-50730801D02*
X100088005Y-47449119D01*
%TO.C,Q1*%
X138205000Y-106670000D02*
X138205000Y-111311000D01*
X138205000Y-106670000D02*
X148445000Y-106670000D01*
X138205000Y-108180000D02*
X148445000Y-108180000D01*
X138205000Y-111311000D02*
X148445000Y-111311000D01*
X141475000Y-106670000D02*
X141475000Y-108180000D01*
X145176000Y-106670000D02*
X145176000Y-108180000D01*
X148445000Y-106670000D02*
X148445000Y-111311000D01*
%TO.C,D13*%
X140770000Y-47979000D02*
X140770000Y-53419000D01*
X140770000Y-53419000D02*
X141100000Y-53419000D01*
X141100000Y-47979000D02*
X140770000Y-47979000D01*
X143380000Y-47979000D02*
X143710000Y-47979000D01*
X143710000Y-47979000D02*
X143710000Y-53419000D01*
X143710000Y-48759000D02*
X140770000Y-48759000D01*
X143710000Y-48879000D02*
X140770000Y-48879000D01*
X143710000Y-48999000D02*
X140770000Y-48999000D01*
X143710000Y-53419000D02*
X143380000Y-53419000D01*
%TO.C,Q13*%
X129260000Y-59765000D02*
X129260000Y-64406000D01*
X129260000Y-59765000D02*
X139500000Y-59765000D01*
X129260000Y-61275000D02*
X139500000Y-61275000D01*
X129260000Y-64406000D02*
X139500000Y-64406000D01*
X132530000Y-59765000D02*
X132530000Y-61275000D01*
X136231000Y-59765000D02*
X136231000Y-61275000D01*
X139500000Y-59765000D02*
X139500000Y-64406000D01*
%TO.C,Q10*%
X96875000Y-77425000D02*
X96875000Y-72784000D01*
X100144000Y-77425000D02*
X100144000Y-75915000D01*
X103845000Y-77425000D02*
X103845000Y-75915000D01*
X107115000Y-72784000D02*
X96875000Y-72784000D01*
X107115000Y-75915000D02*
X96875000Y-75915000D01*
X107115000Y-77425000D02*
X96875000Y-77425000D01*
X107115000Y-77425000D02*
X107115000Y-72784000D01*
D10*
%TO.C,J7*%
X144708000Y-78189000D02*
X158424000Y-78189000D01*
X144708000Y-80729000D02*
X158424000Y-80729000D01*
X154614000Y-79713000D02*
X157662000Y-79713000D01*
X154614000Y-82253000D02*
X157662000Y-82253000D01*
X157154000Y-79205000D02*
X157662000Y-79713000D01*
X157154000Y-81745000D02*
X157662000Y-82253000D01*
X157662000Y-79713000D02*
X157154000Y-79205000D01*
X157662000Y-79713000D02*
X157154000Y-80221000D01*
X157662000Y-82253000D02*
X157154000Y-81745000D01*
X157662000Y-82253000D02*
X157154000Y-82761000D01*
X144708000Y-83523000D02*
X158424000Y-83523000D01*
X158424000Y-75649000D01*
X144708000Y-75649000D01*
X144708000Y-83523000D01*
D13*
%TO.C,Q4*%
X118649830Y-54580943D02*
X111409056Y-47340170D01*
X116435879Y-56794894D02*
X109195105Y-49554121D01*
X115368147Y-57862626D02*
X118649830Y-54580943D01*
X115368147Y-57862626D02*
X108127374Y-50621852D01*
X113055908Y-55550386D02*
X114123639Y-54482655D01*
X110438906Y-52933384D02*
X111506637Y-51865653D01*
X108127374Y-50621852D02*
X111409056Y-47340170D01*
D10*
%TO.C,J12*%
X77978000Y-77851000D02*
X78486000Y-77343000D01*
X77978000Y-77851000D02*
X78486000Y-78359000D01*
X77978000Y-80391000D02*
X78486000Y-79883000D01*
X77978000Y-80391000D02*
X78486000Y-80899000D01*
X78486000Y-78359000D02*
X77978000Y-77851000D01*
X78486000Y-80899000D02*
X77978000Y-80391000D01*
X81026000Y-77851000D02*
X77978000Y-77851000D01*
X81026000Y-80391000D02*
X77978000Y-80391000D01*
X90932000Y-79375000D02*
X77216000Y-79375000D01*
X90932000Y-81915000D02*
X77216000Y-81915000D01*
X90932000Y-76581000D02*
X77216000Y-76581000D01*
X77216000Y-84455000D01*
X90932000Y-84455000D01*
X90932000Y-76581000D01*
D13*
%TO.C,D8*%
X92360000Y-48127000D02*
X92690000Y-48127000D01*
X92360000Y-52547000D02*
X95300000Y-52547000D01*
X92360000Y-52667000D02*
X95300000Y-52667000D01*
X92360000Y-52787000D02*
X95300000Y-52787000D01*
X92360000Y-53567000D02*
X92360000Y-48127000D01*
X92690000Y-53567000D02*
X92360000Y-53567000D01*
X94970000Y-53567000D02*
X95300000Y-53567000D01*
X95300000Y-48127000D02*
X94970000Y-48127000D01*
X95300000Y-53567000D02*
X95300000Y-48127000D01*
D10*
%TO.C,J11*%
X77978000Y-68877000D02*
X78486000Y-68369000D01*
X77978000Y-68877000D02*
X78486000Y-69385000D01*
X77978000Y-71417000D02*
X78486000Y-70909000D01*
X77978000Y-71417000D02*
X78486000Y-71925000D01*
X78486000Y-69385000D02*
X77978000Y-68877000D01*
X78486000Y-71925000D02*
X77978000Y-71417000D01*
X81026000Y-68877000D02*
X77978000Y-68877000D01*
X81026000Y-71417000D02*
X77978000Y-71417000D01*
X90932000Y-70401000D02*
X77216000Y-70401000D01*
X90932000Y-72941000D02*
X77216000Y-72941000D01*
X90932000Y-67607000D02*
X77216000Y-67607000D01*
X77216000Y-75481000D01*
X90932000Y-75481000D01*
X90932000Y-67607000D01*
%TD*%
D16*
X88065000Y-94475000D03*
X90565000Y-94475000D03*
X109895000Y-154305000D03*
X117395000Y-154305000D03*
X142240000Y-57579000D03*
X142240000Y-65199000D03*
X146621000Y-64112000D03*
X151701000Y-64112000D03*
X146621000Y-61572000D03*
X151701000Y-61572000D03*
X93830000Y-76277000D03*
X93830000Y-68657000D03*
X128905000Y-130175000D03*
X128905000Y-127635000D03*
X128905000Y-125095000D03*
X128905000Y-122555000D03*
X128905000Y-120015000D03*
X128905000Y-117475000D03*
X128905000Y-114935000D03*
X128905000Y-112395000D03*
X128905000Y-109855000D03*
X128905000Y-107315000D03*
X128905000Y-104775000D03*
X128905000Y-102235000D03*
X128905000Y-99695000D03*
X128905000Y-97155000D03*
X128905000Y-94615000D03*
X128905000Y-92075000D03*
X108585000Y-92075000D03*
X108585000Y-94615000D03*
X108585000Y-97155000D03*
X108585000Y-99695000D03*
X108585000Y-102235000D03*
X108585000Y-104775000D03*
X108585000Y-107315000D03*
X108585000Y-109855000D03*
X108585000Y-112395000D03*
X108585000Y-114935000D03*
X108585000Y-117475000D03*
X108585000Y-120015000D03*
X98820000Y-99330000D03*
X98820000Y-94250000D03*
X93830000Y-65657000D03*
X93830000Y-58037000D03*
X81040000Y-155435000D03*
X88660000Y-155435000D03*
X96280000Y-155435000D03*
X96280000Y-104635000D03*
X88660000Y-104635000D03*
X84850000Y-104635000D03*
X81040000Y-104635000D03*
X108927000Y-44956000D03*
X116547000Y-44956000D03*
X119427000Y-44956000D03*
X127047000Y-44956000D03*
X133434000Y-40005000D03*
X133434000Y-34925000D03*
X130894000Y-40005000D03*
X130894000Y-34925000D03*
X88900000Y-60157000D03*
X83820000Y-60157000D03*
X88900000Y-62697000D03*
X83820000Y-62697000D03*
X115486000Y-40005000D03*
X115486000Y-34925000D03*
X112946000Y-40005000D03*
X112946000Y-34925000D03*
X131840000Y-75425000D03*
X134380000Y-75425000D03*
X136920000Y-75425000D03*
X131840000Y-69075000D03*
X134380000Y-69075000D03*
X136920000Y-69075000D03*
X98427000Y-44956000D03*
X106047000Y-44956000D03*
X88900000Y-51183000D03*
X83820000Y-51183000D03*
X88900000Y-53723000D03*
X83820000Y-53723000D03*
X103505000Y-92075000D03*
X103505000Y-94615000D03*
X103505000Y-97155000D03*
X103505000Y-99695000D03*
X103505000Y-102235000D03*
X103505000Y-104775000D03*
X103505000Y-107315000D03*
X103505000Y-109855000D03*
X103505000Y-112395000D03*
X103505000Y-114935000D03*
X103505000Y-117475000D03*
X103505000Y-120015000D03*
X129927000Y-44956000D03*
X137547000Y-44956000D03*
X103265000Y-86220000D03*
X103265000Y-88760000D03*
X79135000Y-95745000D03*
X79135000Y-93205000D03*
X79135000Y-90665000D03*
X132692898Y-55522102D03*
X134488949Y-53726051D03*
X136285000Y-51930000D03*
X98615000Y-86220000D03*
X98615000Y-88760000D03*
X133985000Y-130175000D03*
X133985000Y-127635000D03*
X133985000Y-125095000D03*
X133985000Y-122555000D03*
X133985000Y-120015000D03*
X133985000Y-117475000D03*
X133985000Y-114935000D03*
X133985000Y-112395000D03*
X133985000Y-109855000D03*
X133985000Y-107315000D03*
X133985000Y-104775000D03*
X133985000Y-102235000D03*
X133985000Y-99695000D03*
X133985000Y-97155000D03*
X133985000Y-94615000D03*
X133985000Y-92075000D03*
X142240000Y-68079000D03*
X142240000Y-75699000D03*
X124460000Y-40005000D03*
X124460000Y-34925000D03*
X121920000Y-40005000D03*
X121920000Y-34925000D03*
X93830000Y-86777000D03*
X93830000Y-79157000D03*
X104535000Y-80505000D03*
X101995000Y-80505000D03*
X99455000Y-80505000D03*
X146740000Y-73025000D03*
X151820000Y-73025000D03*
X146740000Y-70485000D03*
X151820000Y-70485000D03*
X140095000Y-97015000D03*
X145175000Y-97015000D03*
X140095000Y-94475000D03*
X145175000Y-94475000D03*
X139445000Y-102460000D03*
X147065000Y-102460000D03*
X123727165Y-55029267D03*
X125523216Y-53233216D03*
X127319267Y-51437165D03*
X145175000Y-125180000D03*
X141175000Y-125180000D03*
X104534999Y-60820000D03*
X101994999Y-60820000D03*
X99455000Y-60820000D03*
X106512000Y-40005000D03*
X106512000Y-34925000D03*
X103972000Y-40005000D03*
X103972000Y-34925000D03*
X104534999Y-67170000D03*
X101994999Y-67170000D03*
X99454999Y-67170000D03*
X131840000Y-81450000D03*
X134380000Y-81450000D03*
X136920000Y-81450000D03*
X146621000Y-55138000D03*
X151701000Y-55138000D03*
X146621000Y-52598000D03*
X151701000Y-52598000D03*
X142240000Y-78579000D03*
X142240000Y-86199000D03*
X100942898Y-50242898D03*
X102738949Y-52038949D03*
X104535000Y-53835000D03*
X140785000Y-109940000D03*
X143325000Y-109940000D03*
X145865000Y-109940000D03*
X142240000Y-46889000D03*
X142240000Y-54509000D03*
X131840000Y-63035000D03*
X134380000Y-63035000D03*
X136920000Y-63035000D03*
X104535000Y-74155000D03*
X101995000Y-74155000D03*
X99455000Y-74155000D03*
X146740000Y-81999000D03*
X151820000Y-81999000D03*
X146740000Y-79459000D03*
X151820000Y-79459000D03*
X112263949Y-50133949D03*
X114060000Y-51930000D03*
X115856051Y-53726051D03*
X88900000Y-78105000D03*
X83820000Y-78105000D03*
X88900000Y-80645000D03*
X83820000Y-80645000D03*
X93830000Y-54657000D03*
X93830000Y-47037000D03*
X88900000Y-69131000D03*
X83820000Y-69131000D03*
X88900000Y-71671000D03*
X83820000Y-71671000D03*
M02*
